%TF.GenerationSoftware,KiCad,Pcbnew,(5.1.9)-1*%
%TF.CreationDate,2021-11-29T08:04:12-06:00*%
%TF.ProjectId,chrimbus2021,63687269-6d62-4757-9332-3032312e6b69,rev?*%
%TF.SameCoordinates,Original*%
%TF.FileFunction,Copper,L2,Bot*%
%TF.FilePolarity,Positive*%
%FSLAX46Y46*%
G04 Gerber Fmt 4.6, Leading zero omitted, Abs format (unit mm)*
G04 Created by KiCad (PCBNEW (5.1.9)-1) date 2021-11-29 08:04:12*
%MOMM*%
%LPD*%
G01*
G04 APERTURE LIST*
%TA.AperFunction,EtchedComponent*%
%ADD10C,0.010000*%
%TD*%
%TA.AperFunction,ViaPad*%
%ADD11C,0.800000*%
%TD*%
%TA.AperFunction,Conductor*%
%ADD12C,0.250000*%
%TD*%
G04 APERTURE END LIST*
D10*
%TO.C,G\u002A\u002A\u002A*%
G36*
X109370160Y-92449188D02*
G01*
X102892906Y-92462108D01*
X102778316Y-92894773D01*
X102542490Y-93894537D01*
X102344347Y-94960413D01*
X102187716Y-96062501D01*
X102076430Y-97170902D01*
X102014319Y-98255716D01*
X102002124Y-98952088D01*
X102023748Y-99878419D01*
X102086409Y-100846621D01*
X102186791Y-101830920D01*
X102321578Y-102805542D01*
X102487453Y-103744712D01*
X102681101Y-104622657D01*
X102781476Y-105009403D01*
X102899966Y-105442068D01*
X109373690Y-105454988D01*
X115847415Y-105467907D01*
X115847415Y-92436269D01*
X109370160Y-92449188D01*
G37*
X109370160Y-92449188D02*
X102892906Y-92462108D01*
X102778316Y-92894773D01*
X102542490Y-93894537D01*
X102344347Y-94960413D01*
X102187716Y-96062501D01*
X102076430Y-97170902D01*
X102014319Y-98255716D01*
X102002124Y-98952088D01*
X102023748Y-99878419D01*
X102086409Y-100846621D01*
X102186791Y-101830920D01*
X102321578Y-102805542D01*
X102487453Y-103744712D01*
X102681101Y-104622657D01*
X102781476Y-105009403D01*
X102899966Y-105442068D01*
X109373690Y-105454988D01*
X115847415Y-105467907D01*
X115847415Y-92436269D01*
X109370160Y-92449188D01*
G36*
X92590481Y-98956037D02*
G01*
X92590067Y-99681667D01*
X92590000Y-100378000D01*
X92590264Y-101038360D01*
X92590840Y-101656075D01*
X92591712Y-102224469D01*
X92592862Y-102736867D01*
X92594272Y-103186597D01*
X92595926Y-103566982D01*
X92597806Y-103871349D01*
X92599894Y-104093023D01*
X92602174Y-104225331D01*
X92604282Y-104262550D01*
X92631891Y-104219516D01*
X92691805Y-104103541D01*
X92774100Y-103934317D01*
X92835745Y-103803262D01*
X93106022Y-103151599D01*
X93347170Y-102431370D01*
X93550746Y-101673687D01*
X93708310Y-100909665D01*
X93805082Y-100230589D01*
X93856074Y-99485427D01*
X93856697Y-98687322D01*
X93808823Y-97870709D01*
X93714324Y-97070023D01*
X93598313Y-96425684D01*
X93504929Y-96042754D01*
X93380356Y-95611888D01*
X93235126Y-95164355D01*
X93079771Y-94731421D01*
X92924824Y-94344355D01*
X92817495Y-94107641D01*
X92594748Y-93649524D01*
X92590481Y-98956037D01*
G37*
X92590481Y-98956037D02*
X92590067Y-99681667D01*
X92590000Y-100378000D01*
X92590264Y-101038360D01*
X92590840Y-101656075D01*
X92591712Y-102224469D01*
X92592862Y-102736867D01*
X92594272Y-103186597D01*
X92595926Y-103566982D01*
X92597806Y-103871349D01*
X92599894Y-104093023D01*
X92602174Y-104225331D01*
X92604282Y-104262550D01*
X92631891Y-104219516D01*
X92691805Y-104103541D01*
X92774100Y-103934317D01*
X92835745Y-103803262D01*
X93106022Y-103151599D01*
X93347170Y-102431370D01*
X93550746Y-101673687D01*
X93708310Y-100909665D01*
X93805082Y-100230589D01*
X93856074Y-99485427D01*
X93856697Y-98687322D01*
X93808823Y-97870709D01*
X93714324Y-97070023D01*
X93598313Y-96425684D01*
X93504929Y-96042754D01*
X93380356Y-95611888D01*
X93235126Y-95164355D01*
X93079771Y-94731421D01*
X92924824Y-94344355D01*
X92817495Y-94107641D01*
X92594748Y-93649524D01*
X92590481Y-98956037D01*
%TD*%
D11*
%TO.N,GND*%
X123952000Y-118364000D03*
X123952000Y-120904000D03*
X122428000Y-114300000D03*
X125476000Y-112268000D03*
X128778000Y-110998000D03*
X60833000Y-98298000D03*
X65024000Y-98425000D03*
X143510000Y-122936000D03*
X147066000Y-126492000D03*
%TO.N,+3V3*%
X128270000Y-114554000D03*
X128270000Y-113030000D03*
%TD*%
D12*
%TO.N,GND*%
X123952000Y-118364000D02*
X123952000Y-120904000D01*
X123952000Y-115824000D02*
X122428000Y-114300000D01*
X123952000Y-118364000D02*
X123952000Y-115824000D01*
X127508000Y-112268000D02*
X128778000Y-110998000D01*
X125476000Y-112268000D02*
X127508000Y-112268000D01*
X64897000Y-98298000D02*
X65024000Y-98425000D01*
X60833000Y-98298000D02*
X64897000Y-98298000D01*
X143510000Y-122936000D02*
X147066000Y-126492000D01*
X147066000Y-126492000D02*
X147066000Y-126492000D01*
%TO.N,+3V3*%
X128270000Y-114554000D02*
X128270000Y-113030000D01*
%TD*%
M02*
