%TF.GenerationSoftware,KiCad,Pcbnew,(5.1.9)-1*%
%TF.CreationDate,2021-11-29T08:04:12-06:00*%
%TF.ProjectId,chrimbus2021,63687269-6d62-4757-9332-3032312e6b69,rev?*%
%TF.SameCoordinates,Original*%
%TF.FileFunction,Soldermask,Bot*%
%TF.FilePolarity,Negative*%
%FSLAX46Y46*%
G04 Gerber Fmt 4.6, Leading zero omitted, Abs format (unit mm)*
G04 Created by KiCad (PCBNEW (5.1.9)-1) date 2021-11-29 08:04:12*
%MOMM*%
%LPD*%
G01*
G04 APERTURE LIST*
%ADD10C,0.100000*%
%ADD11C,0.010000*%
%ADD12C,0.900000*%
%ADD13C,0.990600*%
%ADD14C,3.700000*%
G04 APERTURE END LIST*
D10*
%TO.C,G\u002A\u002A\u002A*%
G36*
X92640000Y-105448000D02*
G01*
X115760000Y-105448000D01*
X115720000Y-105408000D01*
X115760000Y-105408000D01*
X115760000Y-92528000D01*
X92640000Y-92528000D01*
X92640000Y-105448000D01*
G37*
X92640000Y-105448000D02*
X115760000Y-105448000D01*
X115720000Y-105408000D01*
X115760000Y-105408000D01*
X115760000Y-92528000D01*
X92640000Y-92528000D01*
X92640000Y-105448000D01*
D11*
G36*
X82163510Y-93518633D02*
G01*
X81659078Y-93567863D01*
X81173130Y-93656773D01*
X80737104Y-93781637D01*
X80546592Y-93856850D01*
X80320322Y-93956940D01*
X80544008Y-94354815D01*
X80645848Y-94539249D01*
X80727593Y-94693443D01*
X80776688Y-94793449D01*
X80784609Y-94813736D01*
X80749983Y-94855896D01*
X80649382Y-94936648D01*
X80503007Y-95042578D01*
X80331062Y-95160268D01*
X80153747Y-95276302D01*
X79991265Y-95377265D01*
X79863818Y-95449739D01*
X79791607Y-95480309D01*
X79783219Y-95478763D01*
X79756270Y-95431178D01*
X79691841Y-95313759D01*
X79600752Y-95146292D01*
X79531964Y-95019216D01*
X79290904Y-94573119D01*
X79101215Y-94723355D01*
X78745072Y-95052279D01*
X78397929Y-95460892D01*
X78074463Y-95927237D01*
X77789347Y-96429358D01*
X77557258Y-96945298D01*
X77486341Y-97139469D01*
X77437005Y-97301648D01*
X77380751Y-97512919D01*
X77323970Y-97745656D01*
X77273053Y-97972229D01*
X77234390Y-98165011D01*
X77214371Y-98296373D01*
X77212946Y-98321438D01*
X77260254Y-98329762D01*
X77387813Y-98336365D01*
X77574074Y-98340408D01*
X77721964Y-98341266D01*
X78230982Y-98341266D01*
X78230982Y-99562910D01*
X77721964Y-99562910D01*
X77508284Y-99564752D01*
X77338776Y-99569721D01*
X77234988Y-99576977D01*
X77212946Y-99582737D01*
X77225513Y-99688642D01*
X77258963Y-99865137D01*
X77306917Y-100084725D01*
X77362996Y-100319910D01*
X77420822Y-100543197D01*
X77474016Y-100727088D01*
X77489257Y-100773826D01*
X77691099Y-101270280D01*
X77955009Y-101770902D01*
X78264462Y-102250577D01*
X78602930Y-102684190D01*
X78953888Y-103046626D01*
X79027095Y-103110889D01*
X79288739Y-103333239D01*
X79529391Y-102886050D01*
X79632147Y-102695996D01*
X79715824Y-102542908D01*
X79769500Y-102446668D01*
X79783157Y-102423986D01*
X79828888Y-102443108D01*
X79943702Y-102506173D01*
X80110260Y-102603310D01*
X80310896Y-102724446D01*
X80825521Y-103039782D01*
X80614779Y-103426496D01*
X80513054Y-103610182D01*
X80425275Y-103763318D01*
X80365988Y-103860710D01*
X80354700Y-103876914D01*
X80364321Y-103935627D01*
X80466131Y-104008119D01*
X80652031Y-104090663D01*
X80913925Y-104179532D01*
X81168956Y-104251690D01*
X81494143Y-104315651D01*
X81883949Y-104358726D01*
X82303112Y-104379723D01*
X82716370Y-104377450D01*
X83088461Y-104350714D01*
X83274909Y-104322887D01*
X83448008Y-104284039D01*
X83659799Y-104227863D01*
X83885628Y-104162004D01*
X84100845Y-104094108D01*
X84280798Y-104031821D01*
X84400833Y-103982789D01*
X84432995Y-103963703D01*
X84417740Y-103915429D01*
X84362563Y-103798206D01*
X84277179Y-103631964D01*
X84213064Y-103512526D01*
X84114582Y-103321709D01*
X84042683Y-103162509D01*
X84006651Y-103056675D01*
X84006162Y-103027750D01*
X84060876Y-102981736D01*
X84180541Y-102899881D01*
X84341599Y-102796642D01*
X84520491Y-102686475D01*
X84693657Y-102583835D01*
X84837537Y-102503180D01*
X84928574Y-102458966D01*
X84938269Y-102455794D01*
X84989603Y-102490706D01*
X85074614Y-102600962D01*
X85181899Y-102770628D01*
X85252536Y-102894896D01*
X85502408Y-103350932D01*
X85957649Y-102894896D01*
X86406388Y-102395116D01*
X86774338Y-101869993D01*
X87063049Y-101331498D01*
X87189873Y-101028956D01*
X87312083Y-100679177D01*
X87418045Y-100320251D01*
X87496126Y-99990266D01*
X87525278Y-99818075D01*
X87559127Y-99562910D01*
X86527976Y-99562910D01*
X86527976Y-98341266D01*
X87559127Y-98341266D01*
X87525278Y-98086101D01*
X87435045Y-97636858D01*
X87284048Y-97147724D01*
X87085050Y-96649225D01*
X86850812Y-96171884D01*
X86594095Y-95746225D01*
X86480835Y-95587820D01*
X86321198Y-95392945D01*
X86121249Y-95170928D01*
X85917313Y-94961644D01*
X85861533Y-94908008D01*
X85496662Y-94563807D01*
X85249663Y-95014561D01*
X85135214Y-95210809D01*
X85036004Y-95357342D01*
X84963581Y-95438076D01*
X84938269Y-95448382D01*
X84860464Y-95413080D01*
X84725159Y-95338481D01*
X84555912Y-95239040D01*
X84376285Y-95129214D01*
X84209834Y-95023459D01*
X84080121Y-94936232D01*
X84010703Y-94881989D01*
X84006162Y-94876426D01*
X84015907Y-94813178D01*
X84067096Y-94683728D01*
X84150377Y-94510096D01*
X84208345Y-94400306D01*
X84308599Y-94213643D01*
X84387167Y-94062132D01*
X84433317Y-93966753D01*
X84441002Y-93945541D01*
X84394915Y-93913886D01*
X84270460Y-93864869D01*
X84088340Y-93804545D01*
X83869261Y-93738966D01*
X83633928Y-93674185D01*
X83403046Y-93616255D01*
X83197320Y-93571229D01*
X83102072Y-93554107D01*
X82654988Y-93512806D01*
X82163510Y-93518633D01*
G37*
X82163510Y-93518633D02*
X81659078Y-93567863D01*
X81173130Y-93656773D01*
X80737104Y-93781637D01*
X80546592Y-93856850D01*
X80320322Y-93956940D01*
X80544008Y-94354815D01*
X80645848Y-94539249D01*
X80727593Y-94693443D01*
X80776688Y-94793449D01*
X80784609Y-94813736D01*
X80749983Y-94855896D01*
X80649382Y-94936648D01*
X80503007Y-95042578D01*
X80331062Y-95160268D01*
X80153747Y-95276302D01*
X79991265Y-95377265D01*
X79863818Y-95449739D01*
X79791607Y-95480309D01*
X79783219Y-95478763D01*
X79756270Y-95431178D01*
X79691841Y-95313759D01*
X79600752Y-95146292D01*
X79531964Y-95019216D01*
X79290904Y-94573119D01*
X79101215Y-94723355D01*
X78745072Y-95052279D01*
X78397929Y-95460892D01*
X78074463Y-95927237D01*
X77789347Y-96429358D01*
X77557258Y-96945298D01*
X77486341Y-97139469D01*
X77437005Y-97301648D01*
X77380751Y-97512919D01*
X77323970Y-97745656D01*
X77273053Y-97972229D01*
X77234390Y-98165011D01*
X77214371Y-98296373D01*
X77212946Y-98321438D01*
X77260254Y-98329762D01*
X77387813Y-98336365D01*
X77574074Y-98340408D01*
X77721964Y-98341266D01*
X78230982Y-98341266D01*
X78230982Y-99562910D01*
X77721964Y-99562910D01*
X77508284Y-99564752D01*
X77338776Y-99569721D01*
X77234988Y-99576977D01*
X77212946Y-99582737D01*
X77225513Y-99688642D01*
X77258963Y-99865137D01*
X77306917Y-100084725D01*
X77362996Y-100319910D01*
X77420822Y-100543197D01*
X77474016Y-100727088D01*
X77489257Y-100773826D01*
X77691099Y-101270280D01*
X77955009Y-101770902D01*
X78264462Y-102250577D01*
X78602930Y-102684190D01*
X78953888Y-103046626D01*
X79027095Y-103110889D01*
X79288739Y-103333239D01*
X79529391Y-102886050D01*
X79632147Y-102695996D01*
X79715824Y-102542908D01*
X79769500Y-102446668D01*
X79783157Y-102423986D01*
X79828888Y-102443108D01*
X79943702Y-102506173D01*
X80110260Y-102603310D01*
X80310896Y-102724446D01*
X80825521Y-103039782D01*
X80614779Y-103426496D01*
X80513054Y-103610182D01*
X80425275Y-103763318D01*
X80365988Y-103860710D01*
X80354700Y-103876914D01*
X80364321Y-103935627D01*
X80466131Y-104008119D01*
X80652031Y-104090663D01*
X80913925Y-104179532D01*
X81168956Y-104251690D01*
X81494143Y-104315651D01*
X81883949Y-104358726D01*
X82303112Y-104379723D01*
X82716370Y-104377450D01*
X83088461Y-104350714D01*
X83274909Y-104322887D01*
X83448008Y-104284039D01*
X83659799Y-104227863D01*
X83885628Y-104162004D01*
X84100845Y-104094108D01*
X84280798Y-104031821D01*
X84400833Y-103982789D01*
X84432995Y-103963703D01*
X84417740Y-103915429D01*
X84362563Y-103798206D01*
X84277179Y-103631964D01*
X84213064Y-103512526D01*
X84114582Y-103321709D01*
X84042683Y-103162509D01*
X84006651Y-103056675D01*
X84006162Y-103027750D01*
X84060876Y-102981736D01*
X84180541Y-102899881D01*
X84341599Y-102796642D01*
X84520491Y-102686475D01*
X84693657Y-102583835D01*
X84837537Y-102503180D01*
X84928574Y-102458966D01*
X84938269Y-102455794D01*
X84989603Y-102490706D01*
X85074614Y-102600962D01*
X85181899Y-102770628D01*
X85252536Y-102894896D01*
X85502408Y-103350932D01*
X85957649Y-102894896D01*
X86406388Y-102395116D01*
X86774338Y-101869993D01*
X87063049Y-101331498D01*
X87189873Y-101028956D01*
X87312083Y-100679177D01*
X87418045Y-100320251D01*
X87496126Y-99990266D01*
X87525278Y-99818075D01*
X87559127Y-99562910D01*
X86527976Y-99562910D01*
X86527976Y-98341266D01*
X87559127Y-98341266D01*
X87525278Y-98086101D01*
X87435045Y-97636858D01*
X87284048Y-97147724D01*
X87085050Y-96649225D01*
X86850812Y-96171884D01*
X86594095Y-95746225D01*
X86480835Y-95587820D01*
X86321198Y-95392945D01*
X86121249Y-95170928D01*
X85917313Y-94961644D01*
X85861533Y-94908008D01*
X85496662Y-94563807D01*
X85249663Y-95014561D01*
X85135214Y-95210809D01*
X85036004Y-95357342D01*
X84963581Y-95438076D01*
X84938269Y-95448382D01*
X84860464Y-95413080D01*
X84725159Y-95338481D01*
X84555912Y-95239040D01*
X84376285Y-95129214D01*
X84209834Y-95023459D01*
X84080121Y-94936232D01*
X84010703Y-94881989D01*
X84006162Y-94876426D01*
X84015907Y-94813178D01*
X84067096Y-94683728D01*
X84150377Y-94510096D01*
X84208345Y-94400306D01*
X84308599Y-94213643D01*
X84387167Y-94062132D01*
X84433317Y-93966753D01*
X84441002Y-93945541D01*
X84394915Y-93913886D01*
X84270460Y-93864869D01*
X84088340Y-93804545D01*
X83869261Y-93738966D01*
X83633928Y-93674185D01*
X83403046Y-93616255D01*
X83197320Y-93571229D01*
X83102072Y-93554107D01*
X82654988Y-93512806D01*
X82163510Y-93518633D01*
G36*
X125322957Y-93529183D02*
G01*
X125127025Y-93554107D01*
X124944058Y-93589415D01*
X124724503Y-93640970D01*
X124489067Y-93702717D01*
X124258455Y-93768605D01*
X124053372Y-93832578D01*
X123894523Y-93888586D01*
X123802612Y-93930573D01*
X123788096Y-93945541D01*
X123810945Y-93999502D01*
X123872336Y-94121565D01*
X123961535Y-94290747D01*
X124020752Y-94400306D01*
X124118273Y-94588754D01*
X124189427Y-94744931D01*
X124224768Y-94847023D01*
X124225278Y-94872636D01*
X124170949Y-94917972D01*
X124050840Y-94998958D01*
X123887506Y-95100639D01*
X123827191Y-95136642D01*
X123641339Y-95247069D01*
X123477623Y-95345527D01*
X123365093Y-95414512D01*
X123347792Y-95425469D01*
X123296397Y-95452256D01*
X123251466Y-95448066D01*
X123200612Y-95399363D01*
X123131447Y-95292611D01*
X123031584Y-95114273D01*
X122985571Y-95029640D01*
X122732790Y-94563473D01*
X122367742Y-94907841D01*
X122169570Y-95105725D01*
X121964651Y-95328119D01*
X121789285Y-95535175D01*
X121748263Y-95587820D01*
X121485837Y-95982129D01*
X121240444Y-96441147D01*
X121024846Y-96934350D01*
X120851803Y-97431215D01*
X120734077Y-97901216D01*
X120703819Y-98086101D01*
X120669970Y-98341266D01*
X121701122Y-98341266D01*
X121701122Y-99562910D01*
X120669970Y-99562910D01*
X120703819Y-99818075D01*
X120827169Y-100410783D01*
X121035914Y-101014738D01*
X121318932Y-101608801D01*
X121665103Y-102171839D01*
X122063305Y-102682714D01*
X122386746Y-103016442D01*
X122733435Y-103339514D01*
X122985619Y-102874446D01*
X123237803Y-102409379D01*
X123474773Y-102547847D01*
X123718692Y-102693630D01*
X123932713Y-102827673D01*
X124101884Y-102940074D01*
X124211255Y-103020930D01*
X124246212Y-103058810D01*
X124223329Y-103114320D01*
X124161833Y-103237747D01*
X124072454Y-103407964D01*
X124012436Y-103519127D01*
X123914014Y-103704308D01*
X123839870Y-103852763D01*
X123799782Y-103944395D01*
X123796103Y-103963703D01*
X123848955Y-103987099D01*
X123973324Y-104034966D01*
X124144710Y-104097937D01*
X124187059Y-104113163D01*
X124764021Y-104274952D01*
X125383941Y-104368797D01*
X126012465Y-104391849D01*
X126615238Y-104341262D01*
X126723014Y-104323273D01*
X127033218Y-104258278D01*
X127314547Y-104183020D01*
X127553359Y-104102840D01*
X127736014Y-104023075D01*
X127848870Y-103949066D01*
X127878286Y-103886152D01*
X127871703Y-103873668D01*
X127827121Y-103803296D01*
X127748668Y-103668054D01*
X127650628Y-103492766D01*
X127612975Y-103424062D01*
X127400890Y-103034914D01*
X127917343Y-102722497D01*
X128118933Y-102602289D01*
X128285897Y-102506024D01*
X128400857Y-102443491D01*
X128446426Y-102424471D01*
X128474348Y-102472528D01*
X128539449Y-102590470D01*
X128630835Y-102758445D01*
X128699707Y-102886050D01*
X128940359Y-103333239D01*
X129202003Y-103110889D01*
X129553483Y-102766456D01*
X129895919Y-102345609D01*
X130212784Y-101873464D01*
X130487552Y-101375137D01*
X130703697Y-100875742D01*
X130739841Y-100773826D01*
X130790153Y-100608678D01*
X130847172Y-100395191D01*
X130904519Y-100160859D01*
X130955816Y-99933179D01*
X130994685Y-99739647D01*
X131014746Y-99607760D01*
X131016152Y-99582737D01*
X130968844Y-99574414D01*
X130841284Y-99567811D01*
X130655024Y-99563768D01*
X130507134Y-99562910D01*
X129998116Y-99562910D01*
X129998116Y-98341266D01*
X131017355Y-98341266D01*
X130984333Y-98124934D01*
X130844842Y-97481260D01*
X130629040Y-96849243D01*
X130346060Y-96245593D01*
X130005034Y-95687019D01*
X129615093Y-95190233D01*
X129185370Y-94771945D01*
X129124913Y-94722485D01*
X128938884Y-94573665D01*
X128698969Y-95019490D01*
X128596651Y-95208911D01*
X128513748Y-95361047D01*
X128461079Y-95456120D01*
X128448176Y-95477955D01*
X128403071Y-95458379D01*
X128288299Y-95395733D01*
X128121211Y-95299783D01*
X127919160Y-95180291D01*
X127918959Y-95180171D01*
X127400622Y-94869747D01*
X127612841Y-94480356D01*
X127714889Y-94296073D01*
X127802983Y-94142320D01*
X127862652Y-94044171D01*
X127874398Y-94027261D01*
X127878430Y-93975421D01*
X127803557Y-93915722D01*
X127689985Y-93860159D01*
X127283503Y-93715813D01*
X126811887Y-93606761D01*
X126306810Y-93536784D01*
X125799943Y-93509664D01*
X125322957Y-93529183D01*
G37*
X125322957Y-93529183D02*
X125127025Y-93554107D01*
X124944058Y-93589415D01*
X124724503Y-93640970D01*
X124489067Y-93702717D01*
X124258455Y-93768605D01*
X124053372Y-93832578D01*
X123894523Y-93888586D01*
X123802612Y-93930573D01*
X123788096Y-93945541D01*
X123810945Y-93999502D01*
X123872336Y-94121565D01*
X123961535Y-94290747D01*
X124020752Y-94400306D01*
X124118273Y-94588754D01*
X124189427Y-94744931D01*
X124224768Y-94847023D01*
X124225278Y-94872636D01*
X124170949Y-94917972D01*
X124050840Y-94998958D01*
X123887506Y-95100639D01*
X123827191Y-95136642D01*
X123641339Y-95247069D01*
X123477623Y-95345527D01*
X123365093Y-95414512D01*
X123347792Y-95425469D01*
X123296397Y-95452256D01*
X123251466Y-95448066D01*
X123200612Y-95399363D01*
X123131447Y-95292611D01*
X123031584Y-95114273D01*
X122985571Y-95029640D01*
X122732790Y-94563473D01*
X122367742Y-94907841D01*
X122169570Y-95105725D01*
X121964651Y-95328119D01*
X121789285Y-95535175D01*
X121748263Y-95587820D01*
X121485837Y-95982129D01*
X121240444Y-96441147D01*
X121024846Y-96934350D01*
X120851803Y-97431215D01*
X120734077Y-97901216D01*
X120703819Y-98086101D01*
X120669970Y-98341266D01*
X121701122Y-98341266D01*
X121701122Y-99562910D01*
X120669970Y-99562910D01*
X120703819Y-99818075D01*
X120827169Y-100410783D01*
X121035914Y-101014738D01*
X121318932Y-101608801D01*
X121665103Y-102171839D01*
X122063305Y-102682714D01*
X122386746Y-103016442D01*
X122733435Y-103339514D01*
X122985619Y-102874446D01*
X123237803Y-102409379D01*
X123474773Y-102547847D01*
X123718692Y-102693630D01*
X123932713Y-102827673D01*
X124101884Y-102940074D01*
X124211255Y-103020930D01*
X124246212Y-103058810D01*
X124223329Y-103114320D01*
X124161833Y-103237747D01*
X124072454Y-103407964D01*
X124012436Y-103519127D01*
X123914014Y-103704308D01*
X123839870Y-103852763D01*
X123799782Y-103944395D01*
X123796103Y-103963703D01*
X123848955Y-103987099D01*
X123973324Y-104034966D01*
X124144710Y-104097937D01*
X124187059Y-104113163D01*
X124764021Y-104274952D01*
X125383941Y-104368797D01*
X126012465Y-104391849D01*
X126615238Y-104341262D01*
X126723014Y-104323273D01*
X127033218Y-104258278D01*
X127314547Y-104183020D01*
X127553359Y-104102840D01*
X127736014Y-104023075D01*
X127848870Y-103949066D01*
X127878286Y-103886152D01*
X127871703Y-103873668D01*
X127827121Y-103803296D01*
X127748668Y-103668054D01*
X127650628Y-103492766D01*
X127612975Y-103424062D01*
X127400890Y-103034914D01*
X127917343Y-102722497D01*
X128118933Y-102602289D01*
X128285897Y-102506024D01*
X128400857Y-102443491D01*
X128446426Y-102424471D01*
X128474348Y-102472528D01*
X128539449Y-102590470D01*
X128630835Y-102758445D01*
X128699707Y-102886050D01*
X128940359Y-103333239D01*
X129202003Y-103110889D01*
X129553483Y-102766456D01*
X129895919Y-102345609D01*
X130212784Y-101873464D01*
X130487552Y-101375137D01*
X130703697Y-100875742D01*
X130739841Y-100773826D01*
X130790153Y-100608678D01*
X130847172Y-100395191D01*
X130904519Y-100160859D01*
X130955816Y-99933179D01*
X130994685Y-99739647D01*
X131014746Y-99607760D01*
X131016152Y-99582737D01*
X130968844Y-99574414D01*
X130841284Y-99567811D01*
X130655024Y-99563768D01*
X130507134Y-99562910D01*
X129998116Y-99562910D01*
X129998116Y-98341266D01*
X131017355Y-98341266D01*
X130984333Y-98124934D01*
X130844842Y-97481260D01*
X130629040Y-96849243D01*
X130346060Y-96245593D01*
X130005034Y-95687019D01*
X129615093Y-95190233D01*
X129185370Y-94771945D01*
X129124913Y-94722485D01*
X128938884Y-94573665D01*
X128698969Y-95019490D01*
X128596651Y-95208911D01*
X128513748Y-95361047D01*
X128461079Y-95456120D01*
X128448176Y-95477955D01*
X128403071Y-95458379D01*
X128288299Y-95395733D01*
X128121211Y-95299783D01*
X127919160Y-95180291D01*
X127918959Y-95180171D01*
X127400622Y-94869747D01*
X127612841Y-94480356D01*
X127714889Y-94296073D01*
X127802983Y-94142320D01*
X127862652Y-94044171D01*
X127874398Y-94027261D01*
X127878430Y-93975421D01*
X127803557Y-93915722D01*
X127689985Y-93860159D01*
X127283503Y-93715813D01*
X126811887Y-93606761D01*
X126306810Y-93536784D01*
X125799943Y-93509664D01*
X125322957Y-93529183D01*
%TD*%
D12*
%TO.C,SW2*%
X56896000Y-94840000D03*
X56896000Y-88040000D03*
%TD*%
D13*
%TO.C,J1*%
X126746000Y-115824000D03*
X125730000Y-120904000D03*
X127762000Y-120904000D03*
%TD*%
D14*
%TO.C,G\u002A\u002A\u002A*%
X150980000Y-73988000D03*
%TD*%
M02*
