%TF.GenerationSoftware,KiCad,Pcbnew,(5.1.9)-1*%
%TF.CreationDate,2021-11-29T08:04:12-06:00*%
%TF.ProjectId,chrimbus2021,63687269-6d62-4757-9332-3032312e6b69,rev?*%
%TF.SameCoordinates,Original*%
%TF.FileFunction,Copper,L1,Top*%
%TF.FilePolarity,Positive*%
%FSLAX46Y46*%
G04 Gerber Fmt 4.6, Leading zero omitted, Abs format (unit mm)*
G04 Created by KiCad (PCBNEW (5.1.9)-1) date 2021-11-29 08:04:12*
%MOMM*%
%LPD*%
G01*
G04 APERTURE LIST*
%TA.AperFunction,SMDPad,CuDef*%
%ADD10R,1.600000X1.000000*%
%TD*%
%TA.AperFunction,SMDPad,CuDef*%
%ADD11R,0.650000X1.560000*%
%TD*%
%TA.AperFunction,SMDPad,CuDef*%
%ADD12R,1.550000X1.600000*%
%TD*%
%TA.AperFunction,SMDPad,CuDef*%
%ADD13R,3.000000X4.000000*%
%TD*%
%TA.AperFunction,SMDPad,CuDef*%
%ADD14R,1.500000X1.000000*%
%TD*%
%TA.AperFunction,SMDPad,CuDef*%
%ADD15C,0.100000*%
%TD*%
%TA.AperFunction,ConnectorPad*%
%ADD16C,0.787400*%
%TD*%
%TA.AperFunction,SMDPad,CuDef*%
%ADD17R,1.400000X2.600000*%
%TD*%
%TA.AperFunction,SMDPad,CuDef*%
%ADD18R,2.600000X5.560000*%
%TD*%
%TA.AperFunction,SMDPad,CuDef*%
%ADD19C,17.800000*%
%TD*%
%TA.AperFunction,ViaPad*%
%ADD20C,0.800000*%
%TD*%
%TA.AperFunction,Conductor*%
%ADD21C,1.000000*%
%TD*%
%TA.AperFunction,Conductor*%
%ADD22C,3.000000*%
%TD*%
%TA.AperFunction,Conductor*%
%ADD23C,0.250000*%
%TD*%
%TA.AperFunction,Conductor*%
%ADD24C,0.254000*%
%TD*%
%TA.AperFunction,Conductor*%
%ADD25C,0.100000*%
%TD*%
G04 APERTURE END LIST*
%TO.P,C1,2*%
%TO.N,+3V3*%
%TA.AperFunction,SMDPad,CuDef*%
G36*
G01*
X117210000Y-112379999D02*
X117210000Y-113680001D01*
G75*
G02*
X116960001Y-113930000I-249999J0D01*
G01*
X116134999Y-113930000D01*
G75*
G02*
X115885000Y-113680001I0J249999D01*
G01*
X115885000Y-112379999D01*
G75*
G02*
X116134999Y-112130000I249999J0D01*
G01*
X116960001Y-112130000D01*
G75*
G02*
X117210000Y-112379999I0J-249999D01*
G01*
G37*
%TD.AperFunction*%
%TO.P,C1,1*%
%TO.N,GND*%
%TA.AperFunction,SMDPad,CuDef*%
G36*
G01*
X120335000Y-112379999D02*
X120335000Y-113680001D01*
G75*
G02*
X120085001Y-113930000I-249999J0D01*
G01*
X119259999Y-113930000D01*
G75*
G02*
X119010000Y-113680001I0J249999D01*
G01*
X119010000Y-112379999D01*
G75*
G02*
X119259999Y-112130000I249999J0D01*
G01*
X120085001Y-112130000D01*
G75*
G02*
X120335000Y-112379999I0J-249999D01*
G01*
G37*
%TD.AperFunction*%
%TD*%
D10*
%TO.P,SW2,1*%
%TO.N,Net-(BT1-Pad1)*%
X55696000Y-88940000D03*
%TO.P,SW2,2*%
%TO.N,Net-(C2-Pad1)*%
X55696000Y-91440000D03*
%TO.P,SW2,3*%
%TO.N,Net-(SW2-Pad3)*%
X55696000Y-93940000D03*
X58096000Y-93940000D03*
%TO.P,SW2,2*%
%TO.N,Net-(C2-Pad1)*%
X58096000Y-91440000D03*
%TO.P,SW2,1*%
%TO.N,Net-(BT1-Pad1)*%
X58096000Y-88940000D03*
%TD*%
D11*
%TO.P,U2,5*%
%TO.N,Net-(C2-Pad1)*%
X81661000Y-117936000D03*
%TO.P,U2,6*%
%TO.N,Net-(C3-Pad2)*%
X82611000Y-117936000D03*
%TO.P,U2,4*%
%TO.N,Net-(C3-Pad1)*%
X80711000Y-117936000D03*
%TO.P,U2,3*%
%TO.N,Net-(C2-Pad1)*%
X80711000Y-115236000D03*
%TO.P,U2,2*%
%TO.N,GND*%
X81661000Y-115236000D03*
%TO.P,U2,1*%
%TO.N,+3V3*%
X82611000Y-115236000D03*
%TD*%
%TO.P,U1,14*%
%TO.N,GND*%
%TA.AperFunction,SMDPad,CuDef*%
G36*
G01*
X119610000Y-115720000D02*
X119610000Y-115420000D01*
G75*
G02*
X119760000Y-115270000I150000J0D01*
G01*
X121410000Y-115270000D01*
G75*
G02*
X121560000Y-115420000I0J-150000D01*
G01*
X121560000Y-115720000D01*
G75*
G02*
X121410000Y-115870000I-150000J0D01*
G01*
X119760000Y-115870000D01*
G75*
G02*
X119610000Y-115720000I0J150000D01*
G01*
G37*
%TD.AperFunction*%
%TO.P,U1,13*%
%TO.N,Net-(J1-Pad4)*%
%TA.AperFunction,SMDPad,CuDef*%
G36*
G01*
X119610000Y-116990000D02*
X119610000Y-116690000D01*
G75*
G02*
X119760000Y-116540000I150000J0D01*
G01*
X121410000Y-116540000D01*
G75*
G02*
X121560000Y-116690000I0J-150000D01*
G01*
X121560000Y-116990000D01*
G75*
G02*
X121410000Y-117140000I-150000J0D01*
G01*
X119760000Y-117140000D01*
G75*
G02*
X119610000Y-116990000I0J150000D01*
G01*
G37*
%TD.AperFunction*%
%TO.P,U1,12*%
%TO.N,Net-(J1-Pad5)*%
%TA.AperFunction,SMDPad,CuDef*%
G36*
G01*
X119610000Y-118260000D02*
X119610000Y-117960000D01*
G75*
G02*
X119760000Y-117810000I150000J0D01*
G01*
X121410000Y-117810000D01*
G75*
G02*
X121560000Y-117960000I0J-150000D01*
G01*
X121560000Y-118260000D01*
G75*
G02*
X121410000Y-118410000I-150000J0D01*
G01*
X119760000Y-118410000D01*
G75*
G02*
X119610000Y-118260000I0J150000D01*
G01*
G37*
%TD.AperFunction*%
%TO.P,U1,11*%
%TO.N,Net-(U1-Pad11)*%
%TA.AperFunction,SMDPad,CuDef*%
G36*
G01*
X119610000Y-119530000D02*
X119610000Y-119230000D01*
G75*
G02*
X119760000Y-119080000I150000J0D01*
G01*
X121410000Y-119080000D01*
G75*
G02*
X121560000Y-119230000I0J-150000D01*
G01*
X121560000Y-119530000D01*
G75*
G02*
X121410000Y-119680000I-150000J0D01*
G01*
X119760000Y-119680000D01*
G75*
G02*
X119610000Y-119530000I0J150000D01*
G01*
G37*
%TD.AperFunction*%
%TO.P,U1,10*%
%TO.N,Net-(U1-Pad10)*%
%TA.AperFunction,SMDPad,CuDef*%
G36*
G01*
X119610000Y-120800000D02*
X119610000Y-120500000D01*
G75*
G02*
X119760000Y-120350000I150000J0D01*
G01*
X121410000Y-120350000D01*
G75*
G02*
X121560000Y-120500000I0J-150000D01*
G01*
X121560000Y-120800000D01*
G75*
G02*
X121410000Y-120950000I-150000J0D01*
G01*
X119760000Y-120950000D01*
G75*
G02*
X119610000Y-120800000I0J150000D01*
G01*
G37*
%TD.AperFunction*%
%TO.P,U1,9*%
%TO.N,Net-(U1-Pad9)*%
%TA.AperFunction,SMDPad,CuDef*%
G36*
G01*
X119610000Y-122070000D02*
X119610000Y-121770000D01*
G75*
G02*
X119760000Y-121620000I150000J0D01*
G01*
X121410000Y-121620000D01*
G75*
G02*
X121560000Y-121770000I0J-150000D01*
G01*
X121560000Y-122070000D01*
G75*
G02*
X121410000Y-122220000I-150000J0D01*
G01*
X119760000Y-122220000D01*
G75*
G02*
X119610000Y-122070000I0J150000D01*
G01*
G37*
%TD.AperFunction*%
%TO.P,U1,8*%
%TO.N,Net-(R3-Pad2)*%
%TA.AperFunction,SMDPad,CuDef*%
G36*
G01*
X119610000Y-123340000D02*
X119610000Y-123040000D01*
G75*
G02*
X119760000Y-122890000I150000J0D01*
G01*
X121410000Y-122890000D01*
G75*
G02*
X121560000Y-123040000I0J-150000D01*
G01*
X121560000Y-123340000D01*
G75*
G02*
X121410000Y-123490000I-150000J0D01*
G01*
X119760000Y-123490000D01*
G75*
G02*
X119610000Y-123340000I0J150000D01*
G01*
G37*
%TD.AperFunction*%
%TO.P,U1,7*%
%TO.N,Net-(JP1-Pad3)*%
%TA.AperFunction,SMDPad,CuDef*%
G36*
G01*
X114660000Y-123340000D02*
X114660000Y-123040000D01*
G75*
G02*
X114810000Y-122890000I150000J0D01*
G01*
X116460000Y-122890000D01*
G75*
G02*
X116610000Y-123040000I0J-150000D01*
G01*
X116610000Y-123340000D01*
G75*
G02*
X116460000Y-123490000I-150000J0D01*
G01*
X114810000Y-123490000D01*
G75*
G02*
X114660000Y-123340000I0J150000D01*
G01*
G37*
%TD.AperFunction*%
%TO.P,U1,6*%
%TO.N,Net-(R2-Pad2)*%
%TA.AperFunction,SMDPad,CuDef*%
G36*
G01*
X114660000Y-122070000D02*
X114660000Y-121770000D01*
G75*
G02*
X114810000Y-121620000I150000J0D01*
G01*
X116460000Y-121620000D01*
G75*
G02*
X116610000Y-121770000I0J-150000D01*
G01*
X116610000Y-122070000D01*
G75*
G02*
X116460000Y-122220000I-150000J0D01*
G01*
X114810000Y-122220000D01*
G75*
G02*
X114660000Y-122070000I0J150000D01*
G01*
G37*
%TD.AperFunction*%
%TO.P,U1,5*%
%TO.N,Net-(U1-Pad5)*%
%TA.AperFunction,SMDPad,CuDef*%
G36*
G01*
X114660000Y-120800000D02*
X114660000Y-120500000D01*
G75*
G02*
X114810000Y-120350000I150000J0D01*
G01*
X116460000Y-120350000D01*
G75*
G02*
X116610000Y-120500000I0J-150000D01*
G01*
X116610000Y-120800000D01*
G75*
G02*
X116460000Y-120950000I-150000J0D01*
G01*
X114810000Y-120950000D01*
G75*
G02*
X114660000Y-120800000I0J150000D01*
G01*
G37*
%TD.AperFunction*%
%TO.P,U1,4*%
%TO.N,Net-(J1-Pad1)*%
%TA.AperFunction,SMDPad,CuDef*%
G36*
G01*
X114660000Y-119530000D02*
X114660000Y-119230000D01*
G75*
G02*
X114810000Y-119080000I150000J0D01*
G01*
X116460000Y-119080000D01*
G75*
G02*
X116610000Y-119230000I0J-150000D01*
G01*
X116610000Y-119530000D01*
G75*
G02*
X116460000Y-119680000I-150000J0D01*
G01*
X114810000Y-119680000D01*
G75*
G02*
X114660000Y-119530000I0J150000D01*
G01*
G37*
%TD.AperFunction*%
%TO.P,U1,3*%
%TO.N,Net-(U1-Pad3)*%
%TA.AperFunction,SMDPad,CuDef*%
G36*
G01*
X114660000Y-118260000D02*
X114660000Y-117960000D01*
G75*
G02*
X114810000Y-117810000I150000J0D01*
G01*
X116460000Y-117810000D01*
G75*
G02*
X116610000Y-117960000I0J-150000D01*
G01*
X116610000Y-118260000D01*
G75*
G02*
X116460000Y-118410000I-150000J0D01*
G01*
X114810000Y-118410000D01*
G75*
G02*
X114660000Y-118260000I0J150000D01*
G01*
G37*
%TD.AperFunction*%
%TO.P,U1,2*%
%TO.N,Net-(U1-Pad2)*%
%TA.AperFunction,SMDPad,CuDef*%
G36*
G01*
X114660000Y-116990000D02*
X114660000Y-116690000D01*
G75*
G02*
X114810000Y-116540000I150000J0D01*
G01*
X116460000Y-116540000D01*
G75*
G02*
X116610000Y-116690000I0J-150000D01*
G01*
X116610000Y-116990000D01*
G75*
G02*
X116460000Y-117140000I-150000J0D01*
G01*
X114810000Y-117140000D01*
G75*
G02*
X114660000Y-116990000I0J150000D01*
G01*
G37*
%TD.AperFunction*%
%TO.P,U1,1*%
%TO.N,+3V3*%
%TA.AperFunction,SMDPad,CuDef*%
G36*
G01*
X114660000Y-115720000D02*
X114660000Y-115420000D01*
G75*
G02*
X114810000Y-115270000I150000J0D01*
G01*
X116460000Y-115270000D01*
G75*
G02*
X116610000Y-115420000I0J-150000D01*
G01*
X116610000Y-115720000D01*
G75*
G02*
X116460000Y-115870000I-150000J0D01*
G01*
X114810000Y-115870000D01*
G75*
G02*
X114660000Y-115720000I0J150000D01*
G01*
G37*
%TD.AperFunction*%
%TD*%
D12*
%TO.P,SW1,2*%
%TO.N,Net-(R2-Pad2)*%
X57541000Y-126452000D03*
%TO.P,SW1,1*%
%TO.N,+3V3*%
X57541000Y-121452000D03*
X71491000Y-121452000D03*
%TO.P,SW1,2*%
%TO.N,Net-(R2-Pad2)*%
X71491000Y-126452000D03*
%TD*%
%TO.P,R6,2*%
%TO.N,+3V3*%
%TA.AperFunction,SMDPad,CuDef*%
G36*
G01*
X111135000Y-112660000D02*
X112385000Y-112660000D01*
G75*
G02*
X112635000Y-112910000I0J-250000D01*
G01*
X112635000Y-113710000D01*
G75*
G02*
X112385000Y-113960000I-250000J0D01*
G01*
X111135000Y-113960000D01*
G75*
G02*
X110885000Y-113710000I0J250000D01*
G01*
X110885000Y-112910000D01*
G75*
G02*
X111135000Y-112660000I250000J0D01*
G01*
G37*
%TD.AperFunction*%
%TO.P,R6,1*%
%TO.N,Net-(D3-Pad2)*%
%TA.AperFunction,SMDPad,CuDef*%
G36*
G01*
X111135000Y-109560000D02*
X112385000Y-109560000D01*
G75*
G02*
X112635000Y-109810000I0J-250000D01*
G01*
X112635000Y-110610000D01*
G75*
G02*
X112385000Y-110860000I-250000J0D01*
G01*
X111135000Y-110860000D01*
G75*
G02*
X110885000Y-110610000I0J250000D01*
G01*
X110885000Y-109810000D01*
G75*
G02*
X111135000Y-109560000I250000J0D01*
G01*
G37*
%TD.AperFunction*%
%TD*%
%TO.P,R5,2*%
%TO.N,+3V3*%
%TA.AperFunction,SMDPad,CuDef*%
G36*
G01*
X106055000Y-112660000D02*
X107305000Y-112660000D01*
G75*
G02*
X107555000Y-112910000I0J-250000D01*
G01*
X107555000Y-113710000D01*
G75*
G02*
X107305000Y-113960000I-250000J0D01*
G01*
X106055000Y-113960000D01*
G75*
G02*
X105805000Y-113710000I0J250000D01*
G01*
X105805000Y-112910000D01*
G75*
G02*
X106055000Y-112660000I250000J0D01*
G01*
G37*
%TD.AperFunction*%
%TO.P,R5,1*%
%TO.N,Net-(D2-Pad2)*%
%TA.AperFunction,SMDPad,CuDef*%
G36*
G01*
X106055000Y-109560000D02*
X107305000Y-109560000D01*
G75*
G02*
X107555000Y-109810000I0J-250000D01*
G01*
X107555000Y-110610000D01*
G75*
G02*
X107305000Y-110860000I-250000J0D01*
G01*
X106055000Y-110860000D01*
G75*
G02*
X105805000Y-110610000I0J250000D01*
G01*
X105805000Y-109810000D01*
G75*
G02*
X106055000Y-109560000I250000J0D01*
G01*
G37*
%TD.AperFunction*%
%TD*%
%TO.P,R4,2*%
%TO.N,+3V3*%
%TA.AperFunction,SMDPad,CuDef*%
G36*
G01*
X95895000Y-112660000D02*
X97145000Y-112660000D01*
G75*
G02*
X97395000Y-112910000I0J-250000D01*
G01*
X97395000Y-113710000D01*
G75*
G02*
X97145000Y-113960000I-250000J0D01*
G01*
X95895000Y-113960000D01*
G75*
G02*
X95645000Y-113710000I0J250000D01*
G01*
X95645000Y-112910000D01*
G75*
G02*
X95895000Y-112660000I250000J0D01*
G01*
G37*
%TD.AperFunction*%
%TO.P,R4,1*%
%TO.N,Net-(D1-Pad2)*%
%TA.AperFunction,SMDPad,CuDef*%
G36*
G01*
X95895000Y-109560000D02*
X97145000Y-109560000D01*
G75*
G02*
X97395000Y-109810000I0J-250000D01*
G01*
X97395000Y-110610000D01*
G75*
G02*
X97145000Y-110860000I-250000J0D01*
G01*
X95895000Y-110860000D01*
G75*
G02*
X95645000Y-110610000I0J250000D01*
G01*
X95645000Y-109810000D01*
G75*
G02*
X95895000Y-109560000I250000J0D01*
G01*
G37*
%TD.AperFunction*%
%TD*%
%TO.P,R3,2*%
%TO.N,Net-(R3-Pad2)*%
%TA.AperFunction,SMDPad,CuDef*%
G36*
G01*
X149235000Y-91070000D02*
X150485000Y-91070000D01*
G75*
G02*
X150735000Y-91320000I0J-250000D01*
G01*
X150735000Y-92120000D01*
G75*
G02*
X150485000Y-92370000I-250000J0D01*
G01*
X149235000Y-92370000D01*
G75*
G02*
X148985000Y-92120000I0J250000D01*
G01*
X148985000Y-91320000D01*
G75*
G02*
X149235000Y-91070000I250000J0D01*
G01*
G37*
%TD.AperFunction*%
%TO.P,R3,1*%
%TO.N,Net-(LS1-Pad1)*%
%TA.AperFunction,SMDPad,CuDef*%
G36*
G01*
X149235000Y-87970000D02*
X150485000Y-87970000D01*
G75*
G02*
X150735000Y-88220000I0J-250000D01*
G01*
X150735000Y-89020000D01*
G75*
G02*
X150485000Y-89270000I-250000J0D01*
G01*
X149235000Y-89270000D01*
G75*
G02*
X148985000Y-89020000I0J250000D01*
G01*
X148985000Y-88220000D01*
G75*
G02*
X149235000Y-87970000I250000J0D01*
G01*
G37*
%TD.AperFunction*%
%TD*%
%TO.P,R2,2*%
%TO.N,Net-(R2-Pad2)*%
%TA.AperFunction,SMDPad,CuDef*%
G36*
G01*
X76591000Y-128916000D02*
X77841000Y-128916000D01*
G75*
G02*
X78091000Y-129166000I0J-250000D01*
G01*
X78091000Y-129966000D01*
G75*
G02*
X77841000Y-130216000I-250000J0D01*
G01*
X76591000Y-130216000D01*
G75*
G02*
X76341000Y-129966000I0J250000D01*
G01*
X76341000Y-129166000D01*
G75*
G02*
X76591000Y-128916000I250000J0D01*
G01*
G37*
%TD.AperFunction*%
%TO.P,R2,1*%
%TO.N,GND*%
%TA.AperFunction,SMDPad,CuDef*%
G36*
G01*
X76591000Y-125816000D02*
X77841000Y-125816000D01*
G75*
G02*
X78091000Y-126066000I0J-250000D01*
G01*
X78091000Y-126866000D01*
G75*
G02*
X77841000Y-127116000I-250000J0D01*
G01*
X76591000Y-127116000D01*
G75*
G02*
X76341000Y-126866000I0J250000D01*
G01*
X76341000Y-126066000D01*
G75*
G02*
X76591000Y-125816000I250000J0D01*
G01*
G37*
%TD.AperFunction*%
%TD*%
%TO.P,R1,2*%
%TO.N,+3V3*%
%TA.AperFunction,SMDPad,CuDef*%
G36*
G01*
X102225000Y-114035000D02*
X100975000Y-114035000D01*
G75*
G02*
X100725000Y-113785000I0J250000D01*
G01*
X100725000Y-112985000D01*
G75*
G02*
X100975000Y-112735000I250000J0D01*
G01*
X102225000Y-112735000D01*
G75*
G02*
X102475000Y-112985000I0J-250000D01*
G01*
X102475000Y-113785000D01*
G75*
G02*
X102225000Y-114035000I-250000J0D01*
G01*
G37*
%TD.AperFunction*%
%TO.P,R1,1*%
%TO.N,Net-(J1-Pad1)*%
%TA.AperFunction,SMDPad,CuDef*%
G36*
G01*
X102225000Y-117135000D02*
X100975000Y-117135000D01*
G75*
G02*
X100725000Y-116885000I0J250000D01*
G01*
X100725000Y-116085000D01*
G75*
G02*
X100975000Y-115835000I250000J0D01*
G01*
X102225000Y-115835000D01*
G75*
G02*
X102475000Y-116085000I0J-250000D01*
G01*
X102475000Y-116885000D01*
G75*
G02*
X102225000Y-117135000I-250000J0D01*
G01*
G37*
%TD.AperFunction*%
%TD*%
D13*
%TO.P,LS1,2*%
%TO.N,Net-(JP1-Pad2)*%
X133200000Y-81280000D03*
%TO.P,LS1,1*%
%TO.N,Net-(LS1-Pad1)*%
X146200000Y-81280000D03*
%TD*%
D14*
%TO.P,JP1,2*%
%TO.N,Net-(JP1-Pad2)*%
X124460000Y-82550000D03*
%TA.AperFunction,SMDPad,CuDef*%
D15*
%TO.P,JP1,3*%
%TO.N,Net-(JP1-Pad3)*%
G36*
X123710602Y-81250000D02*
G01*
X123710602Y-81225466D01*
X123715412Y-81176635D01*
X123724984Y-81128510D01*
X123739228Y-81081555D01*
X123758005Y-81036222D01*
X123781136Y-80992949D01*
X123808396Y-80952150D01*
X123839524Y-80914221D01*
X123874221Y-80879524D01*
X123912150Y-80848396D01*
X123952949Y-80821136D01*
X123996222Y-80798005D01*
X124041555Y-80779228D01*
X124088510Y-80764984D01*
X124136635Y-80755412D01*
X124185466Y-80750602D01*
X124210000Y-80750602D01*
X124210000Y-80750000D01*
X124710000Y-80750000D01*
X124710000Y-80750602D01*
X124734534Y-80750602D01*
X124783365Y-80755412D01*
X124831490Y-80764984D01*
X124878445Y-80779228D01*
X124923778Y-80798005D01*
X124967051Y-80821136D01*
X125007850Y-80848396D01*
X125045779Y-80879524D01*
X125080476Y-80914221D01*
X125111604Y-80952150D01*
X125138864Y-80992949D01*
X125161995Y-81036222D01*
X125180772Y-81081555D01*
X125195016Y-81128510D01*
X125204588Y-81176635D01*
X125209398Y-81225466D01*
X125209398Y-81250000D01*
X125210000Y-81250000D01*
X125210000Y-81800000D01*
X123710000Y-81800000D01*
X123710000Y-81250000D01*
X123710602Y-81250000D01*
G37*
%TD.AperFunction*%
%TA.AperFunction,SMDPad,CuDef*%
%TO.P,JP1,1*%
%TO.N,GND*%
G36*
X125210000Y-83300000D02*
G01*
X125210000Y-83850000D01*
X125209398Y-83850000D01*
X125209398Y-83874534D01*
X125204588Y-83923365D01*
X125195016Y-83971490D01*
X125180772Y-84018445D01*
X125161995Y-84063778D01*
X125138864Y-84107051D01*
X125111604Y-84147850D01*
X125080476Y-84185779D01*
X125045779Y-84220476D01*
X125007850Y-84251604D01*
X124967051Y-84278864D01*
X124923778Y-84301995D01*
X124878445Y-84320772D01*
X124831490Y-84335016D01*
X124783365Y-84344588D01*
X124734534Y-84349398D01*
X124710000Y-84349398D01*
X124710000Y-84350000D01*
X124210000Y-84350000D01*
X124210000Y-84349398D01*
X124185466Y-84349398D01*
X124136635Y-84344588D01*
X124088510Y-84335016D01*
X124041555Y-84320772D01*
X123996222Y-84301995D01*
X123952949Y-84278864D01*
X123912150Y-84251604D01*
X123874221Y-84220476D01*
X123839524Y-84185779D01*
X123808396Y-84147850D01*
X123781136Y-84107051D01*
X123758005Y-84063778D01*
X123739228Y-84018445D01*
X123724984Y-83971490D01*
X123715412Y-83923365D01*
X123710602Y-83874534D01*
X123710602Y-83850000D01*
X123710000Y-83850000D01*
X123710000Y-83300000D01*
X125210000Y-83300000D01*
G37*
%TD.AperFunction*%
%TD*%
D16*
%TO.P,J1,6*%
%TO.N,Net-(J1-Pad6)*%
X127381000Y-119634000D03*
%TO.P,J1,5*%
%TO.N,Net-(J1-Pad5)*%
X126111000Y-119634000D03*
%TO.P,J1,4*%
%TO.N,Net-(J1-Pad4)*%
X127381000Y-118364000D03*
%TO.P,J1,3*%
%TO.N,GND*%
X126111000Y-118364000D03*
%TO.P,J1,2*%
%TO.N,+3V3*%
X127381000Y-117094000D03*
%TO.P,J1,1*%
%TO.N,Net-(J1-Pad1)*%
X126111000Y-117094000D03*
%TD*%
D17*
%TO.P,D3,1*%
%TO.N,GND*%
X123384000Y-99060000D03*
%TO.P,D3,2*%
%TO.N,Net-(D3-Pad2)*%
X128584000Y-99060000D03*
%TD*%
%TO.P,D2,1*%
%TO.N,GND*%
X95190000Y-99060000D03*
%TO.P,D2,2*%
%TO.N,Net-(D2-Pad2)*%
X100390000Y-99060000D03*
%TD*%
%TO.P,D1,1*%
%TO.N,GND*%
X79950000Y-99060000D03*
%TO.P,D1,2*%
%TO.N,Net-(D1-Pad2)*%
X85150000Y-99060000D03*
%TD*%
%TO.P,C4,2*%
%TO.N,GND*%
%TA.AperFunction,SMDPad,CuDef*%
G36*
G01*
X91455001Y-110860000D02*
X90154999Y-110860000D01*
G75*
G02*
X89905000Y-110610001I0J249999D01*
G01*
X89905000Y-109784999D01*
G75*
G02*
X90154999Y-109535000I249999J0D01*
G01*
X91455001Y-109535000D01*
G75*
G02*
X91705000Y-109784999I0J-249999D01*
G01*
X91705000Y-110610001D01*
G75*
G02*
X91455001Y-110860000I-249999J0D01*
G01*
G37*
%TD.AperFunction*%
%TO.P,C4,1*%
%TO.N,+3V3*%
%TA.AperFunction,SMDPad,CuDef*%
G36*
G01*
X91455001Y-113985000D02*
X90154999Y-113985000D01*
G75*
G02*
X89905000Y-113735001I0J249999D01*
G01*
X89905000Y-112909999D01*
G75*
G02*
X90154999Y-112660000I249999J0D01*
G01*
X91455001Y-112660000D01*
G75*
G02*
X91705000Y-112909999I0J-249999D01*
G01*
X91705000Y-113735001D01*
G75*
G02*
X91455001Y-113985000I-249999J0D01*
G01*
G37*
%TD.AperFunction*%
%TD*%
%TO.P,C3,2*%
%TO.N,Net-(C3-Pad2)*%
%TA.AperFunction,SMDPad,CuDef*%
G36*
G01*
X84085000Y-123332001D02*
X84085000Y-122031999D01*
G75*
G02*
X84334999Y-121782000I249999J0D01*
G01*
X85160001Y-121782000D01*
G75*
G02*
X85410000Y-122031999I0J-249999D01*
G01*
X85410000Y-123332001D01*
G75*
G02*
X85160001Y-123582000I-249999J0D01*
G01*
X84334999Y-123582000D01*
G75*
G02*
X84085000Y-123332001I0J249999D01*
G01*
G37*
%TD.AperFunction*%
%TO.P,C3,1*%
%TO.N,Net-(C3-Pad1)*%
%TA.AperFunction,SMDPad,CuDef*%
G36*
G01*
X80960000Y-123332001D02*
X80960000Y-122031999D01*
G75*
G02*
X81209999Y-121782000I249999J0D01*
G01*
X82035001Y-121782000D01*
G75*
G02*
X82285000Y-122031999I0J-249999D01*
G01*
X82285000Y-123332001D01*
G75*
G02*
X82035001Y-123582000I-249999J0D01*
G01*
X81209999Y-123582000D01*
G75*
G02*
X80960000Y-123332001I0J249999D01*
G01*
G37*
%TD.AperFunction*%
%TD*%
%TO.P,C2,2*%
%TO.N,GND*%
%TA.AperFunction,SMDPad,CuDef*%
G36*
G01*
X76850001Y-112765000D02*
X75549999Y-112765000D01*
G75*
G02*
X75300000Y-112515001I0J249999D01*
G01*
X75300000Y-111689999D01*
G75*
G02*
X75549999Y-111440000I249999J0D01*
G01*
X76850001Y-111440000D01*
G75*
G02*
X77100000Y-111689999I0J-249999D01*
G01*
X77100000Y-112515001D01*
G75*
G02*
X76850001Y-112765000I-249999J0D01*
G01*
G37*
%TD.AperFunction*%
%TO.P,C2,1*%
%TO.N,Net-(C2-Pad1)*%
%TA.AperFunction,SMDPad,CuDef*%
G36*
G01*
X76850001Y-115890000D02*
X75549999Y-115890000D01*
G75*
G02*
X75300000Y-115640001I0J249999D01*
G01*
X75300000Y-114814999D01*
G75*
G02*
X75549999Y-114565000I249999J0D01*
G01*
X76850001Y-114565000D01*
G75*
G02*
X77100000Y-114814999I0J-249999D01*
G01*
X77100000Y-115640001D01*
G75*
G02*
X76850001Y-115890000I-249999J0D01*
G01*
G37*
%TD.AperFunction*%
%TD*%
D18*
%TO.P,BT1,1*%
%TO.N,Net-(BT1-Pad1)*%
X61247000Y-82804000D03*
X85057000Y-82804000D03*
D19*
%TO.P,BT1,2*%
%TO.N,GND*%
X73152000Y-82804000D03*
%TD*%
D20*
%TO.N,GND*%
X123952000Y-118364000D03*
X123952000Y-120904000D03*
X122428000Y-114300000D03*
X125476000Y-112268000D03*
X128778000Y-110998000D03*
X60833000Y-98298000D03*
X65024000Y-98425000D03*
X143510000Y-122936000D03*
X147066000Y-126492000D03*
%TO.N,+3V3*%
X128270000Y-114554000D03*
X128270000Y-113030000D03*
%TD*%
D21*
%TO.N,Net-(BT1-Pad1)*%
X78423000Y-72390000D02*
X67945000Y-72390000D01*
X85057000Y-79024000D02*
X78423000Y-72390000D01*
X85057000Y-82804000D02*
X85057000Y-79024000D01*
X61247000Y-79088000D02*
X67945000Y-72390000D01*
X61247000Y-82804000D02*
X61247000Y-79088000D01*
X58096000Y-85955000D02*
X61247000Y-82804000D01*
X58096000Y-88940000D02*
X58096000Y-85955000D01*
X57845999Y-89190001D02*
X58096000Y-88940000D01*
X56343999Y-89190001D02*
X57845999Y-89190001D01*
X56093998Y-88940000D02*
X56343999Y-89190001D01*
X55696000Y-88940000D02*
X56093998Y-88940000D01*
X57278998Y-85955000D02*
X58096000Y-85955000D01*
X55696000Y-87537998D02*
X57278998Y-85955000D01*
X55696000Y-88940000D02*
X55696000Y-87537998D01*
D22*
%TO.N,GND*%
X73152000Y-82804000D02*
X77632001Y-87284001D01*
D23*
X79950000Y-89602000D02*
X73152000Y-82804000D01*
D22*
X73152000Y-82804000D02*
X73152000Y-86868000D01*
D23*
X81661000Y-114206000D02*
X81661000Y-115236000D01*
X79557500Y-112102500D02*
X81661000Y-114206000D01*
X76200000Y-112102500D02*
X79557500Y-112102500D01*
X126111000Y-118364000D02*
X123952000Y-118364000D01*
X119672500Y-114657500D02*
X120585000Y-115570000D01*
X119672500Y-113030000D02*
X119672500Y-114657500D01*
X121158000Y-113030000D02*
X119672500Y-113030000D01*
X122428000Y-114300000D02*
X121158000Y-113030000D01*
%TO.N,+3V3*%
X88891500Y-115236000D02*
X90805000Y-113322500D01*
X82611000Y-115236000D02*
X88891500Y-115236000D01*
X96507500Y-113322500D02*
X96520000Y-113310000D01*
X90805000Y-113322500D02*
X96507500Y-113322500D01*
X96520000Y-113310000D02*
X101600000Y-113310000D01*
X101600000Y-113310000D02*
X106680000Y-113310000D01*
X106680000Y-113310000D02*
X111760000Y-113310000D01*
X116267500Y-113310000D02*
X116547500Y-113030000D01*
X111760000Y-113310000D02*
X116267500Y-113310000D01*
X57541000Y-121452000D02*
X71491000Y-121452000D01*
X71491000Y-121452000D02*
X75732000Y-121452000D01*
X75732000Y-121452000D02*
X81280000Y-127000000D01*
X81280000Y-127000000D02*
X85090000Y-127000000D01*
X90805000Y-121285000D02*
X90805000Y-113322500D01*
X85090000Y-127000000D02*
X90805000Y-121285000D01*
X115635000Y-113942500D02*
X116547500Y-113030000D01*
X115635000Y-115570000D02*
X115635000Y-113942500D01*
X128270000Y-116205000D02*
X128270000Y-114554000D01*
X127381000Y-117094000D02*
X128270000Y-116205000D01*
X128270000Y-113030000D02*
X125984000Y-110744000D01*
X118833500Y-110744000D02*
X116547500Y-113030000D01*
X125984000Y-110744000D02*
X118833500Y-110744000D01*
%TO.N,Net-(C2-Pad1)*%
X80711000Y-115956000D02*
X80711000Y-115236000D01*
X81661000Y-116906000D02*
X80711000Y-115956000D01*
X81661000Y-117936000D02*
X81661000Y-116906000D01*
D21*
X55696000Y-91440000D02*
X58096000Y-91440000D01*
X59896000Y-91440000D02*
X62865000Y-94409000D01*
X58096000Y-91440000D02*
X59896000Y-91440000D01*
X62865000Y-107861500D02*
X70319500Y-115316000D01*
X62865000Y-94409000D02*
X62865000Y-107861500D01*
X76111500Y-115316000D02*
X76200000Y-115227500D01*
X70319500Y-115316000D02*
X76111500Y-115316000D01*
X80627499Y-115227500D02*
X80635999Y-115236000D01*
X76200000Y-115227500D02*
X80627499Y-115227500D01*
D23*
%TO.N,Net-(C3-Pad2)*%
X84747500Y-120072500D02*
X82611000Y-117936000D01*
X84747500Y-122682000D02*
X84747500Y-120072500D01*
%TO.N,Net-(C3-Pad1)*%
X80711000Y-121770500D02*
X80711000Y-117936000D01*
X81622500Y-122682000D02*
X80711000Y-121770500D01*
%TO.N,Net-(D1-Pad2)*%
X85370000Y-99060000D02*
X96520000Y-110210000D01*
X85150000Y-99060000D02*
X85370000Y-99060000D01*
%TO.N,Net-(D2-Pad2)*%
X100390000Y-103920000D02*
X106680000Y-110210000D01*
X100390000Y-99060000D02*
X100390000Y-103920000D01*
%TO.N,Net-(D3-Pad2)*%
X111760000Y-110210000D02*
X127280000Y-110210000D01*
X128584000Y-108906000D02*
X128584000Y-99060000D01*
X127280000Y-110210000D02*
X128584000Y-108906000D01*
%TO.N,Net-(J1-Pad5)*%
X121285000Y-118110000D02*
X120585000Y-118110000D01*
X120208232Y-118110000D02*
X120585000Y-118110000D01*
X126111000Y-119634000D02*
X122682000Y-119634000D01*
X121158000Y-118110000D02*
X120585000Y-118110000D01*
X122682000Y-119634000D02*
X121158000Y-118110000D01*
%TO.N,Net-(J1-Pad4)*%
X127381000Y-118364000D02*
X130302000Y-115443000D01*
X130302000Y-115443000D02*
X130302000Y-114554000D01*
X130302000Y-114554000D02*
X129540000Y-113792000D01*
X121560000Y-116840000D02*
X120585000Y-116840000D01*
X124608000Y-113792000D02*
X121560000Y-116840000D01*
X129540000Y-113792000D02*
X124608000Y-113792000D01*
%TO.N,Net-(J1-Pad1)*%
X116610000Y-119380000D02*
X115635000Y-119380000D01*
X125720010Y-117484990D02*
X118505010Y-117484990D01*
X118505010Y-117484990D02*
X116610000Y-119380000D01*
X126111000Y-117094000D02*
X125720010Y-117484990D01*
X104495000Y-119380000D02*
X115635000Y-119380000D01*
X101600000Y-116485000D02*
X104495000Y-119380000D01*
%TO.N,Net-(JP1-Pad2)*%
X131930000Y-82550000D02*
X133200000Y-81280000D01*
X124460000Y-82550000D02*
X131930000Y-82550000D01*
%TO.N,Net-(JP1-Pad3)*%
X115635000Y-123190000D02*
X121985000Y-129540000D01*
X121985000Y-129540000D02*
X141605000Y-129540000D01*
X141605000Y-129540000D02*
X152400000Y-118745000D01*
X152400000Y-118745000D02*
X152400000Y-79375000D01*
X152400000Y-79375000D02*
X150495000Y-77470000D01*
X124430000Y-80532408D02*
X124430000Y-81280000D01*
X127492408Y-77470000D02*
X124430000Y-80532408D01*
X150495000Y-77470000D02*
X127492408Y-77470000D01*
%TO.N,Net-(LS1-Pad1)*%
X149860000Y-84940000D02*
X146200000Y-81280000D01*
X149860000Y-88620000D02*
X149860000Y-84940000D01*
%TO.N,Net-(R2-Pad2)*%
X57541000Y-126452000D02*
X71491000Y-126452000D01*
X74102000Y-126452000D02*
X77216000Y-129566000D01*
X71491000Y-126452000D02*
X74102000Y-126452000D01*
X115258232Y-121920000D02*
X115635000Y-121920000D01*
X107612232Y-129566000D02*
X115258232Y-121920000D01*
X77216000Y-129566000D02*
X107612232Y-129566000D01*
%TO.N,Net-(R3-Pad2)*%
X149860000Y-118745000D02*
X149860000Y-91720000D01*
X140970000Y-127635000D02*
X149860000Y-118745000D01*
X123825000Y-127635000D02*
X140970000Y-127635000D01*
X120585000Y-124395000D02*
X123825000Y-127635000D01*
X120585000Y-123190000D02*
X120585000Y-124395000D01*
%TO.N,Net-(SW2-Pad3)*%
X55696000Y-93940000D02*
X58096000Y-93940000D01*
%TD*%
D24*
%TO.N,GND*%
X151070221Y-71238474D02*
X151325690Y-71281917D01*
X151573303Y-71352778D01*
X151812454Y-71450090D01*
X152042118Y-71572955D01*
X152260926Y-71720420D01*
X152467255Y-71891402D01*
X152659330Y-72084655D01*
X152835273Y-72298732D01*
X152898589Y-72392268D01*
X152564095Y-72057774D01*
X152157089Y-71785821D01*
X151704848Y-71598497D01*
X151224751Y-71503000D01*
X150735249Y-71503000D01*
X150255152Y-71598497D01*
X149802911Y-71785821D01*
X149395905Y-72057774D01*
X149049774Y-72403905D01*
X148777821Y-72810911D01*
X148590497Y-73263152D01*
X148495000Y-73743249D01*
X148495000Y-74232751D01*
X148590497Y-74712848D01*
X148777821Y-75165089D01*
X149049774Y-75572095D01*
X149395905Y-75918226D01*
X149802911Y-76190179D01*
X150255152Y-76377503D01*
X150735249Y-76473000D01*
X151224751Y-76473000D01*
X151704848Y-76377503D01*
X152157089Y-76190179D01*
X152564095Y-75918226D01*
X152910226Y-75572095D01*
X153182179Y-75165089D01*
X153369503Y-74712848D01*
X153465000Y-74232751D01*
X153465000Y-74192916D01*
X153468282Y-74264226D01*
X153468283Y-129671504D01*
X153452963Y-130004262D01*
X153410532Y-130309582D01*
X153341760Y-130603658D01*
X153248220Y-130884990D01*
X153131512Y-131151981D01*
X152993300Y-131402979D01*
X152835319Y-131636315D01*
X152659365Y-131850370D01*
X152467302Y-132043580D01*
X152260961Y-132214547D01*
X152042146Y-132362000D01*
X151812476Y-132484854D01*
X151573318Y-132582159D01*
X151325705Y-132653015D01*
X151070229Y-132696456D01*
X150785634Y-132712486D01*
X57660303Y-132712486D01*
X57375776Y-132696456D01*
X57120377Y-132653021D01*
X56872817Y-132582170D01*
X56633721Y-132484875D01*
X56404093Y-132362025D01*
X56185316Y-132214578D01*
X55979018Y-132043626D01*
X55786965Y-131850404D01*
X55611037Y-131636358D01*
X55453069Y-131403018D01*
X55314867Y-131152015D01*
X55198170Y-130885023D01*
X55104635Y-130603688D01*
X55035868Y-130309605D01*
X54993437Y-130004269D01*
X54978121Y-129671536D01*
X54978121Y-95078072D01*
X55837099Y-95078072D01*
X55852696Y-95156483D01*
X55934485Y-95353940D01*
X56053225Y-95531647D01*
X56204353Y-95682775D01*
X56382060Y-95801515D01*
X56579517Y-95883304D01*
X56789137Y-95925000D01*
X57002863Y-95925000D01*
X57212483Y-95883304D01*
X57409940Y-95801515D01*
X57587647Y-95682775D01*
X57738775Y-95531647D01*
X57857515Y-95353940D01*
X57939304Y-95156483D01*
X57954901Y-95078072D01*
X58896000Y-95078072D01*
X59020482Y-95065812D01*
X59140180Y-95029502D01*
X59250494Y-94970537D01*
X59347185Y-94891185D01*
X59426537Y-94794494D01*
X59485502Y-94684180D01*
X59521812Y-94564482D01*
X59534072Y-94440000D01*
X59534072Y-93440000D01*
X59521812Y-93315518D01*
X59485502Y-93195820D01*
X59426537Y-93085506D01*
X59347185Y-92988815D01*
X59250494Y-92909463D01*
X59140180Y-92850498D01*
X59020482Y-92814188D01*
X58896000Y-92801928D01*
X57296000Y-92801928D01*
X57171518Y-92814188D01*
X57051820Y-92850498D01*
X56941506Y-92909463D01*
X56896000Y-92946809D01*
X56850494Y-92909463D01*
X56740180Y-92850498D01*
X56620482Y-92814188D01*
X56496000Y-92801928D01*
X54978121Y-92801928D01*
X54978121Y-92578072D01*
X56496000Y-92578072D01*
X56527192Y-92575000D01*
X57264808Y-92575000D01*
X57296000Y-92578072D01*
X58896000Y-92578072D01*
X58927192Y-92575000D01*
X59425869Y-92575000D01*
X61730000Y-94879132D01*
X61730001Y-107805739D01*
X61724509Y-107861500D01*
X61746423Y-108083998D01*
X61811324Y-108297946D01*
X61811325Y-108297947D01*
X61916717Y-108495123D01*
X62058552Y-108667949D01*
X62101860Y-108703491D01*
X69477509Y-116079141D01*
X69513051Y-116122449D01*
X69685877Y-116264284D01*
X69838902Y-116346077D01*
X69883053Y-116369676D01*
X70097001Y-116434577D01*
X70319499Y-116456491D01*
X70375251Y-116451000D01*
X75192428Y-116451000D01*
X75210149Y-116460472D01*
X75376745Y-116511008D01*
X75549999Y-116528072D01*
X76850001Y-116528072D01*
X77023255Y-116511008D01*
X77189851Y-116460472D01*
X77343387Y-116378405D01*
X77362767Y-116362500D01*
X79851190Y-116362500D01*
X79855463Y-116370494D01*
X79934815Y-116467185D01*
X80031506Y-116546537D01*
X80105335Y-116586000D01*
X80031506Y-116625463D01*
X79934815Y-116704815D01*
X79855463Y-116801506D01*
X79796498Y-116911820D01*
X79760188Y-117031518D01*
X79747928Y-117156000D01*
X79747928Y-118716000D01*
X79760188Y-118840482D01*
X79796498Y-118960180D01*
X79855463Y-119070494D01*
X79934815Y-119167185D01*
X79951001Y-119180468D01*
X79951000Y-121733177D01*
X79947324Y-121770500D01*
X79951000Y-121807822D01*
X79951000Y-121807832D01*
X79961997Y-121919485D01*
X79996127Y-122031999D01*
X80005454Y-122062746D01*
X80076026Y-122194776D01*
X80099801Y-122223745D01*
X80170999Y-122310501D01*
X80200002Y-122334303D01*
X80321928Y-122456229D01*
X80321928Y-123332001D01*
X80338992Y-123505255D01*
X80389528Y-123671851D01*
X80471595Y-123825387D01*
X80582038Y-123959962D01*
X80716613Y-124070405D01*
X80870149Y-124152472D01*
X81036745Y-124203008D01*
X81209999Y-124220072D01*
X82035001Y-124220072D01*
X82208255Y-124203008D01*
X82374851Y-124152472D01*
X82528387Y-124070405D01*
X82662962Y-123959962D01*
X82773405Y-123825387D01*
X82855472Y-123671851D01*
X82906008Y-123505255D01*
X82923072Y-123332001D01*
X82923072Y-122031999D01*
X82906008Y-121858745D01*
X82855472Y-121692149D01*
X82773405Y-121538613D01*
X82662962Y-121404038D01*
X82528387Y-121293595D01*
X82374851Y-121211528D01*
X82208255Y-121160992D01*
X82035001Y-121143928D01*
X81471000Y-121143928D01*
X81471000Y-119354072D01*
X81986000Y-119354072D01*
X82110482Y-119341812D01*
X82136000Y-119334071D01*
X82161518Y-119341812D01*
X82286000Y-119354072D01*
X82936000Y-119354072D01*
X82952632Y-119352434D01*
X83987501Y-120387303D01*
X83987501Y-121215616D01*
X83841613Y-121293595D01*
X83707038Y-121404038D01*
X83596595Y-121538613D01*
X83514528Y-121692149D01*
X83463992Y-121858745D01*
X83446928Y-122031999D01*
X83446928Y-123332001D01*
X83463992Y-123505255D01*
X83514528Y-123671851D01*
X83596595Y-123825387D01*
X83707038Y-123959962D01*
X83841613Y-124070405D01*
X83995149Y-124152472D01*
X84161745Y-124203008D01*
X84334999Y-124220072D01*
X85160001Y-124220072D01*
X85333255Y-124203008D01*
X85499851Y-124152472D01*
X85653387Y-124070405D01*
X85787962Y-123959962D01*
X85898405Y-123825387D01*
X85980472Y-123671851D01*
X86031008Y-123505255D01*
X86048072Y-123332001D01*
X86048072Y-122031999D01*
X86031008Y-121858745D01*
X85980472Y-121692149D01*
X85898405Y-121538613D01*
X85787962Y-121404038D01*
X85653387Y-121293595D01*
X85507500Y-121215616D01*
X85507500Y-120109822D01*
X85511176Y-120072499D01*
X85507500Y-120035176D01*
X85507500Y-120035167D01*
X85496503Y-119923514D01*
X85453046Y-119780253D01*
X85382474Y-119648224D01*
X85287501Y-119532499D01*
X85258503Y-119508701D01*
X83574072Y-117824271D01*
X83574072Y-117156000D01*
X83561812Y-117031518D01*
X83525502Y-116911820D01*
X83466537Y-116801506D01*
X83387185Y-116704815D01*
X83290494Y-116625463D01*
X83216665Y-116586000D01*
X83290494Y-116546537D01*
X83387185Y-116467185D01*
X83466537Y-116370494D01*
X83525502Y-116260180D01*
X83561812Y-116140482D01*
X83574072Y-116016000D01*
X83574072Y-115996000D01*
X88854178Y-115996000D01*
X88891500Y-115999676D01*
X88928822Y-115996000D01*
X88928833Y-115996000D01*
X89040486Y-115985003D01*
X89183747Y-115941546D01*
X89315776Y-115870974D01*
X89431501Y-115776001D01*
X89455304Y-115746997D01*
X90045001Y-115157301D01*
X90045000Y-120970198D01*
X84775199Y-126240000D01*
X81594802Y-126240000D01*
X76295804Y-120941003D01*
X76272001Y-120911999D01*
X76156276Y-120817026D01*
X76024247Y-120746454D01*
X75880986Y-120702997D01*
X75769333Y-120692000D01*
X75769322Y-120692000D01*
X75732000Y-120688324D01*
X75694678Y-120692000D01*
X72904072Y-120692000D01*
X72904072Y-120652000D01*
X72891812Y-120527518D01*
X72855502Y-120407820D01*
X72796537Y-120297506D01*
X72717185Y-120200815D01*
X72620494Y-120121463D01*
X72510180Y-120062498D01*
X72390482Y-120026188D01*
X72266000Y-120013928D01*
X70716000Y-120013928D01*
X70591518Y-120026188D01*
X70471820Y-120062498D01*
X70361506Y-120121463D01*
X70264815Y-120200815D01*
X70185463Y-120297506D01*
X70126498Y-120407820D01*
X70090188Y-120527518D01*
X70077928Y-120652000D01*
X70077928Y-120692000D01*
X58954072Y-120692000D01*
X58954072Y-120652000D01*
X58941812Y-120527518D01*
X58905502Y-120407820D01*
X58846537Y-120297506D01*
X58767185Y-120200815D01*
X58670494Y-120121463D01*
X58560180Y-120062498D01*
X58440482Y-120026188D01*
X58316000Y-120013928D01*
X56766000Y-120013928D01*
X56641518Y-120026188D01*
X56521820Y-120062498D01*
X56411506Y-120121463D01*
X56314815Y-120200815D01*
X56235463Y-120297506D01*
X56176498Y-120407820D01*
X56140188Y-120527518D01*
X56127928Y-120652000D01*
X56127928Y-122252000D01*
X56140188Y-122376482D01*
X56176498Y-122496180D01*
X56235463Y-122606494D01*
X56314815Y-122703185D01*
X56411506Y-122782537D01*
X56521820Y-122841502D01*
X56641518Y-122877812D01*
X56766000Y-122890072D01*
X58316000Y-122890072D01*
X58440482Y-122877812D01*
X58560180Y-122841502D01*
X58670494Y-122782537D01*
X58767185Y-122703185D01*
X58846537Y-122606494D01*
X58905502Y-122496180D01*
X58941812Y-122376482D01*
X58954072Y-122252000D01*
X58954072Y-122212000D01*
X70077928Y-122212000D01*
X70077928Y-122252000D01*
X70090188Y-122376482D01*
X70126498Y-122496180D01*
X70185463Y-122606494D01*
X70264815Y-122703185D01*
X70361506Y-122782537D01*
X70471820Y-122841502D01*
X70591518Y-122877812D01*
X70716000Y-122890072D01*
X72266000Y-122890072D01*
X72390482Y-122877812D01*
X72510180Y-122841502D01*
X72620494Y-122782537D01*
X72717185Y-122703185D01*
X72796537Y-122606494D01*
X72855502Y-122496180D01*
X72891812Y-122376482D01*
X72904072Y-122252000D01*
X72904072Y-122212000D01*
X75417199Y-122212000D01*
X80716201Y-127511003D01*
X80739999Y-127540001D01*
X80855724Y-127634974D01*
X80987753Y-127705546D01*
X81131014Y-127749003D01*
X81242667Y-127760000D01*
X81242677Y-127760000D01*
X81280000Y-127763676D01*
X81317323Y-127760000D01*
X85052678Y-127760000D01*
X85090000Y-127763676D01*
X85127322Y-127760000D01*
X85127333Y-127760000D01*
X85238986Y-127749003D01*
X85382247Y-127705546D01*
X85514276Y-127634974D01*
X85630001Y-127540001D01*
X85653804Y-127510997D01*
X91316004Y-121848798D01*
X91345001Y-121825001D01*
X91439974Y-121709276D01*
X91510546Y-121577247D01*
X91554003Y-121433986D01*
X91565000Y-121322333D01*
X91565000Y-121322332D01*
X91568677Y-121285000D01*
X91565000Y-121247667D01*
X91565000Y-114612238D01*
X91628255Y-114606008D01*
X91794851Y-114555472D01*
X91948387Y-114473405D01*
X92082962Y-114362962D01*
X92193405Y-114228387D01*
X92271384Y-114082500D01*
X95091980Y-114082500D01*
X95156595Y-114203386D01*
X95267038Y-114337962D01*
X95401614Y-114448405D01*
X95555150Y-114530472D01*
X95721746Y-114581008D01*
X95895000Y-114598072D01*
X97145000Y-114598072D01*
X97318254Y-114581008D01*
X97484850Y-114530472D01*
X97638386Y-114448405D01*
X97772962Y-114337962D01*
X97883405Y-114203386D01*
X97954702Y-114070000D01*
X100137890Y-114070000D01*
X100154528Y-114124850D01*
X100236595Y-114278386D01*
X100347038Y-114412962D01*
X100481614Y-114523405D01*
X100635150Y-114605472D01*
X100801746Y-114656008D01*
X100975000Y-114673072D01*
X102225000Y-114673072D01*
X102398254Y-114656008D01*
X102564850Y-114605472D01*
X102718386Y-114523405D01*
X102852962Y-114412962D01*
X102963405Y-114278386D01*
X103045472Y-114124850D01*
X103062110Y-114070000D01*
X105245298Y-114070000D01*
X105316595Y-114203386D01*
X105427038Y-114337962D01*
X105561614Y-114448405D01*
X105715150Y-114530472D01*
X105881746Y-114581008D01*
X106055000Y-114598072D01*
X107305000Y-114598072D01*
X107478254Y-114581008D01*
X107644850Y-114530472D01*
X107798386Y-114448405D01*
X107932962Y-114337962D01*
X108043405Y-114203386D01*
X108114702Y-114070000D01*
X110325298Y-114070000D01*
X110396595Y-114203386D01*
X110507038Y-114337962D01*
X110641614Y-114448405D01*
X110795150Y-114530472D01*
X110961746Y-114581008D01*
X111135000Y-114598072D01*
X112385000Y-114598072D01*
X112558254Y-114581008D01*
X112724850Y-114530472D01*
X112878386Y-114448405D01*
X113012962Y-114337962D01*
X113123405Y-114203386D01*
X113194702Y-114070000D01*
X114875001Y-114070000D01*
X114875001Y-114631928D01*
X114810000Y-114631928D01*
X114656255Y-114647071D01*
X114508418Y-114691916D01*
X114372171Y-114764742D01*
X114252749Y-114862749D01*
X114154742Y-114982171D01*
X114081916Y-115118418D01*
X114037071Y-115266255D01*
X114021928Y-115420000D01*
X114021928Y-115720000D01*
X114037071Y-115873745D01*
X114081916Y-116021582D01*
X114154742Y-116157829D01*
X114193454Y-116205000D01*
X114154742Y-116252171D01*
X114081916Y-116388418D01*
X114037071Y-116536255D01*
X114021928Y-116690000D01*
X114021928Y-116990000D01*
X114037071Y-117143745D01*
X114081916Y-117291582D01*
X114154742Y-117427829D01*
X114193454Y-117475000D01*
X114154742Y-117522171D01*
X114081916Y-117658418D01*
X114037071Y-117806255D01*
X114021928Y-117960000D01*
X114021928Y-118260000D01*
X114037071Y-118413745D01*
X114081916Y-118561582D01*
X114113141Y-118620000D01*
X104809802Y-118620000D01*
X103109641Y-116919839D01*
X103113072Y-116885000D01*
X103113072Y-116085000D01*
X103096008Y-115911746D01*
X103045472Y-115745150D01*
X102963405Y-115591614D01*
X102852962Y-115457038D01*
X102718386Y-115346595D01*
X102564850Y-115264528D01*
X102398254Y-115213992D01*
X102225000Y-115196928D01*
X100975000Y-115196928D01*
X100801746Y-115213992D01*
X100635150Y-115264528D01*
X100481614Y-115346595D01*
X100347038Y-115457038D01*
X100236595Y-115591614D01*
X100154528Y-115745150D01*
X100103992Y-115911746D01*
X100086928Y-116085000D01*
X100086928Y-116885000D01*
X100103992Y-117058254D01*
X100154528Y-117224850D01*
X100236595Y-117378386D01*
X100347038Y-117512962D01*
X100481614Y-117623405D01*
X100635150Y-117705472D01*
X100801746Y-117756008D01*
X100975000Y-117773072D01*
X101813271Y-117773072D01*
X103931201Y-119891003D01*
X103954999Y-119920001D01*
X104070724Y-120014974D01*
X104202753Y-120085546D01*
X104346014Y-120129003D01*
X104457667Y-120140000D01*
X104457676Y-120140000D01*
X104494999Y-120143676D01*
X104532322Y-120140000D01*
X114113141Y-120140000D01*
X114081916Y-120198418D01*
X114037071Y-120346255D01*
X114021928Y-120500000D01*
X114021928Y-120800000D01*
X114037071Y-120953745D01*
X114081916Y-121101582D01*
X114154742Y-121237829D01*
X114193454Y-121285000D01*
X114154742Y-121332171D01*
X114081916Y-121468418D01*
X114037071Y-121616255D01*
X114021928Y-121770000D01*
X114021928Y-122070000D01*
X114022959Y-122080471D01*
X107297431Y-128806000D01*
X78650702Y-128806000D01*
X78579405Y-128672614D01*
X78468962Y-128538038D01*
X78334386Y-128427595D01*
X78180850Y-128345528D01*
X78014254Y-128294992D01*
X77841000Y-128277928D01*
X77002730Y-128277928D01*
X76478159Y-127753357D01*
X76930250Y-127751000D01*
X77089000Y-127592250D01*
X77089000Y-126593000D01*
X77343000Y-126593000D01*
X77343000Y-127592250D01*
X77501750Y-127751000D01*
X78091000Y-127754072D01*
X78215482Y-127741812D01*
X78335180Y-127705502D01*
X78445494Y-127646537D01*
X78542185Y-127567185D01*
X78621537Y-127470494D01*
X78680502Y-127360180D01*
X78716812Y-127240482D01*
X78729072Y-127116000D01*
X78726000Y-126751750D01*
X78567250Y-126593000D01*
X77343000Y-126593000D01*
X77089000Y-126593000D01*
X75864750Y-126593000D01*
X75706000Y-126751750D01*
X75704081Y-126979280D01*
X74665804Y-125941003D01*
X74642001Y-125911999D01*
X74526276Y-125817026D01*
X74524357Y-125816000D01*
X75702928Y-125816000D01*
X75706000Y-126180250D01*
X75864750Y-126339000D01*
X77089000Y-126339000D01*
X77089000Y-125339750D01*
X77343000Y-125339750D01*
X77343000Y-126339000D01*
X78567250Y-126339000D01*
X78726000Y-126180250D01*
X78729072Y-125816000D01*
X78716812Y-125691518D01*
X78680502Y-125571820D01*
X78621537Y-125461506D01*
X78542185Y-125364815D01*
X78445494Y-125285463D01*
X78335180Y-125226498D01*
X78215482Y-125190188D01*
X78091000Y-125177928D01*
X77501750Y-125181000D01*
X77343000Y-125339750D01*
X77089000Y-125339750D01*
X76930250Y-125181000D01*
X76341000Y-125177928D01*
X76216518Y-125190188D01*
X76096820Y-125226498D01*
X75986506Y-125285463D01*
X75889815Y-125364815D01*
X75810463Y-125461506D01*
X75751498Y-125571820D01*
X75715188Y-125691518D01*
X75702928Y-125816000D01*
X74524357Y-125816000D01*
X74394247Y-125746454D01*
X74250986Y-125702997D01*
X74139333Y-125692000D01*
X74139322Y-125692000D01*
X74102000Y-125688324D01*
X74064678Y-125692000D01*
X72904072Y-125692000D01*
X72904072Y-125652000D01*
X72891812Y-125527518D01*
X72855502Y-125407820D01*
X72796537Y-125297506D01*
X72717185Y-125200815D01*
X72620494Y-125121463D01*
X72510180Y-125062498D01*
X72390482Y-125026188D01*
X72266000Y-125013928D01*
X70716000Y-125013928D01*
X70591518Y-125026188D01*
X70471820Y-125062498D01*
X70361506Y-125121463D01*
X70264815Y-125200815D01*
X70185463Y-125297506D01*
X70126498Y-125407820D01*
X70090188Y-125527518D01*
X70077928Y-125652000D01*
X70077928Y-125692000D01*
X58954072Y-125692000D01*
X58954072Y-125652000D01*
X58941812Y-125527518D01*
X58905502Y-125407820D01*
X58846537Y-125297506D01*
X58767185Y-125200815D01*
X58670494Y-125121463D01*
X58560180Y-125062498D01*
X58440482Y-125026188D01*
X58316000Y-125013928D01*
X56766000Y-125013928D01*
X56641518Y-125026188D01*
X56521820Y-125062498D01*
X56411506Y-125121463D01*
X56314815Y-125200815D01*
X56235463Y-125297506D01*
X56176498Y-125407820D01*
X56140188Y-125527518D01*
X56127928Y-125652000D01*
X56127928Y-127252000D01*
X56140188Y-127376482D01*
X56176498Y-127496180D01*
X56235463Y-127606494D01*
X56314815Y-127703185D01*
X56411506Y-127782537D01*
X56521820Y-127841502D01*
X56641518Y-127877812D01*
X56766000Y-127890072D01*
X58316000Y-127890072D01*
X58440482Y-127877812D01*
X58560180Y-127841502D01*
X58670494Y-127782537D01*
X58767185Y-127703185D01*
X58846537Y-127606494D01*
X58905502Y-127496180D01*
X58941812Y-127376482D01*
X58954072Y-127252000D01*
X58954072Y-127212000D01*
X70077928Y-127212000D01*
X70077928Y-127252000D01*
X70090188Y-127376482D01*
X70126498Y-127496180D01*
X70185463Y-127606494D01*
X70264815Y-127703185D01*
X70361506Y-127782537D01*
X70471820Y-127841502D01*
X70591518Y-127877812D01*
X70716000Y-127890072D01*
X72266000Y-127890072D01*
X72390482Y-127877812D01*
X72510180Y-127841502D01*
X72620494Y-127782537D01*
X72717185Y-127703185D01*
X72796537Y-127606494D01*
X72855502Y-127496180D01*
X72891812Y-127376482D01*
X72904072Y-127252000D01*
X72904072Y-127212000D01*
X73787199Y-127212000D01*
X75706359Y-129131161D01*
X75702928Y-129166000D01*
X75702928Y-129966000D01*
X75719992Y-130139254D01*
X75770528Y-130305850D01*
X75852595Y-130459386D01*
X75963038Y-130593962D01*
X76097614Y-130704405D01*
X76251150Y-130786472D01*
X76417746Y-130837008D01*
X76591000Y-130854072D01*
X77841000Y-130854072D01*
X78014254Y-130837008D01*
X78180850Y-130786472D01*
X78334386Y-130704405D01*
X78468962Y-130593962D01*
X78579405Y-130459386D01*
X78650702Y-130326000D01*
X107574910Y-130326000D01*
X107612232Y-130329676D01*
X107649554Y-130326000D01*
X107649565Y-130326000D01*
X107761218Y-130315003D01*
X107904479Y-130271546D01*
X108036508Y-130200974D01*
X108152233Y-130106001D01*
X108176036Y-130076997D01*
X114309340Y-123943694D01*
X114372171Y-123995258D01*
X114508418Y-124068084D01*
X114656255Y-124112929D01*
X114810000Y-124128072D01*
X115498271Y-124128072D01*
X121421201Y-130051003D01*
X121444999Y-130080001D01*
X121473997Y-130103799D01*
X121560723Y-130174974D01*
X121634285Y-130214294D01*
X121692753Y-130245546D01*
X121836014Y-130289003D01*
X121947667Y-130300000D01*
X121947676Y-130300000D01*
X121984999Y-130303676D01*
X122022322Y-130300000D01*
X141567678Y-130300000D01*
X141605000Y-130303676D01*
X141642322Y-130300000D01*
X141642333Y-130300000D01*
X141753986Y-130289003D01*
X141897247Y-130245546D01*
X142029276Y-130174974D01*
X142145001Y-130080001D01*
X142168804Y-130050997D01*
X152911009Y-119308793D01*
X152940001Y-119285001D01*
X152963795Y-119256008D01*
X152963799Y-119256004D01*
X153034973Y-119169277D01*
X153034974Y-119169276D01*
X153105546Y-119037247D01*
X153149003Y-118893986D01*
X153160000Y-118782333D01*
X153160000Y-118782324D01*
X153163676Y-118745001D01*
X153160000Y-118707678D01*
X153160000Y-79412323D01*
X153163676Y-79375000D01*
X153160000Y-79337677D01*
X153160000Y-79337667D01*
X153149003Y-79226014D01*
X153105546Y-79082753D01*
X153034974Y-78950724D01*
X152940001Y-78834999D01*
X152911003Y-78811201D01*
X151058804Y-76959003D01*
X151035001Y-76929999D01*
X150919276Y-76835026D01*
X150787247Y-76764454D01*
X150643986Y-76720997D01*
X150532333Y-76710000D01*
X150532322Y-76710000D01*
X150495000Y-76706324D01*
X150457678Y-76710000D01*
X127529731Y-76710000D01*
X127492408Y-76706324D01*
X127455085Y-76710000D01*
X127455075Y-76710000D01*
X127343422Y-76720997D01*
X127200161Y-76764454D01*
X127068131Y-76835026D01*
X126984491Y-76903668D01*
X126952407Y-76929999D01*
X126928609Y-76958997D01*
X123919003Y-79968604D01*
X123889999Y-79992407D01*
X123834871Y-80059582D01*
X123795026Y-80108132D01*
X123755528Y-80182027D01*
X123737001Y-80216688D01*
X123730125Y-80219536D01*
X123619808Y-80278502D01*
X123538309Y-80332958D01*
X123441618Y-80412310D01*
X123372310Y-80481618D01*
X123292958Y-80578309D01*
X123238502Y-80659808D01*
X123179536Y-80770125D01*
X123142027Y-80860681D01*
X123105718Y-80980377D01*
X123086596Y-81076510D01*
X123074336Y-81200991D01*
X123074336Y-81225550D01*
X123071928Y-81250000D01*
X123071928Y-81800000D01*
X123084188Y-81924482D01*
X123084345Y-81925000D01*
X123084188Y-81925518D01*
X123071928Y-82050000D01*
X123071928Y-83050000D01*
X123084188Y-83174482D01*
X123120498Y-83294180D01*
X123179463Y-83404494D01*
X123258815Y-83501185D01*
X123355506Y-83580537D01*
X123465820Y-83639502D01*
X123585518Y-83675812D01*
X123710000Y-83688072D01*
X125210000Y-83688072D01*
X125334482Y-83675812D01*
X125454180Y-83639502D01*
X125564494Y-83580537D01*
X125661185Y-83501185D01*
X125740537Y-83404494D01*
X125791046Y-83310000D01*
X131064883Y-83310000D01*
X131074188Y-83404482D01*
X131110498Y-83524180D01*
X131169463Y-83634494D01*
X131248815Y-83731185D01*
X131345506Y-83810537D01*
X131455820Y-83869502D01*
X131575518Y-83905812D01*
X131700000Y-83918072D01*
X134700000Y-83918072D01*
X134824482Y-83905812D01*
X134944180Y-83869502D01*
X135054494Y-83810537D01*
X135151185Y-83731185D01*
X135230537Y-83634494D01*
X135289502Y-83524180D01*
X135325812Y-83404482D01*
X135338072Y-83280000D01*
X135338072Y-79280000D01*
X144061928Y-79280000D01*
X144061928Y-83280000D01*
X144074188Y-83404482D01*
X144110498Y-83524180D01*
X144169463Y-83634494D01*
X144248815Y-83731185D01*
X144345506Y-83810537D01*
X144455820Y-83869502D01*
X144575518Y-83905812D01*
X144700000Y-83918072D01*
X147700000Y-83918072D01*
X147757598Y-83912399D01*
X149100001Y-85254803D01*
X149100000Y-87345224D01*
X149061746Y-87348992D01*
X148895150Y-87399528D01*
X148741614Y-87481595D01*
X148607038Y-87592038D01*
X148496595Y-87726614D01*
X148414528Y-87880150D01*
X148363992Y-88046746D01*
X148346928Y-88220000D01*
X148346928Y-89020000D01*
X148363992Y-89193254D01*
X148414528Y-89359850D01*
X148496595Y-89513386D01*
X148607038Y-89647962D01*
X148741614Y-89758405D01*
X148895150Y-89840472D01*
X149061746Y-89891008D01*
X149235000Y-89908072D01*
X150485000Y-89908072D01*
X150658254Y-89891008D01*
X150824850Y-89840472D01*
X150978386Y-89758405D01*
X151112962Y-89647962D01*
X151223405Y-89513386D01*
X151305472Y-89359850D01*
X151356008Y-89193254D01*
X151373072Y-89020000D01*
X151373072Y-88220000D01*
X151356008Y-88046746D01*
X151305472Y-87880150D01*
X151223405Y-87726614D01*
X151112962Y-87592038D01*
X150978386Y-87481595D01*
X150824850Y-87399528D01*
X150658254Y-87348992D01*
X150620000Y-87345224D01*
X150620000Y-84977325D01*
X150623676Y-84940000D01*
X150620000Y-84902675D01*
X150620000Y-84902667D01*
X150609003Y-84791014D01*
X150565546Y-84647753D01*
X150494974Y-84515724D01*
X150400001Y-84399999D01*
X150371003Y-84376201D01*
X148338072Y-82343271D01*
X148338072Y-79280000D01*
X148325812Y-79155518D01*
X148289502Y-79035820D01*
X148230537Y-78925506D01*
X148151185Y-78828815D01*
X148054494Y-78749463D01*
X147944180Y-78690498D01*
X147824482Y-78654188D01*
X147700000Y-78641928D01*
X144700000Y-78641928D01*
X144575518Y-78654188D01*
X144455820Y-78690498D01*
X144345506Y-78749463D01*
X144248815Y-78828815D01*
X144169463Y-78925506D01*
X144110498Y-79035820D01*
X144074188Y-79155518D01*
X144061928Y-79280000D01*
X135338072Y-79280000D01*
X135325812Y-79155518D01*
X135289502Y-79035820D01*
X135230537Y-78925506D01*
X135151185Y-78828815D01*
X135054494Y-78749463D01*
X134944180Y-78690498D01*
X134824482Y-78654188D01*
X134700000Y-78641928D01*
X131700000Y-78641928D01*
X131575518Y-78654188D01*
X131455820Y-78690498D01*
X131345506Y-78749463D01*
X131248815Y-78828815D01*
X131169463Y-78925506D01*
X131110498Y-79035820D01*
X131074188Y-79155518D01*
X131061928Y-79280000D01*
X131061928Y-81790000D01*
X125848072Y-81790000D01*
X125848072Y-81250000D01*
X125845664Y-81225550D01*
X125845664Y-81200991D01*
X125833404Y-81076510D01*
X125814282Y-80980377D01*
X125777973Y-80860681D01*
X125740464Y-80770125D01*
X125681498Y-80659808D01*
X125627042Y-80578309D01*
X125551251Y-80485958D01*
X127807210Y-78230000D01*
X150180199Y-78230000D01*
X151640001Y-79689803D01*
X151640000Y-118430197D01*
X141290199Y-128780000D01*
X122299802Y-128780000D01*
X117178783Y-123658982D01*
X117188084Y-123641582D01*
X117232929Y-123493745D01*
X117248072Y-123340000D01*
X117248072Y-123040000D01*
X117232929Y-122886255D01*
X117188084Y-122738418D01*
X117115258Y-122602171D01*
X117076546Y-122555000D01*
X117115258Y-122507829D01*
X117188084Y-122371582D01*
X117232929Y-122223745D01*
X117248072Y-122070000D01*
X117248072Y-121770000D01*
X117232929Y-121616255D01*
X117188084Y-121468418D01*
X117115258Y-121332171D01*
X117076546Y-121285000D01*
X117115258Y-121237829D01*
X117188084Y-121101582D01*
X117232929Y-120953745D01*
X117248072Y-120800000D01*
X117248072Y-120500000D01*
X117232929Y-120346255D01*
X117188084Y-120198418D01*
X117115258Y-120062171D01*
X117076546Y-120015000D01*
X117115258Y-119967829D01*
X117133650Y-119933420D01*
X117150001Y-119920001D01*
X117173804Y-119890997D01*
X118819812Y-118244990D01*
X118971928Y-118244990D01*
X118971928Y-118260000D01*
X118987071Y-118413745D01*
X119031916Y-118561582D01*
X119104742Y-118697829D01*
X119143454Y-118745000D01*
X119104742Y-118792171D01*
X119031916Y-118928418D01*
X118987071Y-119076255D01*
X118971928Y-119230000D01*
X118971928Y-119530000D01*
X118987071Y-119683745D01*
X119031916Y-119831582D01*
X119104742Y-119967829D01*
X119143454Y-120015000D01*
X119104742Y-120062171D01*
X119031916Y-120198418D01*
X118987071Y-120346255D01*
X118971928Y-120500000D01*
X118971928Y-120800000D01*
X118987071Y-120953745D01*
X119031916Y-121101582D01*
X119104742Y-121237829D01*
X119143454Y-121285000D01*
X119104742Y-121332171D01*
X119031916Y-121468418D01*
X118987071Y-121616255D01*
X118971928Y-121770000D01*
X118971928Y-122070000D01*
X118987071Y-122223745D01*
X119031916Y-122371582D01*
X119104742Y-122507829D01*
X119143454Y-122555000D01*
X119104742Y-122602171D01*
X119031916Y-122738418D01*
X118987071Y-122886255D01*
X118971928Y-123040000D01*
X118971928Y-123340000D01*
X118987071Y-123493745D01*
X119031916Y-123641582D01*
X119104742Y-123777829D01*
X119202749Y-123897251D01*
X119322171Y-123995258D01*
X119458418Y-124068084D01*
X119606255Y-124112929D01*
X119760000Y-124128072D01*
X119825001Y-124128072D01*
X119825001Y-124357668D01*
X119821324Y-124395000D01*
X119835998Y-124543985D01*
X119879454Y-124687246D01*
X119950026Y-124819276D01*
X120021201Y-124906002D01*
X120045000Y-124935001D01*
X120073998Y-124958799D01*
X123261201Y-128146003D01*
X123284999Y-128175001D01*
X123313997Y-128198799D01*
X123400723Y-128269974D01*
X123532753Y-128340546D01*
X123676014Y-128384003D01*
X123787667Y-128395000D01*
X123787677Y-128395000D01*
X123825000Y-128398676D01*
X123862323Y-128395000D01*
X140932678Y-128395000D01*
X140970000Y-128398676D01*
X141007322Y-128395000D01*
X141007333Y-128395000D01*
X141118986Y-128384003D01*
X141262247Y-128340546D01*
X141394276Y-128269974D01*
X141510001Y-128175001D01*
X141533804Y-128145997D01*
X150371004Y-119308798D01*
X150400001Y-119285001D01*
X150494974Y-119169276D01*
X150565546Y-119037247D01*
X150609003Y-118893986D01*
X150620000Y-118782333D01*
X150620000Y-118782332D01*
X150623677Y-118745000D01*
X150620000Y-118707667D01*
X150620000Y-92994776D01*
X150658254Y-92991008D01*
X150824850Y-92940472D01*
X150978386Y-92858405D01*
X151112962Y-92747962D01*
X151223405Y-92613386D01*
X151305472Y-92459850D01*
X151356008Y-92293254D01*
X151373072Y-92120000D01*
X151373072Y-91320000D01*
X151356008Y-91146746D01*
X151305472Y-90980150D01*
X151223405Y-90826614D01*
X151112962Y-90692038D01*
X150978386Y-90581595D01*
X150824850Y-90499528D01*
X150658254Y-90448992D01*
X150485000Y-90431928D01*
X149235000Y-90431928D01*
X149061746Y-90448992D01*
X148895150Y-90499528D01*
X148741614Y-90581595D01*
X148607038Y-90692038D01*
X148496595Y-90826614D01*
X148414528Y-90980150D01*
X148363992Y-91146746D01*
X148346928Y-91320000D01*
X148346928Y-92120000D01*
X148363992Y-92293254D01*
X148414528Y-92459850D01*
X148496595Y-92613386D01*
X148607038Y-92747962D01*
X148741614Y-92858405D01*
X148895150Y-92940472D01*
X149061746Y-92991008D01*
X149100001Y-92994776D01*
X149100000Y-118430198D01*
X140655199Y-126875000D01*
X124139802Y-126875000D01*
X121392873Y-124128072D01*
X121410000Y-124128072D01*
X121563745Y-124112929D01*
X121711582Y-124068084D01*
X121847829Y-123995258D01*
X121967251Y-123897251D01*
X122065258Y-123777829D01*
X122138084Y-123641582D01*
X122182929Y-123493745D01*
X122198072Y-123340000D01*
X122198072Y-123040000D01*
X122182929Y-122886255D01*
X122138084Y-122738418D01*
X122065258Y-122602171D01*
X122026546Y-122555000D01*
X122065258Y-122507829D01*
X122138084Y-122371582D01*
X122182929Y-122223745D01*
X122198072Y-122070000D01*
X122198072Y-121770000D01*
X122182929Y-121616255D01*
X122138084Y-121468418D01*
X122065258Y-121332171D01*
X122026546Y-121285000D01*
X122065258Y-121237829D01*
X122138084Y-121101582D01*
X122182929Y-120953745D01*
X122198072Y-120800000D01*
X122198072Y-120500000D01*
X122182929Y-120346255D01*
X122138084Y-120198418D01*
X122099580Y-120126383D01*
X122118205Y-120145008D01*
X122141999Y-120174001D01*
X122170992Y-120197795D01*
X122170996Y-120197799D01*
X122199858Y-120221485D01*
X122257724Y-120268974D01*
X122389753Y-120339546D01*
X122533014Y-120383003D01*
X122644667Y-120394000D01*
X122644676Y-120394000D01*
X122681999Y-120397676D01*
X122719322Y-120394000D01*
X124717821Y-120394000D01*
X124643137Y-120574304D01*
X124599700Y-120792675D01*
X124599700Y-121015325D01*
X124643137Y-121233696D01*
X124728341Y-121439398D01*
X124852039Y-121624524D01*
X125009476Y-121781961D01*
X125194602Y-121905659D01*
X125400304Y-121990863D01*
X125618675Y-122034300D01*
X125841325Y-122034300D01*
X126059696Y-121990863D01*
X126265398Y-121905659D01*
X126450524Y-121781961D01*
X126607961Y-121624524D01*
X126731659Y-121439398D01*
X126746000Y-121404776D01*
X126760341Y-121439398D01*
X126884039Y-121624524D01*
X127041476Y-121781961D01*
X127226602Y-121905659D01*
X127432304Y-121990863D01*
X127650675Y-122034300D01*
X127873325Y-122034300D01*
X128091696Y-121990863D01*
X128297398Y-121905659D01*
X128482524Y-121781961D01*
X128639961Y-121624524D01*
X128763659Y-121439398D01*
X128848863Y-121233696D01*
X128892300Y-121015325D01*
X128892300Y-120792675D01*
X128848863Y-120574304D01*
X128763659Y-120368602D01*
X128639961Y-120183476D01*
X128482524Y-120026039D01*
X128364683Y-119947300D01*
X128370167Y-119934061D01*
X128409700Y-119735318D01*
X128409700Y-119532682D01*
X128370167Y-119333939D01*
X128292622Y-119146728D01*
X128193913Y-118999000D01*
X128292622Y-118851272D01*
X128370167Y-118664061D01*
X128409700Y-118465318D01*
X128409700Y-118410101D01*
X130813004Y-116006798D01*
X130842001Y-115983001D01*
X130936974Y-115867276D01*
X131007546Y-115735247D01*
X131051003Y-115591986D01*
X131062000Y-115480333D01*
X131062000Y-115480323D01*
X131065676Y-115443000D01*
X131062000Y-115405677D01*
X131062000Y-114591325D01*
X131065676Y-114554000D01*
X131062000Y-114516675D01*
X131062000Y-114516667D01*
X131051003Y-114405014D01*
X131007546Y-114261753D01*
X130936974Y-114129724D01*
X130842001Y-114013999D01*
X130813002Y-113990201D01*
X130103803Y-113281002D01*
X130080001Y-113251999D01*
X129964276Y-113157026D01*
X129832247Y-113086454D01*
X129688986Y-113042997D01*
X129577333Y-113032000D01*
X129577322Y-113032000D01*
X129540000Y-113028324D01*
X129502678Y-113032000D01*
X129305000Y-113032000D01*
X129305000Y-112928061D01*
X129265226Y-112728102D01*
X129187205Y-112539744D01*
X129073937Y-112370226D01*
X128929774Y-112226063D01*
X128760256Y-112112795D01*
X128571898Y-112034774D01*
X128371939Y-111995000D01*
X128309802Y-111995000D01*
X127287717Y-110972916D01*
X127317322Y-110970000D01*
X127317333Y-110970000D01*
X127428986Y-110959003D01*
X127572247Y-110915546D01*
X127704276Y-110844974D01*
X127820001Y-110750001D01*
X127843803Y-110720998D01*
X129095009Y-109469794D01*
X129124001Y-109446001D01*
X129147795Y-109417008D01*
X129147799Y-109417004D01*
X129218973Y-109330277D01*
X129218974Y-109330276D01*
X129289546Y-109198247D01*
X129333003Y-109054986D01*
X129344000Y-108943333D01*
X129344000Y-108943324D01*
X129347676Y-108906001D01*
X129344000Y-108868678D01*
X129344000Y-100992163D01*
X129408482Y-100985812D01*
X129528180Y-100949502D01*
X129638494Y-100890537D01*
X129735185Y-100811185D01*
X129814537Y-100714494D01*
X129873502Y-100604180D01*
X129909812Y-100484482D01*
X129922072Y-100360000D01*
X129922072Y-97760000D01*
X129909812Y-97635518D01*
X129873502Y-97515820D01*
X129814537Y-97405506D01*
X129735185Y-97308815D01*
X129638494Y-97229463D01*
X129528180Y-97170498D01*
X129408482Y-97134188D01*
X129284000Y-97121928D01*
X127884000Y-97121928D01*
X127759518Y-97134188D01*
X127639820Y-97170498D01*
X127529506Y-97229463D01*
X127432815Y-97308815D01*
X127353463Y-97405506D01*
X127294498Y-97515820D01*
X127258188Y-97635518D01*
X127245928Y-97760000D01*
X127245928Y-100360000D01*
X127258188Y-100484482D01*
X127294498Y-100604180D01*
X127353463Y-100714494D01*
X127432815Y-100811185D01*
X127529506Y-100890537D01*
X127639820Y-100949502D01*
X127759518Y-100985812D01*
X127824001Y-100992163D01*
X127824000Y-108591197D01*
X126965199Y-109450000D01*
X113194702Y-109450000D01*
X113123405Y-109316614D01*
X113012962Y-109182038D01*
X112878386Y-109071595D01*
X112724850Y-108989528D01*
X112558254Y-108938992D01*
X112385000Y-108921928D01*
X111135000Y-108921928D01*
X110961746Y-108938992D01*
X110795150Y-108989528D01*
X110641614Y-109071595D01*
X110507038Y-109182038D01*
X110396595Y-109316614D01*
X110314528Y-109470150D01*
X110263992Y-109636746D01*
X110246928Y-109810000D01*
X110246928Y-110610000D01*
X110263992Y-110783254D01*
X110314528Y-110949850D01*
X110396595Y-111103386D01*
X110507038Y-111237962D01*
X110641614Y-111348405D01*
X110795150Y-111430472D01*
X110961746Y-111481008D01*
X111135000Y-111498072D01*
X112385000Y-111498072D01*
X112558254Y-111481008D01*
X112724850Y-111430472D01*
X112878386Y-111348405D01*
X113012962Y-111237962D01*
X113123405Y-111103386D01*
X113194702Y-110970000D01*
X117532698Y-110970000D01*
X117006219Y-111496480D01*
X116960001Y-111491928D01*
X116134999Y-111491928D01*
X115961745Y-111508992D01*
X115795149Y-111559528D01*
X115641613Y-111641595D01*
X115507038Y-111752038D01*
X115396595Y-111886613D01*
X115314528Y-112040149D01*
X115263992Y-112206745D01*
X115246928Y-112379999D01*
X115246928Y-112550000D01*
X113194702Y-112550000D01*
X113123405Y-112416614D01*
X113012962Y-112282038D01*
X112878386Y-112171595D01*
X112724850Y-112089528D01*
X112558254Y-112038992D01*
X112385000Y-112021928D01*
X111135000Y-112021928D01*
X110961746Y-112038992D01*
X110795150Y-112089528D01*
X110641614Y-112171595D01*
X110507038Y-112282038D01*
X110396595Y-112416614D01*
X110325298Y-112550000D01*
X108114702Y-112550000D01*
X108043405Y-112416614D01*
X107932962Y-112282038D01*
X107798386Y-112171595D01*
X107644850Y-112089528D01*
X107478254Y-112038992D01*
X107305000Y-112021928D01*
X106055000Y-112021928D01*
X105881746Y-112038992D01*
X105715150Y-112089528D01*
X105561614Y-112171595D01*
X105427038Y-112282038D01*
X105316595Y-112416614D01*
X105245298Y-112550000D01*
X102994613Y-112550000D01*
X102963405Y-112491614D01*
X102852962Y-112357038D01*
X102718386Y-112246595D01*
X102564850Y-112164528D01*
X102398254Y-112113992D01*
X102225000Y-112096928D01*
X100975000Y-112096928D01*
X100801746Y-112113992D01*
X100635150Y-112164528D01*
X100481614Y-112246595D01*
X100347038Y-112357038D01*
X100236595Y-112491614D01*
X100205387Y-112550000D01*
X97954702Y-112550000D01*
X97883405Y-112416614D01*
X97772962Y-112282038D01*
X97638386Y-112171595D01*
X97484850Y-112089528D01*
X97318254Y-112038992D01*
X97145000Y-112021928D01*
X95895000Y-112021928D01*
X95721746Y-112038992D01*
X95555150Y-112089528D01*
X95401614Y-112171595D01*
X95267038Y-112282038D01*
X95156595Y-112416614D01*
X95078617Y-112562500D01*
X92271384Y-112562500D01*
X92193405Y-112416613D01*
X92082962Y-112282038D01*
X91948387Y-112171595D01*
X91794851Y-112089528D01*
X91628255Y-112038992D01*
X91455001Y-112021928D01*
X90154999Y-112021928D01*
X89981745Y-112038992D01*
X89815149Y-112089528D01*
X89661613Y-112171595D01*
X89527038Y-112282038D01*
X89416595Y-112416613D01*
X89334528Y-112570149D01*
X89283992Y-112736745D01*
X89266928Y-112909999D01*
X89266928Y-113735001D01*
X89271480Y-113781219D01*
X88576699Y-114476000D01*
X83574072Y-114476000D01*
X83574072Y-114456000D01*
X83561812Y-114331518D01*
X83525502Y-114211820D01*
X83466537Y-114101506D01*
X83387185Y-114004815D01*
X83290494Y-113925463D01*
X83180180Y-113866498D01*
X83060482Y-113830188D01*
X82936000Y-113817928D01*
X82286000Y-113817928D01*
X82161518Y-113830188D01*
X82136000Y-113837929D01*
X82110482Y-113830188D01*
X81986000Y-113817928D01*
X81946750Y-113821000D01*
X81788000Y-113979750D01*
X81788000Y-114061859D01*
X81755463Y-114101506D01*
X81696498Y-114211820D01*
X81661000Y-114328841D01*
X81625502Y-114211820D01*
X81566537Y-114101506D01*
X81534000Y-114061859D01*
X81534000Y-113979750D01*
X81375250Y-113821000D01*
X81336000Y-113817928D01*
X81211518Y-113830188D01*
X81186000Y-113837929D01*
X81160482Y-113830188D01*
X81036000Y-113817928D01*
X80386000Y-113817928D01*
X80261518Y-113830188D01*
X80141820Y-113866498D01*
X80031506Y-113925463D01*
X79934815Y-114004815D01*
X79862854Y-114092500D01*
X77362767Y-114092500D01*
X77343387Y-114076595D01*
X77189851Y-113994528D01*
X77023255Y-113943992D01*
X76850001Y-113926928D01*
X75549999Y-113926928D01*
X75376745Y-113943992D01*
X75210149Y-113994528D01*
X75056613Y-114076595D01*
X74929395Y-114181000D01*
X70789632Y-114181000D01*
X69373632Y-112765000D01*
X74661928Y-112765000D01*
X74674188Y-112889482D01*
X74710498Y-113009180D01*
X74769463Y-113119494D01*
X74848815Y-113216185D01*
X74945506Y-113295537D01*
X75055820Y-113354502D01*
X75175518Y-113390812D01*
X75300000Y-113403072D01*
X75914250Y-113400000D01*
X76073000Y-113241250D01*
X76073000Y-112229500D01*
X76327000Y-112229500D01*
X76327000Y-113241250D01*
X76485750Y-113400000D01*
X77100000Y-113403072D01*
X77224482Y-113390812D01*
X77344180Y-113354502D01*
X77454494Y-113295537D01*
X77551185Y-113216185D01*
X77630537Y-113119494D01*
X77689502Y-113009180D01*
X77725812Y-112889482D01*
X77738072Y-112765000D01*
X77735000Y-112388250D01*
X77576250Y-112229500D01*
X76327000Y-112229500D01*
X76073000Y-112229500D01*
X74823750Y-112229500D01*
X74665000Y-112388250D01*
X74661928Y-112765000D01*
X69373632Y-112765000D01*
X68048632Y-111440000D01*
X74661928Y-111440000D01*
X74665000Y-111816750D01*
X74823750Y-111975500D01*
X76073000Y-111975500D01*
X76073000Y-110963750D01*
X76327000Y-110963750D01*
X76327000Y-111975500D01*
X77576250Y-111975500D01*
X77735000Y-111816750D01*
X77738072Y-111440000D01*
X77725812Y-111315518D01*
X77689502Y-111195820D01*
X77630537Y-111085506D01*
X77551185Y-110988815D01*
X77454494Y-110909463D01*
X77361957Y-110860000D01*
X89266928Y-110860000D01*
X89279188Y-110984482D01*
X89315498Y-111104180D01*
X89374463Y-111214494D01*
X89453815Y-111311185D01*
X89550506Y-111390537D01*
X89660820Y-111449502D01*
X89780518Y-111485812D01*
X89905000Y-111498072D01*
X90519250Y-111495000D01*
X90678000Y-111336250D01*
X90678000Y-110324500D01*
X90932000Y-110324500D01*
X90932000Y-111336250D01*
X91090750Y-111495000D01*
X91705000Y-111498072D01*
X91829482Y-111485812D01*
X91949180Y-111449502D01*
X92059494Y-111390537D01*
X92156185Y-111311185D01*
X92235537Y-111214494D01*
X92294502Y-111104180D01*
X92330812Y-110984482D01*
X92343072Y-110860000D01*
X92340000Y-110483250D01*
X92181250Y-110324500D01*
X90932000Y-110324500D01*
X90678000Y-110324500D01*
X89428750Y-110324500D01*
X89270000Y-110483250D01*
X89266928Y-110860000D01*
X77361957Y-110860000D01*
X77344180Y-110850498D01*
X77224482Y-110814188D01*
X77100000Y-110801928D01*
X76485750Y-110805000D01*
X76327000Y-110963750D01*
X76073000Y-110963750D01*
X75914250Y-110805000D01*
X75300000Y-110801928D01*
X75175518Y-110814188D01*
X75055820Y-110850498D01*
X74945506Y-110909463D01*
X74848815Y-110988815D01*
X74769463Y-111085506D01*
X74710498Y-111195820D01*
X74674188Y-111315518D01*
X74661928Y-111440000D01*
X68048632Y-111440000D01*
X66143632Y-109535000D01*
X89266928Y-109535000D01*
X89270000Y-109911750D01*
X89428750Y-110070500D01*
X90678000Y-110070500D01*
X90678000Y-109058750D01*
X90932000Y-109058750D01*
X90932000Y-110070500D01*
X92181250Y-110070500D01*
X92340000Y-109911750D01*
X92343072Y-109535000D01*
X92330812Y-109410518D01*
X92294502Y-109290820D01*
X92235537Y-109180506D01*
X92156185Y-109083815D01*
X92059494Y-109004463D01*
X91949180Y-108945498D01*
X91829482Y-108909188D01*
X91705000Y-108896928D01*
X91090750Y-108900000D01*
X90932000Y-109058750D01*
X90678000Y-109058750D01*
X90519250Y-108900000D01*
X89905000Y-108896928D01*
X89780518Y-108909188D01*
X89660820Y-108945498D01*
X89550506Y-109004463D01*
X89453815Y-109083815D01*
X89374463Y-109180506D01*
X89315498Y-109290820D01*
X89279188Y-109410518D01*
X89266928Y-109535000D01*
X66143632Y-109535000D01*
X64000000Y-107391369D01*
X64000000Y-100360000D01*
X78611928Y-100360000D01*
X78624188Y-100484482D01*
X78660498Y-100604180D01*
X78719463Y-100714494D01*
X78798815Y-100811185D01*
X78895506Y-100890537D01*
X79005820Y-100949502D01*
X79125518Y-100985812D01*
X79250000Y-100998072D01*
X79664250Y-100995000D01*
X79823000Y-100836250D01*
X79823000Y-99187000D01*
X78773750Y-99187000D01*
X78615000Y-99345750D01*
X78611928Y-100360000D01*
X64000000Y-100360000D01*
X64000000Y-97760000D01*
X78611928Y-97760000D01*
X78615000Y-98774250D01*
X78773750Y-98933000D01*
X79823000Y-98933000D01*
X79823000Y-97283750D01*
X80077000Y-97283750D01*
X80077000Y-98933000D01*
X80097000Y-98933000D01*
X80097000Y-99187000D01*
X80077000Y-99187000D01*
X80077000Y-100836250D01*
X80235750Y-100995000D01*
X80650000Y-100998072D01*
X80774482Y-100985812D01*
X80894180Y-100949502D01*
X81004494Y-100890537D01*
X81101185Y-100811185D01*
X81180537Y-100714494D01*
X81239502Y-100604180D01*
X81275812Y-100484482D01*
X81278533Y-100456856D01*
X81280000Y-100457000D01*
X83820000Y-100457000D01*
X83821467Y-100456856D01*
X83824188Y-100484482D01*
X83860498Y-100604180D01*
X83919463Y-100714494D01*
X83998815Y-100811185D01*
X84095506Y-100890537D01*
X84205820Y-100949502D01*
X84325518Y-100985812D01*
X84450000Y-100998072D01*
X85850000Y-100998072D01*
X85974482Y-100985812D01*
X86094180Y-100949502D01*
X86153170Y-100917971D01*
X95010359Y-109775161D01*
X95006928Y-109810000D01*
X95006928Y-110610000D01*
X95023992Y-110783254D01*
X95074528Y-110949850D01*
X95156595Y-111103386D01*
X95267038Y-111237962D01*
X95401614Y-111348405D01*
X95555150Y-111430472D01*
X95721746Y-111481008D01*
X95895000Y-111498072D01*
X97145000Y-111498072D01*
X97318254Y-111481008D01*
X97484850Y-111430472D01*
X97638386Y-111348405D01*
X97772962Y-111237962D01*
X97883405Y-111103386D01*
X97965472Y-110949850D01*
X98016008Y-110783254D01*
X98033072Y-110610000D01*
X98033072Y-109810000D01*
X98016008Y-109636746D01*
X97965472Y-109470150D01*
X97883405Y-109316614D01*
X97772962Y-109182038D01*
X97638386Y-109071595D01*
X97484850Y-108989528D01*
X97318254Y-108938992D01*
X97145000Y-108921928D01*
X96306730Y-108921928D01*
X87744802Y-100360000D01*
X93851928Y-100360000D01*
X93864188Y-100484482D01*
X93900498Y-100604180D01*
X93959463Y-100714494D01*
X94038815Y-100811185D01*
X94135506Y-100890537D01*
X94245820Y-100949502D01*
X94365518Y-100985812D01*
X94490000Y-100998072D01*
X94904250Y-100995000D01*
X95063000Y-100836250D01*
X95063000Y-99187000D01*
X94013750Y-99187000D01*
X93855000Y-99345750D01*
X93851928Y-100360000D01*
X87744802Y-100360000D01*
X86488072Y-99103271D01*
X86488072Y-97760000D01*
X93851928Y-97760000D01*
X93855000Y-98774250D01*
X94013750Y-98933000D01*
X95063000Y-98933000D01*
X95063000Y-97283750D01*
X95317000Y-97283750D01*
X95317000Y-98933000D01*
X95337000Y-98933000D01*
X95337000Y-99187000D01*
X95317000Y-99187000D01*
X95317000Y-100836250D01*
X95475750Y-100995000D01*
X95890000Y-100998072D01*
X96014482Y-100985812D01*
X96134180Y-100949502D01*
X96244494Y-100890537D01*
X96341185Y-100811185D01*
X96420537Y-100714494D01*
X96479502Y-100604180D01*
X96515812Y-100484482D01*
X96518533Y-100456856D01*
X96520000Y-100457000D01*
X99060000Y-100457000D01*
X99061467Y-100456856D01*
X99064188Y-100484482D01*
X99100498Y-100604180D01*
X99159463Y-100714494D01*
X99238815Y-100811185D01*
X99335506Y-100890537D01*
X99445820Y-100949502D01*
X99565518Y-100985812D01*
X99630000Y-100992163D01*
X99630001Y-103882668D01*
X99626324Y-103920000D01*
X99640998Y-104068985D01*
X99684454Y-104212246D01*
X99755026Y-104344276D01*
X99826201Y-104431002D01*
X99850000Y-104460001D01*
X99878998Y-104483799D01*
X105170359Y-109775161D01*
X105166928Y-109810000D01*
X105166928Y-110610000D01*
X105183992Y-110783254D01*
X105234528Y-110949850D01*
X105316595Y-111103386D01*
X105427038Y-111237962D01*
X105561614Y-111348405D01*
X105715150Y-111430472D01*
X105881746Y-111481008D01*
X106055000Y-111498072D01*
X107305000Y-111498072D01*
X107478254Y-111481008D01*
X107644850Y-111430472D01*
X107798386Y-111348405D01*
X107932962Y-111237962D01*
X108043405Y-111103386D01*
X108125472Y-110949850D01*
X108176008Y-110783254D01*
X108193072Y-110610000D01*
X108193072Y-109810000D01*
X108176008Y-109636746D01*
X108125472Y-109470150D01*
X108043405Y-109316614D01*
X107932962Y-109182038D01*
X107798386Y-109071595D01*
X107644850Y-108989528D01*
X107478254Y-108938992D01*
X107305000Y-108921928D01*
X106466730Y-108921928D01*
X101150000Y-103605199D01*
X101150000Y-100992163D01*
X101214482Y-100985812D01*
X101334180Y-100949502D01*
X101444494Y-100890537D01*
X101541185Y-100811185D01*
X101620537Y-100714494D01*
X101679502Y-100604180D01*
X101715812Y-100484482D01*
X101728072Y-100360000D01*
X122045928Y-100360000D01*
X122058188Y-100484482D01*
X122094498Y-100604180D01*
X122153463Y-100714494D01*
X122232815Y-100811185D01*
X122329506Y-100890537D01*
X122439820Y-100949502D01*
X122559518Y-100985812D01*
X122684000Y-100998072D01*
X123098250Y-100995000D01*
X123257000Y-100836250D01*
X123257000Y-99187000D01*
X123511000Y-99187000D01*
X123511000Y-100836250D01*
X123669750Y-100995000D01*
X124084000Y-100998072D01*
X124208482Y-100985812D01*
X124328180Y-100949502D01*
X124438494Y-100890537D01*
X124535185Y-100811185D01*
X124614537Y-100714494D01*
X124673502Y-100604180D01*
X124709812Y-100484482D01*
X124722072Y-100360000D01*
X124719000Y-99345750D01*
X124560250Y-99187000D01*
X123511000Y-99187000D01*
X123257000Y-99187000D01*
X122207750Y-99187000D01*
X122049000Y-99345750D01*
X122045928Y-100360000D01*
X101728072Y-100360000D01*
X101728072Y-97760000D01*
X122045928Y-97760000D01*
X122049000Y-98774250D01*
X122207750Y-98933000D01*
X123257000Y-98933000D01*
X123257000Y-97283750D01*
X123511000Y-97283750D01*
X123511000Y-98933000D01*
X124560250Y-98933000D01*
X124719000Y-98774250D01*
X124722072Y-97760000D01*
X124709812Y-97635518D01*
X124673502Y-97515820D01*
X124614537Y-97405506D01*
X124535185Y-97308815D01*
X124438494Y-97229463D01*
X124328180Y-97170498D01*
X124208482Y-97134188D01*
X124084000Y-97121928D01*
X123669750Y-97125000D01*
X123511000Y-97283750D01*
X123257000Y-97283750D01*
X123098250Y-97125000D01*
X122684000Y-97121928D01*
X122559518Y-97134188D01*
X122439820Y-97170498D01*
X122329506Y-97229463D01*
X122232815Y-97308815D01*
X122153463Y-97405506D01*
X122094498Y-97515820D01*
X122058188Y-97635518D01*
X122045928Y-97760000D01*
X101728072Y-97760000D01*
X101715812Y-97635518D01*
X101679502Y-97515820D01*
X101620537Y-97405506D01*
X101541185Y-97308815D01*
X101444494Y-97229463D01*
X101334180Y-97170498D01*
X101214482Y-97134188D01*
X101090000Y-97121928D01*
X99690000Y-97121928D01*
X99565518Y-97134188D01*
X99445820Y-97170498D01*
X99335506Y-97229463D01*
X99238815Y-97308815D01*
X99159463Y-97405506D01*
X99100498Y-97515820D01*
X99064188Y-97635518D01*
X99061467Y-97663144D01*
X99060000Y-97663000D01*
X96520000Y-97663000D01*
X96518533Y-97663144D01*
X96515812Y-97635518D01*
X96479502Y-97515820D01*
X96420537Y-97405506D01*
X96341185Y-97308815D01*
X96244494Y-97229463D01*
X96134180Y-97170498D01*
X96014482Y-97134188D01*
X95890000Y-97121928D01*
X95475750Y-97125000D01*
X95317000Y-97283750D01*
X95063000Y-97283750D01*
X94904250Y-97125000D01*
X94490000Y-97121928D01*
X94365518Y-97134188D01*
X94245820Y-97170498D01*
X94135506Y-97229463D01*
X94038815Y-97308815D01*
X93959463Y-97405506D01*
X93900498Y-97515820D01*
X93864188Y-97635518D01*
X93851928Y-97760000D01*
X86488072Y-97760000D01*
X86475812Y-97635518D01*
X86439502Y-97515820D01*
X86380537Y-97405506D01*
X86301185Y-97308815D01*
X86204494Y-97229463D01*
X86094180Y-97170498D01*
X85974482Y-97134188D01*
X85850000Y-97121928D01*
X84450000Y-97121928D01*
X84325518Y-97134188D01*
X84205820Y-97170498D01*
X84095506Y-97229463D01*
X83998815Y-97308815D01*
X83919463Y-97405506D01*
X83860498Y-97515820D01*
X83824188Y-97635518D01*
X83821467Y-97663144D01*
X83820000Y-97663000D01*
X81280000Y-97663000D01*
X81278533Y-97663144D01*
X81275812Y-97635518D01*
X81239502Y-97515820D01*
X81180537Y-97405506D01*
X81101185Y-97308815D01*
X81004494Y-97229463D01*
X80894180Y-97170498D01*
X80774482Y-97134188D01*
X80650000Y-97121928D01*
X80235750Y-97125000D01*
X80077000Y-97283750D01*
X79823000Y-97283750D01*
X79664250Y-97125000D01*
X79250000Y-97121928D01*
X79125518Y-97134188D01*
X79005820Y-97170498D01*
X78895506Y-97229463D01*
X78798815Y-97308815D01*
X78719463Y-97405506D01*
X78660498Y-97515820D01*
X78624188Y-97635518D01*
X78611928Y-97760000D01*
X64000000Y-97760000D01*
X64000000Y-94464751D01*
X64005491Y-94408999D01*
X63983577Y-94186501D01*
X63918676Y-93972553D01*
X63901276Y-93940000D01*
X63813284Y-93775377D01*
X63671449Y-93602551D01*
X63628141Y-93567009D01*
X60737996Y-90676865D01*
X60702449Y-90633551D01*
X60529623Y-90491716D01*
X60332447Y-90386324D01*
X60118499Y-90321423D01*
X59951752Y-90305000D01*
X59951751Y-90305000D01*
X59896000Y-90299509D01*
X59840249Y-90305000D01*
X58927192Y-90305000D01*
X58896000Y-90301928D01*
X58090420Y-90301928D01*
X58282446Y-90243677D01*
X58479622Y-90138285D01*
X58552992Y-90078072D01*
X58896000Y-90078072D01*
X59020482Y-90065812D01*
X59140180Y-90029502D01*
X59250494Y-89970537D01*
X59347185Y-89891185D01*
X59426537Y-89794494D01*
X59485502Y-89684180D01*
X59521812Y-89564482D01*
X59522664Y-89555830D01*
X66579775Y-89555830D01*
X67623590Y-90629270D01*
X69256451Y-91557449D01*
X71039016Y-92149238D01*
X72902782Y-92381894D01*
X74776125Y-92246478D01*
X76587054Y-91748192D01*
X78265976Y-90906186D01*
X78680410Y-90629270D01*
X79724225Y-89555830D01*
X73152000Y-82983605D01*
X66579775Y-89555830D01*
X59522664Y-89555830D01*
X59534072Y-89440000D01*
X59534072Y-88440000D01*
X59521812Y-88315518D01*
X59485502Y-88195820D01*
X59426537Y-88085506D01*
X59347185Y-87988815D01*
X59250494Y-87909463D01*
X59231000Y-87899043D01*
X59231000Y-86425131D01*
X59564543Y-86091588D01*
X59592506Y-86114537D01*
X59702820Y-86173502D01*
X59822518Y-86209812D01*
X59947000Y-86222072D01*
X62547000Y-86222072D01*
X62671482Y-86209812D01*
X62791180Y-86173502D01*
X62901494Y-86114537D01*
X62998185Y-86035185D01*
X63077537Y-85938494D01*
X63136502Y-85828180D01*
X63172812Y-85708482D01*
X63185072Y-85584000D01*
X63185072Y-82554782D01*
X63574106Y-82554782D01*
X63709522Y-84428125D01*
X64207808Y-86239054D01*
X65049814Y-87917976D01*
X65326730Y-88332410D01*
X66400170Y-89376225D01*
X72972395Y-82804000D01*
X73331605Y-82804000D01*
X79903830Y-89376225D01*
X80977270Y-88332410D01*
X81905449Y-86699549D01*
X82497238Y-84916984D01*
X82729894Y-83053218D01*
X82594478Y-81179875D01*
X82096192Y-79368946D01*
X81254186Y-77690024D01*
X80977270Y-77275590D01*
X79903830Y-76231775D01*
X73331605Y-82804000D01*
X72972395Y-82804000D01*
X66400170Y-76231775D01*
X65326730Y-77275590D01*
X64398551Y-78908451D01*
X63806762Y-80691016D01*
X63574106Y-82554782D01*
X63185072Y-82554782D01*
X63185072Y-80024000D01*
X63172812Y-79899518D01*
X63136502Y-79779820D01*
X63077537Y-79669506D01*
X62998185Y-79572815D01*
X62901494Y-79493463D01*
X62791180Y-79434498D01*
X62671482Y-79398188D01*
X62553557Y-79386574D01*
X68415132Y-73525000D01*
X70933744Y-73525000D01*
X69716946Y-73859808D01*
X68038024Y-74701814D01*
X67623590Y-74978730D01*
X66579775Y-76052170D01*
X73152000Y-82624395D01*
X79724225Y-76052170D01*
X78680410Y-74978730D01*
X77047549Y-74050551D01*
X75464504Y-73525000D01*
X77952869Y-73525000D01*
X83813796Y-79385928D01*
X83757000Y-79385928D01*
X83632518Y-79398188D01*
X83512820Y-79434498D01*
X83402506Y-79493463D01*
X83305815Y-79572815D01*
X83226463Y-79669506D01*
X83167498Y-79779820D01*
X83131188Y-79899518D01*
X83118928Y-80024000D01*
X83118928Y-85584000D01*
X83131188Y-85708482D01*
X83167498Y-85828180D01*
X83226463Y-85938494D01*
X83305815Y-86035185D01*
X83402506Y-86114537D01*
X83512820Y-86173502D01*
X83632518Y-86209812D01*
X83757000Y-86222072D01*
X86357000Y-86222072D01*
X86481482Y-86209812D01*
X86601180Y-86173502D01*
X86711494Y-86114537D01*
X86808185Y-86035185D01*
X86887537Y-85938494D01*
X86946502Y-85828180D01*
X86982812Y-85708482D01*
X86995072Y-85584000D01*
X86995072Y-80024000D01*
X86982812Y-79899518D01*
X86946502Y-79779820D01*
X86887537Y-79669506D01*
X86808185Y-79572815D01*
X86711494Y-79493463D01*
X86601180Y-79434498D01*
X86481482Y-79398188D01*
X86357000Y-79385928D01*
X86192000Y-79385928D01*
X86192000Y-79079752D01*
X86197491Y-79024000D01*
X86175577Y-78801501D01*
X86110676Y-78587553D01*
X86005284Y-78390377D01*
X85951513Y-78324857D01*
X85863449Y-78217551D01*
X85820141Y-78182009D01*
X79264996Y-71626865D01*
X79229449Y-71583551D01*
X79056623Y-71441716D01*
X78859447Y-71336324D01*
X78645499Y-71271423D01*
X78478752Y-71255000D01*
X78478751Y-71255000D01*
X78423000Y-71249509D01*
X78367249Y-71255000D01*
X68000741Y-71255000D01*
X67944999Y-71249510D01*
X67889257Y-71255000D01*
X67889248Y-71255000D01*
X67722501Y-71271423D01*
X67508553Y-71336324D01*
X67311377Y-71441716D01*
X67138551Y-71583551D01*
X67103009Y-71626859D01*
X60483860Y-78246009D01*
X60440552Y-78281551D01*
X60298717Y-78454377D01*
X60242384Y-78559770D01*
X60193324Y-78651554D01*
X60128423Y-78865502D01*
X60106509Y-79088000D01*
X60112001Y-79143761D01*
X60112001Y-79385928D01*
X59947000Y-79385928D01*
X59822518Y-79398188D01*
X59702820Y-79434498D01*
X59592506Y-79493463D01*
X59495815Y-79572815D01*
X59416463Y-79669506D01*
X59357498Y-79779820D01*
X59321188Y-79899518D01*
X59308928Y-80024000D01*
X59308928Y-83136940D01*
X57625869Y-84820000D01*
X57334739Y-84820000D01*
X57278997Y-84814510D01*
X57223255Y-84820000D01*
X57223246Y-84820000D01*
X57056499Y-84836423D01*
X56842551Y-84901324D01*
X56645375Y-85006716D01*
X56472549Y-85148551D01*
X56437009Y-85191857D01*
X54978121Y-86650746D01*
X54978121Y-74264217D01*
X54993440Y-73931322D01*
X55035874Y-73625872D01*
X55104649Y-73331673D01*
X55198188Y-73050248D01*
X55314898Y-72783165D01*
X55453103Y-72532101D01*
X55611076Y-72298708D01*
X55787012Y-72084614D01*
X55979053Y-71891374D01*
X56185354Y-71720392D01*
X56404130Y-71572928D01*
X56633748Y-71450069D01*
X56872847Y-71352764D01*
X57120385Y-71281912D01*
X57375780Y-71238473D01*
X57660303Y-71222444D01*
X150785634Y-71222444D01*
X151070221Y-71238474D01*
%TA.AperFunction,Conductor*%
D25*
G36*
X151070221Y-71238474D02*
G01*
X151325690Y-71281917D01*
X151573303Y-71352778D01*
X151812454Y-71450090D01*
X152042118Y-71572955D01*
X152260926Y-71720420D01*
X152467255Y-71891402D01*
X152659330Y-72084655D01*
X152835273Y-72298732D01*
X152898589Y-72392268D01*
X152564095Y-72057774D01*
X152157089Y-71785821D01*
X151704848Y-71598497D01*
X151224751Y-71503000D01*
X150735249Y-71503000D01*
X150255152Y-71598497D01*
X149802911Y-71785821D01*
X149395905Y-72057774D01*
X149049774Y-72403905D01*
X148777821Y-72810911D01*
X148590497Y-73263152D01*
X148495000Y-73743249D01*
X148495000Y-74232751D01*
X148590497Y-74712848D01*
X148777821Y-75165089D01*
X149049774Y-75572095D01*
X149395905Y-75918226D01*
X149802911Y-76190179D01*
X150255152Y-76377503D01*
X150735249Y-76473000D01*
X151224751Y-76473000D01*
X151704848Y-76377503D01*
X152157089Y-76190179D01*
X152564095Y-75918226D01*
X152910226Y-75572095D01*
X153182179Y-75165089D01*
X153369503Y-74712848D01*
X153465000Y-74232751D01*
X153465000Y-74192916D01*
X153468282Y-74264226D01*
X153468283Y-129671504D01*
X153452963Y-130004262D01*
X153410532Y-130309582D01*
X153341760Y-130603658D01*
X153248220Y-130884990D01*
X153131512Y-131151981D01*
X152993300Y-131402979D01*
X152835319Y-131636315D01*
X152659365Y-131850370D01*
X152467302Y-132043580D01*
X152260961Y-132214547D01*
X152042146Y-132362000D01*
X151812476Y-132484854D01*
X151573318Y-132582159D01*
X151325705Y-132653015D01*
X151070229Y-132696456D01*
X150785634Y-132712486D01*
X57660303Y-132712486D01*
X57375776Y-132696456D01*
X57120377Y-132653021D01*
X56872817Y-132582170D01*
X56633721Y-132484875D01*
X56404093Y-132362025D01*
X56185316Y-132214578D01*
X55979018Y-132043626D01*
X55786965Y-131850404D01*
X55611037Y-131636358D01*
X55453069Y-131403018D01*
X55314867Y-131152015D01*
X55198170Y-130885023D01*
X55104635Y-130603688D01*
X55035868Y-130309605D01*
X54993437Y-130004269D01*
X54978121Y-129671536D01*
X54978121Y-95078072D01*
X55837099Y-95078072D01*
X55852696Y-95156483D01*
X55934485Y-95353940D01*
X56053225Y-95531647D01*
X56204353Y-95682775D01*
X56382060Y-95801515D01*
X56579517Y-95883304D01*
X56789137Y-95925000D01*
X57002863Y-95925000D01*
X57212483Y-95883304D01*
X57409940Y-95801515D01*
X57587647Y-95682775D01*
X57738775Y-95531647D01*
X57857515Y-95353940D01*
X57939304Y-95156483D01*
X57954901Y-95078072D01*
X58896000Y-95078072D01*
X59020482Y-95065812D01*
X59140180Y-95029502D01*
X59250494Y-94970537D01*
X59347185Y-94891185D01*
X59426537Y-94794494D01*
X59485502Y-94684180D01*
X59521812Y-94564482D01*
X59534072Y-94440000D01*
X59534072Y-93440000D01*
X59521812Y-93315518D01*
X59485502Y-93195820D01*
X59426537Y-93085506D01*
X59347185Y-92988815D01*
X59250494Y-92909463D01*
X59140180Y-92850498D01*
X59020482Y-92814188D01*
X58896000Y-92801928D01*
X57296000Y-92801928D01*
X57171518Y-92814188D01*
X57051820Y-92850498D01*
X56941506Y-92909463D01*
X56896000Y-92946809D01*
X56850494Y-92909463D01*
X56740180Y-92850498D01*
X56620482Y-92814188D01*
X56496000Y-92801928D01*
X54978121Y-92801928D01*
X54978121Y-92578072D01*
X56496000Y-92578072D01*
X56527192Y-92575000D01*
X57264808Y-92575000D01*
X57296000Y-92578072D01*
X58896000Y-92578072D01*
X58927192Y-92575000D01*
X59425869Y-92575000D01*
X61730000Y-94879132D01*
X61730001Y-107805739D01*
X61724509Y-107861500D01*
X61746423Y-108083998D01*
X61811324Y-108297946D01*
X61811325Y-108297947D01*
X61916717Y-108495123D01*
X62058552Y-108667949D01*
X62101860Y-108703491D01*
X69477509Y-116079141D01*
X69513051Y-116122449D01*
X69685877Y-116264284D01*
X69838902Y-116346077D01*
X69883053Y-116369676D01*
X70097001Y-116434577D01*
X70319499Y-116456491D01*
X70375251Y-116451000D01*
X75192428Y-116451000D01*
X75210149Y-116460472D01*
X75376745Y-116511008D01*
X75549999Y-116528072D01*
X76850001Y-116528072D01*
X77023255Y-116511008D01*
X77189851Y-116460472D01*
X77343387Y-116378405D01*
X77362767Y-116362500D01*
X79851190Y-116362500D01*
X79855463Y-116370494D01*
X79934815Y-116467185D01*
X80031506Y-116546537D01*
X80105335Y-116586000D01*
X80031506Y-116625463D01*
X79934815Y-116704815D01*
X79855463Y-116801506D01*
X79796498Y-116911820D01*
X79760188Y-117031518D01*
X79747928Y-117156000D01*
X79747928Y-118716000D01*
X79760188Y-118840482D01*
X79796498Y-118960180D01*
X79855463Y-119070494D01*
X79934815Y-119167185D01*
X79951001Y-119180468D01*
X79951000Y-121733177D01*
X79947324Y-121770500D01*
X79951000Y-121807822D01*
X79951000Y-121807832D01*
X79961997Y-121919485D01*
X79996127Y-122031999D01*
X80005454Y-122062746D01*
X80076026Y-122194776D01*
X80099801Y-122223745D01*
X80170999Y-122310501D01*
X80200002Y-122334303D01*
X80321928Y-122456229D01*
X80321928Y-123332001D01*
X80338992Y-123505255D01*
X80389528Y-123671851D01*
X80471595Y-123825387D01*
X80582038Y-123959962D01*
X80716613Y-124070405D01*
X80870149Y-124152472D01*
X81036745Y-124203008D01*
X81209999Y-124220072D01*
X82035001Y-124220072D01*
X82208255Y-124203008D01*
X82374851Y-124152472D01*
X82528387Y-124070405D01*
X82662962Y-123959962D01*
X82773405Y-123825387D01*
X82855472Y-123671851D01*
X82906008Y-123505255D01*
X82923072Y-123332001D01*
X82923072Y-122031999D01*
X82906008Y-121858745D01*
X82855472Y-121692149D01*
X82773405Y-121538613D01*
X82662962Y-121404038D01*
X82528387Y-121293595D01*
X82374851Y-121211528D01*
X82208255Y-121160992D01*
X82035001Y-121143928D01*
X81471000Y-121143928D01*
X81471000Y-119354072D01*
X81986000Y-119354072D01*
X82110482Y-119341812D01*
X82136000Y-119334071D01*
X82161518Y-119341812D01*
X82286000Y-119354072D01*
X82936000Y-119354072D01*
X82952632Y-119352434D01*
X83987501Y-120387303D01*
X83987501Y-121215616D01*
X83841613Y-121293595D01*
X83707038Y-121404038D01*
X83596595Y-121538613D01*
X83514528Y-121692149D01*
X83463992Y-121858745D01*
X83446928Y-122031999D01*
X83446928Y-123332001D01*
X83463992Y-123505255D01*
X83514528Y-123671851D01*
X83596595Y-123825387D01*
X83707038Y-123959962D01*
X83841613Y-124070405D01*
X83995149Y-124152472D01*
X84161745Y-124203008D01*
X84334999Y-124220072D01*
X85160001Y-124220072D01*
X85333255Y-124203008D01*
X85499851Y-124152472D01*
X85653387Y-124070405D01*
X85787962Y-123959962D01*
X85898405Y-123825387D01*
X85980472Y-123671851D01*
X86031008Y-123505255D01*
X86048072Y-123332001D01*
X86048072Y-122031999D01*
X86031008Y-121858745D01*
X85980472Y-121692149D01*
X85898405Y-121538613D01*
X85787962Y-121404038D01*
X85653387Y-121293595D01*
X85507500Y-121215616D01*
X85507500Y-120109822D01*
X85511176Y-120072499D01*
X85507500Y-120035176D01*
X85507500Y-120035167D01*
X85496503Y-119923514D01*
X85453046Y-119780253D01*
X85382474Y-119648224D01*
X85287501Y-119532499D01*
X85258503Y-119508701D01*
X83574072Y-117824271D01*
X83574072Y-117156000D01*
X83561812Y-117031518D01*
X83525502Y-116911820D01*
X83466537Y-116801506D01*
X83387185Y-116704815D01*
X83290494Y-116625463D01*
X83216665Y-116586000D01*
X83290494Y-116546537D01*
X83387185Y-116467185D01*
X83466537Y-116370494D01*
X83525502Y-116260180D01*
X83561812Y-116140482D01*
X83574072Y-116016000D01*
X83574072Y-115996000D01*
X88854178Y-115996000D01*
X88891500Y-115999676D01*
X88928822Y-115996000D01*
X88928833Y-115996000D01*
X89040486Y-115985003D01*
X89183747Y-115941546D01*
X89315776Y-115870974D01*
X89431501Y-115776001D01*
X89455304Y-115746997D01*
X90045001Y-115157301D01*
X90045000Y-120970198D01*
X84775199Y-126240000D01*
X81594802Y-126240000D01*
X76295804Y-120941003D01*
X76272001Y-120911999D01*
X76156276Y-120817026D01*
X76024247Y-120746454D01*
X75880986Y-120702997D01*
X75769333Y-120692000D01*
X75769322Y-120692000D01*
X75732000Y-120688324D01*
X75694678Y-120692000D01*
X72904072Y-120692000D01*
X72904072Y-120652000D01*
X72891812Y-120527518D01*
X72855502Y-120407820D01*
X72796537Y-120297506D01*
X72717185Y-120200815D01*
X72620494Y-120121463D01*
X72510180Y-120062498D01*
X72390482Y-120026188D01*
X72266000Y-120013928D01*
X70716000Y-120013928D01*
X70591518Y-120026188D01*
X70471820Y-120062498D01*
X70361506Y-120121463D01*
X70264815Y-120200815D01*
X70185463Y-120297506D01*
X70126498Y-120407820D01*
X70090188Y-120527518D01*
X70077928Y-120652000D01*
X70077928Y-120692000D01*
X58954072Y-120692000D01*
X58954072Y-120652000D01*
X58941812Y-120527518D01*
X58905502Y-120407820D01*
X58846537Y-120297506D01*
X58767185Y-120200815D01*
X58670494Y-120121463D01*
X58560180Y-120062498D01*
X58440482Y-120026188D01*
X58316000Y-120013928D01*
X56766000Y-120013928D01*
X56641518Y-120026188D01*
X56521820Y-120062498D01*
X56411506Y-120121463D01*
X56314815Y-120200815D01*
X56235463Y-120297506D01*
X56176498Y-120407820D01*
X56140188Y-120527518D01*
X56127928Y-120652000D01*
X56127928Y-122252000D01*
X56140188Y-122376482D01*
X56176498Y-122496180D01*
X56235463Y-122606494D01*
X56314815Y-122703185D01*
X56411506Y-122782537D01*
X56521820Y-122841502D01*
X56641518Y-122877812D01*
X56766000Y-122890072D01*
X58316000Y-122890072D01*
X58440482Y-122877812D01*
X58560180Y-122841502D01*
X58670494Y-122782537D01*
X58767185Y-122703185D01*
X58846537Y-122606494D01*
X58905502Y-122496180D01*
X58941812Y-122376482D01*
X58954072Y-122252000D01*
X58954072Y-122212000D01*
X70077928Y-122212000D01*
X70077928Y-122252000D01*
X70090188Y-122376482D01*
X70126498Y-122496180D01*
X70185463Y-122606494D01*
X70264815Y-122703185D01*
X70361506Y-122782537D01*
X70471820Y-122841502D01*
X70591518Y-122877812D01*
X70716000Y-122890072D01*
X72266000Y-122890072D01*
X72390482Y-122877812D01*
X72510180Y-122841502D01*
X72620494Y-122782537D01*
X72717185Y-122703185D01*
X72796537Y-122606494D01*
X72855502Y-122496180D01*
X72891812Y-122376482D01*
X72904072Y-122252000D01*
X72904072Y-122212000D01*
X75417199Y-122212000D01*
X80716201Y-127511003D01*
X80739999Y-127540001D01*
X80855724Y-127634974D01*
X80987753Y-127705546D01*
X81131014Y-127749003D01*
X81242667Y-127760000D01*
X81242677Y-127760000D01*
X81280000Y-127763676D01*
X81317323Y-127760000D01*
X85052678Y-127760000D01*
X85090000Y-127763676D01*
X85127322Y-127760000D01*
X85127333Y-127760000D01*
X85238986Y-127749003D01*
X85382247Y-127705546D01*
X85514276Y-127634974D01*
X85630001Y-127540001D01*
X85653804Y-127510997D01*
X91316004Y-121848798D01*
X91345001Y-121825001D01*
X91439974Y-121709276D01*
X91510546Y-121577247D01*
X91554003Y-121433986D01*
X91565000Y-121322333D01*
X91565000Y-121322332D01*
X91568677Y-121285000D01*
X91565000Y-121247667D01*
X91565000Y-114612238D01*
X91628255Y-114606008D01*
X91794851Y-114555472D01*
X91948387Y-114473405D01*
X92082962Y-114362962D01*
X92193405Y-114228387D01*
X92271384Y-114082500D01*
X95091980Y-114082500D01*
X95156595Y-114203386D01*
X95267038Y-114337962D01*
X95401614Y-114448405D01*
X95555150Y-114530472D01*
X95721746Y-114581008D01*
X95895000Y-114598072D01*
X97145000Y-114598072D01*
X97318254Y-114581008D01*
X97484850Y-114530472D01*
X97638386Y-114448405D01*
X97772962Y-114337962D01*
X97883405Y-114203386D01*
X97954702Y-114070000D01*
X100137890Y-114070000D01*
X100154528Y-114124850D01*
X100236595Y-114278386D01*
X100347038Y-114412962D01*
X100481614Y-114523405D01*
X100635150Y-114605472D01*
X100801746Y-114656008D01*
X100975000Y-114673072D01*
X102225000Y-114673072D01*
X102398254Y-114656008D01*
X102564850Y-114605472D01*
X102718386Y-114523405D01*
X102852962Y-114412962D01*
X102963405Y-114278386D01*
X103045472Y-114124850D01*
X103062110Y-114070000D01*
X105245298Y-114070000D01*
X105316595Y-114203386D01*
X105427038Y-114337962D01*
X105561614Y-114448405D01*
X105715150Y-114530472D01*
X105881746Y-114581008D01*
X106055000Y-114598072D01*
X107305000Y-114598072D01*
X107478254Y-114581008D01*
X107644850Y-114530472D01*
X107798386Y-114448405D01*
X107932962Y-114337962D01*
X108043405Y-114203386D01*
X108114702Y-114070000D01*
X110325298Y-114070000D01*
X110396595Y-114203386D01*
X110507038Y-114337962D01*
X110641614Y-114448405D01*
X110795150Y-114530472D01*
X110961746Y-114581008D01*
X111135000Y-114598072D01*
X112385000Y-114598072D01*
X112558254Y-114581008D01*
X112724850Y-114530472D01*
X112878386Y-114448405D01*
X113012962Y-114337962D01*
X113123405Y-114203386D01*
X113194702Y-114070000D01*
X114875001Y-114070000D01*
X114875001Y-114631928D01*
X114810000Y-114631928D01*
X114656255Y-114647071D01*
X114508418Y-114691916D01*
X114372171Y-114764742D01*
X114252749Y-114862749D01*
X114154742Y-114982171D01*
X114081916Y-115118418D01*
X114037071Y-115266255D01*
X114021928Y-115420000D01*
X114021928Y-115720000D01*
X114037071Y-115873745D01*
X114081916Y-116021582D01*
X114154742Y-116157829D01*
X114193454Y-116205000D01*
X114154742Y-116252171D01*
X114081916Y-116388418D01*
X114037071Y-116536255D01*
X114021928Y-116690000D01*
X114021928Y-116990000D01*
X114037071Y-117143745D01*
X114081916Y-117291582D01*
X114154742Y-117427829D01*
X114193454Y-117475000D01*
X114154742Y-117522171D01*
X114081916Y-117658418D01*
X114037071Y-117806255D01*
X114021928Y-117960000D01*
X114021928Y-118260000D01*
X114037071Y-118413745D01*
X114081916Y-118561582D01*
X114113141Y-118620000D01*
X104809802Y-118620000D01*
X103109641Y-116919839D01*
X103113072Y-116885000D01*
X103113072Y-116085000D01*
X103096008Y-115911746D01*
X103045472Y-115745150D01*
X102963405Y-115591614D01*
X102852962Y-115457038D01*
X102718386Y-115346595D01*
X102564850Y-115264528D01*
X102398254Y-115213992D01*
X102225000Y-115196928D01*
X100975000Y-115196928D01*
X100801746Y-115213992D01*
X100635150Y-115264528D01*
X100481614Y-115346595D01*
X100347038Y-115457038D01*
X100236595Y-115591614D01*
X100154528Y-115745150D01*
X100103992Y-115911746D01*
X100086928Y-116085000D01*
X100086928Y-116885000D01*
X100103992Y-117058254D01*
X100154528Y-117224850D01*
X100236595Y-117378386D01*
X100347038Y-117512962D01*
X100481614Y-117623405D01*
X100635150Y-117705472D01*
X100801746Y-117756008D01*
X100975000Y-117773072D01*
X101813271Y-117773072D01*
X103931201Y-119891003D01*
X103954999Y-119920001D01*
X104070724Y-120014974D01*
X104202753Y-120085546D01*
X104346014Y-120129003D01*
X104457667Y-120140000D01*
X104457676Y-120140000D01*
X104494999Y-120143676D01*
X104532322Y-120140000D01*
X114113141Y-120140000D01*
X114081916Y-120198418D01*
X114037071Y-120346255D01*
X114021928Y-120500000D01*
X114021928Y-120800000D01*
X114037071Y-120953745D01*
X114081916Y-121101582D01*
X114154742Y-121237829D01*
X114193454Y-121285000D01*
X114154742Y-121332171D01*
X114081916Y-121468418D01*
X114037071Y-121616255D01*
X114021928Y-121770000D01*
X114021928Y-122070000D01*
X114022959Y-122080471D01*
X107297431Y-128806000D01*
X78650702Y-128806000D01*
X78579405Y-128672614D01*
X78468962Y-128538038D01*
X78334386Y-128427595D01*
X78180850Y-128345528D01*
X78014254Y-128294992D01*
X77841000Y-128277928D01*
X77002730Y-128277928D01*
X76478159Y-127753357D01*
X76930250Y-127751000D01*
X77089000Y-127592250D01*
X77089000Y-126593000D01*
X77343000Y-126593000D01*
X77343000Y-127592250D01*
X77501750Y-127751000D01*
X78091000Y-127754072D01*
X78215482Y-127741812D01*
X78335180Y-127705502D01*
X78445494Y-127646537D01*
X78542185Y-127567185D01*
X78621537Y-127470494D01*
X78680502Y-127360180D01*
X78716812Y-127240482D01*
X78729072Y-127116000D01*
X78726000Y-126751750D01*
X78567250Y-126593000D01*
X77343000Y-126593000D01*
X77089000Y-126593000D01*
X75864750Y-126593000D01*
X75706000Y-126751750D01*
X75704081Y-126979280D01*
X74665804Y-125941003D01*
X74642001Y-125911999D01*
X74526276Y-125817026D01*
X74524357Y-125816000D01*
X75702928Y-125816000D01*
X75706000Y-126180250D01*
X75864750Y-126339000D01*
X77089000Y-126339000D01*
X77089000Y-125339750D01*
X77343000Y-125339750D01*
X77343000Y-126339000D01*
X78567250Y-126339000D01*
X78726000Y-126180250D01*
X78729072Y-125816000D01*
X78716812Y-125691518D01*
X78680502Y-125571820D01*
X78621537Y-125461506D01*
X78542185Y-125364815D01*
X78445494Y-125285463D01*
X78335180Y-125226498D01*
X78215482Y-125190188D01*
X78091000Y-125177928D01*
X77501750Y-125181000D01*
X77343000Y-125339750D01*
X77089000Y-125339750D01*
X76930250Y-125181000D01*
X76341000Y-125177928D01*
X76216518Y-125190188D01*
X76096820Y-125226498D01*
X75986506Y-125285463D01*
X75889815Y-125364815D01*
X75810463Y-125461506D01*
X75751498Y-125571820D01*
X75715188Y-125691518D01*
X75702928Y-125816000D01*
X74524357Y-125816000D01*
X74394247Y-125746454D01*
X74250986Y-125702997D01*
X74139333Y-125692000D01*
X74139322Y-125692000D01*
X74102000Y-125688324D01*
X74064678Y-125692000D01*
X72904072Y-125692000D01*
X72904072Y-125652000D01*
X72891812Y-125527518D01*
X72855502Y-125407820D01*
X72796537Y-125297506D01*
X72717185Y-125200815D01*
X72620494Y-125121463D01*
X72510180Y-125062498D01*
X72390482Y-125026188D01*
X72266000Y-125013928D01*
X70716000Y-125013928D01*
X70591518Y-125026188D01*
X70471820Y-125062498D01*
X70361506Y-125121463D01*
X70264815Y-125200815D01*
X70185463Y-125297506D01*
X70126498Y-125407820D01*
X70090188Y-125527518D01*
X70077928Y-125652000D01*
X70077928Y-125692000D01*
X58954072Y-125692000D01*
X58954072Y-125652000D01*
X58941812Y-125527518D01*
X58905502Y-125407820D01*
X58846537Y-125297506D01*
X58767185Y-125200815D01*
X58670494Y-125121463D01*
X58560180Y-125062498D01*
X58440482Y-125026188D01*
X58316000Y-125013928D01*
X56766000Y-125013928D01*
X56641518Y-125026188D01*
X56521820Y-125062498D01*
X56411506Y-125121463D01*
X56314815Y-125200815D01*
X56235463Y-125297506D01*
X56176498Y-125407820D01*
X56140188Y-125527518D01*
X56127928Y-125652000D01*
X56127928Y-127252000D01*
X56140188Y-127376482D01*
X56176498Y-127496180D01*
X56235463Y-127606494D01*
X56314815Y-127703185D01*
X56411506Y-127782537D01*
X56521820Y-127841502D01*
X56641518Y-127877812D01*
X56766000Y-127890072D01*
X58316000Y-127890072D01*
X58440482Y-127877812D01*
X58560180Y-127841502D01*
X58670494Y-127782537D01*
X58767185Y-127703185D01*
X58846537Y-127606494D01*
X58905502Y-127496180D01*
X58941812Y-127376482D01*
X58954072Y-127252000D01*
X58954072Y-127212000D01*
X70077928Y-127212000D01*
X70077928Y-127252000D01*
X70090188Y-127376482D01*
X70126498Y-127496180D01*
X70185463Y-127606494D01*
X70264815Y-127703185D01*
X70361506Y-127782537D01*
X70471820Y-127841502D01*
X70591518Y-127877812D01*
X70716000Y-127890072D01*
X72266000Y-127890072D01*
X72390482Y-127877812D01*
X72510180Y-127841502D01*
X72620494Y-127782537D01*
X72717185Y-127703185D01*
X72796537Y-127606494D01*
X72855502Y-127496180D01*
X72891812Y-127376482D01*
X72904072Y-127252000D01*
X72904072Y-127212000D01*
X73787199Y-127212000D01*
X75706359Y-129131161D01*
X75702928Y-129166000D01*
X75702928Y-129966000D01*
X75719992Y-130139254D01*
X75770528Y-130305850D01*
X75852595Y-130459386D01*
X75963038Y-130593962D01*
X76097614Y-130704405D01*
X76251150Y-130786472D01*
X76417746Y-130837008D01*
X76591000Y-130854072D01*
X77841000Y-130854072D01*
X78014254Y-130837008D01*
X78180850Y-130786472D01*
X78334386Y-130704405D01*
X78468962Y-130593962D01*
X78579405Y-130459386D01*
X78650702Y-130326000D01*
X107574910Y-130326000D01*
X107612232Y-130329676D01*
X107649554Y-130326000D01*
X107649565Y-130326000D01*
X107761218Y-130315003D01*
X107904479Y-130271546D01*
X108036508Y-130200974D01*
X108152233Y-130106001D01*
X108176036Y-130076997D01*
X114309340Y-123943694D01*
X114372171Y-123995258D01*
X114508418Y-124068084D01*
X114656255Y-124112929D01*
X114810000Y-124128072D01*
X115498271Y-124128072D01*
X121421201Y-130051003D01*
X121444999Y-130080001D01*
X121473997Y-130103799D01*
X121560723Y-130174974D01*
X121634285Y-130214294D01*
X121692753Y-130245546D01*
X121836014Y-130289003D01*
X121947667Y-130300000D01*
X121947676Y-130300000D01*
X121984999Y-130303676D01*
X122022322Y-130300000D01*
X141567678Y-130300000D01*
X141605000Y-130303676D01*
X141642322Y-130300000D01*
X141642333Y-130300000D01*
X141753986Y-130289003D01*
X141897247Y-130245546D01*
X142029276Y-130174974D01*
X142145001Y-130080001D01*
X142168804Y-130050997D01*
X152911009Y-119308793D01*
X152940001Y-119285001D01*
X152963795Y-119256008D01*
X152963799Y-119256004D01*
X153034973Y-119169277D01*
X153034974Y-119169276D01*
X153105546Y-119037247D01*
X153149003Y-118893986D01*
X153160000Y-118782333D01*
X153160000Y-118782324D01*
X153163676Y-118745001D01*
X153160000Y-118707678D01*
X153160000Y-79412323D01*
X153163676Y-79375000D01*
X153160000Y-79337677D01*
X153160000Y-79337667D01*
X153149003Y-79226014D01*
X153105546Y-79082753D01*
X153034974Y-78950724D01*
X152940001Y-78834999D01*
X152911003Y-78811201D01*
X151058804Y-76959003D01*
X151035001Y-76929999D01*
X150919276Y-76835026D01*
X150787247Y-76764454D01*
X150643986Y-76720997D01*
X150532333Y-76710000D01*
X150532322Y-76710000D01*
X150495000Y-76706324D01*
X150457678Y-76710000D01*
X127529731Y-76710000D01*
X127492408Y-76706324D01*
X127455085Y-76710000D01*
X127455075Y-76710000D01*
X127343422Y-76720997D01*
X127200161Y-76764454D01*
X127068131Y-76835026D01*
X126984491Y-76903668D01*
X126952407Y-76929999D01*
X126928609Y-76958997D01*
X123919003Y-79968604D01*
X123889999Y-79992407D01*
X123834871Y-80059582D01*
X123795026Y-80108132D01*
X123755528Y-80182027D01*
X123737001Y-80216688D01*
X123730125Y-80219536D01*
X123619808Y-80278502D01*
X123538309Y-80332958D01*
X123441618Y-80412310D01*
X123372310Y-80481618D01*
X123292958Y-80578309D01*
X123238502Y-80659808D01*
X123179536Y-80770125D01*
X123142027Y-80860681D01*
X123105718Y-80980377D01*
X123086596Y-81076510D01*
X123074336Y-81200991D01*
X123074336Y-81225550D01*
X123071928Y-81250000D01*
X123071928Y-81800000D01*
X123084188Y-81924482D01*
X123084345Y-81925000D01*
X123084188Y-81925518D01*
X123071928Y-82050000D01*
X123071928Y-83050000D01*
X123084188Y-83174482D01*
X123120498Y-83294180D01*
X123179463Y-83404494D01*
X123258815Y-83501185D01*
X123355506Y-83580537D01*
X123465820Y-83639502D01*
X123585518Y-83675812D01*
X123710000Y-83688072D01*
X125210000Y-83688072D01*
X125334482Y-83675812D01*
X125454180Y-83639502D01*
X125564494Y-83580537D01*
X125661185Y-83501185D01*
X125740537Y-83404494D01*
X125791046Y-83310000D01*
X131064883Y-83310000D01*
X131074188Y-83404482D01*
X131110498Y-83524180D01*
X131169463Y-83634494D01*
X131248815Y-83731185D01*
X131345506Y-83810537D01*
X131455820Y-83869502D01*
X131575518Y-83905812D01*
X131700000Y-83918072D01*
X134700000Y-83918072D01*
X134824482Y-83905812D01*
X134944180Y-83869502D01*
X135054494Y-83810537D01*
X135151185Y-83731185D01*
X135230537Y-83634494D01*
X135289502Y-83524180D01*
X135325812Y-83404482D01*
X135338072Y-83280000D01*
X135338072Y-79280000D01*
X144061928Y-79280000D01*
X144061928Y-83280000D01*
X144074188Y-83404482D01*
X144110498Y-83524180D01*
X144169463Y-83634494D01*
X144248815Y-83731185D01*
X144345506Y-83810537D01*
X144455820Y-83869502D01*
X144575518Y-83905812D01*
X144700000Y-83918072D01*
X147700000Y-83918072D01*
X147757598Y-83912399D01*
X149100001Y-85254803D01*
X149100000Y-87345224D01*
X149061746Y-87348992D01*
X148895150Y-87399528D01*
X148741614Y-87481595D01*
X148607038Y-87592038D01*
X148496595Y-87726614D01*
X148414528Y-87880150D01*
X148363992Y-88046746D01*
X148346928Y-88220000D01*
X148346928Y-89020000D01*
X148363992Y-89193254D01*
X148414528Y-89359850D01*
X148496595Y-89513386D01*
X148607038Y-89647962D01*
X148741614Y-89758405D01*
X148895150Y-89840472D01*
X149061746Y-89891008D01*
X149235000Y-89908072D01*
X150485000Y-89908072D01*
X150658254Y-89891008D01*
X150824850Y-89840472D01*
X150978386Y-89758405D01*
X151112962Y-89647962D01*
X151223405Y-89513386D01*
X151305472Y-89359850D01*
X151356008Y-89193254D01*
X151373072Y-89020000D01*
X151373072Y-88220000D01*
X151356008Y-88046746D01*
X151305472Y-87880150D01*
X151223405Y-87726614D01*
X151112962Y-87592038D01*
X150978386Y-87481595D01*
X150824850Y-87399528D01*
X150658254Y-87348992D01*
X150620000Y-87345224D01*
X150620000Y-84977325D01*
X150623676Y-84940000D01*
X150620000Y-84902675D01*
X150620000Y-84902667D01*
X150609003Y-84791014D01*
X150565546Y-84647753D01*
X150494974Y-84515724D01*
X150400001Y-84399999D01*
X150371003Y-84376201D01*
X148338072Y-82343271D01*
X148338072Y-79280000D01*
X148325812Y-79155518D01*
X148289502Y-79035820D01*
X148230537Y-78925506D01*
X148151185Y-78828815D01*
X148054494Y-78749463D01*
X147944180Y-78690498D01*
X147824482Y-78654188D01*
X147700000Y-78641928D01*
X144700000Y-78641928D01*
X144575518Y-78654188D01*
X144455820Y-78690498D01*
X144345506Y-78749463D01*
X144248815Y-78828815D01*
X144169463Y-78925506D01*
X144110498Y-79035820D01*
X144074188Y-79155518D01*
X144061928Y-79280000D01*
X135338072Y-79280000D01*
X135325812Y-79155518D01*
X135289502Y-79035820D01*
X135230537Y-78925506D01*
X135151185Y-78828815D01*
X135054494Y-78749463D01*
X134944180Y-78690498D01*
X134824482Y-78654188D01*
X134700000Y-78641928D01*
X131700000Y-78641928D01*
X131575518Y-78654188D01*
X131455820Y-78690498D01*
X131345506Y-78749463D01*
X131248815Y-78828815D01*
X131169463Y-78925506D01*
X131110498Y-79035820D01*
X131074188Y-79155518D01*
X131061928Y-79280000D01*
X131061928Y-81790000D01*
X125848072Y-81790000D01*
X125848072Y-81250000D01*
X125845664Y-81225550D01*
X125845664Y-81200991D01*
X125833404Y-81076510D01*
X125814282Y-80980377D01*
X125777973Y-80860681D01*
X125740464Y-80770125D01*
X125681498Y-80659808D01*
X125627042Y-80578309D01*
X125551251Y-80485958D01*
X127807210Y-78230000D01*
X150180199Y-78230000D01*
X151640001Y-79689803D01*
X151640000Y-118430197D01*
X141290199Y-128780000D01*
X122299802Y-128780000D01*
X117178783Y-123658982D01*
X117188084Y-123641582D01*
X117232929Y-123493745D01*
X117248072Y-123340000D01*
X117248072Y-123040000D01*
X117232929Y-122886255D01*
X117188084Y-122738418D01*
X117115258Y-122602171D01*
X117076546Y-122555000D01*
X117115258Y-122507829D01*
X117188084Y-122371582D01*
X117232929Y-122223745D01*
X117248072Y-122070000D01*
X117248072Y-121770000D01*
X117232929Y-121616255D01*
X117188084Y-121468418D01*
X117115258Y-121332171D01*
X117076546Y-121285000D01*
X117115258Y-121237829D01*
X117188084Y-121101582D01*
X117232929Y-120953745D01*
X117248072Y-120800000D01*
X117248072Y-120500000D01*
X117232929Y-120346255D01*
X117188084Y-120198418D01*
X117115258Y-120062171D01*
X117076546Y-120015000D01*
X117115258Y-119967829D01*
X117133650Y-119933420D01*
X117150001Y-119920001D01*
X117173804Y-119890997D01*
X118819812Y-118244990D01*
X118971928Y-118244990D01*
X118971928Y-118260000D01*
X118987071Y-118413745D01*
X119031916Y-118561582D01*
X119104742Y-118697829D01*
X119143454Y-118745000D01*
X119104742Y-118792171D01*
X119031916Y-118928418D01*
X118987071Y-119076255D01*
X118971928Y-119230000D01*
X118971928Y-119530000D01*
X118987071Y-119683745D01*
X119031916Y-119831582D01*
X119104742Y-119967829D01*
X119143454Y-120015000D01*
X119104742Y-120062171D01*
X119031916Y-120198418D01*
X118987071Y-120346255D01*
X118971928Y-120500000D01*
X118971928Y-120800000D01*
X118987071Y-120953745D01*
X119031916Y-121101582D01*
X119104742Y-121237829D01*
X119143454Y-121285000D01*
X119104742Y-121332171D01*
X119031916Y-121468418D01*
X118987071Y-121616255D01*
X118971928Y-121770000D01*
X118971928Y-122070000D01*
X118987071Y-122223745D01*
X119031916Y-122371582D01*
X119104742Y-122507829D01*
X119143454Y-122555000D01*
X119104742Y-122602171D01*
X119031916Y-122738418D01*
X118987071Y-122886255D01*
X118971928Y-123040000D01*
X118971928Y-123340000D01*
X118987071Y-123493745D01*
X119031916Y-123641582D01*
X119104742Y-123777829D01*
X119202749Y-123897251D01*
X119322171Y-123995258D01*
X119458418Y-124068084D01*
X119606255Y-124112929D01*
X119760000Y-124128072D01*
X119825001Y-124128072D01*
X119825001Y-124357668D01*
X119821324Y-124395000D01*
X119835998Y-124543985D01*
X119879454Y-124687246D01*
X119950026Y-124819276D01*
X120021201Y-124906002D01*
X120045000Y-124935001D01*
X120073998Y-124958799D01*
X123261201Y-128146003D01*
X123284999Y-128175001D01*
X123313997Y-128198799D01*
X123400723Y-128269974D01*
X123532753Y-128340546D01*
X123676014Y-128384003D01*
X123787667Y-128395000D01*
X123787677Y-128395000D01*
X123825000Y-128398676D01*
X123862323Y-128395000D01*
X140932678Y-128395000D01*
X140970000Y-128398676D01*
X141007322Y-128395000D01*
X141007333Y-128395000D01*
X141118986Y-128384003D01*
X141262247Y-128340546D01*
X141394276Y-128269974D01*
X141510001Y-128175001D01*
X141533804Y-128145997D01*
X150371004Y-119308798D01*
X150400001Y-119285001D01*
X150494974Y-119169276D01*
X150565546Y-119037247D01*
X150609003Y-118893986D01*
X150620000Y-118782333D01*
X150620000Y-118782332D01*
X150623677Y-118745000D01*
X150620000Y-118707667D01*
X150620000Y-92994776D01*
X150658254Y-92991008D01*
X150824850Y-92940472D01*
X150978386Y-92858405D01*
X151112962Y-92747962D01*
X151223405Y-92613386D01*
X151305472Y-92459850D01*
X151356008Y-92293254D01*
X151373072Y-92120000D01*
X151373072Y-91320000D01*
X151356008Y-91146746D01*
X151305472Y-90980150D01*
X151223405Y-90826614D01*
X151112962Y-90692038D01*
X150978386Y-90581595D01*
X150824850Y-90499528D01*
X150658254Y-90448992D01*
X150485000Y-90431928D01*
X149235000Y-90431928D01*
X149061746Y-90448992D01*
X148895150Y-90499528D01*
X148741614Y-90581595D01*
X148607038Y-90692038D01*
X148496595Y-90826614D01*
X148414528Y-90980150D01*
X148363992Y-91146746D01*
X148346928Y-91320000D01*
X148346928Y-92120000D01*
X148363992Y-92293254D01*
X148414528Y-92459850D01*
X148496595Y-92613386D01*
X148607038Y-92747962D01*
X148741614Y-92858405D01*
X148895150Y-92940472D01*
X149061746Y-92991008D01*
X149100001Y-92994776D01*
X149100000Y-118430198D01*
X140655199Y-126875000D01*
X124139802Y-126875000D01*
X121392873Y-124128072D01*
X121410000Y-124128072D01*
X121563745Y-124112929D01*
X121711582Y-124068084D01*
X121847829Y-123995258D01*
X121967251Y-123897251D01*
X122065258Y-123777829D01*
X122138084Y-123641582D01*
X122182929Y-123493745D01*
X122198072Y-123340000D01*
X122198072Y-123040000D01*
X122182929Y-122886255D01*
X122138084Y-122738418D01*
X122065258Y-122602171D01*
X122026546Y-122555000D01*
X122065258Y-122507829D01*
X122138084Y-122371582D01*
X122182929Y-122223745D01*
X122198072Y-122070000D01*
X122198072Y-121770000D01*
X122182929Y-121616255D01*
X122138084Y-121468418D01*
X122065258Y-121332171D01*
X122026546Y-121285000D01*
X122065258Y-121237829D01*
X122138084Y-121101582D01*
X122182929Y-120953745D01*
X122198072Y-120800000D01*
X122198072Y-120500000D01*
X122182929Y-120346255D01*
X122138084Y-120198418D01*
X122099580Y-120126383D01*
X122118205Y-120145008D01*
X122141999Y-120174001D01*
X122170992Y-120197795D01*
X122170996Y-120197799D01*
X122199858Y-120221485D01*
X122257724Y-120268974D01*
X122389753Y-120339546D01*
X122533014Y-120383003D01*
X122644667Y-120394000D01*
X122644676Y-120394000D01*
X122681999Y-120397676D01*
X122719322Y-120394000D01*
X124717821Y-120394000D01*
X124643137Y-120574304D01*
X124599700Y-120792675D01*
X124599700Y-121015325D01*
X124643137Y-121233696D01*
X124728341Y-121439398D01*
X124852039Y-121624524D01*
X125009476Y-121781961D01*
X125194602Y-121905659D01*
X125400304Y-121990863D01*
X125618675Y-122034300D01*
X125841325Y-122034300D01*
X126059696Y-121990863D01*
X126265398Y-121905659D01*
X126450524Y-121781961D01*
X126607961Y-121624524D01*
X126731659Y-121439398D01*
X126746000Y-121404776D01*
X126760341Y-121439398D01*
X126884039Y-121624524D01*
X127041476Y-121781961D01*
X127226602Y-121905659D01*
X127432304Y-121990863D01*
X127650675Y-122034300D01*
X127873325Y-122034300D01*
X128091696Y-121990863D01*
X128297398Y-121905659D01*
X128482524Y-121781961D01*
X128639961Y-121624524D01*
X128763659Y-121439398D01*
X128848863Y-121233696D01*
X128892300Y-121015325D01*
X128892300Y-120792675D01*
X128848863Y-120574304D01*
X128763659Y-120368602D01*
X128639961Y-120183476D01*
X128482524Y-120026039D01*
X128364683Y-119947300D01*
X128370167Y-119934061D01*
X128409700Y-119735318D01*
X128409700Y-119532682D01*
X128370167Y-119333939D01*
X128292622Y-119146728D01*
X128193913Y-118999000D01*
X128292622Y-118851272D01*
X128370167Y-118664061D01*
X128409700Y-118465318D01*
X128409700Y-118410101D01*
X130813004Y-116006798D01*
X130842001Y-115983001D01*
X130936974Y-115867276D01*
X131007546Y-115735247D01*
X131051003Y-115591986D01*
X131062000Y-115480333D01*
X131062000Y-115480323D01*
X131065676Y-115443000D01*
X131062000Y-115405677D01*
X131062000Y-114591325D01*
X131065676Y-114554000D01*
X131062000Y-114516675D01*
X131062000Y-114516667D01*
X131051003Y-114405014D01*
X131007546Y-114261753D01*
X130936974Y-114129724D01*
X130842001Y-114013999D01*
X130813002Y-113990201D01*
X130103803Y-113281002D01*
X130080001Y-113251999D01*
X129964276Y-113157026D01*
X129832247Y-113086454D01*
X129688986Y-113042997D01*
X129577333Y-113032000D01*
X129577322Y-113032000D01*
X129540000Y-113028324D01*
X129502678Y-113032000D01*
X129305000Y-113032000D01*
X129305000Y-112928061D01*
X129265226Y-112728102D01*
X129187205Y-112539744D01*
X129073937Y-112370226D01*
X128929774Y-112226063D01*
X128760256Y-112112795D01*
X128571898Y-112034774D01*
X128371939Y-111995000D01*
X128309802Y-111995000D01*
X127287717Y-110972916D01*
X127317322Y-110970000D01*
X127317333Y-110970000D01*
X127428986Y-110959003D01*
X127572247Y-110915546D01*
X127704276Y-110844974D01*
X127820001Y-110750001D01*
X127843803Y-110720998D01*
X129095009Y-109469794D01*
X129124001Y-109446001D01*
X129147795Y-109417008D01*
X129147799Y-109417004D01*
X129218973Y-109330277D01*
X129218974Y-109330276D01*
X129289546Y-109198247D01*
X129333003Y-109054986D01*
X129344000Y-108943333D01*
X129344000Y-108943324D01*
X129347676Y-108906001D01*
X129344000Y-108868678D01*
X129344000Y-100992163D01*
X129408482Y-100985812D01*
X129528180Y-100949502D01*
X129638494Y-100890537D01*
X129735185Y-100811185D01*
X129814537Y-100714494D01*
X129873502Y-100604180D01*
X129909812Y-100484482D01*
X129922072Y-100360000D01*
X129922072Y-97760000D01*
X129909812Y-97635518D01*
X129873502Y-97515820D01*
X129814537Y-97405506D01*
X129735185Y-97308815D01*
X129638494Y-97229463D01*
X129528180Y-97170498D01*
X129408482Y-97134188D01*
X129284000Y-97121928D01*
X127884000Y-97121928D01*
X127759518Y-97134188D01*
X127639820Y-97170498D01*
X127529506Y-97229463D01*
X127432815Y-97308815D01*
X127353463Y-97405506D01*
X127294498Y-97515820D01*
X127258188Y-97635518D01*
X127245928Y-97760000D01*
X127245928Y-100360000D01*
X127258188Y-100484482D01*
X127294498Y-100604180D01*
X127353463Y-100714494D01*
X127432815Y-100811185D01*
X127529506Y-100890537D01*
X127639820Y-100949502D01*
X127759518Y-100985812D01*
X127824001Y-100992163D01*
X127824000Y-108591197D01*
X126965199Y-109450000D01*
X113194702Y-109450000D01*
X113123405Y-109316614D01*
X113012962Y-109182038D01*
X112878386Y-109071595D01*
X112724850Y-108989528D01*
X112558254Y-108938992D01*
X112385000Y-108921928D01*
X111135000Y-108921928D01*
X110961746Y-108938992D01*
X110795150Y-108989528D01*
X110641614Y-109071595D01*
X110507038Y-109182038D01*
X110396595Y-109316614D01*
X110314528Y-109470150D01*
X110263992Y-109636746D01*
X110246928Y-109810000D01*
X110246928Y-110610000D01*
X110263992Y-110783254D01*
X110314528Y-110949850D01*
X110396595Y-111103386D01*
X110507038Y-111237962D01*
X110641614Y-111348405D01*
X110795150Y-111430472D01*
X110961746Y-111481008D01*
X111135000Y-111498072D01*
X112385000Y-111498072D01*
X112558254Y-111481008D01*
X112724850Y-111430472D01*
X112878386Y-111348405D01*
X113012962Y-111237962D01*
X113123405Y-111103386D01*
X113194702Y-110970000D01*
X117532698Y-110970000D01*
X117006219Y-111496480D01*
X116960001Y-111491928D01*
X116134999Y-111491928D01*
X115961745Y-111508992D01*
X115795149Y-111559528D01*
X115641613Y-111641595D01*
X115507038Y-111752038D01*
X115396595Y-111886613D01*
X115314528Y-112040149D01*
X115263992Y-112206745D01*
X115246928Y-112379999D01*
X115246928Y-112550000D01*
X113194702Y-112550000D01*
X113123405Y-112416614D01*
X113012962Y-112282038D01*
X112878386Y-112171595D01*
X112724850Y-112089528D01*
X112558254Y-112038992D01*
X112385000Y-112021928D01*
X111135000Y-112021928D01*
X110961746Y-112038992D01*
X110795150Y-112089528D01*
X110641614Y-112171595D01*
X110507038Y-112282038D01*
X110396595Y-112416614D01*
X110325298Y-112550000D01*
X108114702Y-112550000D01*
X108043405Y-112416614D01*
X107932962Y-112282038D01*
X107798386Y-112171595D01*
X107644850Y-112089528D01*
X107478254Y-112038992D01*
X107305000Y-112021928D01*
X106055000Y-112021928D01*
X105881746Y-112038992D01*
X105715150Y-112089528D01*
X105561614Y-112171595D01*
X105427038Y-112282038D01*
X105316595Y-112416614D01*
X105245298Y-112550000D01*
X102994613Y-112550000D01*
X102963405Y-112491614D01*
X102852962Y-112357038D01*
X102718386Y-112246595D01*
X102564850Y-112164528D01*
X102398254Y-112113992D01*
X102225000Y-112096928D01*
X100975000Y-112096928D01*
X100801746Y-112113992D01*
X100635150Y-112164528D01*
X100481614Y-112246595D01*
X100347038Y-112357038D01*
X100236595Y-112491614D01*
X100205387Y-112550000D01*
X97954702Y-112550000D01*
X97883405Y-112416614D01*
X97772962Y-112282038D01*
X97638386Y-112171595D01*
X97484850Y-112089528D01*
X97318254Y-112038992D01*
X97145000Y-112021928D01*
X95895000Y-112021928D01*
X95721746Y-112038992D01*
X95555150Y-112089528D01*
X95401614Y-112171595D01*
X95267038Y-112282038D01*
X95156595Y-112416614D01*
X95078617Y-112562500D01*
X92271384Y-112562500D01*
X92193405Y-112416613D01*
X92082962Y-112282038D01*
X91948387Y-112171595D01*
X91794851Y-112089528D01*
X91628255Y-112038992D01*
X91455001Y-112021928D01*
X90154999Y-112021928D01*
X89981745Y-112038992D01*
X89815149Y-112089528D01*
X89661613Y-112171595D01*
X89527038Y-112282038D01*
X89416595Y-112416613D01*
X89334528Y-112570149D01*
X89283992Y-112736745D01*
X89266928Y-112909999D01*
X89266928Y-113735001D01*
X89271480Y-113781219D01*
X88576699Y-114476000D01*
X83574072Y-114476000D01*
X83574072Y-114456000D01*
X83561812Y-114331518D01*
X83525502Y-114211820D01*
X83466537Y-114101506D01*
X83387185Y-114004815D01*
X83290494Y-113925463D01*
X83180180Y-113866498D01*
X83060482Y-113830188D01*
X82936000Y-113817928D01*
X82286000Y-113817928D01*
X82161518Y-113830188D01*
X82136000Y-113837929D01*
X82110482Y-113830188D01*
X81986000Y-113817928D01*
X81946750Y-113821000D01*
X81788000Y-113979750D01*
X81788000Y-114061859D01*
X81755463Y-114101506D01*
X81696498Y-114211820D01*
X81661000Y-114328841D01*
X81625502Y-114211820D01*
X81566537Y-114101506D01*
X81534000Y-114061859D01*
X81534000Y-113979750D01*
X81375250Y-113821000D01*
X81336000Y-113817928D01*
X81211518Y-113830188D01*
X81186000Y-113837929D01*
X81160482Y-113830188D01*
X81036000Y-113817928D01*
X80386000Y-113817928D01*
X80261518Y-113830188D01*
X80141820Y-113866498D01*
X80031506Y-113925463D01*
X79934815Y-114004815D01*
X79862854Y-114092500D01*
X77362767Y-114092500D01*
X77343387Y-114076595D01*
X77189851Y-113994528D01*
X77023255Y-113943992D01*
X76850001Y-113926928D01*
X75549999Y-113926928D01*
X75376745Y-113943992D01*
X75210149Y-113994528D01*
X75056613Y-114076595D01*
X74929395Y-114181000D01*
X70789632Y-114181000D01*
X69373632Y-112765000D01*
X74661928Y-112765000D01*
X74674188Y-112889482D01*
X74710498Y-113009180D01*
X74769463Y-113119494D01*
X74848815Y-113216185D01*
X74945506Y-113295537D01*
X75055820Y-113354502D01*
X75175518Y-113390812D01*
X75300000Y-113403072D01*
X75914250Y-113400000D01*
X76073000Y-113241250D01*
X76073000Y-112229500D01*
X76327000Y-112229500D01*
X76327000Y-113241250D01*
X76485750Y-113400000D01*
X77100000Y-113403072D01*
X77224482Y-113390812D01*
X77344180Y-113354502D01*
X77454494Y-113295537D01*
X77551185Y-113216185D01*
X77630537Y-113119494D01*
X77689502Y-113009180D01*
X77725812Y-112889482D01*
X77738072Y-112765000D01*
X77735000Y-112388250D01*
X77576250Y-112229500D01*
X76327000Y-112229500D01*
X76073000Y-112229500D01*
X74823750Y-112229500D01*
X74665000Y-112388250D01*
X74661928Y-112765000D01*
X69373632Y-112765000D01*
X68048632Y-111440000D01*
X74661928Y-111440000D01*
X74665000Y-111816750D01*
X74823750Y-111975500D01*
X76073000Y-111975500D01*
X76073000Y-110963750D01*
X76327000Y-110963750D01*
X76327000Y-111975500D01*
X77576250Y-111975500D01*
X77735000Y-111816750D01*
X77738072Y-111440000D01*
X77725812Y-111315518D01*
X77689502Y-111195820D01*
X77630537Y-111085506D01*
X77551185Y-110988815D01*
X77454494Y-110909463D01*
X77361957Y-110860000D01*
X89266928Y-110860000D01*
X89279188Y-110984482D01*
X89315498Y-111104180D01*
X89374463Y-111214494D01*
X89453815Y-111311185D01*
X89550506Y-111390537D01*
X89660820Y-111449502D01*
X89780518Y-111485812D01*
X89905000Y-111498072D01*
X90519250Y-111495000D01*
X90678000Y-111336250D01*
X90678000Y-110324500D01*
X90932000Y-110324500D01*
X90932000Y-111336250D01*
X91090750Y-111495000D01*
X91705000Y-111498072D01*
X91829482Y-111485812D01*
X91949180Y-111449502D01*
X92059494Y-111390537D01*
X92156185Y-111311185D01*
X92235537Y-111214494D01*
X92294502Y-111104180D01*
X92330812Y-110984482D01*
X92343072Y-110860000D01*
X92340000Y-110483250D01*
X92181250Y-110324500D01*
X90932000Y-110324500D01*
X90678000Y-110324500D01*
X89428750Y-110324500D01*
X89270000Y-110483250D01*
X89266928Y-110860000D01*
X77361957Y-110860000D01*
X77344180Y-110850498D01*
X77224482Y-110814188D01*
X77100000Y-110801928D01*
X76485750Y-110805000D01*
X76327000Y-110963750D01*
X76073000Y-110963750D01*
X75914250Y-110805000D01*
X75300000Y-110801928D01*
X75175518Y-110814188D01*
X75055820Y-110850498D01*
X74945506Y-110909463D01*
X74848815Y-110988815D01*
X74769463Y-111085506D01*
X74710498Y-111195820D01*
X74674188Y-111315518D01*
X74661928Y-111440000D01*
X68048632Y-111440000D01*
X66143632Y-109535000D01*
X89266928Y-109535000D01*
X89270000Y-109911750D01*
X89428750Y-110070500D01*
X90678000Y-110070500D01*
X90678000Y-109058750D01*
X90932000Y-109058750D01*
X90932000Y-110070500D01*
X92181250Y-110070500D01*
X92340000Y-109911750D01*
X92343072Y-109535000D01*
X92330812Y-109410518D01*
X92294502Y-109290820D01*
X92235537Y-109180506D01*
X92156185Y-109083815D01*
X92059494Y-109004463D01*
X91949180Y-108945498D01*
X91829482Y-108909188D01*
X91705000Y-108896928D01*
X91090750Y-108900000D01*
X90932000Y-109058750D01*
X90678000Y-109058750D01*
X90519250Y-108900000D01*
X89905000Y-108896928D01*
X89780518Y-108909188D01*
X89660820Y-108945498D01*
X89550506Y-109004463D01*
X89453815Y-109083815D01*
X89374463Y-109180506D01*
X89315498Y-109290820D01*
X89279188Y-109410518D01*
X89266928Y-109535000D01*
X66143632Y-109535000D01*
X64000000Y-107391369D01*
X64000000Y-100360000D01*
X78611928Y-100360000D01*
X78624188Y-100484482D01*
X78660498Y-100604180D01*
X78719463Y-100714494D01*
X78798815Y-100811185D01*
X78895506Y-100890537D01*
X79005820Y-100949502D01*
X79125518Y-100985812D01*
X79250000Y-100998072D01*
X79664250Y-100995000D01*
X79823000Y-100836250D01*
X79823000Y-99187000D01*
X78773750Y-99187000D01*
X78615000Y-99345750D01*
X78611928Y-100360000D01*
X64000000Y-100360000D01*
X64000000Y-97760000D01*
X78611928Y-97760000D01*
X78615000Y-98774250D01*
X78773750Y-98933000D01*
X79823000Y-98933000D01*
X79823000Y-97283750D01*
X80077000Y-97283750D01*
X80077000Y-98933000D01*
X80097000Y-98933000D01*
X80097000Y-99187000D01*
X80077000Y-99187000D01*
X80077000Y-100836250D01*
X80235750Y-100995000D01*
X80650000Y-100998072D01*
X80774482Y-100985812D01*
X80894180Y-100949502D01*
X81004494Y-100890537D01*
X81101185Y-100811185D01*
X81180537Y-100714494D01*
X81239502Y-100604180D01*
X81275812Y-100484482D01*
X81278533Y-100456856D01*
X81280000Y-100457000D01*
X83820000Y-100457000D01*
X83821467Y-100456856D01*
X83824188Y-100484482D01*
X83860498Y-100604180D01*
X83919463Y-100714494D01*
X83998815Y-100811185D01*
X84095506Y-100890537D01*
X84205820Y-100949502D01*
X84325518Y-100985812D01*
X84450000Y-100998072D01*
X85850000Y-100998072D01*
X85974482Y-100985812D01*
X86094180Y-100949502D01*
X86153170Y-100917971D01*
X95010359Y-109775161D01*
X95006928Y-109810000D01*
X95006928Y-110610000D01*
X95023992Y-110783254D01*
X95074528Y-110949850D01*
X95156595Y-111103386D01*
X95267038Y-111237962D01*
X95401614Y-111348405D01*
X95555150Y-111430472D01*
X95721746Y-111481008D01*
X95895000Y-111498072D01*
X97145000Y-111498072D01*
X97318254Y-111481008D01*
X97484850Y-111430472D01*
X97638386Y-111348405D01*
X97772962Y-111237962D01*
X97883405Y-111103386D01*
X97965472Y-110949850D01*
X98016008Y-110783254D01*
X98033072Y-110610000D01*
X98033072Y-109810000D01*
X98016008Y-109636746D01*
X97965472Y-109470150D01*
X97883405Y-109316614D01*
X97772962Y-109182038D01*
X97638386Y-109071595D01*
X97484850Y-108989528D01*
X97318254Y-108938992D01*
X97145000Y-108921928D01*
X96306730Y-108921928D01*
X87744802Y-100360000D01*
X93851928Y-100360000D01*
X93864188Y-100484482D01*
X93900498Y-100604180D01*
X93959463Y-100714494D01*
X94038815Y-100811185D01*
X94135506Y-100890537D01*
X94245820Y-100949502D01*
X94365518Y-100985812D01*
X94490000Y-100998072D01*
X94904250Y-100995000D01*
X95063000Y-100836250D01*
X95063000Y-99187000D01*
X94013750Y-99187000D01*
X93855000Y-99345750D01*
X93851928Y-100360000D01*
X87744802Y-100360000D01*
X86488072Y-99103271D01*
X86488072Y-97760000D01*
X93851928Y-97760000D01*
X93855000Y-98774250D01*
X94013750Y-98933000D01*
X95063000Y-98933000D01*
X95063000Y-97283750D01*
X95317000Y-97283750D01*
X95317000Y-98933000D01*
X95337000Y-98933000D01*
X95337000Y-99187000D01*
X95317000Y-99187000D01*
X95317000Y-100836250D01*
X95475750Y-100995000D01*
X95890000Y-100998072D01*
X96014482Y-100985812D01*
X96134180Y-100949502D01*
X96244494Y-100890537D01*
X96341185Y-100811185D01*
X96420537Y-100714494D01*
X96479502Y-100604180D01*
X96515812Y-100484482D01*
X96518533Y-100456856D01*
X96520000Y-100457000D01*
X99060000Y-100457000D01*
X99061467Y-100456856D01*
X99064188Y-100484482D01*
X99100498Y-100604180D01*
X99159463Y-100714494D01*
X99238815Y-100811185D01*
X99335506Y-100890537D01*
X99445820Y-100949502D01*
X99565518Y-100985812D01*
X99630000Y-100992163D01*
X99630001Y-103882668D01*
X99626324Y-103920000D01*
X99640998Y-104068985D01*
X99684454Y-104212246D01*
X99755026Y-104344276D01*
X99826201Y-104431002D01*
X99850000Y-104460001D01*
X99878998Y-104483799D01*
X105170359Y-109775161D01*
X105166928Y-109810000D01*
X105166928Y-110610000D01*
X105183992Y-110783254D01*
X105234528Y-110949850D01*
X105316595Y-111103386D01*
X105427038Y-111237962D01*
X105561614Y-111348405D01*
X105715150Y-111430472D01*
X105881746Y-111481008D01*
X106055000Y-111498072D01*
X107305000Y-111498072D01*
X107478254Y-111481008D01*
X107644850Y-111430472D01*
X107798386Y-111348405D01*
X107932962Y-111237962D01*
X108043405Y-111103386D01*
X108125472Y-110949850D01*
X108176008Y-110783254D01*
X108193072Y-110610000D01*
X108193072Y-109810000D01*
X108176008Y-109636746D01*
X108125472Y-109470150D01*
X108043405Y-109316614D01*
X107932962Y-109182038D01*
X107798386Y-109071595D01*
X107644850Y-108989528D01*
X107478254Y-108938992D01*
X107305000Y-108921928D01*
X106466730Y-108921928D01*
X101150000Y-103605199D01*
X101150000Y-100992163D01*
X101214482Y-100985812D01*
X101334180Y-100949502D01*
X101444494Y-100890537D01*
X101541185Y-100811185D01*
X101620537Y-100714494D01*
X101679502Y-100604180D01*
X101715812Y-100484482D01*
X101728072Y-100360000D01*
X122045928Y-100360000D01*
X122058188Y-100484482D01*
X122094498Y-100604180D01*
X122153463Y-100714494D01*
X122232815Y-100811185D01*
X122329506Y-100890537D01*
X122439820Y-100949502D01*
X122559518Y-100985812D01*
X122684000Y-100998072D01*
X123098250Y-100995000D01*
X123257000Y-100836250D01*
X123257000Y-99187000D01*
X123511000Y-99187000D01*
X123511000Y-100836250D01*
X123669750Y-100995000D01*
X124084000Y-100998072D01*
X124208482Y-100985812D01*
X124328180Y-100949502D01*
X124438494Y-100890537D01*
X124535185Y-100811185D01*
X124614537Y-100714494D01*
X124673502Y-100604180D01*
X124709812Y-100484482D01*
X124722072Y-100360000D01*
X124719000Y-99345750D01*
X124560250Y-99187000D01*
X123511000Y-99187000D01*
X123257000Y-99187000D01*
X122207750Y-99187000D01*
X122049000Y-99345750D01*
X122045928Y-100360000D01*
X101728072Y-100360000D01*
X101728072Y-97760000D01*
X122045928Y-97760000D01*
X122049000Y-98774250D01*
X122207750Y-98933000D01*
X123257000Y-98933000D01*
X123257000Y-97283750D01*
X123511000Y-97283750D01*
X123511000Y-98933000D01*
X124560250Y-98933000D01*
X124719000Y-98774250D01*
X124722072Y-97760000D01*
X124709812Y-97635518D01*
X124673502Y-97515820D01*
X124614537Y-97405506D01*
X124535185Y-97308815D01*
X124438494Y-97229463D01*
X124328180Y-97170498D01*
X124208482Y-97134188D01*
X124084000Y-97121928D01*
X123669750Y-97125000D01*
X123511000Y-97283750D01*
X123257000Y-97283750D01*
X123098250Y-97125000D01*
X122684000Y-97121928D01*
X122559518Y-97134188D01*
X122439820Y-97170498D01*
X122329506Y-97229463D01*
X122232815Y-97308815D01*
X122153463Y-97405506D01*
X122094498Y-97515820D01*
X122058188Y-97635518D01*
X122045928Y-97760000D01*
X101728072Y-97760000D01*
X101715812Y-97635518D01*
X101679502Y-97515820D01*
X101620537Y-97405506D01*
X101541185Y-97308815D01*
X101444494Y-97229463D01*
X101334180Y-97170498D01*
X101214482Y-97134188D01*
X101090000Y-97121928D01*
X99690000Y-97121928D01*
X99565518Y-97134188D01*
X99445820Y-97170498D01*
X99335506Y-97229463D01*
X99238815Y-97308815D01*
X99159463Y-97405506D01*
X99100498Y-97515820D01*
X99064188Y-97635518D01*
X99061467Y-97663144D01*
X99060000Y-97663000D01*
X96520000Y-97663000D01*
X96518533Y-97663144D01*
X96515812Y-97635518D01*
X96479502Y-97515820D01*
X96420537Y-97405506D01*
X96341185Y-97308815D01*
X96244494Y-97229463D01*
X96134180Y-97170498D01*
X96014482Y-97134188D01*
X95890000Y-97121928D01*
X95475750Y-97125000D01*
X95317000Y-97283750D01*
X95063000Y-97283750D01*
X94904250Y-97125000D01*
X94490000Y-97121928D01*
X94365518Y-97134188D01*
X94245820Y-97170498D01*
X94135506Y-97229463D01*
X94038815Y-97308815D01*
X93959463Y-97405506D01*
X93900498Y-97515820D01*
X93864188Y-97635518D01*
X93851928Y-97760000D01*
X86488072Y-97760000D01*
X86475812Y-97635518D01*
X86439502Y-97515820D01*
X86380537Y-97405506D01*
X86301185Y-97308815D01*
X86204494Y-97229463D01*
X86094180Y-97170498D01*
X85974482Y-97134188D01*
X85850000Y-97121928D01*
X84450000Y-97121928D01*
X84325518Y-97134188D01*
X84205820Y-97170498D01*
X84095506Y-97229463D01*
X83998815Y-97308815D01*
X83919463Y-97405506D01*
X83860498Y-97515820D01*
X83824188Y-97635518D01*
X83821467Y-97663144D01*
X83820000Y-97663000D01*
X81280000Y-97663000D01*
X81278533Y-97663144D01*
X81275812Y-97635518D01*
X81239502Y-97515820D01*
X81180537Y-97405506D01*
X81101185Y-97308815D01*
X81004494Y-97229463D01*
X80894180Y-97170498D01*
X80774482Y-97134188D01*
X80650000Y-97121928D01*
X80235750Y-97125000D01*
X80077000Y-97283750D01*
X79823000Y-97283750D01*
X79664250Y-97125000D01*
X79250000Y-97121928D01*
X79125518Y-97134188D01*
X79005820Y-97170498D01*
X78895506Y-97229463D01*
X78798815Y-97308815D01*
X78719463Y-97405506D01*
X78660498Y-97515820D01*
X78624188Y-97635518D01*
X78611928Y-97760000D01*
X64000000Y-97760000D01*
X64000000Y-94464751D01*
X64005491Y-94408999D01*
X63983577Y-94186501D01*
X63918676Y-93972553D01*
X63901276Y-93940000D01*
X63813284Y-93775377D01*
X63671449Y-93602551D01*
X63628141Y-93567009D01*
X60737996Y-90676865D01*
X60702449Y-90633551D01*
X60529623Y-90491716D01*
X60332447Y-90386324D01*
X60118499Y-90321423D01*
X59951752Y-90305000D01*
X59951751Y-90305000D01*
X59896000Y-90299509D01*
X59840249Y-90305000D01*
X58927192Y-90305000D01*
X58896000Y-90301928D01*
X58090420Y-90301928D01*
X58282446Y-90243677D01*
X58479622Y-90138285D01*
X58552992Y-90078072D01*
X58896000Y-90078072D01*
X59020482Y-90065812D01*
X59140180Y-90029502D01*
X59250494Y-89970537D01*
X59347185Y-89891185D01*
X59426537Y-89794494D01*
X59485502Y-89684180D01*
X59521812Y-89564482D01*
X59522664Y-89555830D01*
X66579775Y-89555830D01*
X67623590Y-90629270D01*
X69256451Y-91557449D01*
X71039016Y-92149238D01*
X72902782Y-92381894D01*
X74776125Y-92246478D01*
X76587054Y-91748192D01*
X78265976Y-90906186D01*
X78680410Y-90629270D01*
X79724225Y-89555830D01*
X73152000Y-82983605D01*
X66579775Y-89555830D01*
X59522664Y-89555830D01*
X59534072Y-89440000D01*
X59534072Y-88440000D01*
X59521812Y-88315518D01*
X59485502Y-88195820D01*
X59426537Y-88085506D01*
X59347185Y-87988815D01*
X59250494Y-87909463D01*
X59231000Y-87899043D01*
X59231000Y-86425131D01*
X59564543Y-86091588D01*
X59592506Y-86114537D01*
X59702820Y-86173502D01*
X59822518Y-86209812D01*
X59947000Y-86222072D01*
X62547000Y-86222072D01*
X62671482Y-86209812D01*
X62791180Y-86173502D01*
X62901494Y-86114537D01*
X62998185Y-86035185D01*
X63077537Y-85938494D01*
X63136502Y-85828180D01*
X63172812Y-85708482D01*
X63185072Y-85584000D01*
X63185072Y-82554782D01*
X63574106Y-82554782D01*
X63709522Y-84428125D01*
X64207808Y-86239054D01*
X65049814Y-87917976D01*
X65326730Y-88332410D01*
X66400170Y-89376225D01*
X72972395Y-82804000D01*
X73331605Y-82804000D01*
X79903830Y-89376225D01*
X80977270Y-88332410D01*
X81905449Y-86699549D01*
X82497238Y-84916984D01*
X82729894Y-83053218D01*
X82594478Y-81179875D01*
X82096192Y-79368946D01*
X81254186Y-77690024D01*
X80977270Y-77275590D01*
X79903830Y-76231775D01*
X73331605Y-82804000D01*
X72972395Y-82804000D01*
X66400170Y-76231775D01*
X65326730Y-77275590D01*
X64398551Y-78908451D01*
X63806762Y-80691016D01*
X63574106Y-82554782D01*
X63185072Y-82554782D01*
X63185072Y-80024000D01*
X63172812Y-79899518D01*
X63136502Y-79779820D01*
X63077537Y-79669506D01*
X62998185Y-79572815D01*
X62901494Y-79493463D01*
X62791180Y-79434498D01*
X62671482Y-79398188D01*
X62553557Y-79386574D01*
X68415132Y-73525000D01*
X70933744Y-73525000D01*
X69716946Y-73859808D01*
X68038024Y-74701814D01*
X67623590Y-74978730D01*
X66579775Y-76052170D01*
X73152000Y-82624395D01*
X79724225Y-76052170D01*
X78680410Y-74978730D01*
X77047549Y-74050551D01*
X75464504Y-73525000D01*
X77952869Y-73525000D01*
X83813796Y-79385928D01*
X83757000Y-79385928D01*
X83632518Y-79398188D01*
X83512820Y-79434498D01*
X83402506Y-79493463D01*
X83305815Y-79572815D01*
X83226463Y-79669506D01*
X83167498Y-79779820D01*
X83131188Y-79899518D01*
X83118928Y-80024000D01*
X83118928Y-85584000D01*
X83131188Y-85708482D01*
X83167498Y-85828180D01*
X83226463Y-85938494D01*
X83305815Y-86035185D01*
X83402506Y-86114537D01*
X83512820Y-86173502D01*
X83632518Y-86209812D01*
X83757000Y-86222072D01*
X86357000Y-86222072D01*
X86481482Y-86209812D01*
X86601180Y-86173502D01*
X86711494Y-86114537D01*
X86808185Y-86035185D01*
X86887537Y-85938494D01*
X86946502Y-85828180D01*
X86982812Y-85708482D01*
X86995072Y-85584000D01*
X86995072Y-80024000D01*
X86982812Y-79899518D01*
X86946502Y-79779820D01*
X86887537Y-79669506D01*
X86808185Y-79572815D01*
X86711494Y-79493463D01*
X86601180Y-79434498D01*
X86481482Y-79398188D01*
X86357000Y-79385928D01*
X86192000Y-79385928D01*
X86192000Y-79079752D01*
X86197491Y-79024000D01*
X86175577Y-78801501D01*
X86110676Y-78587553D01*
X86005284Y-78390377D01*
X85951513Y-78324857D01*
X85863449Y-78217551D01*
X85820141Y-78182009D01*
X79264996Y-71626865D01*
X79229449Y-71583551D01*
X79056623Y-71441716D01*
X78859447Y-71336324D01*
X78645499Y-71271423D01*
X78478752Y-71255000D01*
X78478751Y-71255000D01*
X78423000Y-71249509D01*
X78367249Y-71255000D01*
X68000741Y-71255000D01*
X67944999Y-71249510D01*
X67889257Y-71255000D01*
X67889248Y-71255000D01*
X67722501Y-71271423D01*
X67508553Y-71336324D01*
X67311377Y-71441716D01*
X67138551Y-71583551D01*
X67103009Y-71626859D01*
X60483860Y-78246009D01*
X60440552Y-78281551D01*
X60298717Y-78454377D01*
X60242384Y-78559770D01*
X60193324Y-78651554D01*
X60128423Y-78865502D01*
X60106509Y-79088000D01*
X60112001Y-79143761D01*
X60112001Y-79385928D01*
X59947000Y-79385928D01*
X59822518Y-79398188D01*
X59702820Y-79434498D01*
X59592506Y-79493463D01*
X59495815Y-79572815D01*
X59416463Y-79669506D01*
X59357498Y-79779820D01*
X59321188Y-79899518D01*
X59308928Y-80024000D01*
X59308928Y-83136940D01*
X57625869Y-84820000D01*
X57334739Y-84820000D01*
X57278997Y-84814510D01*
X57223255Y-84820000D01*
X57223246Y-84820000D01*
X57056499Y-84836423D01*
X56842551Y-84901324D01*
X56645375Y-85006716D01*
X56472549Y-85148551D01*
X56437009Y-85191857D01*
X54978121Y-86650746D01*
X54978121Y-74264217D01*
X54993440Y-73931322D01*
X55035874Y-73625872D01*
X55104649Y-73331673D01*
X55198188Y-73050248D01*
X55314898Y-72783165D01*
X55453103Y-72532101D01*
X55611076Y-72298708D01*
X55787012Y-72084614D01*
X55979053Y-71891374D01*
X56185354Y-71720392D01*
X56404130Y-71572928D01*
X56633748Y-71450069D01*
X56872847Y-71352764D01*
X57120385Y-71281912D01*
X57375780Y-71238473D01*
X57660303Y-71222444D01*
X150785634Y-71222444D01*
X151070221Y-71238474D01*
G37*
%TD.AperFunction*%
D24*
X125083851Y-118248012D02*
X125080959Y-118450628D01*
X125117651Y-118649914D01*
X125192517Y-118838213D01*
X125206424Y-118864232D01*
X125296079Y-118874000D01*
X122996803Y-118874000D01*
X122367792Y-118244990D01*
X125084497Y-118244990D01*
X125083851Y-118248012D01*
%TA.AperFunction,Conductor*%
D25*
G36*
X125083851Y-118248012D02*
G01*
X125080959Y-118450628D01*
X125117651Y-118649914D01*
X125192517Y-118838213D01*
X125206424Y-118864232D01*
X125296079Y-118874000D01*
X122996803Y-118874000D01*
X122367792Y-118244990D01*
X125084497Y-118244990D01*
X125083851Y-118248012D01*
G37*
%TD.AperFunction*%
D24*
X126304748Y-118349858D02*
X126290605Y-118364000D01*
X126304748Y-118378143D01*
X126125143Y-118557748D01*
X126111000Y-118543605D01*
X126096858Y-118557748D01*
X125917253Y-118378143D01*
X125931395Y-118364000D01*
X125917253Y-118349858D01*
X126096858Y-118170253D01*
X126111000Y-118184395D01*
X126125143Y-118170253D01*
X126304748Y-118349858D01*
%TA.AperFunction,Conductor*%
D25*
G36*
X126304748Y-118349858D02*
G01*
X126290605Y-118364000D01*
X126304748Y-118378143D01*
X126125143Y-118557748D01*
X126111000Y-118543605D01*
X126096858Y-118557748D01*
X125917253Y-118378143D01*
X125931395Y-118364000D01*
X125917253Y-118349858D01*
X126096858Y-118170253D01*
X126111000Y-118184395D01*
X126125143Y-118170253D01*
X126304748Y-118349858D01*
G37*
%TD.AperFunction*%
D24*
X127197198Y-113032000D02*
X124645323Y-113032000D01*
X124608000Y-113028324D01*
X124570677Y-113032000D01*
X124570667Y-113032000D01*
X124459014Y-113042997D01*
X124315753Y-113086454D01*
X124183723Y-113157026D01*
X124100083Y-113225668D01*
X124067999Y-113251999D01*
X124044201Y-113280997D01*
X122184385Y-115140814D01*
X122149502Y-115025820D01*
X122090537Y-114915506D01*
X122011185Y-114818815D01*
X121914494Y-114739463D01*
X121804180Y-114680498D01*
X121684482Y-114644188D01*
X121560000Y-114631928D01*
X120870750Y-114635000D01*
X120712000Y-114793750D01*
X120712000Y-115443000D01*
X120732000Y-115443000D01*
X120732000Y-115697000D01*
X120712000Y-115697000D01*
X120712000Y-115717000D01*
X120458000Y-115717000D01*
X120458000Y-115697000D01*
X119133750Y-115697000D01*
X118975000Y-115855750D01*
X118971928Y-115870000D01*
X118984188Y-115994482D01*
X119020498Y-116114180D01*
X119079463Y-116224494D01*
X119103730Y-116254064D01*
X119031916Y-116388418D01*
X118987071Y-116536255D01*
X118971928Y-116690000D01*
X118971928Y-116724990D01*
X118542333Y-116724990D01*
X118505010Y-116721314D01*
X118467687Y-116724990D01*
X118467677Y-116724990D01*
X118356024Y-116735987D01*
X118212763Y-116779444D01*
X118080734Y-116850016D01*
X117965009Y-116944989D01*
X117941211Y-116973987D01*
X117204072Y-117711126D01*
X117188084Y-117658418D01*
X117115258Y-117522171D01*
X117076546Y-117475000D01*
X117115258Y-117427829D01*
X117188084Y-117291582D01*
X117232929Y-117143745D01*
X117248072Y-116990000D01*
X117248072Y-116690000D01*
X117232929Y-116536255D01*
X117188084Y-116388418D01*
X117115258Y-116252171D01*
X117076546Y-116205000D01*
X117115258Y-116157829D01*
X117188084Y-116021582D01*
X117232929Y-115873745D01*
X117248072Y-115720000D01*
X117248072Y-115420000D01*
X117233298Y-115270000D01*
X118971928Y-115270000D01*
X118975000Y-115284250D01*
X119133750Y-115443000D01*
X120458000Y-115443000D01*
X120458000Y-114793750D01*
X120299250Y-114635000D01*
X119610000Y-114631928D01*
X119485518Y-114644188D01*
X119365820Y-114680498D01*
X119255506Y-114739463D01*
X119158815Y-114818815D01*
X119079463Y-114915506D01*
X119020498Y-115025820D01*
X118984188Y-115145518D01*
X118971928Y-115270000D01*
X117233298Y-115270000D01*
X117232929Y-115266255D01*
X117188084Y-115118418D01*
X117115258Y-114982171D01*
X117017251Y-114862749D01*
X116897829Y-114764742D01*
X116761582Y-114691916D01*
X116613745Y-114647071D01*
X116460000Y-114631928D01*
X116395000Y-114631928D01*
X116395000Y-114568072D01*
X116960001Y-114568072D01*
X117133255Y-114551008D01*
X117299851Y-114500472D01*
X117453387Y-114418405D01*
X117587962Y-114307962D01*
X117698405Y-114173387D01*
X117780472Y-114019851D01*
X117807727Y-113930000D01*
X118371928Y-113930000D01*
X118384188Y-114054482D01*
X118420498Y-114174180D01*
X118479463Y-114284494D01*
X118558815Y-114381185D01*
X118655506Y-114460537D01*
X118765820Y-114519502D01*
X118885518Y-114555812D01*
X119010000Y-114568072D01*
X119386750Y-114565000D01*
X119545500Y-114406250D01*
X119545500Y-113157000D01*
X119799500Y-113157000D01*
X119799500Y-114406250D01*
X119958250Y-114565000D01*
X120335000Y-114568072D01*
X120459482Y-114555812D01*
X120579180Y-114519502D01*
X120689494Y-114460537D01*
X120786185Y-114381185D01*
X120865537Y-114284494D01*
X120924502Y-114174180D01*
X120960812Y-114054482D01*
X120973072Y-113930000D01*
X120970000Y-113315750D01*
X120811250Y-113157000D01*
X119799500Y-113157000D01*
X119545500Y-113157000D01*
X118533750Y-113157000D01*
X118375000Y-113315750D01*
X118371928Y-113930000D01*
X117807727Y-113930000D01*
X117831008Y-113853255D01*
X117848072Y-113680001D01*
X117848072Y-112804229D01*
X118372676Y-112279625D01*
X118375000Y-112744250D01*
X118533750Y-112903000D01*
X119545500Y-112903000D01*
X119545500Y-112883000D01*
X119799500Y-112883000D01*
X119799500Y-112903000D01*
X120811250Y-112903000D01*
X120970000Y-112744250D01*
X120973072Y-112130000D01*
X120960812Y-112005518D01*
X120924502Y-111885820D01*
X120865537Y-111775506D01*
X120786185Y-111678815D01*
X120689494Y-111599463D01*
X120579180Y-111540498D01*
X120459482Y-111504188D01*
X120457573Y-111504000D01*
X125669199Y-111504000D01*
X127197198Y-113032000D01*
%TA.AperFunction,Conductor*%
D25*
G36*
X127197198Y-113032000D02*
G01*
X124645323Y-113032000D01*
X124608000Y-113028324D01*
X124570677Y-113032000D01*
X124570667Y-113032000D01*
X124459014Y-113042997D01*
X124315753Y-113086454D01*
X124183723Y-113157026D01*
X124100083Y-113225668D01*
X124067999Y-113251999D01*
X124044201Y-113280997D01*
X122184385Y-115140814D01*
X122149502Y-115025820D01*
X122090537Y-114915506D01*
X122011185Y-114818815D01*
X121914494Y-114739463D01*
X121804180Y-114680498D01*
X121684482Y-114644188D01*
X121560000Y-114631928D01*
X120870750Y-114635000D01*
X120712000Y-114793750D01*
X120712000Y-115443000D01*
X120732000Y-115443000D01*
X120732000Y-115697000D01*
X120712000Y-115697000D01*
X120712000Y-115717000D01*
X120458000Y-115717000D01*
X120458000Y-115697000D01*
X119133750Y-115697000D01*
X118975000Y-115855750D01*
X118971928Y-115870000D01*
X118984188Y-115994482D01*
X119020498Y-116114180D01*
X119079463Y-116224494D01*
X119103730Y-116254064D01*
X119031916Y-116388418D01*
X118987071Y-116536255D01*
X118971928Y-116690000D01*
X118971928Y-116724990D01*
X118542333Y-116724990D01*
X118505010Y-116721314D01*
X118467687Y-116724990D01*
X118467677Y-116724990D01*
X118356024Y-116735987D01*
X118212763Y-116779444D01*
X118080734Y-116850016D01*
X117965009Y-116944989D01*
X117941211Y-116973987D01*
X117204072Y-117711126D01*
X117188084Y-117658418D01*
X117115258Y-117522171D01*
X117076546Y-117475000D01*
X117115258Y-117427829D01*
X117188084Y-117291582D01*
X117232929Y-117143745D01*
X117248072Y-116990000D01*
X117248072Y-116690000D01*
X117232929Y-116536255D01*
X117188084Y-116388418D01*
X117115258Y-116252171D01*
X117076546Y-116205000D01*
X117115258Y-116157829D01*
X117188084Y-116021582D01*
X117232929Y-115873745D01*
X117248072Y-115720000D01*
X117248072Y-115420000D01*
X117233298Y-115270000D01*
X118971928Y-115270000D01*
X118975000Y-115284250D01*
X119133750Y-115443000D01*
X120458000Y-115443000D01*
X120458000Y-114793750D01*
X120299250Y-114635000D01*
X119610000Y-114631928D01*
X119485518Y-114644188D01*
X119365820Y-114680498D01*
X119255506Y-114739463D01*
X119158815Y-114818815D01*
X119079463Y-114915506D01*
X119020498Y-115025820D01*
X118984188Y-115145518D01*
X118971928Y-115270000D01*
X117233298Y-115270000D01*
X117232929Y-115266255D01*
X117188084Y-115118418D01*
X117115258Y-114982171D01*
X117017251Y-114862749D01*
X116897829Y-114764742D01*
X116761582Y-114691916D01*
X116613745Y-114647071D01*
X116460000Y-114631928D01*
X116395000Y-114631928D01*
X116395000Y-114568072D01*
X116960001Y-114568072D01*
X117133255Y-114551008D01*
X117299851Y-114500472D01*
X117453387Y-114418405D01*
X117587962Y-114307962D01*
X117698405Y-114173387D01*
X117780472Y-114019851D01*
X117807727Y-113930000D01*
X118371928Y-113930000D01*
X118384188Y-114054482D01*
X118420498Y-114174180D01*
X118479463Y-114284494D01*
X118558815Y-114381185D01*
X118655506Y-114460537D01*
X118765820Y-114519502D01*
X118885518Y-114555812D01*
X119010000Y-114568072D01*
X119386750Y-114565000D01*
X119545500Y-114406250D01*
X119545500Y-113157000D01*
X119799500Y-113157000D01*
X119799500Y-114406250D01*
X119958250Y-114565000D01*
X120335000Y-114568072D01*
X120459482Y-114555812D01*
X120579180Y-114519502D01*
X120689494Y-114460537D01*
X120786185Y-114381185D01*
X120865537Y-114284494D01*
X120924502Y-114174180D01*
X120960812Y-114054482D01*
X120973072Y-113930000D01*
X120970000Y-113315750D01*
X120811250Y-113157000D01*
X119799500Y-113157000D01*
X119545500Y-113157000D01*
X118533750Y-113157000D01*
X118375000Y-113315750D01*
X118371928Y-113930000D01*
X117807727Y-113930000D01*
X117831008Y-113853255D01*
X117848072Y-113680001D01*
X117848072Y-112804229D01*
X118372676Y-112279625D01*
X118375000Y-112744250D01*
X118533750Y-112903000D01*
X119545500Y-112903000D01*
X119545500Y-112883000D01*
X119799500Y-112883000D01*
X119799500Y-112903000D01*
X120811250Y-112903000D01*
X120970000Y-112744250D01*
X120973072Y-112130000D01*
X120960812Y-112005518D01*
X120924502Y-111885820D01*
X120865537Y-111775506D01*
X120786185Y-111678815D01*
X120689494Y-111599463D01*
X120579180Y-111540498D01*
X120459482Y-111504188D01*
X120457573Y-111504000D01*
X125669199Y-111504000D01*
X127197198Y-113032000D01*
G37*
%TD.AperFunction*%
%TD*%
M02*
