%TF.GenerationSoftware,KiCad,Pcbnew,(5.1.9)-1*%
%TF.CreationDate,2021-11-29T08:04:12-06:00*%
%TF.ProjectId,chrimbus2021,63687269-6d62-4757-9332-3032312e6b69,rev?*%
%TF.SameCoordinates,Original*%
%TF.FileFunction,Soldermask,Top*%
%TF.FilePolarity,Negative*%
%FSLAX46Y46*%
G04 Gerber Fmt 4.6, Leading zero omitted, Abs format (unit mm)*
G04 Created by KiCad (PCBNEW (5.1.9)-1) date 2021-11-29 08:04:12*
%MOMM*%
%LPD*%
G01*
G04 APERTURE LIST*
%ADD10C,0.900000*%
%ADD11R,1.600000X1.000000*%
%ADD12R,0.650000X1.560000*%
%ADD13R,1.550000X1.600000*%
%ADD14R,3.000000X4.000000*%
%ADD15R,1.500000X1.000000*%
%ADD16C,0.100000*%
%ADD17C,0.787400*%
%ADD18C,0.990600*%
%ADD19R,1.400000X2.600000*%
%ADD20C,2.500000*%
%ADD21R,2.600000X5.560000*%
%ADD22C,17.800000*%
%ADD23C,3.700000*%
G04 APERTURE END LIST*
%TO.C,C1*%
G36*
G01*
X117210000Y-112379999D02*
X117210000Y-113680001D01*
G75*
G02*
X116960001Y-113930000I-249999J0D01*
G01*
X116134999Y-113930000D01*
G75*
G02*
X115885000Y-113680001I0J249999D01*
G01*
X115885000Y-112379999D01*
G75*
G02*
X116134999Y-112130000I249999J0D01*
G01*
X116960001Y-112130000D01*
G75*
G02*
X117210000Y-112379999I0J-249999D01*
G01*
G37*
G36*
G01*
X120335000Y-112379999D02*
X120335000Y-113680001D01*
G75*
G02*
X120085001Y-113930000I-249999J0D01*
G01*
X119259999Y-113930000D01*
G75*
G02*
X119010000Y-113680001I0J249999D01*
G01*
X119010000Y-112379999D01*
G75*
G02*
X119259999Y-112130000I249999J0D01*
G01*
X120085001Y-112130000D01*
G75*
G02*
X120335000Y-112379999I0J-249999D01*
G01*
G37*
%TD*%
D10*
%TO.C,SW2*%
X56896000Y-94840000D03*
X56896000Y-88040000D03*
D11*
X55696000Y-88940000D03*
X55696000Y-91440000D03*
X55696000Y-93940000D03*
X58096000Y-93940000D03*
X58096000Y-91440000D03*
X58096000Y-88940000D03*
%TD*%
D12*
%TO.C,U2*%
X81661000Y-117936000D03*
X82611000Y-117936000D03*
X80711000Y-117936000D03*
X80711000Y-115236000D03*
X81661000Y-115236000D03*
X82611000Y-115236000D03*
%TD*%
%TO.C,U1*%
G36*
G01*
X119610000Y-115720000D02*
X119610000Y-115420000D01*
G75*
G02*
X119760000Y-115270000I150000J0D01*
G01*
X121410000Y-115270000D01*
G75*
G02*
X121560000Y-115420000I0J-150000D01*
G01*
X121560000Y-115720000D01*
G75*
G02*
X121410000Y-115870000I-150000J0D01*
G01*
X119760000Y-115870000D01*
G75*
G02*
X119610000Y-115720000I0J150000D01*
G01*
G37*
G36*
G01*
X119610000Y-116990000D02*
X119610000Y-116690000D01*
G75*
G02*
X119760000Y-116540000I150000J0D01*
G01*
X121410000Y-116540000D01*
G75*
G02*
X121560000Y-116690000I0J-150000D01*
G01*
X121560000Y-116990000D01*
G75*
G02*
X121410000Y-117140000I-150000J0D01*
G01*
X119760000Y-117140000D01*
G75*
G02*
X119610000Y-116990000I0J150000D01*
G01*
G37*
G36*
G01*
X119610000Y-118260000D02*
X119610000Y-117960000D01*
G75*
G02*
X119760000Y-117810000I150000J0D01*
G01*
X121410000Y-117810000D01*
G75*
G02*
X121560000Y-117960000I0J-150000D01*
G01*
X121560000Y-118260000D01*
G75*
G02*
X121410000Y-118410000I-150000J0D01*
G01*
X119760000Y-118410000D01*
G75*
G02*
X119610000Y-118260000I0J150000D01*
G01*
G37*
G36*
G01*
X119610000Y-119530000D02*
X119610000Y-119230000D01*
G75*
G02*
X119760000Y-119080000I150000J0D01*
G01*
X121410000Y-119080000D01*
G75*
G02*
X121560000Y-119230000I0J-150000D01*
G01*
X121560000Y-119530000D01*
G75*
G02*
X121410000Y-119680000I-150000J0D01*
G01*
X119760000Y-119680000D01*
G75*
G02*
X119610000Y-119530000I0J150000D01*
G01*
G37*
G36*
G01*
X119610000Y-120800000D02*
X119610000Y-120500000D01*
G75*
G02*
X119760000Y-120350000I150000J0D01*
G01*
X121410000Y-120350000D01*
G75*
G02*
X121560000Y-120500000I0J-150000D01*
G01*
X121560000Y-120800000D01*
G75*
G02*
X121410000Y-120950000I-150000J0D01*
G01*
X119760000Y-120950000D01*
G75*
G02*
X119610000Y-120800000I0J150000D01*
G01*
G37*
G36*
G01*
X119610000Y-122070000D02*
X119610000Y-121770000D01*
G75*
G02*
X119760000Y-121620000I150000J0D01*
G01*
X121410000Y-121620000D01*
G75*
G02*
X121560000Y-121770000I0J-150000D01*
G01*
X121560000Y-122070000D01*
G75*
G02*
X121410000Y-122220000I-150000J0D01*
G01*
X119760000Y-122220000D01*
G75*
G02*
X119610000Y-122070000I0J150000D01*
G01*
G37*
G36*
G01*
X119610000Y-123340000D02*
X119610000Y-123040000D01*
G75*
G02*
X119760000Y-122890000I150000J0D01*
G01*
X121410000Y-122890000D01*
G75*
G02*
X121560000Y-123040000I0J-150000D01*
G01*
X121560000Y-123340000D01*
G75*
G02*
X121410000Y-123490000I-150000J0D01*
G01*
X119760000Y-123490000D01*
G75*
G02*
X119610000Y-123340000I0J150000D01*
G01*
G37*
G36*
G01*
X114660000Y-123340000D02*
X114660000Y-123040000D01*
G75*
G02*
X114810000Y-122890000I150000J0D01*
G01*
X116460000Y-122890000D01*
G75*
G02*
X116610000Y-123040000I0J-150000D01*
G01*
X116610000Y-123340000D01*
G75*
G02*
X116460000Y-123490000I-150000J0D01*
G01*
X114810000Y-123490000D01*
G75*
G02*
X114660000Y-123340000I0J150000D01*
G01*
G37*
G36*
G01*
X114660000Y-122070000D02*
X114660000Y-121770000D01*
G75*
G02*
X114810000Y-121620000I150000J0D01*
G01*
X116460000Y-121620000D01*
G75*
G02*
X116610000Y-121770000I0J-150000D01*
G01*
X116610000Y-122070000D01*
G75*
G02*
X116460000Y-122220000I-150000J0D01*
G01*
X114810000Y-122220000D01*
G75*
G02*
X114660000Y-122070000I0J150000D01*
G01*
G37*
G36*
G01*
X114660000Y-120800000D02*
X114660000Y-120500000D01*
G75*
G02*
X114810000Y-120350000I150000J0D01*
G01*
X116460000Y-120350000D01*
G75*
G02*
X116610000Y-120500000I0J-150000D01*
G01*
X116610000Y-120800000D01*
G75*
G02*
X116460000Y-120950000I-150000J0D01*
G01*
X114810000Y-120950000D01*
G75*
G02*
X114660000Y-120800000I0J150000D01*
G01*
G37*
G36*
G01*
X114660000Y-119530000D02*
X114660000Y-119230000D01*
G75*
G02*
X114810000Y-119080000I150000J0D01*
G01*
X116460000Y-119080000D01*
G75*
G02*
X116610000Y-119230000I0J-150000D01*
G01*
X116610000Y-119530000D01*
G75*
G02*
X116460000Y-119680000I-150000J0D01*
G01*
X114810000Y-119680000D01*
G75*
G02*
X114660000Y-119530000I0J150000D01*
G01*
G37*
G36*
G01*
X114660000Y-118260000D02*
X114660000Y-117960000D01*
G75*
G02*
X114810000Y-117810000I150000J0D01*
G01*
X116460000Y-117810000D01*
G75*
G02*
X116610000Y-117960000I0J-150000D01*
G01*
X116610000Y-118260000D01*
G75*
G02*
X116460000Y-118410000I-150000J0D01*
G01*
X114810000Y-118410000D01*
G75*
G02*
X114660000Y-118260000I0J150000D01*
G01*
G37*
G36*
G01*
X114660000Y-116990000D02*
X114660000Y-116690000D01*
G75*
G02*
X114810000Y-116540000I150000J0D01*
G01*
X116460000Y-116540000D01*
G75*
G02*
X116610000Y-116690000I0J-150000D01*
G01*
X116610000Y-116990000D01*
G75*
G02*
X116460000Y-117140000I-150000J0D01*
G01*
X114810000Y-117140000D01*
G75*
G02*
X114660000Y-116990000I0J150000D01*
G01*
G37*
G36*
G01*
X114660000Y-115720000D02*
X114660000Y-115420000D01*
G75*
G02*
X114810000Y-115270000I150000J0D01*
G01*
X116460000Y-115270000D01*
G75*
G02*
X116610000Y-115420000I0J-150000D01*
G01*
X116610000Y-115720000D01*
G75*
G02*
X116460000Y-115870000I-150000J0D01*
G01*
X114810000Y-115870000D01*
G75*
G02*
X114660000Y-115720000I0J150000D01*
G01*
G37*
%TD*%
D13*
%TO.C,SW1*%
X57541000Y-126452000D03*
X57541000Y-121452000D03*
X71491000Y-121452000D03*
X71491000Y-126452000D03*
%TD*%
%TO.C,R6*%
G36*
G01*
X111135000Y-112660000D02*
X112385000Y-112660000D01*
G75*
G02*
X112635000Y-112910000I0J-250000D01*
G01*
X112635000Y-113710000D01*
G75*
G02*
X112385000Y-113960000I-250000J0D01*
G01*
X111135000Y-113960000D01*
G75*
G02*
X110885000Y-113710000I0J250000D01*
G01*
X110885000Y-112910000D01*
G75*
G02*
X111135000Y-112660000I250000J0D01*
G01*
G37*
G36*
G01*
X111135000Y-109560000D02*
X112385000Y-109560000D01*
G75*
G02*
X112635000Y-109810000I0J-250000D01*
G01*
X112635000Y-110610000D01*
G75*
G02*
X112385000Y-110860000I-250000J0D01*
G01*
X111135000Y-110860000D01*
G75*
G02*
X110885000Y-110610000I0J250000D01*
G01*
X110885000Y-109810000D01*
G75*
G02*
X111135000Y-109560000I250000J0D01*
G01*
G37*
%TD*%
%TO.C,R5*%
G36*
G01*
X106055000Y-112660000D02*
X107305000Y-112660000D01*
G75*
G02*
X107555000Y-112910000I0J-250000D01*
G01*
X107555000Y-113710000D01*
G75*
G02*
X107305000Y-113960000I-250000J0D01*
G01*
X106055000Y-113960000D01*
G75*
G02*
X105805000Y-113710000I0J250000D01*
G01*
X105805000Y-112910000D01*
G75*
G02*
X106055000Y-112660000I250000J0D01*
G01*
G37*
G36*
G01*
X106055000Y-109560000D02*
X107305000Y-109560000D01*
G75*
G02*
X107555000Y-109810000I0J-250000D01*
G01*
X107555000Y-110610000D01*
G75*
G02*
X107305000Y-110860000I-250000J0D01*
G01*
X106055000Y-110860000D01*
G75*
G02*
X105805000Y-110610000I0J250000D01*
G01*
X105805000Y-109810000D01*
G75*
G02*
X106055000Y-109560000I250000J0D01*
G01*
G37*
%TD*%
%TO.C,R4*%
G36*
G01*
X95895000Y-112660000D02*
X97145000Y-112660000D01*
G75*
G02*
X97395000Y-112910000I0J-250000D01*
G01*
X97395000Y-113710000D01*
G75*
G02*
X97145000Y-113960000I-250000J0D01*
G01*
X95895000Y-113960000D01*
G75*
G02*
X95645000Y-113710000I0J250000D01*
G01*
X95645000Y-112910000D01*
G75*
G02*
X95895000Y-112660000I250000J0D01*
G01*
G37*
G36*
G01*
X95895000Y-109560000D02*
X97145000Y-109560000D01*
G75*
G02*
X97395000Y-109810000I0J-250000D01*
G01*
X97395000Y-110610000D01*
G75*
G02*
X97145000Y-110860000I-250000J0D01*
G01*
X95895000Y-110860000D01*
G75*
G02*
X95645000Y-110610000I0J250000D01*
G01*
X95645000Y-109810000D01*
G75*
G02*
X95895000Y-109560000I250000J0D01*
G01*
G37*
%TD*%
%TO.C,R3*%
G36*
G01*
X149235000Y-91070000D02*
X150485000Y-91070000D01*
G75*
G02*
X150735000Y-91320000I0J-250000D01*
G01*
X150735000Y-92120000D01*
G75*
G02*
X150485000Y-92370000I-250000J0D01*
G01*
X149235000Y-92370000D01*
G75*
G02*
X148985000Y-92120000I0J250000D01*
G01*
X148985000Y-91320000D01*
G75*
G02*
X149235000Y-91070000I250000J0D01*
G01*
G37*
G36*
G01*
X149235000Y-87970000D02*
X150485000Y-87970000D01*
G75*
G02*
X150735000Y-88220000I0J-250000D01*
G01*
X150735000Y-89020000D01*
G75*
G02*
X150485000Y-89270000I-250000J0D01*
G01*
X149235000Y-89270000D01*
G75*
G02*
X148985000Y-89020000I0J250000D01*
G01*
X148985000Y-88220000D01*
G75*
G02*
X149235000Y-87970000I250000J0D01*
G01*
G37*
%TD*%
%TO.C,R2*%
G36*
G01*
X76591000Y-128916000D02*
X77841000Y-128916000D01*
G75*
G02*
X78091000Y-129166000I0J-250000D01*
G01*
X78091000Y-129966000D01*
G75*
G02*
X77841000Y-130216000I-250000J0D01*
G01*
X76591000Y-130216000D01*
G75*
G02*
X76341000Y-129966000I0J250000D01*
G01*
X76341000Y-129166000D01*
G75*
G02*
X76591000Y-128916000I250000J0D01*
G01*
G37*
G36*
G01*
X76591000Y-125816000D02*
X77841000Y-125816000D01*
G75*
G02*
X78091000Y-126066000I0J-250000D01*
G01*
X78091000Y-126866000D01*
G75*
G02*
X77841000Y-127116000I-250000J0D01*
G01*
X76591000Y-127116000D01*
G75*
G02*
X76341000Y-126866000I0J250000D01*
G01*
X76341000Y-126066000D01*
G75*
G02*
X76591000Y-125816000I250000J0D01*
G01*
G37*
%TD*%
%TO.C,R1*%
G36*
G01*
X102225000Y-114035000D02*
X100975000Y-114035000D01*
G75*
G02*
X100725000Y-113785000I0J250000D01*
G01*
X100725000Y-112985000D01*
G75*
G02*
X100975000Y-112735000I250000J0D01*
G01*
X102225000Y-112735000D01*
G75*
G02*
X102475000Y-112985000I0J-250000D01*
G01*
X102475000Y-113785000D01*
G75*
G02*
X102225000Y-114035000I-250000J0D01*
G01*
G37*
G36*
G01*
X102225000Y-117135000D02*
X100975000Y-117135000D01*
G75*
G02*
X100725000Y-116885000I0J250000D01*
G01*
X100725000Y-116085000D01*
G75*
G02*
X100975000Y-115835000I250000J0D01*
G01*
X102225000Y-115835000D01*
G75*
G02*
X102475000Y-116085000I0J-250000D01*
G01*
X102475000Y-116885000D01*
G75*
G02*
X102225000Y-117135000I-250000J0D01*
G01*
G37*
%TD*%
D14*
%TO.C,LS1*%
X133200000Y-81280000D03*
X146200000Y-81280000D03*
%TD*%
D15*
%TO.C,JP1*%
X124460000Y-82550000D03*
D16*
G36*
X123710602Y-81250000D02*
G01*
X123710602Y-81225466D01*
X123715412Y-81176635D01*
X123724984Y-81128510D01*
X123739228Y-81081555D01*
X123758005Y-81036222D01*
X123781136Y-80992949D01*
X123808396Y-80952150D01*
X123839524Y-80914221D01*
X123874221Y-80879524D01*
X123912150Y-80848396D01*
X123952949Y-80821136D01*
X123996222Y-80798005D01*
X124041555Y-80779228D01*
X124088510Y-80764984D01*
X124136635Y-80755412D01*
X124185466Y-80750602D01*
X124210000Y-80750602D01*
X124210000Y-80750000D01*
X124710000Y-80750000D01*
X124710000Y-80750602D01*
X124734534Y-80750602D01*
X124783365Y-80755412D01*
X124831490Y-80764984D01*
X124878445Y-80779228D01*
X124923778Y-80798005D01*
X124967051Y-80821136D01*
X125007850Y-80848396D01*
X125045779Y-80879524D01*
X125080476Y-80914221D01*
X125111604Y-80952150D01*
X125138864Y-80992949D01*
X125161995Y-81036222D01*
X125180772Y-81081555D01*
X125195016Y-81128510D01*
X125204588Y-81176635D01*
X125209398Y-81225466D01*
X125209398Y-81250000D01*
X125210000Y-81250000D01*
X125210000Y-81800000D01*
X123710000Y-81800000D01*
X123710000Y-81250000D01*
X123710602Y-81250000D01*
G37*
G36*
X125210000Y-83300000D02*
G01*
X125210000Y-83850000D01*
X125209398Y-83850000D01*
X125209398Y-83874534D01*
X125204588Y-83923365D01*
X125195016Y-83971490D01*
X125180772Y-84018445D01*
X125161995Y-84063778D01*
X125138864Y-84107051D01*
X125111604Y-84147850D01*
X125080476Y-84185779D01*
X125045779Y-84220476D01*
X125007850Y-84251604D01*
X124967051Y-84278864D01*
X124923778Y-84301995D01*
X124878445Y-84320772D01*
X124831490Y-84335016D01*
X124783365Y-84344588D01*
X124734534Y-84349398D01*
X124710000Y-84349398D01*
X124710000Y-84350000D01*
X124210000Y-84350000D01*
X124210000Y-84349398D01*
X124185466Y-84349398D01*
X124136635Y-84344588D01*
X124088510Y-84335016D01*
X124041555Y-84320772D01*
X123996222Y-84301995D01*
X123952949Y-84278864D01*
X123912150Y-84251604D01*
X123874221Y-84220476D01*
X123839524Y-84185779D01*
X123808396Y-84147850D01*
X123781136Y-84107051D01*
X123758005Y-84063778D01*
X123739228Y-84018445D01*
X123724984Y-83971490D01*
X123715412Y-83923365D01*
X123710602Y-83874534D01*
X123710602Y-83850000D01*
X123710000Y-83850000D01*
X123710000Y-83300000D01*
X125210000Y-83300000D01*
G37*
%TD*%
D17*
%TO.C,J1*%
X127381000Y-119634000D03*
X126111000Y-119634000D03*
X127381000Y-118364000D03*
X126111000Y-118364000D03*
X127381000Y-117094000D03*
X126111000Y-117094000D03*
D18*
X126746000Y-115824000D03*
X125730000Y-120904000D03*
X127762000Y-120904000D03*
%TD*%
D19*
%TO.C,D3*%
X123384000Y-99060000D03*
X128584000Y-99060000D03*
D20*
X125984000Y-99060000D03*
%TD*%
D19*
%TO.C,D2*%
X95190000Y-99060000D03*
X100390000Y-99060000D03*
D20*
X97790000Y-99060000D03*
%TD*%
D19*
%TO.C,D1*%
X79950000Y-99060000D03*
X85150000Y-99060000D03*
D20*
X82550000Y-99060000D03*
%TD*%
%TO.C,C4*%
G36*
G01*
X91455001Y-110860000D02*
X90154999Y-110860000D01*
G75*
G02*
X89905000Y-110610001I0J249999D01*
G01*
X89905000Y-109784999D01*
G75*
G02*
X90154999Y-109535000I249999J0D01*
G01*
X91455001Y-109535000D01*
G75*
G02*
X91705000Y-109784999I0J-249999D01*
G01*
X91705000Y-110610001D01*
G75*
G02*
X91455001Y-110860000I-249999J0D01*
G01*
G37*
G36*
G01*
X91455001Y-113985000D02*
X90154999Y-113985000D01*
G75*
G02*
X89905000Y-113735001I0J249999D01*
G01*
X89905000Y-112909999D01*
G75*
G02*
X90154999Y-112660000I249999J0D01*
G01*
X91455001Y-112660000D01*
G75*
G02*
X91705000Y-112909999I0J-249999D01*
G01*
X91705000Y-113735001D01*
G75*
G02*
X91455001Y-113985000I-249999J0D01*
G01*
G37*
%TD*%
%TO.C,C3*%
G36*
G01*
X84085000Y-123332001D02*
X84085000Y-122031999D01*
G75*
G02*
X84334999Y-121782000I249999J0D01*
G01*
X85160001Y-121782000D01*
G75*
G02*
X85410000Y-122031999I0J-249999D01*
G01*
X85410000Y-123332001D01*
G75*
G02*
X85160001Y-123582000I-249999J0D01*
G01*
X84334999Y-123582000D01*
G75*
G02*
X84085000Y-123332001I0J249999D01*
G01*
G37*
G36*
G01*
X80960000Y-123332001D02*
X80960000Y-122031999D01*
G75*
G02*
X81209999Y-121782000I249999J0D01*
G01*
X82035001Y-121782000D01*
G75*
G02*
X82285000Y-122031999I0J-249999D01*
G01*
X82285000Y-123332001D01*
G75*
G02*
X82035001Y-123582000I-249999J0D01*
G01*
X81209999Y-123582000D01*
G75*
G02*
X80960000Y-123332001I0J249999D01*
G01*
G37*
%TD*%
%TO.C,C2*%
G36*
G01*
X76850001Y-112765000D02*
X75549999Y-112765000D01*
G75*
G02*
X75300000Y-112515001I0J249999D01*
G01*
X75300000Y-111689999D01*
G75*
G02*
X75549999Y-111440000I249999J0D01*
G01*
X76850001Y-111440000D01*
G75*
G02*
X77100000Y-111689999I0J-249999D01*
G01*
X77100000Y-112515001D01*
G75*
G02*
X76850001Y-112765000I-249999J0D01*
G01*
G37*
G36*
G01*
X76850001Y-115890000D02*
X75549999Y-115890000D01*
G75*
G02*
X75300000Y-115640001I0J249999D01*
G01*
X75300000Y-114814999D01*
G75*
G02*
X75549999Y-114565000I249999J0D01*
G01*
X76850001Y-114565000D01*
G75*
G02*
X77100000Y-114814999I0J-249999D01*
G01*
X77100000Y-115640001D01*
G75*
G02*
X76850001Y-115890000I-249999J0D01*
G01*
G37*
%TD*%
D21*
%TO.C,BT1*%
X61247000Y-82804000D03*
X85057000Y-82804000D03*
D22*
X73152000Y-82804000D03*
%TD*%
D23*
%TO.C,G\u002A\u002A\u002A*%
X150980000Y-73988000D03*
%TD*%
M02*
