%TF.GenerationSoftware,KiCad,Pcbnew,(5.1.9)-1*%
%TF.CreationDate,2021-11-29T08:04:12-06:00*%
%TF.ProjectId,chrimbus2021,63687269-6d62-4757-9332-3032312e6b69,rev?*%
%TF.SameCoordinates,Original*%
%TF.FileFunction,Legend,Top*%
%TF.FilePolarity,Positive*%
%FSLAX46Y46*%
G04 Gerber Fmt 4.6, Leading zero omitted, Abs format (unit mm)*
G04 Created by KiCad (PCBNEW (5.1.9)-1) date 2021-11-29 08:04:12*
%MOMM*%
%LPD*%
G01*
G04 APERTURE LIST*
%ADD10C,0.300000*%
%ADD11C,0.120000*%
%ADD12C,0.127000*%
%ADD13C,0.100000*%
%ADD14C,0.150000*%
G04 APERTURE END LIST*
D10*
X101973714Y-80942571D02*
X101259428Y-80942571D01*
X101259428Y-79442571D01*
X102759428Y-79442571D02*
X103045142Y-79442571D01*
X103188000Y-79514000D01*
X103330857Y-79656857D01*
X103402285Y-79942571D01*
X103402285Y-80442571D01*
X103330857Y-80728285D01*
X103188000Y-80871142D01*
X103045142Y-80942571D01*
X102759428Y-80942571D01*
X102616571Y-80871142D01*
X102473714Y-80728285D01*
X102402285Y-80442571D01*
X102402285Y-79942571D01*
X102473714Y-79656857D01*
X102616571Y-79514000D01*
X102759428Y-79442571D01*
X103830857Y-79442571D02*
X104330857Y-80942571D01*
X104830857Y-79442571D01*
X105330857Y-80156857D02*
X105830857Y-80156857D01*
X106045142Y-80942571D02*
X105330857Y-80942571D01*
X105330857Y-79442571D01*
X106045142Y-79442571D01*
X106759428Y-80871142D02*
X106759428Y-80942571D01*
X106688000Y-81085428D01*
X106616571Y-81156857D01*
X108973714Y-79442571D02*
X108973714Y-80514000D01*
X108902285Y-80728285D01*
X108759428Y-80871142D01*
X108545142Y-80942571D01*
X108402285Y-80942571D01*
X109616571Y-80514000D02*
X110330857Y-80514000D01*
X109473714Y-80942571D02*
X109973714Y-79442571D01*
X110473714Y-80942571D01*
X110973714Y-80942571D02*
X110973714Y-79442571D01*
X111830857Y-80942571D02*
X111188000Y-80085428D01*
X111830857Y-79442571D02*
X110973714Y-80299714D01*
X112473714Y-80156857D02*
X112973714Y-80156857D01*
X113188000Y-80942571D02*
X112473714Y-80942571D01*
X112473714Y-79442571D01*
X113188000Y-79442571D01*
X89997619Y-77866761D02*
X89997619Y-75866761D01*
X90664285Y-77295333D01*
X91330952Y-75866761D01*
X91330952Y-77866761D01*
X92283333Y-76819142D02*
X92950000Y-76819142D01*
X93235714Y-77866761D02*
X92283333Y-77866761D01*
X92283333Y-75866761D01*
X93235714Y-75866761D01*
X95235714Y-77866761D02*
X94569047Y-76914380D01*
X94092857Y-77866761D02*
X94092857Y-75866761D01*
X94854761Y-75866761D01*
X95045238Y-75962000D01*
X95140476Y-76057238D01*
X95235714Y-76247714D01*
X95235714Y-76533428D01*
X95140476Y-76723904D01*
X95045238Y-76819142D01*
X94854761Y-76914380D01*
X94092857Y-76914380D01*
X97235714Y-77866761D02*
X96569047Y-76914380D01*
X96092857Y-77866761D02*
X96092857Y-75866761D01*
X96854761Y-75866761D01*
X97045238Y-75962000D01*
X97140476Y-76057238D01*
X97235714Y-76247714D01*
X97235714Y-76533428D01*
X97140476Y-76723904D01*
X97045238Y-76819142D01*
X96854761Y-76914380D01*
X96092857Y-76914380D01*
X98473809Y-76914380D02*
X98473809Y-77866761D01*
X97807142Y-75866761D02*
X98473809Y-76914380D01*
X99140476Y-75866761D01*
X102473809Y-77676285D02*
X102378571Y-77771523D01*
X102092857Y-77866761D01*
X101902380Y-77866761D01*
X101616666Y-77771523D01*
X101426190Y-77581047D01*
X101330952Y-77390571D01*
X101235714Y-77009619D01*
X101235714Y-76723904D01*
X101330952Y-76342952D01*
X101426190Y-76152476D01*
X101616666Y-75962000D01*
X101902380Y-75866761D01*
X102092857Y-75866761D01*
X102378571Y-75962000D01*
X102473809Y-76057238D01*
X103330952Y-77866761D02*
X103330952Y-75866761D01*
X103330952Y-76819142D02*
X104473809Y-76819142D01*
X104473809Y-77866761D02*
X104473809Y-75866761D01*
X106569047Y-77866761D02*
X105902380Y-76914380D01*
X105426190Y-77866761D02*
X105426190Y-75866761D01*
X106188095Y-75866761D01*
X106378571Y-75962000D01*
X106473809Y-76057238D01*
X106569047Y-76247714D01*
X106569047Y-76533428D01*
X106473809Y-76723904D01*
X106378571Y-76819142D01*
X106188095Y-76914380D01*
X105426190Y-76914380D01*
X107426190Y-77866761D02*
X107426190Y-75866761D01*
X108283333Y-77771523D02*
X108569047Y-77866761D01*
X109045238Y-77866761D01*
X109235714Y-77771523D01*
X109330952Y-77676285D01*
X109426190Y-77485809D01*
X109426190Y-77295333D01*
X109330952Y-77104857D01*
X109235714Y-77009619D01*
X109045238Y-76914380D01*
X108664285Y-76819142D01*
X108473809Y-76723904D01*
X108378571Y-76628666D01*
X108283333Y-76438190D01*
X108283333Y-76247714D01*
X108378571Y-76057238D01*
X108473809Y-75962000D01*
X108664285Y-75866761D01*
X109140476Y-75866761D01*
X109426190Y-75962000D01*
X109997619Y-75866761D02*
X111140476Y-75866761D01*
X110569047Y-77866761D02*
X110569047Y-75866761D01*
X111807142Y-77866761D02*
X111807142Y-75866761D01*
X112473809Y-77295333D01*
X113140476Y-75866761D01*
X113140476Y-77866761D01*
X113997619Y-77295333D02*
X114949999Y-77295333D01*
X113807142Y-77866761D02*
X114473809Y-75866761D01*
X115140476Y-77866761D01*
X115711904Y-77771523D02*
X115997619Y-77866761D01*
X116473809Y-77866761D01*
X116664285Y-77771523D01*
X116759523Y-77676285D01*
X116854761Y-77485809D01*
X116854761Y-77295333D01*
X116759523Y-77104857D01*
X116664285Y-77009619D01*
X116473809Y-76914380D01*
X116092857Y-76819142D01*
X115902380Y-76723904D01*
X115807142Y-76628666D01*
X115711904Y-76438190D01*
X115711904Y-76247714D01*
X115807142Y-76057238D01*
X115902380Y-75962000D01*
X116092857Y-75866761D01*
X116569047Y-75866761D01*
X116854761Y-75962000D01*
X119140476Y-76057238D02*
X119235714Y-75962000D01*
X119426190Y-75866761D01*
X119902380Y-75866761D01*
X120092857Y-75962000D01*
X120188095Y-76057238D01*
X120283333Y-76247714D01*
X120283333Y-76438190D01*
X120188095Y-76723904D01*
X119045238Y-77866761D01*
X120283333Y-77866761D01*
X121521428Y-75866761D02*
X121711904Y-75866761D01*
X121902380Y-75962000D01*
X121997619Y-76057238D01*
X122092857Y-76247714D01*
X122188095Y-76628666D01*
X122188095Y-77104857D01*
X122092857Y-77485809D01*
X121997619Y-77676285D01*
X121902380Y-77771523D01*
X121711904Y-77866761D01*
X121521428Y-77866761D01*
X121330952Y-77771523D01*
X121235714Y-77676285D01*
X121140476Y-77485809D01*
X121045238Y-77104857D01*
X121045238Y-76628666D01*
X121140476Y-76247714D01*
X121235714Y-76057238D01*
X121330952Y-75962000D01*
X121521428Y-75866761D01*
X122949999Y-76057238D02*
X123045238Y-75962000D01*
X123235714Y-75866761D01*
X123711904Y-75866761D01*
X123902380Y-75962000D01*
X123997619Y-76057238D01*
X124092857Y-76247714D01*
X124092857Y-76438190D01*
X123997619Y-76723904D01*
X122854761Y-77866761D01*
X124092857Y-77866761D01*
X125997619Y-77866761D02*
X124854761Y-77866761D01*
X125426190Y-77866761D02*
X125426190Y-75866761D01*
X125235714Y-76152476D01*
X125045238Y-76342952D01*
X124854761Y-76438190D01*
X58087428Y-117010571D02*
X58087428Y-115510571D01*
X58944571Y-117010571D01*
X58944571Y-115510571D01*
X59658857Y-116224857D02*
X60158857Y-116224857D01*
X60373142Y-117010571D02*
X59658857Y-117010571D01*
X59658857Y-115510571D01*
X60373142Y-115510571D01*
X60873142Y-115510571D02*
X61873142Y-117010571D01*
X61873142Y-115510571D02*
X60873142Y-117010571D01*
X62230285Y-115510571D02*
X63087428Y-115510571D01*
X62658857Y-117010571D02*
X62658857Y-115510571D01*
X64516000Y-115510571D02*
X65373142Y-115510571D01*
X64944571Y-117010571D02*
X64944571Y-115510571D01*
X66730285Y-117010571D02*
X66230285Y-116296285D01*
X65873142Y-117010571D02*
X65873142Y-115510571D01*
X66444571Y-115510571D01*
X66587428Y-115582000D01*
X66658857Y-115653428D01*
X66730285Y-115796285D01*
X66730285Y-116010571D01*
X66658857Y-116153428D01*
X66587428Y-116224857D01*
X66444571Y-116296285D01*
X65873142Y-116296285D01*
X67301714Y-116582000D02*
X68016000Y-116582000D01*
X67158857Y-117010571D02*
X67658857Y-115510571D01*
X68158857Y-117010571D01*
X69516000Y-116867714D02*
X69444571Y-116939142D01*
X69230285Y-117010571D01*
X69087428Y-117010571D01*
X68873142Y-116939142D01*
X68730285Y-116796285D01*
X68658857Y-116653428D01*
X68587428Y-116367714D01*
X68587428Y-116153428D01*
X68658857Y-115867714D01*
X68730285Y-115724857D01*
X68873142Y-115582000D01*
X69087428Y-115510571D01*
X69230285Y-115510571D01*
X69444571Y-115582000D01*
X69516000Y-115653428D01*
X70158857Y-117010571D02*
X70158857Y-115510571D01*
X71016000Y-117010571D02*
X70373142Y-116153428D01*
X71016000Y-115510571D02*
X70158857Y-116367714D01*
X60285428Y-89348571D02*
X60571142Y-89348571D01*
X60714000Y-89420000D01*
X60856857Y-89562857D01*
X60928285Y-89848571D01*
X60928285Y-90348571D01*
X60856857Y-90634285D01*
X60714000Y-90777142D01*
X60571142Y-90848571D01*
X60285428Y-90848571D01*
X60142571Y-90777142D01*
X59999714Y-90634285D01*
X59928285Y-90348571D01*
X59928285Y-89848571D01*
X59999714Y-89562857D01*
X60142571Y-89420000D01*
X60285428Y-89348571D01*
X61571142Y-90848571D02*
X61571142Y-89348571D01*
X62428285Y-90848571D01*
X62428285Y-89348571D01*
X60293428Y-91888571D02*
X60579142Y-91888571D01*
X60722000Y-91960000D01*
X60864857Y-92102857D01*
X60936285Y-92388571D01*
X60936285Y-92888571D01*
X60864857Y-93174285D01*
X60722000Y-93317142D01*
X60579142Y-93388571D01*
X60293428Y-93388571D01*
X60150571Y-93317142D01*
X60007714Y-93174285D01*
X59936285Y-92888571D01*
X59936285Y-92388571D01*
X60007714Y-92102857D01*
X60150571Y-91960000D01*
X60293428Y-91888571D01*
X62079142Y-92602857D02*
X61579142Y-92602857D01*
X61579142Y-93388571D02*
X61579142Y-91888571D01*
X62293428Y-91888571D01*
X63364857Y-92602857D02*
X62864857Y-92602857D01*
X62864857Y-93388571D02*
X62864857Y-91888571D01*
X63579142Y-91888571D01*
D11*
%TO.C,C1*%
X118821252Y-113940000D02*
X117398748Y-113940000D01*
X118821252Y-112120000D02*
X117398748Y-112120000D01*
D12*
%TO.C,SW2*%
X55146000Y-95940000D02*
X55146000Y-95140000D01*
X58646000Y-95940000D02*
X55146000Y-95940000D01*
X58646000Y-95140000D02*
X58646000Y-95940000D01*
X55146000Y-86940000D02*
X55146000Y-87740000D01*
X58646000Y-86940000D02*
X55146000Y-86940000D01*
X58646000Y-87790000D02*
X58646000Y-86940000D01*
D11*
%TO.C,U2*%
X80051000Y-115686000D02*
X80051000Y-117486000D01*
X83271000Y-117486000D02*
X83271000Y-114536000D01*
%TO.C,U1*%
X118110000Y-123815000D02*
X120060000Y-123815000D01*
X118110000Y-123815000D02*
X116160000Y-123815000D01*
X118110000Y-114945000D02*
X120060000Y-114945000D01*
X118110000Y-114945000D02*
X114660000Y-114945000D01*
%TO.C,SW1*%
X58516000Y-117952000D02*
X58516000Y-129952000D01*
X58516000Y-129952000D02*
X70516000Y-129952000D01*
X70516000Y-129952000D02*
X70516000Y-117952000D01*
X70516000Y-117952000D02*
X58516000Y-117952000D01*
%TO.C,R6*%
X112670000Y-111032936D02*
X112670000Y-112487064D01*
X110850000Y-111032936D02*
X110850000Y-112487064D01*
%TO.C,R5*%
X107590000Y-111032936D02*
X107590000Y-112487064D01*
X105770000Y-111032936D02*
X105770000Y-112487064D01*
%TO.C,R4*%
X97430000Y-111032936D02*
X97430000Y-112487064D01*
X95610000Y-111032936D02*
X95610000Y-112487064D01*
%TO.C,R3*%
X150770000Y-89442936D02*
X150770000Y-90897064D01*
X148950000Y-89442936D02*
X148950000Y-90897064D01*
%TO.C,R2*%
X78126000Y-127288936D02*
X78126000Y-128743064D01*
X76306000Y-127288936D02*
X76306000Y-128743064D01*
%TO.C,R1*%
X100690000Y-115662064D02*
X100690000Y-114207936D01*
X102510000Y-115662064D02*
X102510000Y-114207936D01*
%TO.C,LS1*%
X141350000Y-76280000D02*
X141350000Y-75280000D01*
X138050000Y-76280000D02*
X141350000Y-76280000D01*
X138050000Y-75280000D02*
X138050000Y-76280000D01*
X133700000Y-87280000D02*
X133700000Y-75280000D01*
X145700000Y-87280000D02*
X133700000Y-87280000D01*
X145700000Y-75280000D02*
X145700000Y-87280000D01*
X133700000Y-75280000D02*
X145700000Y-75280000D01*
%TO.C,JP1*%
X125660000Y-83750000D02*
X125960000Y-83450000D01*
X125960000Y-84050000D02*
X125960000Y-83450000D01*
X125660000Y-83750000D02*
X125960000Y-84050000D01*
X124760000Y-84600000D02*
X124160000Y-84600000D01*
X125460000Y-81150000D02*
X125460000Y-83950000D01*
X124160000Y-80500000D02*
X124760000Y-80500000D01*
X123460000Y-83950000D02*
X123460000Y-81150000D01*
X124160000Y-84600000D02*
G75*
G02*
X123460000Y-83900000I0J700000D01*
G01*
X125460000Y-83900000D02*
G75*
G02*
X124760000Y-84600000I-700000J0D01*
G01*
X124760000Y-80500000D02*
G75*
G02*
X125460000Y-81200000I0J-700000D01*
G01*
X123460000Y-81200000D02*
G75*
G02*
X124160000Y-80500000I700000J0D01*
G01*
%TO.C,J1*%
X125476000Y-116459000D02*
X126111000Y-116459000D01*
X125476000Y-117094000D02*
X125476000Y-116459000D01*
D13*
%TO.C,D3*%
G36*
X124714000Y-100330000D02*
G01*
X124079000Y-100330000D01*
X124079000Y-99695000D01*
X124714000Y-100330000D01*
G37*
X124714000Y-100330000D02*
X124079000Y-100330000D01*
X124079000Y-99695000D01*
X124714000Y-100330000D01*
%TO.C,D2*%
G36*
X96520000Y-100330000D02*
G01*
X95885000Y-100330000D01*
X95885000Y-99695000D01*
X96520000Y-100330000D01*
G37*
X96520000Y-100330000D02*
X95885000Y-100330000D01*
X95885000Y-99695000D01*
X96520000Y-100330000D01*
%TO.C,D1*%
G36*
X81280000Y-100330000D02*
G01*
X80645000Y-100330000D01*
X80645000Y-99695000D01*
X81280000Y-100330000D01*
G37*
X81280000Y-100330000D02*
X80645000Y-100330000D01*
X80645000Y-99695000D01*
X81280000Y-100330000D01*
D11*
%TO.C,C4*%
X89895000Y-112471252D02*
X89895000Y-111048748D01*
X91715000Y-112471252D02*
X91715000Y-111048748D01*
%TO.C,C3*%
X82473748Y-121772000D02*
X83896252Y-121772000D01*
X82473748Y-123592000D02*
X83896252Y-123592000D01*
%TO.C,C2*%
X75290000Y-114376252D02*
X75290000Y-112953748D01*
X77110000Y-114376252D02*
X77110000Y-112953748D01*
%TO.C,BT1*%
X62682000Y-77919000D02*
X64289090Y-77919000D01*
X62682000Y-79804000D02*
X62682000Y-77919000D01*
X83622000Y-79804000D02*
X83622000Y-77919000D01*
X62682000Y-85804000D02*
X62682000Y-87689000D01*
X83622000Y-85804000D02*
X83622000Y-87689000D01*
X83622000Y-77919000D02*
X82014910Y-77919000D01*
X62682000Y-87689000D02*
X64289090Y-87689000D01*
X83622000Y-87689000D02*
X82014910Y-87689000D01*
X82017021Y-87685168D02*
G75*
G02*
X64289090Y-87689000I-8865021J4881168D01*
G01*
X64289090Y-77919000D02*
G75*
G02*
X82014910Y-77919000I8862910J-4885000D01*
G01*
%TO.C,C1*%
D14*
X117943333Y-111482142D02*
X117895714Y-111529761D01*
X117752857Y-111577380D01*
X117657619Y-111577380D01*
X117514761Y-111529761D01*
X117419523Y-111434523D01*
X117371904Y-111339285D01*
X117324285Y-111148809D01*
X117324285Y-111005952D01*
X117371904Y-110815476D01*
X117419523Y-110720238D01*
X117514761Y-110625000D01*
X117657619Y-110577380D01*
X117752857Y-110577380D01*
X117895714Y-110625000D01*
X117943333Y-110672619D01*
X118895714Y-111577380D02*
X118324285Y-111577380D01*
X118610000Y-111577380D02*
X118610000Y-110577380D01*
X118514761Y-110720238D01*
X118419523Y-110815476D01*
X118324285Y-110863095D01*
%TO.C,SW2*%
X55181666Y-98194761D02*
X55324523Y-98242380D01*
X55562619Y-98242380D01*
X55657857Y-98194761D01*
X55705476Y-98147142D01*
X55753095Y-98051904D01*
X55753095Y-97956666D01*
X55705476Y-97861428D01*
X55657857Y-97813809D01*
X55562619Y-97766190D01*
X55372142Y-97718571D01*
X55276904Y-97670952D01*
X55229285Y-97623333D01*
X55181666Y-97528095D01*
X55181666Y-97432857D01*
X55229285Y-97337619D01*
X55276904Y-97290000D01*
X55372142Y-97242380D01*
X55610238Y-97242380D01*
X55753095Y-97290000D01*
X56086428Y-97242380D02*
X56324523Y-98242380D01*
X56515000Y-97528095D01*
X56705476Y-98242380D01*
X56943571Y-97242380D01*
X57276904Y-97337619D02*
X57324523Y-97290000D01*
X57419761Y-97242380D01*
X57657857Y-97242380D01*
X57753095Y-97290000D01*
X57800714Y-97337619D01*
X57848333Y-97432857D01*
X57848333Y-97528095D01*
X57800714Y-97670952D01*
X57229285Y-98242380D01*
X57848333Y-98242380D01*
%TO.C,U2*%
X80518095Y-112482380D02*
X80518095Y-113291904D01*
X80565714Y-113387142D01*
X80613333Y-113434761D01*
X80708571Y-113482380D01*
X80899047Y-113482380D01*
X80994285Y-113434761D01*
X81041904Y-113387142D01*
X81089523Y-113291904D01*
X81089523Y-112482380D01*
X81518095Y-112577619D02*
X81565714Y-112530000D01*
X81660952Y-112482380D01*
X81899047Y-112482380D01*
X81994285Y-112530000D01*
X82041904Y-112577619D01*
X82089523Y-112672857D01*
X82089523Y-112768095D01*
X82041904Y-112910952D01*
X81470476Y-113482380D01*
X82089523Y-113482380D01*
%TO.C,U1*%
X117348095Y-124547380D02*
X117348095Y-125356904D01*
X117395714Y-125452142D01*
X117443333Y-125499761D01*
X117538571Y-125547380D01*
X117729047Y-125547380D01*
X117824285Y-125499761D01*
X117871904Y-125452142D01*
X117919523Y-125356904D01*
X117919523Y-124547380D01*
X118919523Y-125547380D02*
X118348095Y-125547380D01*
X118633809Y-125547380D02*
X118633809Y-124547380D01*
X118538571Y-124690238D01*
X118443333Y-124785476D01*
X118348095Y-124833095D01*
%TO.C,SW1*%
X63436666Y-131849761D02*
X63579523Y-131897380D01*
X63817619Y-131897380D01*
X63912857Y-131849761D01*
X63960476Y-131802142D01*
X64008095Y-131706904D01*
X64008095Y-131611666D01*
X63960476Y-131516428D01*
X63912857Y-131468809D01*
X63817619Y-131421190D01*
X63627142Y-131373571D01*
X63531904Y-131325952D01*
X63484285Y-131278333D01*
X63436666Y-131183095D01*
X63436666Y-131087857D01*
X63484285Y-130992619D01*
X63531904Y-130945000D01*
X63627142Y-130897380D01*
X63865238Y-130897380D01*
X64008095Y-130945000D01*
X64341428Y-130897380D02*
X64579523Y-131897380D01*
X64770000Y-131183095D01*
X64960476Y-131897380D01*
X65198571Y-130897380D01*
X66103333Y-131897380D02*
X65531904Y-131897380D01*
X65817619Y-131897380D02*
X65817619Y-130897380D01*
X65722380Y-131040238D01*
X65627142Y-131135476D01*
X65531904Y-131183095D01*
%TO.C,R6*%
X111593333Y-109037380D02*
X111260000Y-108561190D01*
X111021904Y-109037380D02*
X111021904Y-108037380D01*
X111402857Y-108037380D01*
X111498095Y-108085000D01*
X111545714Y-108132619D01*
X111593333Y-108227857D01*
X111593333Y-108370714D01*
X111545714Y-108465952D01*
X111498095Y-108513571D01*
X111402857Y-108561190D01*
X111021904Y-108561190D01*
X112450476Y-108037380D02*
X112260000Y-108037380D01*
X112164761Y-108085000D01*
X112117142Y-108132619D01*
X112021904Y-108275476D01*
X111974285Y-108465952D01*
X111974285Y-108846904D01*
X112021904Y-108942142D01*
X112069523Y-108989761D01*
X112164761Y-109037380D01*
X112355238Y-109037380D01*
X112450476Y-108989761D01*
X112498095Y-108942142D01*
X112545714Y-108846904D01*
X112545714Y-108608809D01*
X112498095Y-108513571D01*
X112450476Y-108465952D01*
X112355238Y-108418333D01*
X112164761Y-108418333D01*
X112069523Y-108465952D01*
X112021904Y-108513571D01*
X111974285Y-108608809D01*
%TO.C,R5*%
X106513333Y-109037380D02*
X106180000Y-108561190D01*
X105941904Y-109037380D02*
X105941904Y-108037380D01*
X106322857Y-108037380D01*
X106418095Y-108085000D01*
X106465714Y-108132619D01*
X106513333Y-108227857D01*
X106513333Y-108370714D01*
X106465714Y-108465952D01*
X106418095Y-108513571D01*
X106322857Y-108561190D01*
X105941904Y-108561190D01*
X107418095Y-108037380D02*
X106941904Y-108037380D01*
X106894285Y-108513571D01*
X106941904Y-108465952D01*
X107037142Y-108418333D01*
X107275238Y-108418333D01*
X107370476Y-108465952D01*
X107418095Y-108513571D01*
X107465714Y-108608809D01*
X107465714Y-108846904D01*
X107418095Y-108942142D01*
X107370476Y-108989761D01*
X107275238Y-109037380D01*
X107037142Y-109037380D01*
X106941904Y-108989761D01*
X106894285Y-108942142D01*
%TO.C,R4*%
X96353333Y-109037380D02*
X96020000Y-108561190D01*
X95781904Y-109037380D02*
X95781904Y-108037380D01*
X96162857Y-108037380D01*
X96258095Y-108085000D01*
X96305714Y-108132619D01*
X96353333Y-108227857D01*
X96353333Y-108370714D01*
X96305714Y-108465952D01*
X96258095Y-108513571D01*
X96162857Y-108561190D01*
X95781904Y-108561190D01*
X97210476Y-108370714D02*
X97210476Y-109037380D01*
X96972380Y-107989761D02*
X96734285Y-108704047D01*
X97353333Y-108704047D01*
%TO.C,R3*%
X149693333Y-94432380D02*
X149360000Y-93956190D01*
X149121904Y-94432380D02*
X149121904Y-93432380D01*
X149502857Y-93432380D01*
X149598095Y-93480000D01*
X149645714Y-93527619D01*
X149693333Y-93622857D01*
X149693333Y-93765714D01*
X149645714Y-93860952D01*
X149598095Y-93908571D01*
X149502857Y-93956190D01*
X149121904Y-93956190D01*
X150026666Y-93432380D02*
X150645714Y-93432380D01*
X150312380Y-93813333D01*
X150455238Y-93813333D01*
X150550476Y-93860952D01*
X150598095Y-93908571D01*
X150645714Y-94003809D01*
X150645714Y-94241904D01*
X150598095Y-94337142D01*
X150550476Y-94384761D01*
X150455238Y-94432380D01*
X150169523Y-94432380D01*
X150074285Y-94384761D01*
X150026666Y-94337142D01*
%TO.C,R2*%
X79843333Y-128468380D02*
X79510000Y-127992190D01*
X79271904Y-128468380D02*
X79271904Y-127468380D01*
X79652857Y-127468380D01*
X79748095Y-127516000D01*
X79795714Y-127563619D01*
X79843333Y-127658857D01*
X79843333Y-127801714D01*
X79795714Y-127896952D01*
X79748095Y-127944571D01*
X79652857Y-127992190D01*
X79271904Y-127992190D01*
X80224285Y-127563619D02*
X80271904Y-127516000D01*
X80367142Y-127468380D01*
X80605238Y-127468380D01*
X80700476Y-127516000D01*
X80748095Y-127563619D01*
X80795714Y-127658857D01*
X80795714Y-127754095D01*
X80748095Y-127896952D01*
X80176666Y-128468380D01*
X80795714Y-128468380D01*
%TO.C,R1*%
X101433333Y-112212380D02*
X101100000Y-111736190D01*
X100861904Y-112212380D02*
X100861904Y-111212380D01*
X101242857Y-111212380D01*
X101338095Y-111260000D01*
X101385714Y-111307619D01*
X101433333Y-111402857D01*
X101433333Y-111545714D01*
X101385714Y-111640952D01*
X101338095Y-111688571D01*
X101242857Y-111736190D01*
X100861904Y-111736190D01*
X102385714Y-112212380D02*
X101814285Y-112212380D01*
X102100000Y-112212380D02*
X102100000Y-111212380D01*
X102004761Y-111355238D01*
X101909523Y-111450476D01*
X101814285Y-111498095D01*
%TO.C,LS1*%
X139057142Y-89352380D02*
X138580952Y-89352380D01*
X138580952Y-88352380D01*
X139342857Y-89304761D02*
X139485714Y-89352380D01*
X139723809Y-89352380D01*
X139819047Y-89304761D01*
X139866666Y-89257142D01*
X139914285Y-89161904D01*
X139914285Y-89066666D01*
X139866666Y-88971428D01*
X139819047Y-88923809D01*
X139723809Y-88876190D01*
X139533333Y-88828571D01*
X139438095Y-88780952D01*
X139390476Y-88733333D01*
X139342857Y-88638095D01*
X139342857Y-88542857D01*
X139390476Y-88447619D01*
X139438095Y-88400000D01*
X139533333Y-88352380D01*
X139771428Y-88352380D01*
X139914285Y-88400000D01*
X140866666Y-89352380D02*
X140295238Y-89352380D01*
X140580952Y-89352380D02*
X140580952Y-88352380D01*
X140485714Y-88495238D01*
X140390476Y-88590476D01*
X140295238Y-88638095D01*
%TO.C,JP1*%
X123626666Y-78827380D02*
X123626666Y-79541666D01*
X123579047Y-79684523D01*
X123483809Y-79779761D01*
X123340952Y-79827380D01*
X123245714Y-79827380D01*
X124102857Y-79827380D02*
X124102857Y-78827380D01*
X124483809Y-78827380D01*
X124579047Y-78875000D01*
X124626666Y-78922619D01*
X124674285Y-79017857D01*
X124674285Y-79160714D01*
X124626666Y-79255952D01*
X124579047Y-79303571D01*
X124483809Y-79351190D01*
X124102857Y-79351190D01*
X125626666Y-79827380D02*
X125055238Y-79827380D01*
X125340952Y-79827380D02*
X125340952Y-78827380D01*
X125245714Y-78970238D01*
X125150476Y-79065476D01*
X125055238Y-79113095D01*
%TO.C,J1*%
X126412666Y-113371380D02*
X126412666Y-114085666D01*
X126365047Y-114228523D01*
X126269809Y-114323761D01*
X126126952Y-114371380D01*
X126031714Y-114371380D01*
X127412666Y-114371380D02*
X126841238Y-114371380D01*
X127126952Y-114371380D02*
X127126952Y-113371380D01*
X127031714Y-113514238D01*
X126936476Y-113609476D01*
X126841238Y-113657095D01*
%TO.C,D3*%
X125245904Y-102052380D02*
X125245904Y-101052380D01*
X125484000Y-101052380D01*
X125626857Y-101100000D01*
X125722095Y-101195238D01*
X125769714Y-101290476D01*
X125817333Y-101480952D01*
X125817333Y-101623809D01*
X125769714Y-101814285D01*
X125722095Y-101909523D01*
X125626857Y-102004761D01*
X125484000Y-102052380D01*
X125245904Y-102052380D01*
X126150666Y-101052380D02*
X126769714Y-101052380D01*
X126436380Y-101433333D01*
X126579238Y-101433333D01*
X126674476Y-101480952D01*
X126722095Y-101528571D01*
X126769714Y-101623809D01*
X126769714Y-101861904D01*
X126722095Y-101957142D01*
X126674476Y-102004761D01*
X126579238Y-102052380D01*
X126293523Y-102052380D01*
X126198285Y-102004761D01*
X126150666Y-101957142D01*
%TO.C,D2*%
X97051904Y-102052380D02*
X97051904Y-101052380D01*
X97290000Y-101052380D01*
X97432857Y-101100000D01*
X97528095Y-101195238D01*
X97575714Y-101290476D01*
X97623333Y-101480952D01*
X97623333Y-101623809D01*
X97575714Y-101814285D01*
X97528095Y-101909523D01*
X97432857Y-102004761D01*
X97290000Y-102052380D01*
X97051904Y-102052380D01*
X98004285Y-101147619D02*
X98051904Y-101100000D01*
X98147142Y-101052380D01*
X98385238Y-101052380D01*
X98480476Y-101100000D01*
X98528095Y-101147619D01*
X98575714Y-101242857D01*
X98575714Y-101338095D01*
X98528095Y-101480952D01*
X97956666Y-102052380D01*
X98575714Y-102052380D01*
%TO.C,D1*%
X81811904Y-102052380D02*
X81811904Y-101052380D01*
X82050000Y-101052380D01*
X82192857Y-101100000D01*
X82288095Y-101195238D01*
X82335714Y-101290476D01*
X82383333Y-101480952D01*
X82383333Y-101623809D01*
X82335714Y-101814285D01*
X82288095Y-101909523D01*
X82192857Y-102004761D01*
X82050000Y-102052380D01*
X81811904Y-102052380D01*
X83335714Y-102052380D02*
X82764285Y-102052380D01*
X83050000Y-102052380D02*
X83050000Y-101052380D01*
X82954761Y-101195238D01*
X82859523Y-101290476D01*
X82764285Y-101338095D01*
%TO.C,C4*%
X90638333Y-108942142D02*
X90590714Y-108989761D01*
X90447857Y-109037380D01*
X90352619Y-109037380D01*
X90209761Y-108989761D01*
X90114523Y-108894523D01*
X90066904Y-108799285D01*
X90019285Y-108608809D01*
X90019285Y-108465952D01*
X90066904Y-108275476D01*
X90114523Y-108180238D01*
X90209761Y-108085000D01*
X90352619Y-108037380D01*
X90447857Y-108037380D01*
X90590714Y-108085000D01*
X90638333Y-108132619D01*
X91495476Y-108370714D02*
X91495476Y-109037380D01*
X91257380Y-107989761D02*
X91019285Y-108704047D01*
X91638333Y-108704047D01*
%TO.C,C3*%
X83018333Y-125452142D02*
X82970714Y-125499761D01*
X82827857Y-125547380D01*
X82732619Y-125547380D01*
X82589761Y-125499761D01*
X82494523Y-125404523D01*
X82446904Y-125309285D01*
X82399285Y-125118809D01*
X82399285Y-124975952D01*
X82446904Y-124785476D01*
X82494523Y-124690238D01*
X82589761Y-124595000D01*
X82732619Y-124547380D01*
X82827857Y-124547380D01*
X82970714Y-124595000D01*
X83018333Y-124642619D01*
X83351666Y-124547380D02*
X83970714Y-124547380D01*
X83637380Y-124928333D01*
X83780238Y-124928333D01*
X83875476Y-124975952D01*
X83923095Y-125023571D01*
X83970714Y-125118809D01*
X83970714Y-125356904D01*
X83923095Y-125452142D01*
X83875476Y-125499761D01*
X83780238Y-125547380D01*
X83494523Y-125547380D01*
X83399285Y-125499761D01*
X83351666Y-125452142D01*
%TO.C,C2*%
X76033333Y-117832142D02*
X75985714Y-117879761D01*
X75842857Y-117927380D01*
X75747619Y-117927380D01*
X75604761Y-117879761D01*
X75509523Y-117784523D01*
X75461904Y-117689285D01*
X75414285Y-117498809D01*
X75414285Y-117355952D01*
X75461904Y-117165476D01*
X75509523Y-117070238D01*
X75604761Y-116975000D01*
X75747619Y-116927380D01*
X75842857Y-116927380D01*
X75985714Y-116975000D01*
X76033333Y-117022619D01*
X76414285Y-117022619D02*
X76461904Y-116975000D01*
X76557142Y-116927380D01*
X76795238Y-116927380D01*
X76890476Y-116975000D01*
X76938095Y-117022619D01*
X76985714Y-117117857D01*
X76985714Y-117213095D01*
X76938095Y-117355952D01*
X76366666Y-117927380D01*
X76985714Y-117927380D01*
%TO.C,BT1*%
X72874285Y-95178571D02*
X73017142Y-95226190D01*
X73064761Y-95273809D01*
X73112380Y-95369047D01*
X73112380Y-95511904D01*
X73064761Y-95607142D01*
X73017142Y-95654761D01*
X72921904Y-95702380D01*
X72540952Y-95702380D01*
X72540952Y-94702380D01*
X72874285Y-94702380D01*
X72969523Y-94750000D01*
X73017142Y-94797619D01*
X73064761Y-94892857D01*
X73064761Y-94988095D01*
X73017142Y-95083333D01*
X72969523Y-95130952D01*
X72874285Y-95178571D01*
X72540952Y-95178571D01*
X73398095Y-94702380D02*
X73969523Y-94702380D01*
X73683809Y-95702380D02*
X73683809Y-94702380D01*
X74826666Y-95702380D02*
X74255238Y-95702380D01*
X74540952Y-95702380D02*
X74540952Y-94702380D01*
X74445714Y-94845238D01*
X74350476Y-94940476D01*
X74255238Y-94988095D01*
%TD*%
M02*
