%TF.GenerationSoftware,KiCad,Pcbnew,(5.1.9)-1*%
%TF.CreationDate,2021-11-29T08:04:12-06:00*%
%TF.ProjectId,chrimbus2021,63687269-6d62-4757-9332-3032312e6b69,rev?*%
%TF.SameCoordinates,Original*%
%TF.FileFunction,Profile,NP*%
%FSLAX46Y46*%
G04 Gerber Fmt 4.6, Leading zero omitted, Abs format (unit mm)*
G04 Created by KiCad (PCBNEW (5.1.9)-1) date 2021-11-29 08:04:12*
%MOMM*%
%LPD*%
G01*
G04 APERTURE LIST*
%TA.AperFunction,Profile*%
%ADD10C,0.240000*%
%TD*%
G04 APERTURE END LIST*
D10*
X57639047Y-70467444D02*
X150806877Y-70467444D01*
X57639047Y-70467444D02*
X57639047Y-70467444D01*
X150806877Y-70467444D02*
X151155007Y-70487053D01*
X151155007Y-70487053D02*
X151493350Y-70544589D01*
X151493350Y-70544589D02*
X151820157Y-70638114D01*
X151820157Y-70638114D02*
X152133681Y-70765688D01*
X152133681Y-70765688D02*
X152432172Y-70925373D01*
X152432172Y-70925373D02*
X152713881Y-71115231D01*
X152713881Y-71115231D02*
X152977060Y-71333324D01*
X152977060Y-71333324D02*
X153219960Y-71577712D01*
X153219960Y-71577712D02*
X153440833Y-71846458D01*
X153440833Y-71846458D02*
X153637929Y-72137623D01*
X153637929Y-72137623D02*
X153809501Y-72449268D01*
X153809501Y-72449268D02*
X153953799Y-72779455D01*
X153953799Y-72779455D02*
X154069074Y-73126245D01*
X154069074Y-73126245D02*
X154153579Y-73487701D01*
X154153579Y-73487701D02*
X154205564Y-73861883D01*
X154205564Y-73861883D02*
X154223282Y-74246853D01*
X54223121Y-74246853D02*
X54240836Y-73861883D01*
X54240836Y-73861883D02*
X54292818Y-73487701D01*
X54292818Y-73487701D02*
X54377316Y-73126245D01*
X54377316Y-73126245D02*
X54492582Y-72779455D01*
X54492582Y-72779455D02*
X54636867Y-72449268D01*
X54636867Y-72449268D02*
X54808421Y-72137623D01*
X54808421Y-72137623D02*
X55005497Y-71846458D01*
X55005497Y-71846458D02*
X55226345Y-71577712D01*
X55226345Y-71577712D02*
X55469216Y-71333324D01*
X55469216Y-71333324D02*
X55732361Y-71115231D01*
X55732361Y-71115231D02*
X56014031Y-70925373D01*
X56014031Y-70925373D02*
X56312477Y-70765688D01*
X56312477Y-70765688D02*
X56625951Y-70638114D01*
X56625951Y-70638114D02*
X56952703Y-70544589D01*
X56952703Y-70544589D02*
X57290984Y-70487053D01*
X57290984Y-70487053D02*
X57639047Y-70467444D01*
X154223282Y-129688895D02*
X154205564Y-130073734D01*
X154205564Y-130073734D02*
X154153579Y-130447800D01*
X154153579Y-130447800D02*
X154069074Y-130809154D01*
X154069074Y-130809154D02*
X153953799Y-131155855D01*
X153953799Y-131155855D02*
X153809501Y-131485964D01*
X153809501Y-131485964D02*
X153637929Y-131797543D01*
X153637929Y-131797543D02*
X153440833Y-132088651D01*
X153440833Y-132088651D02*
X153219960Y-132357350D01*
X153219960Y-132357350D02*
X152977060Y-132601701D01*
X152977060Y-132601701D02*
X152713881Y-132819763D01*
X152713881Y-132819763D02*
X152432172Y-133009598D01*
X152432172Y-133009598D02*
X152133681Y-133169266D01*
X152133681Y-133169266D02*
X151820157Y-133296828D01*
X151820157Y-133296828D02*
X151493350Y-133390345D01*
X151493350Y-133390345D02*
X151155007Y-133447877D01*
X151155007Y-133447877D02*
X150806877Y-133467486D01*
X154223282Y-74246853D02*
X154223282Y-129688895D01*
X54223121Y-129688895D02*
X54223121Y-74246853D01*
X57639047Y-133467486D02*
X57290984Y-133447877D01*
X57290984Y-133447877D02*
X56952703Y-133390346D01*
X56952703Y-133390346D02*
X56625951Y-133296830D01*
X56625951Y-133296830D02*
X56312477Y-133169269D01*
X56312477Y-133169269D02*
X56014031Y-133009602D01*
X56014031Y-133009602D02*
X55732361Y-132819768D01*
X55732361Y-132819768D02*
X55469216Y-132601707D01*
X55469216Y-132601707D02*
X55226345Y-132357358D01*
X55226345Y-132357358D02*
X55005497Y-132088660D01*
X55005497Y-132088660D02*
X54808421Y-131797552D01*
X54808421Y-131797552D02*
X54636867Y-131485974D01*
X54636867Y-131485974D02*
X54492582Y-131155864D01*
X54492582Y-131155864D02*
X54377316Y-130809162D01*
X54377316Y-130809162D02*
X54292818Y-130447807D01*
X54292818Y-130447807D02*
X54240836Y-130073738D01*
X54240836Y-130073738D02*
X54223121Y-129688895D01*
X150806877Y-133467486D02*
X147895384Y-133467486D01*
X147895384Y-133467486D02*
X144983890Y-133467486D01*
X144983890Y-133467486D02*
X142072395Y-133467486D01*
X142072395Y-133467486D02*
X139160898Y-133467486D01*
X139160898Y-133467486D02*
X136249400Y-133467486D01*
X136249400Y-133467486D02*
X133337901Y-133467486D01*
X133337901Y-133467486D02*
X130426401Y-133467486D01*
X130426401Y-133467486D02*
X127514900Y-133467486D01*
X127514900Y-133467486D02*
X124603399Y-133467486D01*
X124603399Y-133467486D02*
X121691897Y-133467486D01*
X121691897Y-133467486D02*
X118780395Y-133467486D01*
X118780395Y-133467486D02*
X115868893Y-133467486D01*
X115868893Y-133467486D02*
X112957391Y-133467486D01*
X112957391Y-133467486D02*
X110045889Y-133467486D01*
X110045889Y-133467486D02*
X107134388Y-133467486D01*
X107134388Y-133467486D02*
X104222887Y-133467486D01*
X104222887Y-133467486D02*
X101311386Y-133467486D01*
X101311386Y-133467486D02*
X98399886Y-133467486D01*
X98399886Y-133467486D02*
X95488387Y-133467486D01*
X95488387Y-133467486D02*
X92576889Y-133467486D01*
X92576889Y-133467486D02*
X89665392Y-133467486D01*
X89665392Y-133467486D02*
X86753897Y-133467486D01*
X86753897Y-133467486D02*
X83842403Y-133467486D01*
X83842403Y-133467486D02*
X80930910Y-133467486D01*
X80930910Y-133467486D02*
X78019420Y-133467486D01*
X78019420Y-133467486D02*
X75107931Y-133467486D01*
X75107931Y-133467486D02*
X72196444Y-133467486D01*
X72196444Y-133467486D02*
X69284960Y-133467486D01*
X69284960Y-133467486D02*
X66373477Y-133467486D01*
X66373477Y-133467486D02*
X63461998Y-133467486D01*
X63461998Y-133467486D02*
X60550521Y-133467486D01*
X60550521Y-133467486D02*
X57639047Y-133467486D01*
M02*
