  0
SECTION
  2
HEADER
  9
$ACADVER
  1
AC1014
  9
$HANDSEED
  5
FFFF
  9
$MEASUREMENT
 70
     1
  0
ENDSEC
  0
SECTION
  2
TABLES
  0
TABLE
  2
VPORT
  5
8
330
0
100
AcDbSymbolTable
 70
     4
  0
VPORT
  5
2E
330
8
100
AcDbSymbolTableRecord
100
AcDbViewportTableRecord
  2
*ACTIVE
 70
     0
 10
0.0
 20
0.0
 11
1.0
 21
1.0
 12
210.0
 22
148.5
 13
0.0
 23
0.0
 14
10.0
 24
10.0
 15
10.0
 25
10.0
 16
0.0
 26
0.0
 36
1.0
 17
0.0
 27
0.0
 37
0.0
 40
341.0
 41
1.24
 42
50.0
 43
0.0
 44
0.0
 50
0.0
 51
0.0
 71
     0
 72
   100
 73
     1
 74
     3
 75
     0
 76
     0
 77
     0
 78
     0
  0
ENDTAB
  0
TABLE
  2
LTYPE
  5
5
330
0
100
AcDbSymbolTable
 70
     1
  0
LTYPE
  5
14
330
5
100
AcDbSymbolTableRecord
100
AcDbLinetypeTableRecord
  2
BYBLOCK
 70
     0
  3

 72
    65
 73
     0
 40
0.0
  0
LTYPE
  5
15
330
5
100
AcDbSymbolTableRecord
100
AcDbLinetypeTableRecord
  2
BYLAYER
 70
     0
  3

 72
    65
 73
     0
 40
0.0
  0
LTYPE
  5
16
330
5
100
AcDbSymbolTableRecord
100
AcDbLinetypeTableRecord
  2
CONTINUOUS
 70
     0
  3
Solid line
 72
    65
 73
     0
 40
0.0
  0
ENDTAB
  0
TABLE
  2
LAYER
  5
2
100
AcDbSymbolTable
 70
1
  0
LAYER
  5
50
100
AcDbSymbolTableRecord
100
AcDbLayerTableRecord
  2
0
 70
0
  6
CONTINUOUS
  0
ENDTAB
  0
TABLE
  2
STYLE
  5
3
330
0
100
AcDbSymbolTable
 70
     1
  0
STYLE
  5
11
330
3
100
AcDbSymbolTableRecord
100
AcDbTextStyleTableRecord
  2
STANDARD
 70
     0
 40
0.0
 41
1.0
 50
0.0
 71
     0
 42
2.5
  3
txt
  4

  0
ENDTAB
  0
TABLE
  2
VIEW
  5
6
330
0
100
AcDbSymbolTable
 70
     0
  0
ENDTAB
  0
TABLE
  2
UCS
  5
7
330
0
100
AcDbSymbolTable
 70
     0
  0
ENDTAB
  0
TABLE
  2
APPID
  5
9
330
0
100
AcDbSymbolTable
 70
     2
  0
APPID
  5
12
330
9
100
AcDbSymbolTableRecord
100
AcDbRegAppTableRecord
  2
ACAD
 70
     0
  0
ENDTAB
  0
TABLE
  2
DIMSTYLE
  5
A
330
0
100
AcDbSymbolTable
 70
     1
  0
DIMSTYLE
105
27
330
A
100
AcDbSymbolTableRecord
100
AcDbDimStyleTableRecord
  2
ISO-25
 70
     0
  3

  4

  5

  6

  7

 40
1.0
 41
2.5
 42
0.625
 43
3.75
 44
1.25
 45
0.0
 46
0.0
 47
0.0
 48
0.0
140
2.5
141
2.5
142
0.0
143
0.03937007874016
144
1.0
145
0.0
146
1.0
147
0.625
 71
     0
 72
     0
 73
     0
 74
     0
 75
     0
 76
     0
 77
     1
 78
     8
170
     0
171
     3
172
     1
173
     0
174
     0
175
     0
176
     0
177
     0
178
     0
270
     2
271
     2
272
     2
273
     2
274
     3
340
11
275
     0
280
     0
281
     0
282
     0
283
     0
284
     8
285
     0
286
     0
287
     3
288
     0
  0
ENDTAB
  0
TABLE
  2
BLOCK_RECORD
  5
1
330
0
100
AcDbSymbolTable
 70
     1
  0
BLOCK_RECORD
  5
1F
330
1
100
AcDbSymbolTableRecord
100
AcDbBlockTableRecord
  2
*MODEL_SPACE
  0
BLOCK_RECORD
  5
1B
330
1
100
AcDbSymbolTableRecord
100
AcDbBlockTableRecord
  2
*PAPER_SPACE
  0
ENDTAB
  0
ENDSEC
  0
SECTION
  2
BLOCKS
  0
BLOCK
  5
20
330
1F
100
AcDbEntity
  8
0
100
AcDbBlockBegin
  2
*MODEL_SPACE
 70
     0
 10
0.0
 20
0.0
 30
0.0
  3
*MODEL_SPACE
  1

  0
ENDBLK
  5
21
330
1F
100
AcDbEntity
  8
0
100
AcDbBlockEnd
  0
BLOCK
  5
1C
330
1B
100
AcDbEntity
 67
     1
  8
0
100
AcDbBlockBegin
  2
*PAPER_SPACE
  1

  0
ENDBLK
  5
1D
330
1B
100
AcDbEntity
 67
     1
  8
0
100
AcDbBlockEnd
  0
ENDSEC
  0
SECTION
  2
ENTITIES
  0
LWPOLYLINE
  5
100
100
AcDbEntity
  8
0
 62
7
100
AcDbPolyline
 90
4
 70
1
 10
0.184226
 20
65.671198
 30
0.0
 10
103.992365
 20
65.671198
 30
0.0
 10
103.992365
 20
-0.095383
 30
0.0
 10
0.184226
 20
-0.095383
 30
0.0
  0
SPLINE
  5
101
100
AcDbEntity
  8
0
 62
7
100
AcDbSpline
 70
8
 71
3
 72
8
 73
4
 74
0
 40
0
 40
0
 40
0
 40
0
 40
1
 40
1
 40
1
 40
1
 10
37.737946
 20
41.771470
 30
0.0
 10
37.737946
 20
38.887814
 30
0.0
 10
37.737946
 20
27.714551
 30
0.0
 10
37.737946
 20
27.530581
 30
0.0
  0
LWPOLYLINE
  5
102
100
AcDbEntity
  8
0
 62
7
100
AcDbPolyline
 90
8
 70
0
 10
37.737946
 20
27.530581
 30
0.0
 10
52.527430
 20
27.530581
 30
0.0
 10
56.627636
 20
27.530581
 30
0.0
 10
62.179985
 20
27.530581
 30
0.0
 10
62.179985
 20
41.771470
 30
0.0
 10
56.627636
 20
41.771470
 30
0.0
 10
52.528210
 20
41.771470
 30
0.0
 10
37.737946
 20
41.771470
 30
0.0
  0
SPLINE
  5
103
100
AcDbEntity
  8
0
 62
7
100
AcDbSpline
 70
8
 71
3
 72
8
 73
4
 74
0
 40
0
 40
0
 40
0
 40
0
 40
1
 40
1
 40
1
 40
1
 10
71.677261
 20
41.421425
 30
0.0
 10
68.109475
 20
41.421425
 30
0.0
 10
65.215530
 20
38.389298
 30
0.0
 10
65.215530
 20
34.651025
 30
0.0
  0
SPLINE
  5
104
100
AcDbEntity
  8
0
 62
7
100
AcDbSpline
 70
8
 71
3
 72
8
 73
4
 74
0
 40
0
 40
0
 40
0
 40
0
 40
1
 40
1
 40
1
 40
1
 10
65.215530
 20
34.651025
 30
0.0
 10
65.215530
 20
30.912564
 30
0.0
 10
68.109475
 20
27.878886
 30
0.0
 10
71.677261
 20
27.878886
 30
0.0
  0
SPLINE
  5
105
100
AcDbEntity
  8
0
 62
7
100
AcDbSpline
 70
8
 71
3
 72
8
 73
4
 74
0
 40
0
 40
0
 40
0
 40
0
 40
1
 40
1
 40
1
 40
1
 10
71.677261
 20
27.878886
 30
0.0
 10
75.245226
 20
27.878886
 30
0.0
 10
78.139771
 20
30.912564
 30
0.0
 10
78.139771
 20
34.651025
 30
0.0
  0
SPLINE
  5
106
100
AcDbEntity
  8
0
 62
7
100
AcDbSpline
 70
8
 71
3
 72
8
 73
4
 74
0
 40
0
 40
0
 40
0
 40
0
 40
1
 40
1
 40
1
 40
1
 10
78.139771
 20
34.651025
 30
0.0
 10
78.139771
 20
38.389298
 30
0.0
 10
75.245246
 20
41.421425
 30
0.0
 10
71.677261
 20
41.421425
 30
0.0
  0
LWPOLYLINE
  5
107
100
AcDbEntity
  8
0
 62
7
100
AcDbPolyline
 90
1
 70
1
 10
37.737946
 20
27.530581
 30
0.0
  0
SPLINE
  5
108
100
AcDbEntity
  8
0
 62
7
100
AcDbSpline
 70
8
 71
3
 72
8
 73
4
 74
0
 40
0
 40
0
 40
0
 40
0
 40
1
 40
1
 40
1
 40
1
 10
71.677261
 20
40.092664
 30
0.0
 10
70.944439
 20
40.092664
 30
0.0
 10
70.246978
 20
39.932331
 30
0.0
 10
69.614357
 20
39.645510
 30
0.0
  0
LWPOLYLINE
  5
109
100
AcDbEntity
  8
0
 62
7
100
AcDbPolyline
 90
1
 70
1
 10
71.677261
 20
41.421425
 30
0.0
  0
SPLINE
  5
10a
100
AcDbEntity
  8
0
 62
7
100
AcDbSpline
 70
8
 71
3
 72
8
 73
4
 74
0
 40
0
 40
0
 40
0
 40
0
 40
1
 40
1
 40
1
 40
1
 10
68.581356
 20
39.019793
 30
0.0
 10
67.459474
 20
38.145247
 30
0.0
 10
66.685853
 20
36.806951
 30
0.0
 10
66.518452
 20
35.275904
 30
0.0
  0
LWPOLYLINE
  5
10b
100
AcDbEntity
  8
0
 62
7
100
AcDbPolyline
 90
4
 70
0
 10
69.614357
 20
39.645510
 30
0.0
 10
70.119638
 20
38.728278
 30
0.0
 10
69.086636
 20
38.103399
 30
0.0
 10
68.581356
 20
39.019793
 30
0.0
  0
SPLINE
  5
10c
100
AcDbEntity
  8
0
 62
7
100
AcDbSpline
 70
8
 71
3
 72
8
 73
4
 74
0
 40
0
 40
0
 40
0
 40
0
 40
1
 40
1
 40
1
 40
1
 10
66.518472
 20
34.026021
 30
0.0
 10
66.685853
 20
32.495057
 30
0.0
 10
67.459494
 20
31.156678
 30
0.0
 10
68.582156
 20
30.282237
 30
0.0
  0
LWPOLYLINE
  5
10d
100
AcDbEntity
  8
0
 62
7
100
AcDbPolyline
 90
4
 70
0
 10
66.518452
 20
35.275904
 30
0.0
 10
67.528034
 20
35.275904
 30
0.0
 10
67.528834
 20
34.026021
 30
0.0
 10
66.518472
 20
34.026021
 30
0.0
  0
SPLINE
  5
10e
100
AcDbEntity
  8
0
 62
7
100
AcDbSpline
 70
8
 71
3
 72
8
 73
4
 74
0
 40
0
 40
0
 40
0
 40
0
 40
1
 40
1
 40
1
 40
1
 10
69.614377
 20
29.656436
 30
0.0
 10
70.246998
 20
29.368902
 30
0.0
 10
70.944459
 20
29.208465
 30
0.0
 10
71.677281
 20
29.208465
 30
0.0
  0
SPLINE
  5
10f
100
AcDbEntity
  8
0
 62
7
100
AcDbSpline
 70
8
 71
3
 72
8
 73
4
 74
0
 40
0
 40
0
 40
0
 40
0
 40
1
 40
1
 40
1
 40
1
 10
71.677281
 20
29.208465
 30
0.0
 10
72.410882
 20
29.208465
 30
0.0
 10
73.108343
 20
29.368902
 30
0.0
 10
73.740964
 20
29.656436
 30
0.0
  0
LWPOLYLINE
  5
110
100
AcDbEntity
  8
0
 62
7
100
AcDbPolyline
 90
4
 70
0
 10
68.582156
 20
30.282237
 30
0.0
 10
69.086656
 20
31.198631
 30
0.0
 10
70.119658
 20
30.572830
 30
0.0
 10
69.614377
 20
29.656436
 30
0.0
  0
SPLINE
  5
111
100
AcDbEntity
  8
0
 62
7
100
AcDbSpline
 70
8
 71
3
 72
8
 73
4
 74
0
 40
0
 40
0
 40
0
 40
0
 40
1
 40
1
 40
1
 40
1
 10
74.773186
 20
30.282237
 30
0.0
 10
75.895067
 20
31.155860
 30
0.0
 10
76.668689
 20
32.494261
 30
0.0
 10
76.836869
 20
34.026021
 30
0.0
  0
LWPOLYLINE
  5
112
100
AcDbEntity
  8
0
 62
7
100
AcDbPolyline
 90
4
 70
0
 10
73.740964
 20
29.656436
 30
0.0
 10
73.236463
 20
30.572830
 30
0.0
 10
74.268105
 20
31.197814
 30
0.0
 10
74.773186
 20
30.282237
 30
0.0
  0
SPLINE
  5
113
100
AcDbEntity
  8
0
 62
7
100
AcDbSpline
 70
8
 71
3
 72
8
 73
4
 74
0
 40
0
 40
0
 40
0
 40
0
 40
1
 40
1
 40
1
 40
1
 10
76.836869
 20
35.275066
 30
0.0
 10
76.670269
 20
36.806951
 30
0.0
 10
75.895067
 20
38.145226
 30
0.0
 10
74.773186
 20
39.019772
 30
0.0
  0
LWPOLYLINE
  5
114
100
AcDbEntity
  8
0
 62
7
100
AcDbPolyline
 90
4
 70
0
 10
76.836869
 20
34.026021
 30
0.0
 10
75.827287
 20
34.026021
 30
0.0
 10
75.827287
 20
35.275066
 30
0.0
 10
76.836869
 20
35.275066
 30
0.0
  0
SPLINE
  5
115
100
AcDbEntity
  8
0
 62
7
100
AcDbSpline
 70
8
 71
3
 72
8
 73
4
 74
0
 40
0
 40
0
 40
0
 40
0
 40
1
 40
1
 40
1
 40
1
 10
73.741744
 20
39.645489
 30
0.0
 10
73.108343
 20
39.933044
 30
0.0
 10
72.410882
 20
40.092664
 30
0.0
 10
71.677281
 20
40.092664
 30
0.0
  0
LWPOLYLINE
  5
116
100
AcDbEntity
  8
0
 62
7
100
AcDbPolyline
 90
4
 70
0
 10
74.773186
 20
39.019772
 30
0.0
 10
74.268105
 20
38.104195
 30
0.0
 10
73.236463
 20
38.728257
 30
0.0
 10
73.741744
 20
39.645489
 30
0.0
  0
SPLINE
  5
117
100
AcDbEntity
  8
0
 62
7
100
AcDbSpline
 70
8
 71
3
 72
8
 73
4
 74
0
 40
0
 40
0
 40
0
 40
0
 40
1
 40
1
 40
1
 40
1
 10
28.322511
 20
41.421425
 30
0.0
 10
31.891077
 20
41.421425
 30
0.0
 10
34.784921
 20
38.389298
 30
0.0
 10
34.784921
 20
34.651025
 30
0.0
  0
SPLINE
  5
118
100
AcDbEntity
  8
0
 62
7
100
AcDbSpline
 70
8
 71
3
 72
8
 73
4
 74
0
 40
0
 40
0
 40
0
 40
0
 40
1
 40
1
 40
1
 40
1
 10
34.784921
 20
34.651025
 30
0.0
 10
34.784921
 20
30.912564
 30
0.0
 10
31.891077
 20
27.878886
 30
0.0
 10
28.322511
 20
27.878886
 30
0.0
  0
SPLINE
  5
119
100
AcDbEntity
  8
0
 62
7
100
AcDbSpline
 70
8
 71
3
 72
8
 73
4
 74
0
 40
0
 40
0
 40
0
 40
0
 40
1
 40
1
 40
1
 40
1
 10
28.322511
 20
27.878886
 30
0.0
 10
24.754625
 20
27.878886
 30
0.0
 10
21.860780
 20
30.912564
 30
0.0
 10
21.860780
 20
34.651025
 30
0.0
  0
SPLINE
  5
11a
100
AcDbEntity
  8
0
 62
7
100
AcDbSpline
 70
8
 71
3
 72
8
 73
4
 74
0
 40
0
 40
0
 40
0
 40
0
 40
1
 40
1
 40
1
 40
1
 10
21.860780
 20
34.651025
 30
0.0
 10
21.860780
 20
38.389298
 30
0.0
 10
24.754625
 20
41.421425
 30
0.0
 10
28.322511
 20
41.421425
 30
0.0
  0
LWPOLYLINE
  5
11b
100
AcDbEntity
  8
0
 62
7
100
AcDbPolyline
 90
1
 70
1
 10
71.677281
 20
40.092664
 30
0.0
  0
SPLINE
  5
11c
100
AcDbEntity
  8
0
 62
7
100
AcDbSpline
 70
8
 71
3
 72
8
 73
4
 74
0
 40
0
 40
0
 40
0
 40
0
 40
1
 40
1
 40
1
 40
1
 10
28.322511
 20
40.092664
 30
0.0
 10
29.056112
 20
40.092664
 30
0.0
 10
29.753573
 20
39.932331
 30
0.0
 10
30.386194
 20
39.645510
 30
0.0
  0
LWPOLYLINE
  5
11d
100
AcDbEntity
  8
0
 62
7
100
AcDbPolyline
 90
1
 70
1
 10
28.322511
 20
41.421425
 30
0.0
  0
SPLINE
  5
11e
100
AcDbEntity
  8
0
 62
7
100
AcDbSpline
 70
8
 71
3
 72
8
 73
4
 74
0
 40
0
 40
0
 40
0
 40
0
 40
1
 40
1
 40
1
 40
1
 10
31.419116
 20
39.019793
 30
0.0
 10
32.540698
 20
38.145247
 30
0.0
 10
33.314339
 20
36.806951
 30
0.0
 10
33.481719
 20
35.275904
 30
0.0
  0
LWPOLYLINE
  5
11f
100
AcDbEntity
  8
0
 62
7
100
AcDbPolyline
 90
4
 70
0
 10
30.386194
 20
39.645510
 30
0.0
 10
29.880633
 20
38.728278
 30
0.0
 10
30.913555
 20
38.103399
 30
0.0
 10
31.419116
 20
39.019793
 30
0.0
  0
SPLINE
  5
120
100
AcDbEntity
  8
0
 62
7
100
AcDbSpline
 70
8
 71
3
 72
8
 73
4
 74
0
 40
0
 40
0
 40
0
 40
0
 40
1
 40
1
 40
1
 40
1
 10
33.481719
 20
34.026021
 30
0.0
 10
33.314339
 20
32.495057
 30
0.0
 10
32.540698
 20
31.156678
 30
0.0
 10
31.418816
 20
30.282237
 30
0.0
  0
LWPOLYLINE
  5
121
100
AcDbEntity
  8
0
 62
7
100
AcDbPolyline
 90
4
 70
0
 10
33.481719
 20
35.275904
 30
0.0
 10
32.471757
 20
35.275904
 30
0.0
 10
32.471757
 20
34.026021
 30
0.0
 10
33.481719
 20
34.026021
 30
0.0
  0
SPLINE
  5
122
100
AcDbEntity
  8
0
 62
7
100
AcDbSpline
 70
8
 71
3
 72
8
 73
4
 74
0
 40
0
 40
0
 40
0
 40
0
 40
1
 40
1
 40
1
 40
1
 10
30.386174
 20
29.656436
 30
0.0
 10
29.753553
 20
29.368902
 30
0.0
 10
29.056092
 20
29.208465
 30
0.0
 10
28.322491
 20
29.208465
 30
0.0
  0
SPLINE
  5
123
100
AcDbEntity
  8
0
 62
7
100
AcDbSpline
 70
8
 71
3
 72
8
 73
4
 74
0
 40
0
 40
0
 40
0
 40
0
 40
1
 40
1
 40
1
 40
1
 10
28.322491
 20
29.208465
 30
0.0
 10
27.589570
 20
29.208465
 30
0.0
 10
26.892508
 20
29.368902
 30
0.0
 10
26.258427
 20
29.656436
 30
0.0
  0
LWPOLYLINE
  5
124
100
AcDbEntity
  8
0
 62
7
100
AcDbPolyline
 90
4
 70
0
 10
31.418816
 20
30.282237
 30
0.0
 10
30.913535
 20
31.198631
 30
0.0
 10
29.880613
 20
30.572830
 30
0.0
 10
30.386174
 20
29.656436
 30
0.0
  0
SPLINE
  5
125
100
AcDbEntity
  8
0
 62
7
100
AcDbSpline
 70
8
 71
3
 72
8
 73
4
 74
0
 40
0
 40
0
 40
0
 40
0
 40
1
 40
1
 40
1
 40
1
 10
25.226986
 20
30.282237
 30
0.0
 10
24.104724
 20
31.155860
 30
0.0
 10
23.331083
 20
32.494261
 30
0.0
 10
23.162922
 20
34.026021
 30
0.0
  0
LWPOLYLINE
  5
126
100
AcDbEntity
  8
0
 62
7
100
AcDbPolyline
 90
4
 70
0
 10
26.258427
 20
29.656436
 30
0.0
 10
26.763608
 20
30.572830
 30
0.0
 10
25.731387
 20
31.197814
 30
0.0
 10
25.226986
 20
30.282237
 30
0.0
  0
SPLINE
  5
127
100
AcDbEntity
  8
0
 62
7
100
AcDbSpline
 70
8
 71
3
 72
8
 73
4
 74
0
 40
0
 40
0
 40
0
 40
0
 40
1
 40
1
 40
1
 40
1
 10
23.162922
 20
35.275066
 30
0.0
 10
23.330303
 20
36.806951
 30
0.0
 10
24.104724
 20
38.145226
 30
0.0
 10
25.226606
 20
39.019772
 30
0.0
  0
LWPOLYLINE
  5
128
100
AcDbEntity
  8
0
 62
7
100
AcDbPolyline
 90
4
 70
0
 10
23.162922
 20
34.026021
 30
0.0
 10
24.172884
 20
34.026021
 30
0.0
 10
24.172884
 20
35.275066
 30
0.0
 10
23.162922
 20
35.275066
 30
0.0
  0
SPLINE
  5
129
100
AcDbEntity
  8
0
 62
7
100
AcDbSpline
 70
8
 71
3
 72
8
 73
4
 74
0
 40
0
 40
0
 40
0
 40
0
 40
1
 40
1
 40
1
 40
1
 10
26.258427
 20
39.645489
 30
0.0
 10
26.891048
 20
39.933044
 30
0.0
 10
27.589590
 20
40.092664
 30
0.0
 10
28.322511
 20
40.092664
 30
0.0
  0
LWPOLYLINE
  5
12a
100
AcDbEntity
  8
0
 62
7
100
AcDbPolyline
 90
4
 70
0
 10
25.226606
 20
39.019772
 30
0.0
 10
25.731387
 20
38.104195
 30
0.0
 10
26.764388
 20
38.728257
 30
0.0
 10
26.258427
 20
39.645489
 30
0.0
  0
SPLINE
  5
12b
100
AcDbEntity
  8
0
 62
7
100
AcDbSpline
 70
8
 71
3
 72
8
 73
4
 74
0
 40
0
 40
0
 40
0
 40
0
 40
1
 40
1
 40
1
 40
1
 10
61.600884
 20
39.995450
 30
0.0
 10
60.783703
 20
38.404323
 30
0.0
 10
60.319242
 20
36.584108
 30
0.0
 10
60.319242
 20
34.651025
 30
0.0
  0
SPLINE
  5
12c
100
AcDbEntity
  8
0
 62
7
100
AcDbSpline
 70
8
 71
3
 72
8
 73
4
 74
0
 40
0
 40
0
 40
0
 40
0
 40
1
 40
1
 40
1
 40
1
 10
60.319242
 20
34.651025
 30
0.0
 10
60.319242
 20
32.717838
 30
0.0
 10
60.783703
 20
30.898440
 30
0.0
 10
61.600884
 20
29.306496
 30
0.0
  0
LWPOLYLINE
  5
12d
100
AcDbEntity
  8
0
 62
7
100
AcDbPolyline
 90
1
 70
1
 10
28.322511
 20
40.092664
 30
0.0
  0
LWPOLYLINE
  5
12e
100
AcDbEntity
  8
0
 62
7
100
AcDbPolyline
 90
2
 70
0
 10
61.600884
 20
29.306496
 30
0.0
 10
61.600884
 20
39.995450
 30
0.0
  0
SPLINE
  5
12f
100
AcDbEntity
  8
0
 62
7
100
AcDbSpline
 70
8
 71
3
 72
8
 73
4
 74
0
 40
0
 40
0
 40
0
 40
0
 40
1
 40
1
 40
1
 40
1
 10
51.207888
 20
41.158347
 30
0.0
 10
51.793049
 20
39.093264
 30
0.0
 10
52.109069
 20
36.910410
 30
0.0
 10
52.109069
 20
34.651738
 30
0.0
  0
SPLINE
  5
130
100
AcDbEntity
  8
0
 62
7
100
AcDbSpline
 70
8
 71
3
 72
8
 73
4
 74
0
 40
0
 40
0
 40
0
 40
0
 40
1
 40
1
 40
1
 40
1
 10
52.109069
 20
34.651738
 30
0.0
 10
52.109069
 20
32.392353
 30
0.0
 10
51.793049
 20
30.209583
 30
0.0
 10
51.207888
 20
28.143494
 30
0.0
  0
LWPOLYLINE
  5
131
100
AcDbEntity
  8
0
 62
7
100
AcDbPolyline
 90
2
 70
0
 10
38.313247
 20
41.158347
 30
0.0
 10
51.207888
 20
41.158347
 30
0.0
  0
SPLINE
  5
132
100
AcDbEntity
  8
0
 62
7
100
AcDbSpline
 70
8
 71
3
 72
8
 73
4
 74
0
 40
0
 40
0
 40
0
 40
0
 40
1
 40
1
 40
1
 40
1
 10
71.677261
 20
41.915959
 30
0.0
 10
67.848534
 20
41.915959
 30
0.0
 10
64.743649
 20
38.662707
 30
0.0
 10
64.743649
 20
34.651025
 30
0.0
  0
SPLINE
  5
133
100
AcDbEntity
  8
0
 62
7
100
AcDbSpline
 70
8
 71
3
 72
8
 73
4
 74
0
 40
0
 40
0
 40
0
 40
0
 40
1
 40
1
 40
1
 40
1
 10
64.743649
 20
34.651025
 30
0.0
 10
64.743649
 20
30.639343
 30
0.0
 10
67.848534
 20
27.384457
 30
0.0
 10
71.677261
 20
27.384457
 30
0.0
  0
SPLINE
  5
134
100
AcDbEntity
  8
0
 62
7
100
AcDbSpline
 70
8
 71
3
 72
8
 73
4
 74
0
 40
0
 40
0
 40
0
 40
0
 40
1
 40
1
 40
1
 40
1
 10
71.677261
 20
27.384457
 30
0.0
 10
75.505987
 20
27.384457
 30
0.0
 10
78.611652
 20
30.639343
 30
0.0
 10
78.611652
 20
34.651025
 30
0.0
  0
SPLINE
  5
135
100
AcDbEntity
  8
0
 62
7
100
AcDbSpline
 70
8
 71
3
 72
8
 73
4
 74
0
 40
0
 40
0
 40
0
 40
0
 40
1
 40
1
 40
1
 40
1
 10
78.611652
 20
34.651025
 30
0.0
 10
78.611652
 20
38.662707
 30
0.0
 10
75.505987
 20
41.915959
 30
0.0
 10
71.677261
 20
41.915959
 30
0.0
  0
LWPOLYLINE
  5
136
100
AcDbEntity
  8
0
 62
7
100
AcDbPolyline
 90
3
 70
0
 10
51.207888
 20
28.143494
 30
0.0
 10
38.313247
 20
28.143494
 30
0.0
 10
38.313247
 20
41.158347
 30
0.0
  0
SPLINE
  5
137
100
AcDbEntity
  8
0
 62
7
100
AcDbSpline
 70
8
 71
3
 72
8
 73
4
 74
0
 40
0
 40
0
 40
0
 40
0
 40
1
 40
1
 40
1
 40
1
 10
28.322511
 20
41.915959
 30
0.0
 10
32.151617
 20
41.915959
 30
0.0
 10
35.256902
 20
38.662707
 30
0.0
 10
35.256902
 20
34.651025
 30
0.0
  0
SPLINE
  5
138
100
AcDbEntity
  8
0
 62
7
100
AcDbSpline
 70
8
 71
3
 72
8
 73
4
 74
0
 40
0
 40
0
 40
0
 40
0
 40
1
 40
1
 40
1
 40
1
 10
35.256902
 20
34.651025
 30
0.0
 10
35.256902
 20
30.639343
 30
0.0
 10
32.151617
 20
27.384457
 30
0.0
 10
28.322511
 20
27.384457
 30
0.0
  0
SPLINE
  5
139
100
AcDbEntity
  8
0
 62
7
100
AcDbSpline
 70
8
 71
3
 72
8
 73
4
 74
0
 40
0
 40
0
 40
0
 40
0
 40
1
 40
1
 40
1
 40
1
 10
28.322511
 20
27.384457
 30
0.0
 10
24.494085
 20
27.384457
 30
0.0
 10
21.388800
 20
30.639343
 30
0.0
 10
21.388800
 20
34.651025
 30
0.0
  0
SPLINE
  5
13a
100
AcDbEntity
  8
0
 62
7
100
AcDbSpline
 70
8
 71
3
 72
8
 73
4
 74
0
 40
0
 40
0
 40
0
 40
0
 40
1
 40
1
 40
1
 40
1
 10
21.388800
 20
34.651025
 30
0.0
 10
21.388800
 20
38.662707
 30
0.0
 10
24.494085
 20
41.915959
 30
0.0
 10
28.322511
 20
41.915959
 30
0.0
  0
LWPOLYLINE
  5
13b
100
AcDbEntity
  8
0
 62
7
100
AcDbPolyline
 90
1
 70
1
 10
71.677261
 20
41.915959
 30
0.0
  0
LWPOLYLINE
  5
13c
100
AcDbEntity
  8
0
 62
7
100
AcDbPolyline
 90
1
 70
1
 10
28.322511
 20
41.915959
 30
0.0
  0
SPLINE
  5
13d
100
AcDbEntity
  8
0
 62
7
100
AcDbSpline
 70
8
 71
3
 72
8
 73
4
 74
0
 40
0
 40
0
 40
0
 40
0
 40
1
 40
1
 40
1
 40
1
 10
8.911439
 20
53.649306
 30
0.0
 10
8.244158
 20
51.337721
 30
0.0
 10
7.827938
 20
49.886473
 30
0.0
 10
7.307237
 20
47.979396
 30
0.0
  0
LWPOLYLINE
  5
13e
100
AcDbEntity
  8
0
 62
7
100
AcDbPolyline
 90
2
 70
0
 10
10.147581
 20
53.646246
 30
0.0
 10
8.911439
 20
53.649306
 30
0.0
  0
LWPOLYLINE
  5
13f
100
AcDbEntity
  8
0
 62
7
100
AcDbPolyline
 90
7
 70
0
 10
7.307237
 20
47.979396
 30
0.0
 10
8.543859
 20
47.973864
 30
0.0
 10
8.781759
 20
48.845245
 30
0.0
 10
10.198462
 20
48.840530
 30
0.0
 10
10.432242
 20
47.966697
 30
0.0
 10
11.669164
 20
47.962799
 30
0.0
 10
10.147581
 20
53.646246
 30
0.0
  0
LWPOLYLINE
  5
140
100
AcDbEntity
  8
0
 62
7
100
AcDbPolyline
 90
3
 70
1
 10
9.496880
 20
51.461862
 30
0.0
 10
9.862901
 20
50.092677
 30
0.0
 10
9.122860
 20
50.095025
 30
0.0
  0
LWPOLYLINE
  5
141
100
AcDbEntity
  8
0
 62
7
100
AcDbPolyline
 90
4
 70
1
 10
13.764467
 20
48.018081
 30
0.0
 10
90.507371
 20
48.018081
 30
0.0
 10
90.507371
 20
47.729730
 30
0.0
 10
13.764467
 20
47.729730
 30
0.0
  0
LWPOLYLINE
  5
142
100
AcDbEntity
  8
0
 62
7
100
AcDbPolyline
 90
4
 70
1
 10
13.764467
 20
52.250259
 30
0.0
 10
90.507371
 20
52.250259
 30
0.0
 10
90.507371
 20
51.962621
 30
0.0
 10
13.764467
 20
51.962621
 30
0.0
  0
SPLINE
  5
143
100
AcDbEntity
  8
0
 62
7
100
AcDbSpline
 70
8
 71
3
 72
8
 73
4
 74
0
 40
0
 40
0
 40
0
 40
0
 40
1
 40
1
 40
1
 40
1
 10
91.010312
 20
57.161759
 30
0.0
 10
92.890775
 20
57.161759
 30
0.0
 10
94.428277
 20
55.456947
 30
0.0
 10
94.428277
 20
53.382351
 30
0.0
  0
LWPOLYLINE
  5
144
100
AcDbEntity
  8
0
 62
7
100
AcDbPolyline
 90
2
 70
0
 10
8.989080
 20
57.161759
 30
0.0
 10
91.010312
 20
57.161759
 30
0.0
  0
SPLINE
  5
145
100
AcDbEntity
  8
0
 62
7
100
AcDbSpline
 70
8
 71
3
 72
8
 73
4
 74
0
 40
0
 40
0
 40
0
 40
0
 40
1
 40
1
 40
1
 40
1
 10
94.428277
 20
21.292562
 30
0.0
 10
94.428277
 20
19.216435
 30
0.0
 10
92.888435
 20
17.512336
 30
0.0
 10
91.010312
 20
17.512336
 30
0.0
  0
LWPOLYLINE
  5
146
100
AcDbEntity
  8
0
 62
7
100
AcDbPolyline
 90
2
 70
0
 10
94.428277
 20
53.382351
 30
0.0
 10
94.428277
 20
21.292562
 30
0.0
  0
SPLINE
  5
147
100
AcDbEntity
  8
0
 62
7
100
AcDbSpline
 70
8
 71
3
 72
8
 73
4
 74
0
 40
0
 40
0
 40
0
 40
0
 40
1
 40
1
 40
1
 40
1
 10
8.989080
 20
17.512336
 30
0.0
 10
7.111637
 20
17.512336
 30
0.0
 10
5.570814
 20
19.213145
 30
0.0
 10
5.570814
 20
21.292562
 30
0.0
  0
LWPOLYLINE
  5
148
100
AcDbEntity
  8
0
 62
7
100
AcDbPolyline
 90
2
 70
0
 10
91.010312
 20
17.512336
 30
0.0
 10
8.989080
 20
17.512336
 30
0.0
  0
SPLINE
  5
149
100
AcDbEntity
  8
0
 62
7
100
AcDbSpline
 70
8
 71
3
 72
8
 73
4
 74
0
 40
0
 40
0
 40
0
 40
0
 40
1
 40
1
 40
1
 40
1
 10
5.570814
 20
53.382351
 30
0.0
 10
5.570814
 20
55.460845
 30
0.0
 10
7.108997
 20
57.161759
 30
0.0
 10
8.989080
 20
57.161759
 30
0.0
  0
LWPOLYLINE
  5
14a
100
AcDbEntity
  8
0
 62
7
100
AcDbPolyline
 90
2
 70
0
 10
5.570814
 20
21.292562
 30
0.0
 10
5.570814
 20
53.382351
 30
0.0
  0
LWPOLYLINE
  5
14b
100
AcDbEntity
  8
0
 62
7
100
AcDbPolyline
 90
1
 70
1
 10
8.989080
 20
57.161759
 30
0.0
  0
SPLINE
  5
14c
100
AcDbEntity
  8
0
 62
7
100
AcDbSpline
 70
8
 71
3
 72
8
 73
4
 74
0
 40
0
 40
0
 40
0
 40
0
 40
1
 40
1
 40
1
 40
1
 10
80.173174
 20
44.431465
 30
0.0
 10
81.163216
 20
44.431465
 30
0.0
 10
81.972197
 20
43.534706
 30
0.0
 10
81.972197
 20
42.441383
 30
0.0
  0
LWPOLYLINE
  5
14d
100
AcDbEntity
  8
0
 62
7
100
AcDbPolyline
 90
2
 70
0
 10
19.826497
 20
44.431465
 30
0.0
 10
80.173174
 20
44.431465
 30
0.0
  0
SPLINE
  5
14e
100
AcDbEntity
  8
0
 62
7
100
AcDbSpline
 70
8
 71
3
 72
8
 73
4
 74
0
 40
0
 40
0
 40
0
 40
0
 40
1
 40
1
 40
1
 40
1
 10
81.972197
 20
26.859746
 30
0.0
 10
81.972197
 20
25.765710
 30
0.0
 10
81.162436
 20
24.870586
 30
0.0
 10
80.173174
 20
24.870586
 30
0.0
  0
LWPOLYLINE
  5
14f
100
AcDbEntity
  8
0
 62
7
100
AcDbPolyline
 90
2
 70
0
 10
81.972197
 20
42.441383
 30
0.0
 10
81.972197
 20
26.859746
 30
0.0
  0
SPLINE
  5
150
100
AcDbEntity
  8
0
 62
7
100
AcDbSpline
 70
8
 71
3
 72
8
 73
4
 74
0
 40
0
 40
0
 40
0
 40
0
 40
1
 40
1
 40
1
 40
1
 10
19.826497
 20
24.870586
 30
0.0
 10
18.837335
 20
24.870586
 30
0.0
 10
18.027574
 20
25.765710
 30
0.0
 10
18.027574
 20
26.859746
 30
0.0
  0
LWPOLYLINE
  5
151
100
AcDbEntity
  8
0
 62
7
100
AcDbPolyline
 90
2
 70
0
 10
80.173174
 20
24.870586
 30
0.0
 10
19.826497
 20
24.870586
 30
0.0
  0
SPLINE
  5
152
100
AcDbEntity
  8
0
 62
7
100
AcDbSpline
 70
8
 71
3
 72
8
 73
4
 74
0
 40
0
 40
0
 40
0
 40
0
 40
1
 40
1
 40
1
 40
1
 10
18.027574
 20
42.441383
 30
0.0
 10
18.027574
 20
43.536341
 30
0.0
 10
18.836555
 20
44.431465
 30
0.0
 10
19.826497
 20
44.431465
 30
0.0
  0
LWPOLYLINE
  5
153
100
AcDbEntity
  8
0
 62
7
100
AcDbPolyline
 90
2
 70
0
 10
18.027574
 20
26.859746
 30
0.0
 10
18.027574
 20
42.441383
 30
0.0
  0
SPLINE
  5
154
100
AcDbEntity
  8
0
 62
7
100
AcDbSpline
 70
8
 71
3
 72
8
 73
4
 74
0
 40
0
 40
0
 40
0
 40
0
 40
1
 40
1
 40
1
 40
1
 10
51.612188
 20
8.307781
 30
0.0
 10
52.639730
 20
9.024236
 30
0.0
 10
52.919610
 20
10.477223
 30
0.0
 10
52.236409
 20
11.554076
 30
0.0
  0
SPLINE
  5
155
100
AcDbEntity
  8
0
 62
7
100
AcDbSpline
 70
8
 71
3
 72
8
 73
4
 74
0
 40
0
 40
0
 40
0
 40
0
 40
1
 40
1
 40
1
 40
1
 10
52.236409
 20
11.554076
 30
0.0
 10
51.553208
 20
12.630718
 30
0.0
 10
50.165906
 20
12.923156
 30
0.0
 10
49.138264
 20
12.208125
 30
0.0
  0
SPLINE
  5
156
100
AcDbEntity
  8
0
 62
7
100
AcDbSpline
 70
8
 71
3
 72
8
 73
4
 74
0
 40
0
 40
0
 40
0
 40
0
 40
1
 40
1
 40
1
 40
1
 10
49.138264
 20
12.208125
 30
0.0
 10
48.109843
 20
11.492277
 30
0.0
 10
47.830842
 20
10.038683
 30
0.0
 10
48.514343
 20
8.962040
 30
0.0
  0
SPLINE
  5
157
100
AcDbEntity
  8
0
 62
7
100
AcDbSpline
 70
8
 71
3
 72
8
 73
4
 74
0
 40
0
 40
0
 40
0
 40
0
 40
1
 40
1
 40
1
 40
1
 10
48.514343
 20
8.962040
 30
0.0
 10
49.198224
 20
7.885188
 30
0.0
 10
50.583667
 20
7.593568
 30
0.0
 10
51.612188
 20
8.307781
 30
0.0
  0
LWPOLYLINE
  5
158
100
AcDbEntity
  8
0
 62
7
100
AcDbPolyline
 90
1
 70
1
 10
19.826497
 20
44.431465
 30
0.0
  0
SPLINE
  5
159
100
AcDbEntity
  8
0
 62
7
100
AcDbSpline
 70
8
 71
3
 72
8
 73
4
 74
0
 40
0
 40
0
 40
0
 40
0
 40
1
 40
1
 40
1
 40
1
 10
3.738671
 20
61.471285
 30
0.0
 10
4.730173
 20
61.190101
 30
0.0
 10
5.315234
 20
60.118781
 30
0.0
 10
5.046093
 20
59.081535
 30
0.0
  0
SPLINE
  5
15a
100
AcDbEntity
  8
0
 62
7
100
AcDbSpline
 70
8
 71
3
 72
8
 73
4
 74
0
 40
0
 40
0
 40
0
 40
0
 40
1
 40
1
 40
1
 40
1
 10
5.046093
 20
59.081535
 30
0.0
 10
4.776553
 20
58.043472
 30
0.0
 10
3.754091
 20
57.430349
 30
0.0
 10
2.763370
 20
57.712455
 30
0.0
  0
SPLINE
  5
15b
100
AcDbEntity
  8
0
 62
7
100
AcDbSpline
 70
8
 71
3
 72
8
 73
4
 74
0
 40
0
 40
0
 40
0
 40
0
 40
1
 40
1
 40
1
 40
1
 10
2.763370
 20
57.712455
 30
0.0
 10
1.773328
 20
57.995274
 30
0.0
 10
1.189047
 20
59.064959
 30
0.0
 10
1.457807
 20
60.103022
 30
0.0
  0
SPLINE
  5
15c
100
AcDbEntity
  8
0
 62
7
100
AcDbSpline
 70
8
 71
3
 72
8
 73
4
 74
0
 40
0
 40
0
 40
0
 40
0
 40
1
 40
1
 40
1
 40
1
 10
1.457807
 20
60.103022
 30
0.0
 10
1.726668
 20
61.140373
 30
0.0
 10
2.748250
 20
61.754125
 30
0.0
 10
3.738671
 20
61.471285
 30
0.0
  0
LWPOLYLINE
  5
15d
100
AcDbEntity
  8
0
 62
7
100
AcDbPolyline
 90
1
 70
1
 10
51.612188
 20
8.307781
 30
0.0
  0
LWPOLYLINE
  5
15e
100
AcDbEntity
  8
0
 62
7
100
AcDbPolyline
 90
1
 70
1
 10
3.738671
 20
61.471285
 30
0.0
  0
SPLINE
  5
15f
100
AcDbEntity
  8
0
 62
7
100
AcDbSpline
 70
8
 71
3
 72
8
 73
4
 74
0
 40
0
 40
0
 40
0
 40
0
 40
1
 40
1
 40
1
 40
1
 10
4.730193
 20
59.455218
 30
0.0
 10
4.721893
 20
59.365171
 30
0.0
 10
4.706753
 20
59.274307
 30
0.0
 10
4.683413
 20
59.184260
 30
0.0
  0
SPLINE
  5
160
100
AcDbEntity
  8
0
 62
7
100
AcDbSpline
 70
8
 71
3
 72
8
 73
4
 74
0
 40
0
 40
0
 40
0
 40
0
 40
1
 40
1
 40
1
 40
1
 10
4.683413
 20
59.184260
 30
0.0
 10
4.660373
 20
59.094109
 30
0.0
 10
4.629113
 20
59.008064
 30
0.0
 10
4.592593
 20
58.926714
 30
0.0
  0
LWPOLYLINE
  5
161
100
AcDbEntity
  8
0
 62
7
100
AcDbPolyline
 90
3
 70
0
 10
3.886431
 20
60.998147
 30
0.0
 10
3.714851
 20
59.870749
 30
0.0
 10
4.730193
 20
59.455218
 30
0.0
  0
SPLINE
  5
162
100
AcDbEntity
  8
0
 62
7
100
AcDbSpline
 70
8
 71
3
 72
8
 73
4
 74
0
 40
0
 40
0
 40
0
 40
0
 40
1
 40
1
 40
1
 40
1
 10
3.120710
 20
58.043472
 30
0.0
 10
3.034770
 20
58.052168
 30
0.0
 10
2.948450
 20
58.067110
 30
0.0
 10
2.862110
 20
58.090853
 30
0.0
  0
SPLINE
  5
163
100
AcDbEntity
  8
0
 62
7
100
AcDbSpline
 70
8
 71
3
 72
8
 73
4
 74
0
 40
0
 40
0
 40
0
 40
0
 40
1
 40
1
 40
1
 40
1
 10
2.862110
 20
58.090853
 30
0.0
 10
2.776170
 20
58.116125
 30
0.0
 10
2.694729
 20
58.147748
 30
0.0
 10
2.616689
 20
58.186432
 30
0.0
  0
LWPOLYLINE
  5
164
100
AcDbEntity
  8
0
 62
7
100
AcDbPolyline
 90
3
 70
0
 10
4.592593
 20
58.926714
 30
0.0
 10
3.516611
 20
59.106808
 30
0.0
 10
3.120710
 20
58.043472
 30
0.0
  0
SPLINE
  5
165
100
AcDbEntity
  8
0
 62
7
100
AcDbSpline
 70
8
 71
3
 72
8
 73
4
 74
0
 40
0
 40
0
 40
0
 40
0
 40
1
 40
1
 40
1
 40
1
 10
1.774108
 20
59.730178
 30
0.0
 10
1.781228
 20
59.819407
 30
0.0
 10
1.795988
 20
59.909454
 30
0.0
 10
1.818928
 20
60.000318
 30
0.0
  0
SPLINE
  5
166
100
AcDbEntity
  8
0
 62
7
100
AcDbSpline
 70
8
 71
3
 72
8
 73
4
 74
0
 40
0
 40
0
 40
0
 40
0
 40
1
 40
1
 40
1
 40
1
 10
1.818928
 20
60.000318
 30
0.0
 10
1.842368
 20
60.089653
 30
0.0
 10
1.873228
 20
60.175697
 30
0.0
 10
1.909848
 20
60.257152
 30
0.0
  0
LWPOLYLINE
  5
167
100
AcDbEntity
  8
0
 62
7
100
AcDbPolyline
 90
3
 70
0
 10
2.616689
 20
58.186432
 30
0.0
 10
2.788270
 20
59.313829
 30
0.0
 10
1.774108
 20
59.730178
 30
0.0
  0
SPLINE
  5
168
100
AcDbEntity
  8
0
 62
7
100
AcDbSpline
 70
8
 71
3
 72
8
 73
4
 74
0
 40
0
 40
0
 40
0
 40
0
 40
1
 40
1
 40
1
 40
1
 10
3.382791
 20
61.141924
 30
0.0
 10
3.469411
 20
61.134044
 30
0.0
 10
3.554671
 20
61.117469
 30
0.0
 10
3.640211
 20
61.092091
 30
0.0
  0
SPLINE
  5
169
100
AcDbEntity
  8
0
 62
7
100
AcDbSpline
 70
8
 71
3
 72
8
 73
4
 74
0
 40
0
 40
0
 40
0
 40
0
 40
1
 40
1
 40
1
 40
1
 10
3.640211
 20
61.092091
 30
0.0
 10
3.726571
 20
61.068453
 30
0.0
 10
3.808411
 20
61.036014
 30
0.0
 10
3.886431
 20
60.998147
 30
0.0
  0
LWPOLYLINE
  5
16a
100
AcDbEntity
  8
0
 62
7
100
AcDbPolyline
 90
3
 70
0
 10
1.909848
 20
60.257152
 30
0.0
 10
2.986510
 20
60.077771
 30
0.0
 10
3.382791
 20
61.141924
 30
0.0
  0
SPLINE
  5
16b
100
AcDbEntity
  8
0
 62
7
100
AcDbSpline
 70
8
 71
3
 72
8
 73
4
 74
0
 40
0
 40
0
 40
0
 40
0
 40
1
 40
1
 40
1
 40
1
 10
98.151323
 20
60.870149
 30
0.0
 10
97.477302
 20
61.682288
 30
0.0
 10
96.302500
 20
61.768437
 30
0.0
 10
95.529059
 20
61.062103
 30
0.0
  0
SPLINE
  5
16c
100
AcDbEntity
  8
0
 62
7
100
AcDbSpline
 70
8
 71
3
 72
8
 73
4
 74
0
 40
0
 40
0
 40
0
 40
0
 40
1
 40
1
 40
1
 40
1
 10
95.529059
 20
61.062103
 30
0.0
 10
94.753858
 20
60.355874
 30
0.0
 10
94.672418
 20
59.125018
 30
0.0
 10
95.345859
 20
58.313612
 30
0.0
  0
SPLINE
  5
16d
100
AcDbEntity
  8
0
 62
7
100
AcDbSpline
 70
8
 71
3
 72
8
 73
4
 74
0
 40
0
 40
0
 40
0
 40
0
 40
1
 40
1
 40
1
 40
1
 10
95.345859
 20
58.313612
 30
0.0
 10
96.019880
 20
57.502290
 30
0.0
 10
97.193902
 20
57.416958
 30
0.0
 10
97.968903
 20
58.122475
 30
0.0
  0
SPLINE
  5
16e
100
AcDbEntity
  8
0
 62
7
100
AcDbSpline
 70
8
 71
3
 72
8
 73
4
 74
0
 40
0
 40
0
 40
0
 40
0
 40
1
 40
1
 40
1
 40
1
 10
97.968903
 20
58.122475
 30
0.0
 10
98.743904
 20
58.827887
 30
0.0
 10
98.825544
 20
60.058827
 30
0.0
 10
98.151323
 20
60.870149
 30
0.0
  0
LWPOLYLINE
  5
16f
100
AcDbEntity
  8
0
 62
7
100
AcDbPolyline
 90
1
 70
1
 10
3.886431
 20
60.998147
 30
0.0
  0
LWPOLYLINE
  5
170
100
AcDbEntity
  8
0
 62
7
100
AcDbPolyline
 90
1
 70
1
 10
98.151323
 20
60.870149
 30
0.0
  0
SPLINE
  5
171
100
AcDbEntity
  8
0
 62
7
100
AcDbSpline
 70
8
 71
3
 72
8
 73
4
 74
0
 40
0
 40
0
 40
0
 40
0
 40
1
 40
1
 40
1
 40
1
 10
95.986680
 20
60.926206
 30
0.0
 10
95.912860
 20
60.880354
 30
0.0
 10
95.841180
 20
60.826645
 30
0.0
 10
95.774759
 20
60.765873
 30
0.0
  0
SPLINE
  5
172
100
AcDbEntity
  8
0
 62
7
100
AcDbSpline
 70
8
 71
3
 72
8
 73
4
 74
0
 40
0
 40
0
 40
0
 40
0
 40
1
 40
1
 40
1
 40
1
 10
95.774759
 20
60.765873
 30
0.0
 10
95.706979
 20
60.704997
 30
0.0
 10
95.646639
 20
60.637058
 30
0.0
 10
95.593119
 20
60.566752
 30
0.0
  0
LWPOLYLINE
  5
173
100
AcDbEntity
  8
0
 62
7
100
AcDbPolyline
 90
3
 70
0
 10
97.680243
 20
60.803740
 30
0.0
 10
96.786681
 20
60.150403
 30
0.0
 10
95.986680
 20
60.926206
 30
0.0
  0
SPLINE
  5
174
100
AcDbEntity
  8
0
 62
7
100
AcDbSpline
 70
8
 71
3
 72
8
 73
4
 74
0
 40
0
 40
0
 40
0
 40
0
 40
1
 40
1
 40
1
 40
1
 10
95.475539
 20
58.794714
 30
0.0
 10
95.519879
 20
58.717366
 30
0.0
 10
95.569679
 20
58.641444
 30
0.0
 10
95.628459
 20
58.571954
 30
0.0
  0
SPLINE
  5
175
100
AcDbEntity
  8
0
 62
7
100
AcDbSpline
 70
8
 71
3
 72
8
 73
4
 74
0
 40
0
 40
0
 40
0
 40
0
 40
1
 40
1
 40
1
 40
1
 10
95.628459
 20
58.571954
 30
0.0
 10
95.687239
 20
58.500831
 30
0.0
 10
95.750719
 20
58.437607
 30
0.0
 10
95.817720
 20
58.380712
 30
0.0
  0
LWPOLYLINE
  5
176
100
AcDbEntity
  8
0
 62
7
100
AcDbPolyline
 90
3
 70
0
 10
95.593119
 20
60.566752
 30
0.0
 10
96.215780
 20
59.631414
 30
0.0
 10
95.475539
 20
58.794714
 30
0.0
  0
SPLINE
  5
177
100
AcDbEntity
  8
0
 62
7
100
AcDbSpline
 70
8
 71
3
 72
8
 73
4
 74
0
 40
0
 40
0
 40
0
 40
0
 40
1
 40
1
 40
1
 40
1
 10
97.510502
 20
58.258352
 30
0.0
 10
97.584322
 20
58.304203
 30
0.0
 10
97.655223
 20
58.357913
 30
0.0
 10
97.723203
 20
58.418684
 30
0.0
  0
SPLINE
  5
178
100
AcDbEntity
  8
0
 62
7
100
AcDbSpline
 70
8
 71
3
 72
8
 73
4
 74
0
 40
0
 40
0
 40
0
 40
0
 40
1
 40
1
 40
1
 40
1
 10
97.723203
 20
58.418684
 30
0.0
 10
97.790203
 20
58.479561
 30
0.0
 10
97.850543
 20
58.546682
 30
0.0
 10
97.904843
 20
58.616988
 30
0.0
  0
LWPOLYLINE
  5
179
100
AcDbEntity
  8
0
 62
7
100
AcDbPolyline
 90
3
 70
0
 10
95.817720
 20
58.380712
 30
0.0
 10
96.711281
 20
59.034154
 30
0.0
 10
97.510502
 20
58.258352
 30
0.0
  0
SPLINE
  5
17a
100
AcDbEntity
  8
0
 62
7
100
AcDbSpline
 70
8
 71
3
 72
8
 73
4
 74
0
 40
0
 40
0
 40
0
 40
0
 40
1
 40
1
 40
1
 40
1
 10
98.023203
 20
60.391373
 30
0.0
 10
97.977883
 20
60.468008
 30
0.0
 10
97.927503
 20
60.542296
 30
0.0
 10
97.868703
 20
60.612603
 30
0.0
  0
SPLINE
  5
17b
100
AcDbEntity
  8
0
 62
7
100
AcDbSpline
 70
8
 71
3
 72
8
 73
4
 74
0
 40
0
 40
0
 40
0
 40
0
 40
1
 40
1
 40
1
 40
1
 10
97.868703
 20
60.612603
 30
0.0
 10
97.810503
 20
60.683706
 30
0.0
 10
97.746443
 20
60.746845
 30
0.0
 10
97.680243
 20
60.803740
 30
0.0
  0
LWPOLYLINE
  5
17c
100
AcDbEntity
  8
0
 62
7
100
AcDbPolyline
 90
3
 70
0
 10
97.904843
 20
58.616988
 30
0.0
 10
97.281202
 20
59.553144
 30
0.0
 10
98.023203
 20
60.391373
 30
0.0
  0
SPLINE
  5
17d
100
AcDbEntity
  8
0
 62
7
100
AcDbSpline
 70
8
 71
3
 72
8
 73
4
 74
0
 40
0
 40
0
 40
0
 40
0
 40
1
 40
1
 40
1
 40
1
 10
97.236102
 20
2.513856
 30
0.0
 10
96.244500
 20
2.231645
 30
0.0
 10
95.222819
 20
2.844768
 30
0.0
 10
94.953678
 20
3.883753
 30
0.0
  0
SPLINE
  5
17e
100
AcDbEntity
  8
0
 62
7
100
AcDbSpline
 70
8
 71
3
 72
8
 73
4
 74
0
 40
0
 40
0
 40
0
 40
0
 40
1
 40
1
 40
1
 40
1
 10
94.953678
 20
3.883753
 30
0.0
 10
94.685318
 20
4.921711
 30
0.0
 10
95.270479
 20
5.991397
 30
0.0
 10
96.261880
 20
6.274215
 30
0.0
  0
SPLINE
  5
17f
100
AcDbEntity
  8
0
 62
7
100
AcDbSpline
 70
8
 71
3
 72
8
 73
4
 74
0
 40
0
 40
0
 40
0
 40
0
 40
1
 40
1
 40
1
 40
1
 10
96.261880
 20
6.274215
 30
0.0
 10
97.251922
 20
6.555609
 30
0.0
 10
98.274384
 20
5.942486
 30
0.0
 10
98.541964
 20
4.904318
 30
0.0
  0
SPLINE
  5
180
100
AcDbEntity
  8
0
 62
7
100
AcDbSpline
 70
8
 71
3
 72
8
 73
4
 74
0
 40
0
 40
0
 40
0
 40
0
 40
1
 40
1
 40
1
 40
1
 10
98.541964
 20
4.904318
 30
0.0
 10
98.811884
 20
3.866360
 30
0.0
 10
98.225943
 20
2.795857
 30
0.0
 10
97.236102
 20
2.513856
 30
0.0
  0
LWPOLYLINE
  5
181
100
AcDbEntity
  8
0
 62
7
100
AcDbPolyline
 90
1
 70
1
 10
97.680243
 20
60.803740
 30
0.0
  0
LWPOLYLINE
  5
182
100
AcDbEntity
  8
0
 62
7
100
AcDbPolyline
 90
1
 70
1
 10
97.236102
 20
2.513856
 30
0.0
  0
SPLINE
  5
183
100
AcDbEntity
  8
0
 62
7
100
AcDbSpline
 70
8
 71
3
 72
8
 73
4
 74
0
 40
0
 40
0
 40
0
 40
0
 40
1
 40
1
 40
1
 40
1
 10
95.406799
 20
3.728827
 30
0.0
 10
95.370659
 20
3.810282
 30
0.0
 10
95.339019
 20
3.896222
 30
0.0
 10
95.316379
 20
3.986268
 30
0.0
  0
SPLINE
  5
184
100
AcDbEntity
  8
0
 62
7
100
AcDbSpline
 70
8
 71
3
 72
8
 73
4
 74
0
 40
0
 40
0
 40
0
 40
0
 40
1
 40
1
 40
1
 40
1
 10
95.316379
 20
3.986268
 30
0.0
 10
95.293719
 20
4.076525
 30
0.0
 10
95.278679
 20
4.166571
 30
0.0
 10
95.270479
 20
4.256597
 30
0.0
  0
LWPOLYLINE
  5
185
100
AcDbEntity
  8
0
 62
7
100
AcDbPolyline
 90
3
 70
0
 10
96.880241
 20
2.843950
 30
0.0
 10
96.483561
 20
3.908103
 30
0.0
 10
95.406799
 20
3.728827
 30
0.0
  0
SPLINE
  5
186
100
AcDbEntity
  8
0
 62
7
100
AcDbSpline
 70
8
 71
3
 72
8
 73
4
 74
0
 40
0
 40
0
 40
0
 40
0
 40
1
 40
1
 40
1
 40
1
 10
96.114040
 20
5.798604
 30
0.0
 10
96.191780
 20
5.837477
 30
0.0
 10
96.274000
 20
5.868994
 30
0.0
 10
96.359160
 20
5.894372
 30
0.0
  0
SPLINE
  5
187
100
AcDbEntity
  8
0
 62
7
100
AcDbSpline
 70
8
 71
3
 72
8
 73
4
 74
0
 40
0
 40
0
 40
0
 40
0
 40
1
 40
1
 40
1
 40
1
 10
96.359160
 20
5.894372
 30
0.0
 10
96.445881
 20
5.918722
 30
0.0
 10
96.531821
 20
5.934481
 30
0.0
 10
96.617761
 20
5.942465
 30
0.0
  0
LWPOLYLINE
  5
188
100
AcDbEntity
  8
0
 62
7
100
AcDbPolyline
 90
3
 70
0
 10
95.270479
 20
4.256597
 30
0.0
 10
96.284540
 20
4.672024
 30
0.0
 10
96.114040
 20
5.798604
 30
0.0
  0
SPLINE
  5
189
100
AcDbEntity
  8
0
 62
7
100
AcDbSpline
 70
8
 71
3
 72
8
 73
4
 74
0
 40
0
 40
0
 40
0
 40
0
 40
1
 40
1
 40
1
 40
1
 10
98.089643
 20
5.059223
 30
0.0
 10
98.126563
 20
4.977160
 30
0.0
 10
98.157423
 20
4.891828
 30
0.0
 10
98.181643
 20
4.801572
 30
0.0
  0
SPLINE
  5
18a
100
AcDbEntity
  8
0
 62
7
100
AcDbSpline
 70
8
 71
3
 72
8
 73
4
 74
0
 40
0
 40
0
 40
0
 40
0
 40
1
 40
1
 40
1
 40
1
 10
98.181643
 20
4.801572
 30
0.0
 10
98.204103
 20
4.711525
 30
0.0
 10
98.219343
 20
4.620661
 30
0.0
 10
98.225983
 20
4.530615
 30
0.0
  0
LWPOLYLINE
  5
18b
100
AcDbEntity
  8
0
 62
7
100
AcDbPolyline
 90
3
 70
0
 10
96.617761
 20
5.942465
 30
0.0
 10
97.014441
 20
4.879129
 30
0.0
 10
98.089643
 20
5.059223
 30
0.0
  0
SPLINE
  5
18c
100
AcDbEntity
  8
0
 62
7
100
AcDbSpline
 70
8
 71
3
 72
8
 73
4
 74
0
 40
0
 40
0
 40
0
 40
0
 40
1
 40
1
 40
1
 40
1
 10
97.383022
 20
2.987790
 30
0.0
 10
97.304702
 20
2.948289
 30
0.0
 10
97.223262
 20
2.917400
 30
0.0
 10
97.137322
 20
2.893867
 30
0.0
  0
SPLINE
  5
18d
100
AcDbEntity
  8
0
 62
7
100
AcDbSpline
 70
8
 71
3
 72
8
 73
4
 74
0
 40
0
 40
0
 40
0
 40
0
 40
1
 40
1
 40
1
 40
1
 10
97.137322
 20
2.893867
 30
0.0
 10
97.051322
 20
2.869328
 30
0.0
 10
96.966161
 20
2.851934
 30
0.0
 10
96.880241
 20
2.843950
 30
0.0
  0
LWPOLYLINE
  5
18e
100
AcDbEntity
  8
0
 62
7
100
AcDbPolyline
 90
3
 70
0
 10
98.225983
 20
4.530615
 30
0.0
 10
97.211922
 20
4.116005
 30
0.0
 10
97.383022
 20
2.987790
 30
0.0
  0
SPLINE
  5
18f
100
AcDbEntity
  8
0
 62
7
100
AcDbSpline
 70
8
 71
3
 72
8
 73
4
 74
0
 40
0
 40
0
 40
0
 40
0
 40
1
 40
1
 40
1
 40
1
 10
2.664949
 20
2.545373
 30
0.0
 10
3.638391
 20
2.205660
 30
0.0
 10
4.691313
 20
2.757990
 30
0.0
 10
5.014753
 20
3.778576
 30
0.0
  0
SPLINE
  5
190
100
AcDbEntity
  8
0
 62
7
100
AcDbSpline
 70
8
 71
3
 72
8
 73
4
 74
0
 40
0
 40
0
 40
0
 40
0
 40
1
 40
1
 40
1
 40
1
 10
5.014753
 20
3.778576
 30
0.0
 10
5.339754
 20
4.799351
 30
0.0
 10
4.812693
 20
5.903006
 30
0.0
 10
3.838971
 20
6.241902
 30
0.0
  0
SPLINE
  5
191
100
AcDbEntity
  8
0
 62
7
100
AcDbSpline
 70
8
 71
3
 72
8
 73
4
 74
0
 40
0
 40
0
 40
0
 40
0
 40
1
 40
1
 40
1
 40
1
 10
3.838971
 20
6.241902
 30
0.0
 10
2.864070
 20
6.581615
 30
0.0
 10
1.811828
 20
6.029473
 30
0.0
 10
1.487608
 20
5.008699
 30
0.0
  0
SPLINE
  5
192
100
AcDbEntity
  8
0
 62
7
100
AcDbSpline
 70
8
 71
3
 72
8
 73
4
 74
0
 40
0
 40
0
 40
0
 40
0
 40
1
 40
1
 40
1
 40
1
 10
1.487608
 20
5.008699
 30
0.0
 10
1.162987
 20
3.988741
 30
0.0
 10
1.690428
 20
2.885086
 30
0.0
 10
2.664949
 20
2.545373
 30
0.0
  0
LWPOLYLINE
  5
193
100
AcDbEntity
  8
0
 62
7
100
AcDbPolyline
 90
1
 70
1
 10
96.880241
 20
2.843950
 30
0.0
  0
LWPOLYLINE
  5
194
100
AcDbEntity
  8
0
 62
7
100
AcDbPolyline
 90
1
 70
1
 10
2.664949
 20
2.545373
 30
0.0
  0
SPLINE
  5
195
100
AcDbEntity
  8
0
 62
7
100
AcDbSpline
 70
8
 71
3
 72
8
 73
4
 74
0
 40
0
 40
0
 40
0
 40
0
 40
1
 40
1
 40
1
 40
1
 10
4.555192
 20
3.650662
 30
0.0
 10
4.595913
 20
3.729665
 30
0.0
 10
4.632153
 20
3.814997
 30
0.0
 10
4.660073
 20
3.902571
 30
0.0
  0
SPLINE
  5
196
100
AcDbEntity
  8
0
 62
7
100
AcDbSpline
 70
8
 71
3
 72
8
 73
4
 74
0
 40
0
 40
0
 40
0
 40
0
 40
1
 40
1
 40
1
 40
1
 10
4.660073
 20
3.902571
 30
0.0
 10
4.687913
 20
3.992010
 30
0.0
 10
4.706753
 20
4.081219
 30
0.0
 10
4.719933
 20
4.169631
 30
0.0
  0
LWPOLYLINE
  5
197
100
AcDbEntity
  8
0
 62
7
100
AcDbPolyline
 90
3
 70
0
 10
3.038190
 20
2.854994
 30
0.0
 10
3.491031
 20
3.893162
 30
0.0
 10
4.555192
 20
3.650662
 30
0.0
  0
SPLINE
  5
198
100
AcDbEntity
  8
0
 62
7
100
AcDbSpline
 70
8
 71
3
 72
8
 73
4
 74
0
 40
0
 40
0
 40
0
 40
0
 40
1
 40
1
 40
1
 40
1
 10
3.960372
 20
5.759920
 30
0.0
 10
3.884971
 20
5.802690
 30
0.0
 10
3.804611
 20
5.839740
 30
0.0
 10
3.720231
 20
5.868994
 30
0.0
  0
SPLINE
  5
199
100
AcDbEntity
  8
0
 62
7
100
AcDbSpline
 70
8
 71
3
 72
8
 73
4
 74
0
 40
0
 40
0
 40
0
 40
0
 40
1
 40
1
 40
1
 40
1
 10
3.720231
 20
5.868994
 30
0.0
 10
3.635751
 20
5.899087
 30
0.0
 10
3.550511
 20
5.919540
 30
0.0
 10
3.465731
 20
5.932239
 30
0.0
  0
LWPOLYLINE
  5
19a
100
AcDbEntity
  8
0
 62
7
100
AcDbPolyline
 90
3
 70
0
 10
4.719933
 20
4.169631
 30
0.0
 10
3.729211
 20
4.645221
 30
0.0
 10
3.960372
 20
5.759920
 30
0.0
  0
SPLINE
  5
19b
100
AcDbEntity
  8
0
 62
7
100
AcDbSpline
 70
8
 71
3
 72
8
 73
4
 74
0
 40
0
 40
0
 40
0
 40
0
 40
1
 40
1
 40
1
 40
1
 10
1.948348
 20
5.135963
 30
0.0
 10
1.907228
 20
5.056771
 30
0.0
 10
1.871388
 20
4.973074
 30
0.0
 10
1.843468
 20
4.884662
 30
0.0
  0
SPLINE
  5
19c
100
AcDbEntity
  8
0
 62
7
100
AcDbSpline
 70
8
 71
3
 72
8
 73
4
 74
0
 40
0
 40
0
 40
0
 40
0
 40
1
 40
1
 40
1
 40
1
 10
1.843468
 20
4.884662
 30
0.0
 10
1.815248
 20
4.796878
 30
0.0
 10
1.795228
 20
4.706831
 30
0.0
 10
1.782428
 20
4.617602
 30
0.0
  0
LWPOLYLINE
  5
19d
100
AcDbEntity
  8
0
 62
7
100
AcDbPolyline
 90
3
 70
0
 10
3.465731
 20
5.932239
 30
0.0
 10
3.012210
 20
4.894071
 30
0.0
 10
1.948348
 20
5.135963
 30
0.0
  0
SPLINE
  5
19e
100
AcDbEntity
  8
0
 62
7
100
AcDbSpline
 70
8
 71
3
 72
8
 73
4
 74
0
 40
0
 40
0
 40
0
 40
0
 40
1
 40
1
 40
1
 40
1
 10
2.542489
 20
3.027313
 30
0.0
 10
2.618269
 20
2.983935
 30
0.0
 10
2.698549
 20
2.948310
 30
0.0
 10
2.783410
 20
2.918238
 30
0.0
  0
SPLINE
  5
19f
100
AcDbEntity
  8
0
 62
7
100
AcDbSpline
 70
8
 71
3
 72
8
 73
4
 74
0
 40
0
 40
0
 40
0
 40
0
 40
1
 40
1
 40
1
 40
1
 10
2.783410
 20
2.918238
 30
0.0
 10
2.866990
 20
2.888963
 30
0.0
 10
2.952250
 20
2.867693
 30
0.0
 10
3.038190
 20
2.854994
 30
0.0
  0
LWPOLYLINE
  5
1a0
100
AcDbEntity
  8
0
 62
7
100
AcDbPolyline
 90
3
 70
0
 10
1.782428
 20
4.617602
 30
0.0
 10
2.774330
 20
4.142829
 30
0.0
 10
2.542489
 20
3.027313
 30
0.0
  0
LWPOLYLINE
  5
1a1
100
AcDbEntity
  8
0
 62
7
100
AcDbPolyline
 90
1
 70
1
 10
3.038190
 20
2.854994
 30
0.0
  0
SPLINE
  5
1a2
100
AcDbEntity
  8
0
 62
7
100
AcDbSpline
 70
8
 71
3
 72
8
 73
4
 74
0
 40
0
 40
0
 40
0
 40
0
 40
1
 40
1
 40
1
 40
1
 10
52.010249
 20
11.002563
 30
0.0
 10
51.969429
 20
11.101411
 30
0.0
 10
51.919829
 20
11.200049
 30
0.0
 10
51.861029
 20
11.293365
 30
0.0
  0
SPLINE
  5
1a3
100
AcDbEntity
  8
0
 62
7
100
AcDbSpline
 70
8
 71
3
 72
8
 73
4
 74
0
 40
0
 40
0
 40
0
 40
0
 40
1
 40
1
 40
1
 40
1
 10
51.861029
 20
11.293365
 30
0.0
 10
51.801269
 20
11.385654
 30
0.0
 10
51.735829
 20
11.471824
 30
0.0
 10
51.663368
 20
11.549989
 30
0.0
  0
LWPOLYLINE
  5
1a4
100
AcDbEntity
  8
0
 62
7
100
AcDbPolyline
 90
3
 70
0
 10
51.609068
 20
8.907387
 30
0.0
 10
51.004387
 20
10.124832
 30
0.0
 10
52.010249
 20
11.002563
 30
0.0
  0
SPLINE
  5
1a5
100
AcDbEntity
  8
0
 62
7
100
AcDbSpline
 70
8
 71
3
 72
8
 73
4
 74
0
 40
0
 40
0
 40
0
 40
0
 40
1
 40
1
 40
1
 40
1
 10
49.665305
 20
11.971975
 30
0.0
 10
49.569505
 20
11.928387
 30
0.0
 10
49.476825
 20
11.876207
 30
0.0
 10
49.387465
 20
11.815415
 30
0.0
  0
SPLINE
  5
1a6
100
AcDbEntity
  8
0
 62
7
100
AcDbSpline
 70
8
 71
3
 72
8
 73
4
 74
0
 40
0
 40
0
 40
0
 40
0
 40
1
 40
1
 40
1
 40
1
 10
49.387465
 20
11.815415
 30
0.0
 10
49.298885
 20
11.752170
 30
0.0
 10
49.216664
 20
11.682807
 30
0.0
 10
49.142044
 20
11.607701
 30
0.0
  0
LWPOLYLINE
  5
1a7
100
AcDbEntity
  8
0
 62
7
100
AcDbPolyline
 90
3
 70
0
 10
51.663368
 20
11.549989
 30
0.0
 10
50.501447
 20
10.917231
 30
0.0
 10
49.665305
 20
11.971975
 30
0.0
  0
SPLINE
  5
1a8
100
AcDbEntity
  8
0
 62
7
100
AcDbSpline
 70
8
 71
3
 72
8
 73
4
 74
0
 40
0
 40
0
 40
0
 40
0
 40
1
 40
1
 40
1
 40
1
 10
48.739404
 20
9.513343
 30
0.0
 10
48.781204
 20
9.414705
 30
0.0
 10
48.830224
 20
9.316674
 30
0.0
 10
48.889404
 20
9.223358
 30
0.0
  0
SPLINE
  5
1a9
100
AcDbEntity
  8
0
 62
7
100
AcDbSpline
 70
8
 71
3
 72
8
 73
4
 74
0
 40
0
 40
0
 40
0
 40
0
 40
1
 40
1
 40
1
 40
1
 10
48.889404
 20
9.223358
 30
0.0
 10
48.948584
 20
9.130252
 30
0.0
 10
49.015284
 20
9.044082
 30
0.0
 10
49.085784
 20
8.966734
 30
0.0
  0
LWPOLYLINE
  5
1aa
100
AcDbEntity
  8
0
 62
7
100
AcDbPolyline
 90
3
 70
0
 10
49.142044
 20
11.607701
 30
0.0
 10
49.745945
 20
10.390257
 30
0.0
 10
48.739404
 20
9.513343
 30
0.0
  0
SPLINE
  5
1ab
100
AcDbEntity
  8
0
 62
7
100
AcDbSpline
 70
8
 71
3
 72
8
 73
4
 74
0
 40
0
 40
0
 40
0
 40
0
 40
1
 40
1
 40
1
 40
1
 10
51.086567
 20
8.543931
 30
0.0
 10
51.180708
 20
8.586702
 30
0.0
 10
51.272708
 20
8.638672
 30
0.0
 10
51.362548
 20
8.701309
 30
0.0
  0
SPLINE
  5
1ac
100
AcDbEntity
  8
0
 62
7
100
AcDbSpline
 70
8
 71
3
 72
8
 73
4
 74
0
 40
0
 40
0
 40
0
 40
0
 40
1
 40
1
 40
1
 40
1
 10
51.362548
 20
8.701309
 30
0.0
 10
51.452228
 20
8.763526
 30
0.0
 10
51.533668
 20
8.832282
 30
0.0
 10
51.609068
 20
8.907387
 30
0.0
  0
LWPOLYLINE
  5
1ad
100
AcDbEntity
  8
0
 62
7
100
AcDbPolyline
 90
3
 70
0
 10
49.085784
 20
8.966734
 30
0.0
 10
50.248866
 20
9.599492
 30
0.0
 10
51.086567
 20
8.543931
 30
0.0
  0
LWPOLYLINE
  5
1ae
100
AcDbEntity
  8
0
 62
7
100
AcDbPolyline
 90
1
 70
1
 10
51.609068
 20
8.907387
 30
0.0
  0
SPLINE
  5
1af
100
AcDbEntity
  8
0
 62
7
100
AcDbSpline
 70
8
 71
3
 72
8
 73
4
 74
0
 40
0
 40
0
 40
0
 40
0
 40
1
 40
1
 40
1
 40
1
 10
96.583761
 20
63.000006
 30
0.0
 10
98.463444
 20
63.000006
 30
0.0
 10
100.000166
 20
61.299092
 30
0.0
 10
100.000166
 20
59.220597
 30
0.0
  0
LWPOLYLINE
  5
1b0
100
AcDbEntity
  8
0
 62
7
100
AcDbPolyline
 90
2
 70
0
 10
3.415931
 20
63.000006
 30
0.0
 10
96.583761
 20
63.000006
 30
0.0
  0
SPLINE
  5
1b1
100
AcDbEntity
  8
0
 62
7
100
AcDbSpline
 70
8
 71
3
 72
8
 73
4
 74
0
 40
0
 40
0
 40
0
 40
0
 40
1
 40
1
 40
1
 40
1
 10
100.000166
 20
3.778555
 30
0.0
 10
100.000166
 20
1.700794
 30
0.0
 10
98.463444
 20
-0.000036
 30
0.0
 10
96.583761
 20
-0.000036
 30
0.0
  0
SPLINE
  5
1b2
100
AcDbEntity
  8
0
 62
7
100
AcDbSpline
 70
8
 71
3
 72
8
 73
4
 74
0
 40
0
 40
0
 40
0
 40
0
 40
1
 40
1
 40
1
 40
1
 10
96.583761
 20
-0.000036
 30
0.0
 10
65.527851
 20
-0.000036
 30
0.0
 10
34.471641
 20
-0.000036
 30
0.0
 10
3.415931
 20
-0.000036
 30
0.0
  0
SPLINE
  5
1b3
100
AcDbEntity
  8
0
 62
7
100
AcDbSpline
 70
8
 71
3
 72
8
 73
4
 74
0
 40
0
 40
0
 40
0
 40
0
 40
1
 40
1
 40
1
 40
1
 10
3.415931
 20
-0.000036
 30
0.0
 10
1.536628
 20
-0.000036
 30
0.0
 10
0.000005
 20
1.700773
 30
0.0
 10
0.000005
 20
3.778555
 30
0.0
  0
LWPOLYLINE
  5
1b4
100
AcDbEntity
  8
0
 62
7
100
AcDbPolyline
 90
2
 70
0
 10
100.000166
 20
59.220597
 30
0.0
 10
100.000166
 20
3.778555
 30
0.0
  0
SPLINE
  5
1b5
100
AcDbEntity
  8
0
 62
7
100
AcDbSpline
 70
8
 71
3
 72
8
 73
4
 74
0
 40
0
 40
0
 40
0
 40
0
 40
1
 40
1
 40
1
 40
1
 10
0.000005
 20
59.220597
 30
0.0
 10
0.000005
 20
61.299092
 30
0.0
 10
1.536628
 20
63.000006
 30
0.0
 10
3.415931
 20
63.000006
 30
0.0
  0
LWPOLYLINE
  5
1b6
100
AcDbEntity
  8
0
 62
7
100
AcDbPolyline
 90
2
 70
0
 10
0.000005
 20
3.778555
 30
0.0
 10
0.000005
 20
59.220597
 30
0.0
  0
LWPOLYLINE
  5
1b7
100
AcDbEntity
  8
0
 62
7
100
AcDbPolyline
 90
1
 70
1
 10
3.415931
 20
63.000006
 30
0.0
  0
SPLINE
  5
1b8
100
AcDbEntity
  8
0
 62
7
100
AcDbSpline
 70
8
 71
3
 72
8
 73
4
 74
0
 40
0
 40
0
 40
0
 40
0
 40
1
 40
1
 40
1
 40
1
 10
65.031550
 20
6.505672
 30
0.0
 10
65.619631
 20
6.505672
 30
0.0
 10
66.100112
 20
6.002441
 30
0.0
 10
66.100112
 20
5.387075
 30
0.0
  0
LWPOLYLINE
  5
1b9
100
AcDbEntity
  8
0
 62
7
100
AcDbPolyline
 90
2
 70
0
 10
63.608108
 20
6.505672
 30
0.0
 10
65.031550
 20
6.505672
 30
0.0
  0
SPLINE
  5
1ba
100
AcDbEntity
  8
0
 62
7
100
AcDbSpline
 70
8
 71
3
 72
8
 73
4
 74
0
 40
0
 40
0
 40
0
 40
0
 40
1
 40
1
 40
1
 40
1
 10
66.100112
 20
3.895614
 30
0.0
 10
66.100112
 20
3.280039
 30
0.0
 10
65.619651
 20
2.775991
 30
0.0
 10
65.031550
 20
2.775991
 30
0.0
  0
LWPOLYLINE
  5
1bb
100
AcDbEntity
  8
0
 62
7
100
AcDbPolyline
 90
2
 70
0
 10
66.100112
 20
5.387075
 30
0.0
 10
66.100112
 20
3.895614
 30
0.0
  0
SPLINE
  5
1bc
100
AcDbEntity
  8
0
 62
7
100
AcDbSpline
 70
8
 71
3
 72
8
 73
4
 74
0
 40
0
 40
0
 40
0
 40
0
 40
1
 40
1
 40
1
 40
1
 10
63.608108
 20
2.775991
 30
0.0
 10
63.020027
 20
2.775991
 30
0.0
 10
62.540326
 20
3.280039
 30
0.0
 10
62.540326
 20
3.895614
 30
0.0
  0
LWPOLYLINE
  5
1bd
100
AcDbEntity
  8
0
 62
7
100
AcDbPolyline
 90
2
 70
0
 10
65.031550
 20
2.775991
 30
0.0
 10
63.608108
 20
2.775991
 30
0.0
  0
SPLINE
  5
1be
100
AcDbEntity
  8
0
 62
7
100
AcDbSpline
 70
8
 71
3
 72
8
 73
4
 74
0
 40
0
 40
0
 40
0
 40
0
 40
1
 40
1
 40
1
 40
1
 10
62.540326
 20
5.387893
 30
0.0
 10
62.540326
 20
6.002441
 30
0.0
 10
63.020027
 20
6.505672
 30
0.0
 10
63.608108
 20
6.505672
 30
0.0
  0
LWPOLYLINE
  5
1bf
100
AcDbEntity
  8
0
 62
7
100
AcDbPolyline
 90
2
 70
0
 10
62.540326
 20
3.895614
 30
0.0
 10
62.540326
 20
5.387893
 30
0.0
  0
SPLINE
  5
1c0
100
AcDbEntity
  8
0
 62
7
100
AcDbSpline
 70
8
 71
3
 72
8
 73
4
 74
0
 40
0
 40
0
 40
0
 40
0
 40
1
 40
1
 40
1
 40
1
 10
74.958706
 20
1.482016
 30
0.0
 10
76.077468
 20
1.091757
 30
0.0
 10
77.286250
 20
1.726150
 30
0.0
 10
77.659490
 20
2.898582
 30
0.0
  0
SPLINE
  5
1c1
100
AcDbEntity
  8
0
 62
7
100
AcDbSpline
 70
8
 71
3
 72
8
 73
4
 74
0
 40
0
 40
0
 40
0
 40
0
 40
1
 40
1
 40
1
 40
1
 10
77.659490
 20
2.898582
 30
0.0
 10
78.031951
 20
4.070992
 30
0.0
 10
77.425710
 20
5.338165
 30
0.0
 10
76.307528
 20
5.727606
 30
0.0
  0
SPLINE
  5
1c2
100
AcDbEntity
  8
0
 62
7
100
AcDbSpline
 70
8
 71
3
 72
8
 73
4
 74
0
 40
0
 40
0
 40
0
 40
0
 40
1
 40
1
 40
1
 40
1
 10
76.307528
 20
5.727606
 30
0.0
 10
75.187806
 20
6.117047
 30
0.0
 10
73.979204
 20
5.482654
 30
0.0
 10
73.607524
 20
4.311040
 30
0.0
  0
SPLINE
  5
1c3
100
AcDbEntity
  8
0
 62
7
100
AcDbSpline
 70
8
 71
3
 72
8
 73
4
 74
0
 40
0
 40
0
 40
0
 40
0
 40
1
 40
1
 40
1
 40
1
 10
73.607524
 20
4.311040
 30
0.0
 10
73.235083
 20
3.138630
 30
0.0
 10
73.840544
 20
1.872296
 30
0.0
 10
74.958706
 20
1.482016
 30
0.0
  0
LWPOLYLINE
  5
1c4
100
AcDbEntity
  8
0
 62
7
100
AcDbPolyline
 90
1
 70
1
 10
63.608108
 20
6.505672
 30
0.0
  0
LWPOLYLINE
  5
1c5
100
AcDbEntity
  8
0
 62
7
100
AcDbPolyline
 90
1
 70
1
 10
74.958706
 20
1.482016
 30
0.0
  0
SPLINE
  5
1c6
100
AcDbEntity
  8
0
 62
7
100
AcDbSpline
 70
8
 71
3
 72
8
 73
4
 74
0
 40
0
 40
0
 40
0
 40
0
 40
1
 40
1
 40
1
 40
1
 10
36.392044
 20
6.505672
 30
0.0
 10
36.979745
 20
6.505672
 30
0.0
 10
37.459726
 20
6.002441
 30
0.0
 10
37.459726
 20
5.387075
 30
0.0
  0
LWPOLYLINE
  5
1c7
100
AcDbEntity
  8
0
 62
7
100
AcDbPolyline
 90
2
 70
0
 10
34.967821
 20
6.505672
 30
0.0
 10
36.392044
 20
6.505672
 30
0.0
  0
SPLINE
  5
1c8
100
AcDbEntity
  8
0
 62
7
100
AcDbSpline
 70
8
 71
3
 72
8
 73
4
 74
0
 40
0
 40
0
 40
0
 40
0
 40
1
 40
1
 40
1
 40
1
 10
37.459726
 20
3.895614
 30
0.0
 10
37.459726
 20
3.280039
 30
0.0
 10
36.979745
 20
2.775991
 30
0.0
 10
36.392044
 20
2.775991
 30
0.0
  0
LWPOLYLINE
  5
1c9
100
AcDbEntity
  8
0
 62
7
100
AcDbPolyline
 90
2
 70
0
 10
37.459726
 20
5.387075
 30
0.0
 10
37.459726
 20
3.895614
 30
0.0
  0
SPLINE
  5
1ca
100
AcDbEntity
  8
0
 62
7
100
AcDbSpline
 70
8
 71
3
 72
8
 73
4
 74
0
 40
0
 40
0
 40
0
 40
0
 40
1
 40
1
 40
1
 40
1
 10
34.967821
 20
2.775991
 30
0.0
 10
34.380421
 20
2.775991
 30
0.0
 10
33.899760
 20
3.280039
 30
0.0
 10
33.899760
 20
3.895614
 30
0.0
  0
LWPOLYLINE
  5
1cb
100
AcDbEntity
  8
0
 62
7
100
AcDbPolyline
 90
2
 70
0
 10
36.392044
 20
2.775991
 30
0.0
 10
34.967821
 20
2.775991
 30
0.0
  0
SPLINE
  5
1cc
100
AcDbEntity
  8
0
 62
7
100
AcDbSpline
 70
8
 71
3
 72
8
 73
4
 74
0
 40
0
 40
0
 40
0
 40
0
 40
1
 40
1
 40
1
 40
1
 10
33.899760
 20
5.387893
 30
0.0
 10
33.899760
 20
6.002441
 30
0.0
 10
34.380421
 20
6.505672
 30
0.0
 10
34.967821
 20
6.505672
 30
0.0
  0
LWPOLYLINE
  5
1cd
100
AcDbEntity
  8
0
 62
7
100
AcDbPolyline
 90
2
 70
0
 10
33.899760
 20
3.895614
 30
0.0
 10
33.899760
 20
5.387893
 30
0.0
  0
SPLINE
  5
1ce
100
AcDbEntity
  8
0
 62
7
100
AcDbSpline
 70
8
 71
3
 72
8
 73
4
 74
0
 40
0
 40
0
 40
0
 40
0
 40
1
 40
1
 40
1
 40
1
 10
23.691843
 20
1.482016
 30
0.0
 10
24.811185
 20
1.091757
 30
0.0
 10
26.020567
 20
1.726150
 30
0.0
 10
26.392248
 20
2.898582
 30
0.0
  0
SPLINE
  5
1cf
100
AcDbEntity
  8
0
 62
7
100
AcDbSpline
 70
8
 71
3
 72
8
 73
4
 74
0
 40
0
 40
0
 40
0
 40
0
 40
1
 40
1
 40
1
 40
1
 10
26.392248
 20
2.898582
 30
0.0
 10
26.764408
 20
4.070992
 30
0.0
 10
26.159327
 20
5.338165
 30
0.0
 10
25.040785
 20
5.727606
 30
0.0
  0
SPLINE
  5
1d0
100
AcDbEntity
  8
0
 62
7
100
AcDbSpline
 70
8
 71
3
 72
8
 73
4
 74
0
 40
0
 40
0
 40
0
 40
0
 40
1
 40
1
 40
1
 40
1
 10
25.040785
 20
5.727606
 30
0.0
 10
23.921844
 20
6.117047
 30
0.0
 10
22.713242
 20
5.482654
 30
0.0
 10
22.340001
 20
4.311040
 30
0.0
  0
SPLINE
  5
1d1
100
AcDbEntity
  8
0
 62
7
100
AcDbSpline
 70
8
 71
3
 72
8
 73
4
 74
0
 40
0
 40
0
 40
0
 40
0
 40
1
 40
1
 40
1
 40
1
 10
22.340001
 20
4.311040
 30
0.0
 10
21.968201
 20
3.138630
 30
0.0
 10
22.573662
 20
1.872296
 30
0.0
 10
23.691843
 20
1.482016
 30
0.0
  0
LWPOLYLINE
  5
1d2
100
AcDbEntity
  8
0
 62
7
100
AcDbPolyline
 90
1
 70
1
 10
34.967821
 20
6.505672
 30
0.0
  0
LWPOLYLINE
  5
1d3
100
AcDbEntity
  8
0
 62
7
100
AcDbPolyline
 90
1
 70
1
 10
23.691843
 20
1.482016
 30
0.0
  0
LWPOLYLINE
  5
1d4
100
AcDbEntity
  8
0
 62
7
100
AcDbPolyline
 90
7
 70
1
 10
84.932362
 20
0.696805
 30
0.0
 10
80.977076
 20
16.166181
 30
0.0
 10
19.023176
 20
16.166181
 30
0.0
 10
15.067009
 20
0.696805
 30
0.0
 10
19.588997
 20
15.393439
 30
0.0
 10
80.410675
 20
15.393439
 30
0.0
 10
84.169461
 20
0.696805
 30
0.0
  0
ENDSEC
  0
SECTION
  2
OBJECTS
  0
DICTIONARY
  5
C
330
0
100
AcDbDictionary
  3
ACAD_GROUP
350
D
  3
ACAD_MLINESTYLE
350
17
  0
DICTIONARY
  5
D
330
C
100
AcDbDictionary
  0
DICTIONARY
  5
1A
330
C
100
AcDbDictionary
  0
DICTIONARY
  5
17
330
C
100
AcDbDictionary
  3
STANDARD
350
18
  0
DICTIONARY
  5
19
330
C
100
AcDbDictionary
  0
ENDSEC
  0
EOF
