  0
SECTION
  2
HEADER
  9
$ACADVER
  1
AC1018
  9
$ACADMAINTVER
 70
     0
  9
$DWGCODEPAGE
  3
ANSI_1252
  9
$INSBASE
 10
0.0
 20
0.0
 30
0.0
  9
$EXTMIN
 10
1.000000000000000E+20
 20
1.000000000000000E+20
 30
1.000000000000000E+20
  9
$EXTMAX
 10
-1.000000000000000E+20
 20
-1.000000000000000E+20
 30
-1.000000000000000E+20
  9
$LIMMIN
 10
0.0
 20
0.0
  9
$LIMMAX
 10
12.0
 20
9.0
  9
$ORTHOMODE
 70
     0
  9
$REGENMODE
 70
     1
  9
$FILLMODE
 70
     1
  9
$QTEXTMODE
 70
     0
  9
$MIRRTEXT
 70
     1
  9
$LTSCALE
 40
1.0
  9
$ATTMODE
 70
     1
  9
$TEXTSIZE
 40
0.2
  9
$TRACEWID
 40
0.05
  9
$TEXTSTYLE
  7
Standard
  9
$CLAYER
  8
0
  9
$CELTYPE
  6
ByLayer
  9
$CECOLOR
 62
   256
  9
$CELTSCALE
 40
1.0
  9
$DISPSILH
 70
     0
  9
$DIMSCALE
 40
1.0
  9
$DIMASZ
 40
0.18
  9
$DIMEXO
 40
0.0625
  9
$DIMDLI
 40
0.38
  9
$DIMRND
 40
0.0
  9
$DIMDLE
 40
0.0
  9
$DIMEXE
 40
0.18
  9
$DIMTP
 40
0.0
  9
$DIMTM
 40
0.0
  9
$DIMTXT
 40
0.18
  9
$DIMCEN
 40
0.09
  9
$DIMTSZ
 40
0.0
  9
$DIMTOL
 70
     0
  9
$DIMLIM
 70
     0
  9
$DIMTIH
 70
     1
  9
$DIMTOH
 70
     1
  9
$DIMSE1
 70
     0
  9
$DIMSE2
 70
     0
  9
$DIMTAD
 70
     0
  9
$DIMZIN
 70
     0
  9
$DIMBLK
  1

  9
$DIMASO
 70
     1
  9
$DIMSHO
 70
     1
  9
$DIMPOST
  1

  9
$DIMAPOST
  1

  9
$DIMALT
 70
     0
  9
$DIMALTD
 70
     2
  9
$DIMALTF
 40
25.4
  9
$DIMLFAC
 40
1.0
  9
$DIMTOFL
 70
     0
  9
$DIMTVP
 40
0.0
  9
$DIMTIX
 70
     0
  9
$DIMSOXD
 70
     0
  9
$DIMSAH
 70
     0
  9
$DIMBLK1
  1

  9
$DIMBLK2
  1

  9
$DIMSTYLE
  2
Standard
  9
$DIMCLRD
 70
     0
  9
$DIMCLRE
 70
     0
  9
$DIMCLRT
 70
     0
  9
$DIMTFAC
 40
1.0
  9
$DIMGAP
 40
0.09
  9
$DIMJUST
 70
     0
  9
$DIMSD1
 70
     0
  9
$DIMSD2
 70
     0
  9
$DIMTOLJ
 70
     1
  9
$DIMTZIN
 70
     0
  9
$DIMALTZ
 70
     0
  9
$DIMALTTZ
 70
     0
  9
$DIMUPT
 70
     0
  9
$DIMDEC
 70
     4
  9
$DIMTDEC
 70
     4
  9
$DIMALTU
 70
     2
  9
$DIMALTTD
 70
     2
  9
$DIMTXSTY
  7
Standard
  9
$DIMAUNIT
 70
     0
  9
$DIMADEC
 70
     0
  9
$DIMALTRND
 40
0.0
  9
$DIMAZIN
 70
     0
  9
$DIMDSEP
 70
    46
  9
$DIMATFIT
 70
     3
  9
$DIMFRAC
 70
     0
  9
$DIMLDRBLK
  1

  9
$DIMLUNIT
 70
     2
  9
$DIMLWD
 70
    -2
  9
$DIMLWE
 70
    -2
  9
$DIMTMOVE
 70
     0
  9
$LUNITS
 70
     2
  9
$LUPREC
 70
     4
  9
$SKETCHINC
 40
0.1
  9
$FILLETRAD
 40
0.5
  9
$AUNITS
 70
     0
  9
$AUPREC
 70
     0
  9
$MENU
  1
.
  9
$ELEVATION
 40
0.0
  9
$PELEVATION
 40
0.0
  9
$THICKNESS
 40
0.0
  9
$LIMCHECK
 70
     0
  9
$CHAMFERA
 40
0.5
  9
$CHAMFERB
 40
0.5
  9
$CHAMFERC
 40
1.0
  9
$CHAMFERD
 40
0.0
  9
$SKPOLY
 70
     0
  9
$TDCREATE
 40
2458601.412715359
  9
$TDUCREATE
 40
2458601.329382026
  9
$TDUPDATE
 40
2458601.41271537
  9
$TDUUPDATE
 40
2458601.329382037
  9
$TDINDWG
 40
0.0000000116
  9
$TDUSRTIMER
 40
0.0000000116
  9
$USRTIMER
 70
     1
  9
$ANGBASE
 50
0.0
  9
$ANGDIR
 70
     0
  9
$PDMODE
 70
     0
  9
$PDSIZE
 40
0.0
  9
$PLINEWID
 40
0.0
  9
$SPLFRAME
 70
     0
  9
$SPLINETYPE
 70
     6
  9
$SPLINESEGS
 70
     8
  9
$HANDSEED
  5
7F
  9
$SURFTAB1
 70
     6
  9
$SURFTAB2
 70
     6
  9
$SURFTYPE
 70
     6
  9
$SURFU
 70
     6
  9
$SURFV
 70
     6
  9
$UCSBASE
  2

  9
$UCSNAME
  2

  9
$UCSORG
 10
0.0
 20
0.0
 30
0.0
  9
$UCSXDIR
 10
1.0
 20
0.0
 30
0.0
  9
$UCSYDIR
 10
0.0
 20
1.0
 30
0.0
  9
$UCSORTHOREF
  2

  9
$UCSORTHOVIEW
 70
     0
  9
$UCSORGTOP
 10
0.0
 20
0.0
 30
0.0
  9
$UCSORGBOTTOM
 10
0.0
 20
0.0
 30
0.0
  9
$UCSORGLEFT
 10
0.0
 20
0.0
 30
0.0
  9
$UCSORGRIGHT
 10
0.0
 20
0.0
 30
0.0
  9
$UCSORGFRONT
 10
0.0
 20
0.0
 30
0.0
  9
$UCSORGBACK
 10
0.0
 20
0.0
 30
0.0
  9
$PUCSBASE
  2

  9
$PUCSNAME
  2

  9
$PUCSORG
 10
0.0
 20
0.0
 30
0.0
  9
$PUCSXDIR
 10
1.0
 20
0.0
 30
0.0
  9
$PUCSYDIR
 10
0.0
 20
1.0
 30
0.0
  9
$PUCSORTHOREF
  2

  9
$PUCSORTHOVIEW
 70
     0
  9
$PUCSORGTOP
 10
0.0
 20
0.0
 30
0.0
  9
$PUCSORGBOTTOM
 10
0.0
 20
0.0
 30
0.0
  9
$PUCSORGLEFT
 10
0.0
 20
0.0
 30
0.0
  9
$PUCSORGRIGHT
 10
0.0
 20
0.0
 30
0.0
  9
$PUCSORGFRONT
 10
0.0
 20
0.0
 30
0.0
  9
$PUCSORGBACK
 10
0.0
 20
0.0
 30
0.0
  9
$USERI1
 70
     0
  9
$USERI2
 70
     0
  9
$USERI3
 70
     0
  9
$USERI4
 70
     0
  9
$USERI5
 70
     0
  9
$USERR1
 40
0.0
  9
$USERR2
 40
0.0
  9
$USERR3
 40
0.0
  9
$USERR4
 40
0.0
  9
$USERR5
 40
0.0
  9
$WORLDVIEW
 70
     1
  9
$SHADEDGE
 70
     3
  9
$SHADEDIF
 70
    70
  9
$TILEMODE
 70
     1
  9
$MAXACTVP
 70
    64
  9
$PINSBASE
 10
0.0
 20
0.0
 30
0.0
  9
$PLIMCHECK
 70
     0
  9
$PEXTMIN
 10
1.000000000000000E+20
 20
1.000000000000000E+20
 30
1.000000000000000E+20
  9
$PEXTMAX
 10
-1.000000000000000E+20
 20
-1.000000000000000E+20
 30
-1.000000000000000E+20
  9
$PLIMMIN
 10
0.0
 20
0.0
  9
$PLIMMAX
 10
12.0
 20
9.0
  9
$UNITMODE
 70
     0
  9
$VISRETAIN
 70
     1
  9
$PLINEGEN
 70
     0
  9
$PSLTSCALE
 70
     1
  9
$TREEDEPTH
 70
  3020
  9
$CMLSTYLE
  2
Standard
  9
$CMLJUST
 70
     0
  9
$CMLSCALE
 40
1.0
  9
$PROXYGRAPHICS
 70
     1
  9
$MEASUREMENT
 70
     0
  9
$CELWEIGHT
370
    -1
  9
$ENDCAPS
280
     0
  9
$JOINSTYLE
280
     0
  9
$LWDISPLAY
290
     1
  9
$INSUNITS
 70
     1
  9
$HYPERLINKBASE
  1

  9
$STYLESHEET
  1

  9
$XEDIT
290
     1
  9
$CEPSNTYPE
380
     0
  9
$PSTYLEMODE
290
     1
  9
$FINGERPRINTGUID
  2
{A2651E7C-DBFE-43BD-9EAA-4B0B6EBA31AA}
  9
$VERSIONGUID
  2
{FAEB1C32-E019-11D5-929B-00C0DF256EC4}
  9
$EXTNAMES
290
     1
  9
$PSVPSCALE
 40
0.0
  9
$OLESTARTUP
290
     0
  9
$SORTENTS
280
   127
  9
$INDEXCTL
280
     0
  9
$HIDETEXT
280
     1
  9
$XCLIPFRAME
290
     0
  9
$HALOGAP
280
     0
  9
$OBSCOLOR
 70
   257
  9
$OBSLTYPE
280
     0
  9
$INTERSECTIONDISPLAY
280
     0
  9
$INTERSECTIONCOLOR
 70
   257
  9
$DIMASSOC
280
     2
  9
$PROJECTNAME
  1

  0
ENDSEC
  0
SECTION
  2
CLASSES
  0
CLASS
  1
ACDBDICTIONARYWDFLT
  2
AcDbDictionaryWithDefault
  3
ObjectDBX Classes
 90
        0
 91
        3
280
     0
281
     0
  0
CLASS
  1
VISUALSTYLE
  2
AcDbVisualStyle
  3
ObjectDBX Classes
 90
     4095
 91
        3
280
     0
281
     0
  0
ENDSEC
  0
SECTION
  2
TABLES
  0
TABLE
  2
VPORT
  5
8
330
0
100
AcDbSymbolTable
 70
     1
  0
VPORT
  5
29
330
8
100
AcDbSymbolTableRecord
100
AcDbViewportTableRecord
  2
*Active
 70
     0
 10
0.0
 20
0.0
 11
1.0
 21
1.0
 12
0.0
 22
0.0
 13
0.0
 23
0.0
 14
0.5
 24
0.5
 15
0.5
 25
0.5
 16
0.0
 26
0.0
 36
1.0
 17
297.64013671875
 27
420.945068359375
 37
0.0
 40
841.89013671875
 41
0.7070759562020681
 42
50.0
 43
0.0
 44
0.0
 50
0.0
 51
0.0
 71
     0
 72
   100
 73
     1
 74
     3
 75
     0
 76
     0
 77
     0
 78
     0
281
     0
 65
     1
110
0.0
120
0.0
130
0.0
111
1.0
121
0.0
131
0.0
112
0.0
122
1.0
132
0.0
 79
     0
146
0.0
  0
ENDTAB
  0
TABLE
  2
LTYPE
  5
5
330
0
100
AcDbSymbolTable
 70
     1
  0
LTYPE
  5
14
330
5
100
AcDbSymbolTableRecord
100
AcDbLinetypeTableRecord
  2
ByBlock
 70
     0
  3

 72
    65
 73
     0
 40
0.0
  0
LTYPE
  5
15
330
5
100
AcDbSymbolTableRecord
100
AcDbLinetypeTableRecord
  2
ByLayer
 70
     0
  3

 72
    65
 73
     0
 40
0.0
  0
LTYPE
  5
16
330
5
100
AcDbSymbolTableRecord
100
AcDbLinetypeTableRecord
  2
Continuous
 70
     0
  3
Solid line
 72
    65
 73
     0
 40
0.0
  0
ENDTAB
  0
TABLE
  2
LAYER
  5
2
330
0
100
AcDbSymbolTable
 70
     2
  0
LAYER
  5
10
330
2
100
AcDbSymbolTableRecord
100
AcDbLayerTableRecord
  2
0
 70
     0
 62
     7
  6
Continuous
370
    -3
390
F
  0
LAYER
  5
3B
330
2
100
AcDbSymbolTableRecord
100
AcDbLayerTableRecord
  2
Layer 1
 70
     0
 62
     7
  6
Continuous
370
    -3
390
F
  0
ENDTAB
  0
TABLE
  2
STYLE
  5
3
330
0
100
AcDbSymbolTable
 70
     1
  0
STYLE
  5
11
330
3
100
AcDbSymbolTableRecord
100
AcDbTextStyleTableRecord
  2
Standard
 70
     0
 40
0.0
 41
1.0
 50
0.0
 71
     0
 42
0.2
  3
txt
  4

  0
ENDTAB
  0
TABLE
  2
VIEW
  5
6
330
0
100
AcDbSymbolTable
 70
     0
  0
ENDTAB
  0
TABLE
  2
UCS
  5
7
330
0
100
AcDbSymbolTable
 70
     0
  0
ENDTAB
  0
TABLE
  2
APPID
  5
9
330
0
100
AcDbSymbolTable
 70
     1
  0
APPID
  5
12
330
9
100
AcDbSymbolTableRecord
100
AcDbRegAppTableRecord
  2
ACAD
 70
     0
  0
ENDTAB
  0
TABLE
  2
DIMSTYLE
  5
A
330
0
100
AcDbSymbolTable
 70
     1
100
AcDbDimStyleTable
  0
DIMSTYLE
105
27
330
A
100
AcDbSymbolTableRecord
100
AcDbDimStyleTableRecord
  2
Standard
 70
     0
340
11
  0
ENDTAB
  0
TABLE
  2
BLOCK_RECORD
  5
1
330
0
100
AcDbSymbolTable
 70
     2
  0
BLOCK_RECORD
  5
1F
330
1
100
AcDbSymbolTableRecord
100
AcDbBlockTableRecord
  2
*Model_Space
340
22
  0
BLOCK_RECORD
  5
1B
330
1
100
AcDbSymbolTableRecord
100
AcDbBlockTableRecord
  2
*Paper_Space
340
1E
  0
BLOCK_RECORD
  5
23
330
1
100
AcDbSymbolTableRecord
100
AcDbBlockTableRecord
  2
*Paper_Space0
340
26
  0
BLOCK_RECORD
  5
3C
330
1
100
AcDbSymbolTableRecord
100
AcDbBlockTableRecord
  2
block 2
340
0
102
{BLKREFS
331
3D
102
}
  0
ENDTAB
  0
ENDSEC
  0
SECTION
  2
BLOCKS
  0
BLOCK
  5
20
330
1F
100
AcDbEntity
  8
0
100
AcDbBlockBegin
  2
*Model_Space
 70
     0
 71
     0
 10
0.0
 20
0.0
 30
0.0
  3
*Model_Space
  1

  0
ENDBLK
  5
21
330
1F
100
AcDbEntity
  8
0
100
AcDbBlockEnd
  0
BLOCK
  5
1C
330
1B
100
AcDbEntity
 67
     1
  8
0
100
AcDbBlockBegin
  2
*Paper_Space
 70
     0
 71
     0
 10
0.0
 20
0.0
 30
0.0
  3
*Paper_Space
  1

  0
ENDBLK
  5
1D
330
1B
100
AcDbEntity
 67
     1
  8
0
100
AcDbBlockEnd
  0
BLOCK
  5
24
330
23
100
AcDbEntity
  8
0
100
AcDbBlockBegin
  2
*Paper_Space0
 70
     0
 71
     0
 10
0.0
 20
0.0
 30
0.0
  3
*Paper_Space0
  1

  0
ENDBLK
  5
25
330
23
100
AcDbEntity
  8
0
100
AcDbBlockEnd
  0
BLOCK
  5
3E
330
3C
100
AcDbEntity
  8
0
100
AcDbBlockBegin
  2
block 2
 70
     0
 71
     0
 10
0.0
 20
0.0
 30
0.0
  3
block 2
  1

  0
SPLINE
  5
40
330
3C
100
AcDbEntity
  8
Layer 1
370
     0
100
AcDbSpline
210
0.0
220
0.0
230
1.0
 70
    11
 71
     3
 72
    32
 73
    28
 74
     0
 42
0.0000000001
 43
0.0000000001
 40
0.0
 40
0.0
 40
0.0
 40
0.0
 40
1.0
 40
1.0
 40
1.0
 40
2.0
 40
2.0
 40
2.0
 40
3.0
 40
3.0
 40
3.0
 40
4.0
 40
4.0
 40
4.0
 40
5.0
 40
5.0
 40
5.0
 40
6.0
 40
6.0
 40
6.0
 40
7.0
 40
7.0
 40
7.0
 40
8.0
 40
8.0
 40
8.0
 40
9.0
 40
9.0
 40
9.0
 40
9.0
 10
236.44921875
 20
401.1201171875
 30
0.0
 10
236.44921875
 20
401.1201171875
 30
0.0
 10
310.396484375
 20
401.1201171875
 30
0.0
 10
310.396484375
 20
401.1201171875
 30
0.0
 10
310.396484375
 20
401.1201171875
 30
0.0
 10
330.8974609375
 20
401.1201171875
 30
0.0
 10
330.8974609375
 20
401.1201171875
 30
0.0
 10
330.8974609375
 20
401.1201171875
 30
0.0
 10
358.6591796875
 20
401.1201171875
 30
0.0
 10
358.6591796875
 20
401.1201171875
 30
0.0
 10
358.6591796875
 20
401.1201171875
 30
0.0
 10
358.6591796875
 20
469.0771484375
 30
0.0
 10
358.6591796875
 20
469.0771484375
 30
0.0
 10
358.6591796875
 20
469.0771484375
 30
0.0
 10
330.8974609375
 20
469.0771484375
 30
0.0
 10
330.8974609375
 20
469.0771484375
 30
0.0
 10
330.8974609375
 20
469.0771484375
 30
0.0
 10
310.400390625
 20
469.0771484375
 30
0.0
 10
310.400390625
 20
469.0771484375
 30
0.0
 10
310.400390625
 20
469.0771484375
 30
0.0
 10
236.44921875
 20
469.0771484375
 30
0.0
 10
236.44921875
 20
469.0771484375
 30
0.0
 10
236.44921875
 20
455.31640625
 30
0.0
 10
236.44921875
 20
401.998046875
 30
0.0
 10
236.44921875
 20
401.1201171875
 30
0.0
 10
236.44921875
 20
401.1201171875
 30
0.0
 10
236.44921875
 20
401.1201171875
 30
0.0
 10
236.44921875
 20
401.1201171875
 30
0.0
  0
SPLINE
  5
41
330
3C
100
AcDbEntity
  8
Layer 1
370
     0
100
AcDbSpline
210
0.0
220
0.0
230
1.0
 70
    11
 71
     3
 72
    20
 73
    16
 74
     0
 42
0.0000000001
 43
0.0000000001
 40
0.0
 40
0.0
 40
0.0
 40
0.0
 40
1.0
 40
1.0
 40
1.0
 40
2.0
 40
2.0
 40
2.0
 40
3.0
 40
3.0
 40
3.0
 40
4.0
 40
4.0
 40
4.0
 40
5.0
 40
5.0
 40
5.0
 40
5.0
 10
406.1455078125
 20
467.40673828125
 30
0.0
 10
388.306640625
 20
467.40673828125
 30
0.0
 10
373.8369140625
 20
452.9375
 30
0.0
 10
373.8369140625
 20
435.0986328125
 30
0.0
 10
373.8369140625
 20
417.2587890625
 30
0.0
 10
388.306640625
 20
402.7822265625
 30
0.0
 10
406.1455078125
 20
402.7822265625
 30
0.0
 10
423.9853515625
 20
402.7822265625
 30
0.0
 10
438.4580078125
 20
417.2587890625
 30
0.0
 10
438.4580078125
 20
435.0986328125
 30
0.0
 10
438.4580078125
 20
452.9375
 30
0.0
 10
423.9853515625
 20
467.40673828125
 30
0.0
 10
406.1455078125
 20
467.40673828125
 30
0.0
 10
406.1455078125
 20
467.40673828125
 30
0.0
 10
406.1455078125
 20
467.40673828125
 30
0.0
 10
406.1455078125
 20
467.40673828125
 30
0.0
  0
SPLINE
  5
42
330
3C
100
AcDbEntity
  8
Layer 1
370
     0
100
AcDbSpline
210
0.0
220
0.0
230
1.0
 70
    11
 71
     3
 72
    86
 73
    82
 74
     0
 42
0.0000000001
 43
0.0000000001
 40
0.0
 40
0.0
 40
0.0
 40
0.0
 40
1.0
 40
1.0
 40
1.0
 40
2.0
 40
2.0
 40
2.0
 40
3.0
 40
3.0
 40
3.0
 40
4.0
 40
4.0
 40
4.0
 40
5.0
 40
5.0
 40
5.0
 40
6.0
 40
6.0
 40
6.0
 40
7.0
 40
7.0
 40
7.0
 40
8.0
 40
8.0
 40
8.0
 40
9.0
 40
9.0
 40
9.0
 40
10.0
 40
10.0
 40
10.0
 40
11.0
 40
11.0
 40
11.0
 40
12.0
 40
12.0
 40
12.0
 40
13.0
 40
13.0
 40
13.0
 40
14.0
 40
14.0
 40
14.0
 40
15.0
 40
15.0
 40
15.0
 40
16.0
 40
16.0
 40
16.0
 40
17.0
 40
17.0
 40
17.0
 40
18.0
 40
18.0
 40
18.0
 40
19.0
 40
19.0
 40
19.0
 40
20.0
 40
20.0
 40
20.0
 40
21.0
 40
21.0
 40
21.0
 40
22.0
 40
22.0
 40
22.0
 40
23.0
 40
23.0
 40
23.0
 40
24.0
 40
24.0
 40
24.0
 40
25.0
 40
25.0
 40
25.0
 40
26.0
 40
26.0
 40
26.0
 40
27.0
 40
27.0
 40
27.0
 40
27.0
 10
406.1455078125
 20
461.06591796875
 30
0.0
 10
402.4814453125
 20
461.06591796875
 30
0.0
 10
398.994140625
 20
460.30078125
 30
0.0
 10
395.8310546875
 20
458.93212890625
 30
0.0
 10
395.8310546875
 20
458.93212890625
 30
0.0
 10
398.357421875
 20
454.55517578125
 30
0.0
 10
398.357421875
 20
454.55517578125
 30
0.0
 10
398.357421875
 20
454.55517578125
 30
0.0
 10
393.1923828125
 20
451.5732421875
 30
0.0
 10
393.1923828125
 20
451.5732421875
 30
0.0
 10
393.1923828125
 20
451.5732421875
 30
0.0
 10
390.666015625
 20
455.9462890625
 30
0.0
 10
390.666015625
 20
455.9462890625
 30
0.0
 10
385.056640625
 20
451.77294921875
 30
0.0
 10
381.1884765625
 20
445.38671875
 30
0.0
 10
380.3515625
 20
438.08056640625
 30
0.0
 10
380.3515625
 20
438.08056640625
 30
0.0
 10
385.3994140625
 20
438.08056640625
 30
0.0
 10
385.3994140625
 20
438.08056640625
 30
0.0
 10
385.3994140625
 20
438.08056640625
 30
0.0
 10
385.4033203125
 20
432.1162109375
 30
0.0
 10
385.4033203125
 20
432.1162109375
 30
0.0
 10
385.4033203125
 20
432.1162109375
 30
0.0
 10
380.3515625
 20
432.1162109375
 30
0.0
 10
380.3515625
 20
432.1162109375
 30
0.0
 10
381.1884765625
 20
424.810546875
 30
0.0
 10
385.056640625
 20
418.423828125
 30
0.0
 10
390.669921875
 20
414.2509765625
 30
0.0
 10
390.669921875
 20
414.2509765625
 30
0.0
 10
393.1923828125
 20
418.6240234375
 30
0.0
 10
393.1923828125
 20
418.6240234375
 30
0.0
 10
393.1923828125
 20
418.6240234375
 30
0.0
 10
398.357421875
 20
415.6376953125
 30
0.0
 10
398.357421875
 20
415.6376953125
 30
0.0
 10
398.357421875
 20
415.6376953125
 30
0.0
 10
395.8310546875
 20
411.2646484375
 30
0.0
 10
395.8310546875
 20
411.2646484375
 30
0.0
 10
398.994140625
 20
409.892578125
 30
0.0
 10
402.4814453125
 20
409.126953125
 30
0.0
 10
406.1455078125
 20
409.126953125
 30
0.0
 10
409.8134765625
 20
409.126953125
 30
0.0
 10
413.30078125
 20
409.892578125
 30
0.0
 10
416.4638671875
 20
411.2646484375
 30
0.0
 10
416.4638671875
 20
411.2646484375
 30
0.0
 10
413.94140625
 20
415.6376953125
 30
0.0
 10
413.94140625
 20
415.6376953125
 30
0.0
 10
413.94140625
 20
415.6376953125
 30
0.0
 10
419.099609375
 20
418.6201171875
 30
0.0
 10
419.099609375
 20
418.6201171875
 30
0.0
 10
419.099609375
 20
418.6201171875
 30
0.0
 10
421.625
 20
414.2509765625
 30
0.0
 10
421.625
 20
414.2509765625
 30
0.0
 10
427.234375
 20
418.419921875
 30
0.0
 10
431.1025390625
 20
424.806640625
 30
0.0
 10
431.943359375
 20
432.1162109375
 30
0.0
 10
431.943359375
 20
432.1162109375
 30
0.0
 10
426.8955078125
 20
432.1162109375
 30
0.0
 10
426.8955078125
 20
432.1162109375
 30
0.0
 10
426.8955078125
 20
432.1162109375
 30
0.0
 10
426.8955078125
 20
438.07666015625
 30
0.0
 10
426.8955078125
 20
438.07666015625
 30
0.0
 10
426.8955078125
 20
438.07666015625
 30
0.0
 10
431.943359375
 20
438.07666015625
 30
0.0
 10
431.943359375
 20
438.07666015625
 30
0.0
 10
431.1103515625
 20
445.38671875
 30
0.0
 10
427.234375
 20
451.77294921875
 30
0.0
 10
421.625
 20
455.9462890625
 30
0.0
 10
421.625
 20
455.9462890625
 30
0.0
 10
419.099609375
 20
451.5771484375
 30
0.0
 10
419.099609375
 20
451.5771484375
 30
0.0
 10
419.099609375
 20
451.5771484375
 30
0.0
 10
413.94140625
 20
454.55517578125
 30
0.0
 10
413.94140625
 20
454.55517578125
 30
0.0
 10
413.94140625
 20
454.55517578125
 30
0.0
 10
416.4677734375
 20
458.93212890625
 30
0.0
 10
416.4677734375
 20
458.93212890625
 30
0.0
 10
413.30078125
 20
460.30419921875
 30
0.0
 10
409.8134765625
 20
461.06591796875
 30
0.0
 10
406.1455078125
 20
461.06591796875
 30
0.0
 10
406.1455078125
 20
461.06591796875
 30
0.0
 10
406.1455078125
 20
461.06591796875
 30
0.0
 10
406.1455078125
 20
461.06591796875
 30
0.0
  0
SPLINE
  5
43
330
3C
100
AcDbEntity
  8
Layer 1
370
     0
100
AcDbSpline
210
0.0
220
0.0
230
1.0
 70
    11
 71
     3
 72
    20
 73
    16
 74
     0
 42
0.0000000001
 43
0.0000000001
 40
0.0
 40
0.0
 40
0.0
 40
0.0
 40
1.0
 40
1.0
 40
1.0
 40
2.0
 40
2.0
 40
2.0
 40
3.0
 40
3.0
 40
3.0
 40
4.0
 40
4.0
 40
4.0
 40
5.0
 40
5.0
 40
5.0
 40
5.0
 10
189.3720703125
 20
467.40673828125
 30
0.0
 10
207.21484375
 20
467.40673828125
 30
0.0
 10
221.68408203125
 20
452.9375
 30
0.0
 10
221.68408203125
 20
435.0986328125
 30
0.0
 10
221.68408203125
 20
417.2587890625
 30
0.0
 10
207.21484375
 20
402.7822265625
 30
0.0
 10
189.3720703125
 20
402.7822265625
 30
0.0
 10
171.53271484375
 20
402.7822265625
 30
0.0
 10
157.0634765625
 20
417.2587890625
 30
0.0
 10
157.0634765625
 20
435.0986328125
 30
0.0
 10
157.0634765625
 20
452.9375
 30
0.0
 10
171.53271484375
 20
467.40673828125
 30
0.0
 10
189.3720703125
 20
467.40673828125
 30
0.0
 10
189.3720703125
 20
467.40673828125
 30
0.0
 10
189.3720703125
 20
467.40673828125
 30
0.0
 10
189.3720703125
 20
467.40673828125
 30
0.0
  0
SPLINE
  5
44
330
3C
100
AcDbEntity
  8
Layer 1
370
     0
100
AcDbSpline
210
0.0
220
0.0
230
1.0
 70
    11
 71
     3
 72
    86
 73
    82
 74
     0
 42
0.0000000001
 43
0.0000000001
 40
0.0
 40
0.0
 40
0.0
 40
0.0
 40
1.0
 40
1.0
 40
1.0
 40
2.0
 40
2.0
 40
2.0
 40
3.0
 40
3.0
 40
3.0
 40
4.0
 40
4.0
 40
4.0
 40
5.0
 40
5.0
 40
5.0
 40
6.0
 40
6.0
 40
6.0
 40
7.0
 40
7.0
 40
7.0
 40
8.0
 40
8.0
 40
8.0
 40
9.0
 40
9.0
 40
9.0
 40
10.0
 40
10.0
 40
10.0
 40
11.0
 40
11.0
 40
11.0
 40
12.0
 40
12.0
 40
12.0
 40
13.0
 40
13.0
 40
13.0
 40
14.0
 40
14.0
 40
14.0
 40
15.0
 40
15.0
 40
15.0
 40
16.0
 40
16.0
 40
16.0
 40
17.0
 40
17.0
 40
17.0
 40
18.0
 40
18.0
 40
18.0
 40
19.0
 40
19.0
 40
19.0
 40
20.0
 40
20.0
 40
20.0
 40
21.0
 40
21.0
 40
21.0
 40
22.0
 40
22.0
 40
22.0
 40
23.0
 40
23.0
 40
23.0
 40
24.0
 40
24.0
 40
24.0
 40
25.0
 40
25.0
 40
25.0
 40
26.0
 40
26.0
 40
26.0
 40
27.0
 40
27.0
 40
27.0
 40
27.0
 10
189.3720703125
 20
461.06591796875
 30
0.0
 10
193.0400390625
 20
461.06591796875
 30
0.0
 10
196.52734375
 20
460.30078125
 30
0.0
 10
199.6904296875
 20
458.93212890625
 30
0.0
 10
199.6904296875
 20
458.93212890625
 30
0.0
 10
197.16259765625
 20
454.55517578125
 30
0.0
 10
197.16259765625
 20
454.55517578125
 30
0.0
 10
197.16259765625
 20
454.55517578125
 30
0.0
 10
202.3271484375
 20
451.5732421875
 30
0.0
 10
202.3271484375
 20
451.5732421875
 30
0.0
 10
202.3271484375
 20
451.5732421875
 30
0.0
 10
204.85498046875
 20
455.9462890625
 30
0.0
 10
204.85498046875
 20
455.9462890625
 30
0.0
 10
210.462890625
 20
451.77294921875
 30
0.0
 10
214.3310546875
 20
445.38671875
 30
0.0
 10
215.16796875
 20
438.08056640625
 30
0.0
 10
215.16796875
 20
438.08056640625
 30
0.0
 10
210.1181640625
 20
438.08056640625
 30
0.0
 10
210.1181640625
 20
438.08056640625
 30
0.0
 10
210.1181640625
 20
438.08056640625
 30
0.0
 10
210.1181640625
 20
432.1162109375
 30
0.0
 10
210.1181640625
 20
432.1162109375
 30
0.0
 10
210.1181640625
 20
432.1162109375
 30
0.0
 10
215.16796875
 20
432.1162109375
 30
0.0
 10
215.16796875
 20
432.1162109375
 30
0.0
 10
214.3310546875
 20
424.810546875
 30
0.0
 10
210.462890625
 20
418.423828125
 30
0.0
 10
204.853515625
 20
414.2509765625
 30
0.0
 10
204.853515625
 20
414.2509765625
 30
0.0
 10
202.3271484375
 20
418.6240234375
 30
0.0
 10
202.3271484375
 20
418.6240234375
 30
0.0
 10
202.3271484375
 20
418.6240234375
 30
0.0
 10
197.16259765625
 20
415.6376953125
 30
0.0
 10
197.16259765625
 20
415.6376953125
 30
0.0
 10
197.16259765625
 20
415.6376953125
 30
0.0
 10
199.6904296875
 20
411.2646484375
 30
0.0
 10
199.6904296875
 20
411.2646484375
 30
0.0
 10
196.52734375
 20
409.892578125
 30
0.0
 10
193.0400390625
 20
409.126953125
 30
0.0
 10
189.3720703125
 20
409.126953125
 30
0.0
 10
185.70751953125
 20
409.126953125
 30
0.0
 10
182.22216796875
 20
409.892578125
 30
0.0
 10
179.0517578125
 20
411.2646484375
 30
0.0
 10
179.0517578125
 20
411.2646484375
 30
0.0
 10
181.57763671875
 20
415.6376953125
 30
0.0
 10
181.57763671875
 20
415.6376953125
 30
0.0
 10
181.57763671875
 20
415.6376953125
 30
0.0
 10
176.41650390625
 20
418.6201171875
 30
0.0
 10
176.41650390625
 20
418.6201171875
 30
0.0
 10
176.41650390625
 20
418.6201171875
 30
0.0
 10
173.89453125
 20
414.2509765625
 30
0.0
 10
173.89453125
 20
414.2509765625
 30
0.0
 10
168.283203125
 20
418.419921875
 30
0.0
 10
164.4150390625
 20
424.806640625
 30
0.0
 10
163.57421875
 20
432.1162109375
 30
0.0
 10
163.57421875
 20
432.1162109375
 30
0.0
 10
168.6240234375
 20
432.1162109375
 30
0.0
 10
168.6240234375
 20
432.1162109375
 30
0.0
 10
168.6240234375
 20
432.1162109375
 30
0.0
 10
168.6240234375
 20
438.07666015625
 30
0.0
 10
168.6240234375
 20
438.07666015625
 30
0.0
 10
168.6240234375
 20
438.07666015625
 30
0.0
 10
163.57421875
 20
438.07666015625
 30
0.0
 10
163.57421875
 20
438.07666015625
 30
0.0
 10
164.4111328125
 20
445.38671875
 30
0.0
 10
168.283203125
 20
451.77294921875
 30
0.0
 10
173.892578125
 20
455.9462890625
 30
0.0
 10
173.892578125
 20
455.9462890625
 30
0.0
 10
176.41650390625
 20
451.5771484375
 30
0.0
 10
176.41650390625
 20
451.5771484375
 30
0.0
 10
176.41650390625
 20
451.5771484375
 30
0.0
 10
181.58154296875
 20
454.55517578125
 30
0.0
 10
181.58154296875
 20
454.55517578125
 30
0.0
 10
181.58154296875
 20
454.55517578125
 30
0.0
 10
179.0517578125
 20
458.93212890625
 30
0.0
 10
179.0517578125
 20
458.93212890625
 30
0.0
 10
182.21484375
 20
460.30419921875
 30
0.0
 10
185.70751953125
 20
461.06591796875
 30
0.0
 10
189.3720703125
 20
461.06591796875
 30
0.0
 10
189.3720703125
 20
461.06591796875
 30
0.0
 10
189.3720703125
 20
461.06591796875
 30
0.0
 10
189.3720703125
 20
461.06591796875
 30
0.0
  0
SPLINE
  5
45
330
3C
100
AcDbEntity
  8
Layer 1
370
     0
100
AcDbSpline
210
0.0
220
0.0
230
1.0
 70
    11
 71
     3
 72
    17
 73
    13
 74
     0
 42
0.0000000001
 43
0.0000000001
 40
0.0
 40
0.0
 40
0.0
 40
0.0
 40
1.0
 40
1.0
 40
1.0
 40
2.0
 40
2.0
 40
2.0
 40
3.0
 40
3.0
 40
3.0
 40
4.0
 40
4.0
 40
4.0
 40
4.0
 10
355.763671875
 20
460.60205078125
 30
0.0
 10
351.677734375
 20
453.00927734375
 30
0.0
 10
349.35546875
 20
444.3232421875
 30
0.0
 10
349.35546875
 20
435.0986328125
 30
0.0
 10
349.35546875
 20
425.87353515625
 30
0.0
 10
351.677734375
 20
417.19140625
 30
0.0
 10
355.763671875
 20
409.5947265625
 30
0.0
 10
355.763671875
 20
409.5947265625
 30
0.0
 10
355.763671875
 20
460.60205078125
 30
0.0
 10
355.763671875
 20
460.60205078125
 30
0.0
 10
355.763671875
 20
460.60205078125
 30
0.0
 10
355.763671875
 20
460.60205078125
 30
0.0
 10
355.763671875
 20
460.60205078125
 30
0.0
  0
SPLINE
  5
46
330
3C
100
AcDbEntity
  8
Layer 1
370
     0
100
AcDbSpline
210
0.0
220
0.0
230
1.0
 70
    11
 71
     3
 72
    23
 73
    19
 74
     0
 42
0.0000000001
 43
0.0000000001
 40
0.0
 40
0.0
 40
0.0
 40
0.0
 40
1.0
 40
1.0
 40
1.0
 40
2.0
 40
2.0
 40
2.0
 40
3.0
 40
3.0
 40
3.0
 40
4.0
 40
4.0
 40
4.0
 40
5.0
 40
5.0
 40
5.0
 40
6.0
 40
6.0
 40
6.0
 40
6.0
 10
239.32568359375
 20
466.1513671875
 30
0.0
 10
239.32568359375
 20
466.1513671875
 30
0.0
 10
303.798828125
 20
466.1513671875
 30
0.0
 10
303.798828125
 20
466.1513671875
 30
0.0
 10
306.724609375
 20
456.296875
 30
0.0
 10
308.3046875
 20
445.88037109375
 30
0.0
 10
308.3046875
 20
435.10205078125
 30
0.0
 10
308.3046875
 20
424.3203125
 30
0.0
 10
306.724609375
 20
413.904296875
 30
0.0
 10
303.798828125
 20
404.044921875
 30
0.0
 10
303.798828125
 20
404.044921875
 30
0.0
 10
239.32568359375
 20
404.044921875
 30
0.0
 10
239.32568359375
 20
404.044921875
 30
0.0
 10
239.32568359375
 20
404.044921875
 30
0.0
 10
239.32568359375
 20
466.1513671875
 30
0.0
 10
239.32568359375
 20
466.1513671875
 30
0.0
 10
239.32568359375
 20
466.1513671875
 30
0.0
 10
239.32568359375
 20
466.1513671875
 30
0.0
 10
239.32568359375
 20
466.1513671875
 30
0.0
  0
SPLINE
  5
47
330
3C
100
AcDbEntity
  8
Layer 1
370
     0
100
AcDbSpline
210
0.0
220
0.0
230
1.0
 70
    11
 71
     3
 72
    20
 73
    16
 74
     0
 42
0.0000000001
 43
0.0000000001
 40
0.0
 40
0.0
 40
0.0
 40
0.0
 40
1.0
 40
1.0
 40
1.0
 40
2.0
 40
2.0
 40
2.0
 40
3.0
 40
3.0
 40
3.0
 40
4.0
 40
4.0
 40
4.0
 40
5.0
 40
5.0
 40
5.0
 40
5.0
 10
406.1455078125
 20
469.7666015625
 30
0.0
 10
387.001953125
 20
469.7666015625
 30
0.0
 10
371.4775390625
 20
454.2421875
 30
0.0
 10
371.4775390625
 20
435.0986328125
 30
0.0
 10
371.4775390625
 20
415.955078125
 30
0.0
 10
387.001953125
 20
400.4228515625
 30
0.0
 10
406.1455078125
 20
400.4228515625
 30
0.0
 10
425.2890625
 20
400.4228515625
 30
0.0
 10
440.8173828125
 20
415.955078125
 30
0.0
 10
440.8173828125
 20
435.0986328125
 30
0.0
 10
440.8173828125
 20
454.2421875
 30
0.0
 10
425.2890625
 20
469.7666015625
 30
0.0
 10
406.1455078125
 20
469.7666015625
 30
0.0
 10
406.1455078125
 20
469.7666015625
 30
0.0
 10
406.1455078125
 20
469.7666015625
 30
0.0
 10
406.1455078125
 20
469.7666015625
 30
0.0
  0
SPLINE
  5
48
330
3C
100
AcDbEntity
  8
Layer 1
370
     0
100
AcDbSpline
210
0.0
220
0.0
230
1.0
 70
    11
 71
     3
 72
    20
 73
    16
 74
     0
 42
0.0000000001
 43
0.0000000001
 40
0.0
 40
0.0
 40
0.0
 40
0.0
 40
1.0
 40
1.0
 40
1.0
 40
2.0
 40
2.0
 40
2.0
 40
3.0
 40
3.0
 40
3.0
 40
4.0
 40
4.0
 40
4.0
 40
5.0
 40
5.0
 40
5.0
 40
5.0
 10
189.3720703125
 20
469.7666015625
 30
0.0
 10
208.517578125
 20
469.7666015625
 30
0.0
 10
224.0439453125
 20
454.2421875
 30
0.0
 10
224.0439453125
 20
435.0986328125
 30
0.0
 10
224.0439453125
 20
415.955078125
 30
0.0
 10
208.517578125
 20
400.4228515625
 30
0.0
 10
189.3720703125
 20
400.4228515625
 30
0.0
 10
170.22998046875
 20
400.4228515625
 30
0.0
 10
154.70361328125
 20
415.955078125
 30
0.0
 10
154.70361328125
 20
435.0986328125
 30
0.0
 10
154.70361328125
 20
454.2421875
 30
0.0
 10
170.22998046875
 20
469.7666015625
 30
0.0
 10
189.3720703125
 20
469.7666015625
 30
0.0
 10
189.3720703125
 20
469.7666015625
 30
0.0
 10
189.3720703125
 20
469.7666015625
 30
0.0
 10
189.3720703125
 20
469.7666015625
 30
0.0
  0
SPLINE
  5
49
330
3C
100
AcDbEntity
  8
Layer 1
370
     0
100
AcDbSpline
210
0.0
220
0.0
230
1.0
 70
    11
 71
     3
 72
    32
 73
    28
 74
     0
 42
0.0000000001
 43
0.0000000001
 40
0.0
 40
0.0
 40
0.0
 40
0.0
 40
1.0
 40
1.0
 40
1.0
 40
2.0
 40
2.0
 40
2.0
 40
3.0
 40
3.0
 40
3.0
 40
4.0
 40
4.0
 40
4.0
 40
5.0
 40
5.0
 40
5.0
 40
6.0
 40
6.0
 40
6.0
 40
7.0
 40
7.0
 40
7.0
 40
8.0
 40
8.0
 40
8.0
 40
9.0
 40
9.0
 40
9.0
 40
9.0
 10
98.49755859375
 20
525.7431640625
 30
0.0
 10
98.49755859375
 20
525.7431640625
 30
0.0
 10
92.31689453125
 20
525.7578125
 30
0.0
 10
92.31689453125
 20
525.7578125
 30
0.0
 10
88.98046875
 20
514.72705078125
 30
0.0
 10
86.8994140625
 20
507.8017578125
 30
0.0
 10
84.2958984375
 20
498.701171875
 30
0.0
 10
84.2958984375
 20
498.701171875
 30
0.0
 10
90.47900390625
 20
498.6748046875
 30
0.0
 10
90.47900390625
 20
498.6748046875
 30
0.0
 10
90.47900390625
 20
498.6748046875
 30
0.0
 10
91.66845703125
 20
502.8330078125
 30
0.0
 10
91.66845703125
 20
502.8330078125
 30
0.0
 10
91.66845703125
 20
502.8330078125
 30
0.0
 10
98.751953125
 20
502.810546875
 30
0.0
 10
98.751953125
 20
502.810546875
 30
0.0
 10
98.751953125
 20
502.810546875
 30
0.0
 10
99.9208984375
 20
498.640625
 30
0.0
 10
99.9208984375
 20
498.640625
 30
0.0
 10
99.9208984375
 20
498.640625
 30
0.0
 10
106.10546875
 20
498.6220703125
 30
0.0
 10
106.10546875
 20
498.6220703125
 30
0.0
 10
106.10546875
 20
498.6220703125
 30
0.0
 10
98.49755859375
 20
525.7431640625
 30
0.0
 10
98.49755859375
 20
525.7431640625
 30
0.0
 10
98.49755859375
 20
525.7431640625
 30
0.0
 10
98.49755859375
 20
525.7431640625
 30
0.0
 10
98.49755859375
 20
525.7431640625
 30
0.0
  0
POLYLINE
  5
4A
330
3C
100
AcDbEntity
  8
Layer 1
370
     0
100
AcDb2dPolyline
 66
     1
 10
0.0
 20
0.0
 30
0.0
  0
VERTEX
  5
4B
330
4A
100
AcDbEntity
  8
Layer 1
370
     0
100
AcDbVertex
100
AcDb2dVertex
 10
95.244140625
 20
515.3193359375
 30
0.0
  0
VERTEX
  5
4C
330
4A
100
AcDbEntity
  8
Layer 1
370
     0
100
AcDbVertex
100
AcDb2dVertex
 10
97.07421875
 20
508.78564453125
 30
0.0
  0
VERTEX
  5
4D
330
4A
100
AcDbEntity
  8
Layer 1
370
     0
100
AcDbVertex
100
AcDb2dVertex
 10
93.3740234375
 20
508.796875
 30
0.0
  0
VERTEX
  5
4E
330
4A
100
AcDbEntity
  8
Layer 1
370
     0
100
AcDbVertex
100
AcDb2dVertex
 10
95.244140625
 20
515.3193359375
 30
0.0
  0
VERTEX
  5
4F
330
4A
100
AcDbEntity
  8
Layer 1
370
     0
100
AcDbVertex
100
AcDb2dVertex
 10
95.244140625
 20
515.3193359375
 30
0.0
  0
SEQEND
  5
50
330
4A
100
AcDbEntity
  8
Layer 1
370
     0
  0
POLYLINE
  5
51
330
3C
100
AcDbEntity
  8
Layer 1
370
     0
100
AcDb2dPolyline
 66
     1
 10
0.0
 20
0.0
 30
0.0
  0
VERTEX
  5
52
330
51
100
AcDbEntity
  8
Layer 1
370
     0
100
AcDbVertex
100
AcDb2dVertex
 10
116.58203125
 20
498.8857421875
 30
0.0
  0
VERTEX
  5
53
330
51
100
AcDbEntity
  8
Layer 1
370
     0
100
AcDbVertex
100
AcDb2dVertex
 10
500.2958984375
 20
498.8857421875
 30
0.0
  0
VERTEX
  5
54
330
51
100
AcDbEntity
  8
Layer 1
370
     0
100
AcDbVertex
100
AcDb2dVertex
 10
500.2958984375
 20
497.509765625
 30
0.0
  0
VERTEX
  5
55
330
51
100
AcDbEntity
  8
Layer 1
370
     0
100
AcDbVertex
100
AcDb2dVertex
 10
116.58203125
 20
497.509765625
 30
0.0
  0
VERTEX
  5
56
330
51
100
AcDbEntity
  8
Layer 1
370
     0
100
AcDbVertex
100
AcDb2dVertex
 10
116.58203125
 20
498.8857421875
 30
0.0
  0
VERTEX
  5
57
330
51
100
AcDbEntity
  8
Layer 1
370
     0
100
AcDbVertex
100
AcDb2dVertex
 10
116.58203125
 20
498.8857421875
 30
0.0
  0
SEQEND
  5
58
330
51
100
AcDbEntity
  8
Layer 1
370
     0
  0
POLYLINE
  5
59
330
3C
100
AcDbEntity
  8
Layer 1
370
     0
100
AcDb2dPolyline
 66
     1
 10
0.0
 20
0.0
 30
0.0
  0
VERTEX
  5
5A
330
59
100
AcDbEntity
  8
Layer 1
370
     0
100
AcDbVertex
100
AcDb2dVertex
 10
116.58203125
 20
519.08154296875
 30
0.0
  0
VERTEX
  5
5B
330
59
100
AcDbEntity
  8
Layer 1
370
     0
100
AcDbVertex
100
AcDb2dVertex
 10
500.2958984375
 20
519.08154296875
 30
0.0
  0
VERTEX
  5
5C
330
59
100
AcDbEntity
  8
Layer 1
370
     0
100
AcDbVertex
100
AcDb2dVertex
 10
500.2958984375
 20
517.708984375
 30
0.0
  0
VERTEX
  5
5D
330
59
100
AcDbEntity
  8
Layer 1
370
     0
100
AcDbVertex
100
AcDb2dVertex
 10
116.58203125
 20
517.708984375
 30
0.0
  0
VERTEX
  5
5E
330
59
100
AcDbEntity
  8
Layer 1
370
     0
100
AcDbVertex
100
AcDb2dVertex
 10
116.58203125
 20
519.08154296875
 30
0.0
  0
VERTEX
  5
5F
330
59
100
AcDbEntity
  8
Layer 1
370
     0
100
AcDbVertex
100
AcDb2dVertex
 10
116.58203125
 20
519.08154296875
 30
0.0
  0
SEQEND
  5
60
330
59
100
AcDbEntity
  8
Layer 1
370
     0
  0
SPLINE
  5
61
330
3C
100
AcDbEntity
  8
Layer 1
370
     0
100
AcDbSpline
210
0.0
220
0.0
230
1.0
 70
    11
 71
     3
 72
    32
 73
    28
 74
     0
 42
0.0000000001
 43
0.0000000001
 40
0.0
 40
0.0
 40
0.0
 40
0.0
 40
1.0
 40
1.0
 40
1.0
 40
2.0
 40
2.0
 40
2.0
 40
3.0
 40
3.0
 40
3.0
 40
4.0
 40
4.0
 40
4.0
 40
5.0
 40
5.0
 40
5.0
 40
6.0
 40
6.0
 40
6.0
 40
7.0
 40
7.0
 40
7.0
 40
8.0
 40
8.0
 40
8.0
 40
9.0
 40
9.0
 40
9.0
 40
9.0
 10
92.705078125
 20
542.51904296875
 30
0.0
 10
92.705078125
 20
542.51904296875
 30
0.0
 10
502.810546875
 20
542.51904296875
 30
0.0
 10
502.810546875
 20
542.51904296875
 30
0.0
 10
512.212890625
 20
542.51904296875
 30
0.0
 10
519.900390625
 20
534.3837890625
 30
0.0
 10
519.900390625
 20
524.48388671875
 30
0.0
 10
519.900390625
 20
524.48388671875
 30
0.0
 10
519.900390625
 20
371.3525390625
 30
0.0
 10
519.900390625
 20
371.3525390625
 30
0.0
 10
519.900390625
 20
361.4453125
 30
0.0
 10
512.201171875
 20
353.3134765625
 30
0.0
 10
502.810546875
 20
353.3134765625
 30
0.0
 10
502.810546875
 20
353.3134765625
 30
0.0
 10
92.705078125
 20
353.3134765625
 30
0.0
 10
92.705078125
 20
353.3134765625
 30
0.0
 10
83.31787109375
 20
353.3134765625
 30
0.0
 10
75.61376953125
 20
361.4296875
 30
0.0
 10
75.61376953125
 20
371.3525390625
 30
0.0
 10
75.61376953125
 20
371.3525390625
 30
0.0
 10
75.61376953125
 20
524.48388671875
 30
0.0
 10
75.61376953125
 20
524.48388671875
 30
0.0
 10
75.61376953125
 20
534.40234375
 30
0.0
 10
83.3046875
 20
542.51904296875
 30
0.0
 10
92.705078125
 20
542.51904296875
 30
0.0
 10
92.705078125
 20
542.51904296875
 30
0.0
 10
92.705078125
 20
542.51904296875
 30
0.0
 10
92.705078125
 20
542.51904296875
 30
0.0
  0
SPLINE
  5
62
330
3C
100
AcDbEntity
  8
Layer 1
370
     0
100
AcDbSpline
210
0.0
220
0.0
230
1.0
 70
    11
 71
     3
 72
    32
 73
    28
 74
     0
 42
0.0000000001
 43
0.0000000001
 40
0.0
 40
0.0
 40
0.0
 40
0.0
 40
1.0
 40
1.0
 40
1.0
 40
2.0
 40
2.0
 40
2.0
 40
3.0
 40
3.0
 40
3.0
 40
4.0
 40
4.0
 40
4.0
 40
5.0
 40
5.0
 40
5.0
 40
6.0
 40
6.0
 40
6.0
 40
7.0
 40
7.0
 40
7.0
 40
8.0
 40
8.0
 40
8.0
 40
9.0
 40
9.0
 40
9.0
 40
9.0
 10
146.89208984375
 20
481.7705078125
 30
0.0
 10
146.89208984375
 20
481.7705078125
 30
0.0
 10
448.625
 20
481.7705078125
 30
0.0
 10
448.625
 20
481.7705078125
 30
0.0
 10
453.5751953125
 20
481.7705078125
 30
0.0
 10
457.6201171875
 20
477.4912109375
 30
0.0
 10
457.6201171875
 20
472.27392578125
 30
0.0
 10
457.6201171875
 20
472.27392578125
 30
0.0
 10
457.6201171875
 20
397.9189453125
 30
0.0
 10
457.6201171875
 20
397.9189453125
 30
0.0
 10
457.6201171875
 20
392.6982421875
 30
0.0
 10
453.5712890625
 20
388.4267578125
 30
0.0
 10
448.625
 20
388.4267578125
 30
0.0
 10
448.625
 20
388.4267578125
 30
0.0
 10
146.89208984375
 20
388.4267578125
 30
0.0
 10
146.89208984375
 20
388.4267578125
 30
0.0
 10
141.9462890625
 20
388.4267578125
 30
0.0
 10
137.8974609375
 20
392.6982421875
 30
0.0
 10
137.8974609375
 20
397.9189453125
 30
0.0
 10
137.8974609375
 20
397.9189453125
 30
0.0
 10
137.8974609375
 20
472.27392578125
 30
0.0
 10
137.8974609375
 20
472.27392578125
 30
0.0
 10
137.8974609375
 20
477.4990234375
 30
0.0
 10
141.9423828125
 20
481.7705078125
 30
0.0
 10
146.89208984375
 20
481.7705078125
 30
0.0
 10
146.89208984375
 20
481.7705078125
 30
0.0
 10
146.89208984375
 20
481.7705078125
 30
0.0
 10
146.89208984375
 20
481.7705078125
 30
0.0
  0
SPLINE
  5
63
330
3C
100
AcDbEntity
  8
Layer 1
370
     0
100
AcDbSpline
210
0.0
220
0.0
230
1.0
 70
    11
 71
     3
 72
    20
 73
    16
 74
     0
 42
0.0000000001
 43
0.0000000001
 40
0.0
 40
0.0
 40
0.0
 40
0.0
 40
1.0
 40
1.0
 40
1.0
 40
2.0
 40
2.0
 40
2.0
 40
3.0
 40
3.0
 40
3.0
 40
4.0
 40
4.0
 40
4.0
 40
5.0
 40
5.0
 40
5.0
 40
5.0
 10
305.8203125
 20
309.3896484375
 30
0.0
 10
310.9580078125
 20
312.80859375
 30
0.0
 10
312.357421875
 20
319.7421875
 30
0.0
 10
308.94140625
 20
324.880859375
 30
0.0
 10
305.525390625
 20
330.0185546875
 30
0.0
 10
298.5888671875
 20
331.4140625
 30
0.0
 10
293.45068359375
 20
328.001953125
 30
0.0
 10
288.30859375
 20
324.5859375
 30
0.0
 10
286.91357421875
 20
317.6494140625
 30
0.0
 10
290.3310546875
 20
312.51171875
 30
0.0
 10
293.75048828125
 20
307.373046875
 30
0.0
 10
300.677734375
 20
305.9814453125
 30
0.0
 10
305.8203125
 20
309.3896484375
 30
0.0
 10
305.8203125
 20
309.3896484375
 30
0.0
 10
305.8203125
 20
309.3896484375
 30
0.0
 10
305.8203125
 20
309.3896484375
 30
0.0
  0
SPLINE
  5
64
330
3C
100
AcDbEntity
  8
Layer 1
370
     0
100
AcDbSpline
210
0.0
220
0.0
230
1.0
 70
    11
 71
     3
 72
    20
 73
    16
 74
     0
 42
0.0000000001
 43
0.0000000001
 40
0.0
 40
0.0
 40
0.0
 40
0.0
 40
1.0
 40
1.0
 40
1.0
 40
2.0
 40
2.0
 40
2.0
 40
3.0
 40
3.0
 40
3.0
 40
4.0
 40
4.0
 40
4.0
 40
5.0
 40
5.0
 40
5.0
 40
5.0
 10
66.453125
 20
563.083984375
 30
0.0
 10
71.41064453125
 20
561.7421875
 30
0.0
 10
74.3359375
 20
556.6298828125
 30
0.0
 10
72.990234375
 20
551.68017578125
 30
0.0
 10
71.642578125
 20
546.7265625
 30
0.0
 10
66.5302734375
 20
543.80078125
 30
0.0
 10
61.57666015625
 20
545.14697265625
 30
0.0
 10
56.62646484375
 20
546.49658203125
 30
0.0
 10
53.705078125
 20
551.60107421875
 30
0.0
 10
55.048828125
 20
556.5546875
 30
0.0
 10
56.39306640625
 20
561.5048828125
 30
0.0
 10
61.5009765625
 20
564.43359375
 30
0.0
 10
66.453125
 20
563.083984375
 30
0.0
 10
66.453125
 20
563.083984375
 30
0.0
 10
66.453125
 20
563.083984375
 30
0.0
 10
66.453125
 20
563.083984375
 30
0.0
  0
SPLINE
  5
65
330
3C
100
AcDbEntity
  8
Layer 1
370
     0
100
AcDbSpline
210
0.0
220
0.0
230
1.0
 70
    11
 71
     3
 72
    56
 73
    52
 74
     0
 42
0.0000000001
 43
0.0000000001
 40
0.0
 40
0.0
 40
0.0
 40
0.0
 40
1.0
 40
1.0
 40
1.0
 40
2.0
 40
2.0
 40
2.0
 40
3.0
 40
3.0
 40
3.0
 40
4.0
 40
4.0
 40
4.0
 40
5.0
 40
5.0
 40
5.0
 40
6.0
 40
6.0
 40
6.0
 40
7.0
 40
7.0
 40
7.0
 40
8.0
 40
8.0
 40
8.0
 40
9.0
 40
9.0
 40
9.0
 40
10.0
 40
10.0
 40
10.0
 40
11.0
 40
11.0
 40
11.0
 40
12.0
 40
12.0
 40
12.0
 40
13.0
 40
13.0
 40
13.0
 40
14.0
 40
14.0
 40
14.0
 40
15.0
 40
15.0
 40
15.0
 40
16.0
 40
16.0
 40
16.0
 40
17.0
 40
17.0
 40
17.0
 40
17.0
 10
67.19189453125
 20
560.826171875
 30
0.0
 10
67.19189453125
 20
560.826171875
 30
0.0
 10
66.333984375
 20
555.4462890625
 30
0.0
 10
66.333984375
 20
555.4462890625
 30
0.0
 10
66.333984375
 20
555.4462890625
 30
0.0
 10
71.41064453125
 20
553.46337890625
 30
0.0
 10
71.41064453125
 20
553.46337890625
 30
0.0
 10
71.369140625
 20
553.03369140625
 30
0.0
 10
71.29345703125
 20
552.60009765625
 30
0.0
 10
71.1767578125
 20
552.17041015625
 30
0.0
 10
71.0615234375
 20
551.740234375
 30
0.0
 10
70.9052734375
 20
551.32958984375
 30
0.0
 10
70.72265625
 20
550.94140625
 30
0.0
 10
70.72265625
 20
550.94140625
 30
0.0
 10
65.3427734375
 20
551.80078125
 30
0.0
 10
65.3427734375
 20
551.80078125
 30
0.0
 10
65.3427734375
 20
551.80078125
 30
0.0
 10
63.36328125
 20
546.7265625
 30
0.0
 10
63.36328125
 20
546.7265625
 30
0.0
 10
62.93359375
 20
546.76806640625
 30
0.0
 10
62.501953125
 20
546.83935546875
 30
0.0
 10
62.0703125
 20
546.95263671875
 30
0.0
 10
61.640625
 20
547.0732421875
 30
0.0
 10
61.2333984375
 20
547.22412109375
 30
0.0
 10
60.84326171875
 20
547.40869140625
 30
0.0
 10
60.84326171875
 20
547.40869140625
 30
0.0
 10
61.701171875
 20
552.78857421875
 30
0.0
 10
61.701171875
 20
552.78857421875
 30
0.0
 10
61.701171875
 20
552.78857421875
 30
0.0
 10
56.63037109375
 20
554.775390625
 30
0.0
 10
56.63037109375
 20
554.775390625
 30
0.0
 10
56.666015625
 20
555.201171875
 30
0.0
 10
56.73974609375
 20
555.630859375
 30
0.0
 10
56.8544921875
 20
556.064453125
 30
0.0
 10
56.9716796875
 20
556.49072265625
 30
0.0
 10
57.1259765625
 20
556.9013671875
 30
0.0
 10
57.30908203125
 20
557.2900390625
 30
0.0
 10
57.30908203125
 20
557.2900390625
 30
0.0
 10
62.6923828125
 20
556.43408203125
 30
0.0
 10
62.6923828125
 20
556.43408203125
 30
0.0
 10
62.6923828125
 20
556.43408203125
 30
0.0
 10
64.673828125
 20
561.51220703125
 30
0.0
 10
64.673828125
 20
561.51220703125
 30
0.0
 10
65.10693359375
 20
561.474609375
 30
0.0
 10
65.533203125
 20
561.3955078125
 30
0.0
 10
65.9609375
 20
561.2744140625
 30
0.0
 10
66.392578125
 20
561.16162109375
 30
0.0
 10
66.8017578125
 20
561.0068359375
 30
0.0
 10
67.19189453125
 20
560.826171875
 30
0.0
 10
67.19189453125
 20
560.826171875
 30
0.0
 10
67.19189453125
 20
560.826171875
 30
0.0
 10
67.19189453125
 20
560.826171875
 30
0.0
  0
SPLINE
  5
66
330
3C
100
AcDbEntity
  8
Layer 1
370
     0
100
AcDbSpline
210
0.0
220
0.0
230
1.0
 70
    11
 71
     3
 72
    20
 73
    16
 74
     0
 42
0.0000000001
 43
0.0000000001
 40
0.0
 40
0.0
 40
0.0
 40
0.0
 40
1.0
 40
1.0
 40
1.0
 40
2.0
 40
2.0
 40
2.0
 40
3.0
 40
3.0
 40
3.0
 40
4.0
 40
4.0
 40
4.0
 40
5.0
 40
5.0
 40
5.0
 40
5.0
 10
538.515625
 20
560.21533203125
 30
0.0
 10
535.1455078125
 20
564.0908203125
 30
0.0
 10
529.271484375
 20
564.501953125
 30
0.0
 10
525.404296875
 20
561.13134765625
 30
0.0
 10
521.5283203125
 20
557.76123046875
 30
0.0
 10
521.12109375
 20
551.8876953125
 30
0.0
 10
524.48828125
 20
548.015625
 30
0.0
 10
527.8583984375
 20
544.14404296875
 30
0.0
 10
533.728515625
 20
543.73681640625
 30
0.0
 10
537.603515625
 20
547.103515625
 30
0.0
 10
541.478515625
 20
550.4697265625
 30
0.0
 10
541.88671875
 20
556.34375
 30
0.0
 10
538.515625
 20
560.21533203125
 30
0.0
 10
538.515625
 20
560.21533203125
 30
0.0
 10
538.515625
 20
560.21533203125
 30
0.0
 10
538.515625
 20
560.21533203125
 30
0.0
  0
SPLINE
  5
67
330
3C
100
AcDbEntity
  8
Layer 1
370
     0
100
AcDbSpline
210
0.0
220
0.0
230
1.0
 70
    11
 71
     3
 72
    56
 73
    52
 74
     0
 42
0.0000000001
 43
0.0000000001
 40
0.0
 40
0.0
 40
0.0
 40
0.0
 40
1.0
 40
1.0
 40
1.0
 40
2.0
 40
2.0
 40
2.0
 40
3.0
 40
3.0
 40
3.0
 40
4.0
 40
4.0
 40
4.0
 40
5.0
 40
5.0
 40
5.0
 40
6.0
 40
6.0
 40
6.0
 40
7.0
 40
7.0
 40
7.0
 40
8.0
 40
8.0
 40
8.0
 40
9.0
 40
9.0
 40
9.0
 40
10.0
 40
10.0
 40
10.0
 40
11.0
 40
11.0
 40
11.0
 40
12.0
 40
12.0
 40
12.0
 40
13.0
 40
13.0
 40
13.0
 40
14.0
 40
14.0
 40
14.0
 40
15.0
 40
15.0
 40
15.0
 40
16.0
 40
16.0
 40
16.0
 40
17.0
 40
17.0
 40
17.0
 40
17.0
 10
536.16015625
 20
559.8984375
 30
0.0
 10
536.16015625
 20
559.8984375
 30
0.0
 10
531.6923828125
 20
556.78076171875
 30
0.0
 10
531.6923828125
 20
556.78076171875
 30
0.0
 10
531.6923828125
 20
556.78076171875
 30
0.0
 10
527.6923828125
 20
560.48291015625
 30
0.0
 10
527.6923828125
 20
560.48291015625
 30
0.0
 10
527.3232421875
 20
560.26416015625
 30
0.0
 10
526.96484375
 20
560.0078125
 30
0.0
 10
526.6328125
 20
559.7177734375
 30
0.0
 10
526.2939453125
 20
559.42724609375
 30
0.0
 10
525.9921875
 20
559.10302734375
 30
0.0
 10
525.724609375
 20
558.767578125
 30
0.0
 10
525.724609375
 20
558.767578125
 30
0.0
 10
528.837890625
 20
554.30419921875
 30
0.0
 10
528.837890625
 20
554.30419921875
 30
0.0
 10
528.837890625
 20
554.30419921875
 30
0.0
 10
525.13671875
 20
550.3115234375
 30
0.0
 10
525.13671875
 20
550.3115234375
 30
0.0
 10
525.3583984375
 20
549.9423828125
 30
0.0
 10
525.607421875
 20
549.580078125
 30
0.0
 10
525.9013671875
 20
549.24853515625
 30
0.0
 10
526.1953125
 20
548.9091796875
 30
0.0
 10
526.5126953125
 20
548.607421875
 30
0.0
 10
526.84765625
 20
548.3359375
 30
0.0
 10
526.84765625
 20
548.3359375
 30
0.0
 10
531.3154296875
 20
551.4541015625
 30
0.0
 10
531.3154296875
 20
551.4541015625
 30
0.0
 10
531.3154296875
 20
551.4541015625
 30
0.0
 10
535.3115234375
 20
547.751953125
 30
0.0
 10
535.3115234375
 20
547.751953125
 30
0.0
 10
535.6806640625
 20
547.970703125
 30
0.0
 10
536.03515625
 20
548.22705078125
 30
0.0
 10
536.375
 20
548.51708984375
 30
0.0
 10
536.7099609375
 20
548.8076171875
 30
0.0
 10
537.01171875
 20
549.1279296875
 30
0.0
 10
537.283203125
 20
549.46337890625
 30
0.0
 10
537.283203125
 20
549.46337890625
 30
0.0
 10
534.1650390625
 20
553.9306640625
 30
0.0
 10
534.1650390625
 20
553.9306640625
 30
0.0
 10
534.1650390625
 20
553.9306640625
 30
0.0
 10
537.875
 20
557.9306640625
 30
0.0
 10
537.875
 20
557.9306640625
 30
0.0
 10
537.6484375
 20
558.29638671875
 30
0.0
 10
537.396484375
 20
558.65087890625
 30
0.0
 10
537.1025390625
 20
558.986328125
 30
0.0
 10
536.8115234375
 20
559.32568359375
 30
0.0
 10
536.4912109375
 20
559.626953125
 30
0.0
 10
536.16015625
 20
559.8984375
 30
0.0
 10
536.16015625
 20
559.8984375
 30
0.0
 10
536.16015625
 20
559.8984375
 30
0.0
 10
536.16015625
 20
559.8984375
 30
0.0
  0
SPLINE
  5
68
330
3C
100
AcDbEntity
  8
Layer 1
370
     0
100
AcDbSpline
210
0.0
220
0.0
230
1.0
 70
    11
 71
     3
 72
    20
 73
    16
 74
     0
 42
0.0000000001
 43
0.0000000001
 40
0.0
 40
0.0
 40
0.0
 40
0.0
 40
1.0
 40
1.0
 40
1.0
 40
2.0
 40
2.0
 40
2.0
 40
3.0
 40
3.0
 40
3.0
 40
4.0
 40
4.0
 40
4.0
 40
5.0
 40
5.0
 40
5.0
 40
5.0
 10
533.939453125
 20
281.7412109375
 30
0.0
 10
528.9814453125
 20
280.39453125
 30
0.0
 10
523.873046875
 20
283.3203125
 30
0.0
 10
522.52734375
 20
288.2783203125
 30
0.0
 10
521.185546875
 20
293.2314453125
 30
0.0
 10
524.111328125
 20
298.3359375
 30
0.0
 10
529.068359375
 20
299.685546875
 30
0.0
 10
534.0185546875
 20
301.0283203125
 30
0.0
 10
539.130859375
 20
298.1025390625
 30
0.0
 10
540.46875
 20
293.1484375
 30
0.0
 10
541.818359375
 20
288.1953125
 30
0.0
 10
538.888671875
 20
283.0869140625
 30
0.0
 10
533.939453125
 20
281.7412109375
 30
0.0
 10
533.939453125
 20
281.7412109375
 30
0.0
 10
533.939453125
 20
281.7412109375
 30
0.0
 10
533.939453125
 20
281.7412109375
 30
0.0
  0
SPLINE
  5
69
330
3C
100
AcDbEntity
  8
Layer 1
370
     0
100
AcDbSpline
210
0.0
220
0.0
230
1.0
 70
    11
 71
     3
 72
    56
 73
    52
 74
     0
 42
0.0000000001
 43
0.0000000001
 40
0.0
 40
0.0
 40
0.0
 40
0.0
 40
1.0
 40
1.0
 40
1.0
 40
2.0
 40
2.0
 40
2.0
 40
3.0
 40
3.0
 40
3.0
 40
4.0
 40
4.0
 40
4.0
 40
5.0
 40
5.0
 40
5.0
 40
6.0
 40
6.0
 40
6.0
 40
7.0
 40
7.0
 40
7.0
 40
8.0
 40
8.0
 40
8.0
 40
9.0
 40
9.0
 40
9.0
 40
10.0
 40
10.0
 40
10.0
 40
11.0
 40
11.0
 40
11.0
 40
12.0
 40
12.0
 40
12.0
 40
13.0
 40
13.0
 40
13.0
 40
14.0
 40
14.0
 40
14.0
 40
15.0
 40
15.0
 40
15.0
 40
16.0
 40
16.0
 40
16.0
 40
17.0
 40
17.0
 40
17.0
 40
17.0
 10
532.16015625
 20
283.31640625
 30
0.0
 10
532.16015625
 20
283.31640625
 30
0.0
 10
530.1767578125
 20
288.39453125
 30
0.0
 10
530.1767578125
 20
288.39453125
 30
0.0
 10
530.1767578125
 20
288.39453125
 30
0.0
 10
524.79296875
 20
287.5390625
 30
0.0
 10
524.79296875
 20
287.5390625
 30
0.0
 10
524.6123046875
 20
287.927734375
 30
0.0
 10
524.4541015625
 20
288.337890625
 30
0.0
 10
524.3408203125
 20
288.767578125
 30
0.0
 10
524.2275390625
 20
289.1982421875
 30
0.0
 10
524.15234375
 20
289.6279296875
 30
0.0
 10
524.111328125
 20
290.0576171875
 30
0.0
 10
524.111328125
 20
290.0576171875
 30
0.0
 10
529.181640625
 20
292.0400390625
 30
0.0
 10
529.181640625
 20
292.0400390625
 30
0.0
 10
529.181640625
 20
292.0400390625
 30
0.0
 10
528.3291015625
 20
297.416015625
 30
0.0
 10
528.3291015625
 20
297.416015625
 30
0.0
 10
528.7177734375
 20
297.6015625
 30
0.0
 10
529.12890625
 20
297.751953125
 30
0.0
 10
529.5546875
 20
297.873046875
 30
0.0
 10
529.98828125
 20
297.9892578125
 30
0.0
 10
530.41796875
 20
298.064453125
 30
0.0
 10
530.84765625
 20
298.1025390625
 30
0.0
 10
530.84765625
 20
298.1025390625
 30
0.0
 10
532.8310546875
 20
293.0283203125
 30
0.0
 10
532.8310546875
 20
293.0283203125
 30
0.0
 10
532.8310546875
 20
293.0283203125
 30
0.0
 10
538.20703125
 20
293.8876953125
 30
0.0
 10
538.20703125
 20
293.8876953125
 30
0.0
 10
538.3916015625
 20
293.49609375
 30
0.0
 10
538.5458984375
 20
293.0888671875
 30
0.0
 10
538.6669921875
 20
292.658203125
 30
0.0
 10
538.779296875
 20
292.228515625
 30
0.0
 10
538.85546875
 20
291.794921875
 30
0.0
 10
538.888671875
 20
291.365234375
 30
0.0
 10
538.888671875
 20
291.365234375
 30
0.0
 10
533.818359375
 20
289.38671875
 30
0.0
 10
533.818359375
 20
289.38671875
 30
0.0
 10
533.818359375
 20
289.38671875
 30
0.0
 10
534.673828125
 20
284.0029296875
 30
0.0
 10
534.673828125
 20
284.0029296875
 30
0.0
 10
534.2822265625
 20
283.814453125
 30
0.0
 10
533.875
 20
283.6669921875
 30
0.0
 10
533.4453125
 20
283.5546875
 30
0.0
 10
533.015625
 20
283.4375
 30
0.0
 10
532.58984375
 20
283.3544921875
 30
0.0
 10
532.16015625
 20
283.31640625
 30
0.0
 10
532.16015625
 20
283.31640625
 30
0.0
 10
532.16015625
 20
283.31640625
 30
0.0
 10
532.16015625
 20
283.31640625
 30
0.0
  0
SPLINE
  5
6A
330
3C
100
AcDbEntity
  8
Layer 1
370
     0
100
AcDbSpline
210
0.0
220
0.0
230
1.0
 70
    11
 71
     3
 72
    20
 73
    16
 74
     0
 42
0.0000000001
 43
0.0000000001
 40
0.0
 40
0.0
 40
0.0
 40
0.0
 40
1.0
 40
1.0
 40
1.0
 40
2.0
 40
2.0
 40
2.0
 40
3.0
 40
3.0
 40
3.0
 40
4.0
 40
4.0
 40
4.0
 40
5.0
 40
5.0
 40
5.0
 40
5.0
 10
61.08447265625
 20
281.8916015625
 30
0.0
 10
65.95166015625
 20
280.2705078125
 30
0.0
 10
71.21630859375
 20
282.90625
 30
0.0
 10
72.83349609375
 20
287.7763671875
 30
0.0
 10
74.45849609375
 20
292.6474609375
 30
0.0
 10
71.8232421875
 20
297.9140625
 30
0.0
 10
66.95458984375
 20
299.53125
 30
0.0
 10
62.080078125
 20
301.15234375
 30
0.0
 10
56.81884765625
 20
298.517578125
 30
0.0
 10
55.19775390625
 20
293.646484375
 30
0.0
 10
53.57470703125
 20
288.779296875
 30
0.0
 10
56.2119140625
 20
283.5126953125
 30
0.0
 10
61.08447265625
 20
281.8916015625
 30
0.0
 10
61.08447265625
 20
281.8916015625
 30
0.0
 10
61.08447265625
 20
281.8916015625
 30
0.0
 10
61.08447265625
 20
281.8916015625
 30
0.0
  0
SPLINE
  5
6B
330
3C
100
AcDbEntity
  8
Layer 1
370
     0
100
AcDbSpline
210
0.0
220
0.0
230
1.0
 70
    11
 71
     3
 72
    56
 73
    52
 74
     0
 42
0.0000000001
 43
0.0000000001
 40
0.0
 40
0.0
 40
0.0
 40
0.0
 40
1.0
 40
1.0
 40
1.0
 40
2.0
 40
2.0
 40
2.0
 40
3.0
 40
3.0
 40
3.0
 40
4.0
 40
4.0
 40
4.0
 40
5.0
 40
5.0
 40
5.0
 40
6.0
 40
6.0
 40
6.0
 40
7.0
 40
7.0
 40
7.0
 40
8.0
 40
8.0
 40
8.0
 40
9.0
 40
9.0
 40
9.0
 40
10.0
 40
10.0
 40
10.0
 40
11.0
 40
11.0
 40
11.0
 40
12.0
 40
12.0
 40
12.0
 40
13.0
 40
13.0
 40
13.0
 40
14.0
 40
14.0
 40
14.0
 40
15.0
 40
15.0
 40
15.0
 40
16.0
 40
16.0
 40
16.0
 40
17.0
 40
17.0
 40
17.0
 40
17.0
 10
62.95068359375
 20
283.369140625
 30
0.0
 10
62.95068359375
 20
283.369140625
 30
0.0
 10
65.21484375
 20
288.3232421875
 30
0.0
 10
65.21484375
 20
288.3232421875
 30
0.0
 10
65.21484375
 20
288.3232421875
 30
0.0
 10
70.53564453125
 20
287.166015625
 30
0.0
 10
70.53564453125
 20
287.166015625
 30
0.0
 10
70.7392578125
 20
287.54296875
 30
0.0
 10
70.92041015625
 20
287.9501953125
 30
0.0
 10
71.06005859375
 20
288.3681640625
 30
0.0
 10
71.19921875
 20
288.794921875
 30
0.0
 10
71.29345703125
 20
289.220703125
 30
0.0
 10
71.359375
 20
289.642578125
 30
0.0
 10
71.359375
 20
289.642578125
 30
0.0
 10
66.40576171875
 20
291.912109375
 30
0.0
 10
66.40576171875
 20
291.912109375
 30
0.0
 10
66.40576171875
 20
291.912109375
 30
0.0
 10
67.5615234375
 20
297.2314453125
 30
0.0
 10
67.5615234375
 20
297.2314453125
 30
0.0
 10
67.1845703125
 20
297.435546875
 30
0.0
 10
66.78271484375
 20
297.6123046875
 30
0.0
 10
66.36083984375
 20
297.751953125
 30
0.0
 10
65.9384765625
 20
297.8955078125
 30
0.0
 10
65.51220703125
 20
297.9931640625
 30
0.0
 10
65.08837890625
 20
298.0537109375
 30
0.0
 10
65.08837890625
 20
298.0537109375
 30
0.0
 10
62.82080078125
 20
293.099609375
 30
0.0
 10
62.82080078125
 20
293.099609375
 30
0.0
 10
62.82080078125
 20
293.099609375
 30
0.0
 10
57.50146484375
 20
294.25390625
 30
0.0
 10
57.50146484375
 20
294.25390625
 30
0.0
 10
57.2958984375
 20
293.8759765625
 30
0.0
 10
57.11669921875
 20
293.4765625
 30
0.0
 10
56.97705078125
 20
293.0546875
 30
0.0
 10
56.8359375
 20
292.6357421875
 30
0.0
 10
56.73583984375
 20
292.2060546875
 30
0.0
 10
56.671875
 20
291.7802734375
 30
0.0
 10
56.671875
 20
291.7802734375
 30
0.0
 10
61.63134765625
 20
289.5146484375
 30
0.0
 10
61.63134765625
 20
289.5146484375
 30
0.0
 10
61.63134765625
 20
289.5146484375
 30
0.0
 10
60.47216796875
 20
284.19140625
 30
0.0
 10
60.47216796875
 20
284.19140625
 30
0.0
 10
60.85107421875
 20
283.984375
 30
0.0
 10
61.25244140625
 20
283.814453125
 30
0.0
 10
61.6767578125
 20
283.6708984375
 30
0.0
 10
62.0947265625
 20
283.53125
 30
0.0
 10
62.52099609375
 20
283.4296875
 30
0.0
 10
62.95068359375
 20
283.369140625
 30
0.0
 10
62.95068359375
 20
283.369140625
 30
0.0
 10
62.95068359375
 20
283.369140625
 30
0.0
 10
62.95068359375
 20
283.369140625
 30
0.0
  0
SPLINE
  5
6C
330
3C
100
AcDbEntity
  8
Layer 1
370
     0
100
AcDbSpline
210
0.0
220
0.0
230
1.0
 70
    11
 71
     3
 72
    56
 73
    52
 74
     0
 42
0.0000000001
 43
0.0000000001
 40
0.0
 40
0.0
 40
0.0
 40
0.0
 40
1.0
 40
1.0
 40
1.0
 40
2.0
 40
2.0
 40
2.0
 40
3.0
 40
3.0
 40
3.0
 40
4.0
 40
4.0
 40
4.0
 40
5.0
 40
5.0
 40
5.0
 40
6.0
 40
6.0
 40
6.0
 40
7.0
 40
7.0
 40
7.0
 40
8.0
 40
8.0
 40
8.0
 40
9.0
 40
9.0
 40
9.0
 40
10.0
 40
10.0
 40
10.0
 40
11.0
 40
11.0
 40
11.0
 40
12.0
 40
12.0
 40
12.0
 40
13.0
 40
13.0
 40
13.0
 40
14.0
 40
14.0
 40
14.0
 40
15.0
 40
15.0
 40
15.0
 40
16.0
 40
16.0
 40
16.0
 40
17.0
 40
17.0
 40
17.0
 40
17.0
 10
305.8046875
 20
312.2509765625
 30
0.0
 10
305.8046875
 20
312.2509765625
 30
0.0
 10
302.78125
 20
318.060546875
 30
0.0
 10
302.78125
 20
318.060546875
 30
0.0
 10
302.78125
 20
318.060546875
 30
0.0
 10
307.810546875
 20
322.2490234375
 30
0.0
 10
307.810546875
 20
322.2490234375
 30
0.0
 10
307.6064453125
 20
322.720703125
 30
0.0
 10
307.3583984375
 20
323.19140625
 30
0.0
 10
307.064453125
 20
323.63671875
 30
0.0
 10
306.765625
 20
324.0771484375
 30
0.0
 10
306.4384765625
 20
324.48828125
 30
0.0
 10
306.076171875
 20
324.861328125
 30
0.0
 10
306.076171875
 20
324.861328125
 30
0.0
 10
300.2666015625
 20
321.841796875
 30
0.0
 10
300.2666015625
 20
321.841796875
 30
0.0
 10
300.2666015625
 20
321.841796875
 30
0.0
 10
296.0859375
 20
326.875
 30
0.0
 10
296.0859375
 20
326.875
 30
0.0
 10
295.60693359375
 20
326.6669921875
 30
0.0
 10
295.1435546875
 20
326.41796875
 30
0.0
 10
294.69677734375
 20
326.1279296875
 30
0.0
 10
294.25390625
 20
325.826171875
 30
0.0
 10
293.8427734375
 20
325.4951171875
 30
0.0
 10
293.4697265625
 20
325.13671875
 30
0.0
 10
293.4697265625
 20
325.13671875
 30
0.0
 10
296.4892578125
 20
319.3271484375
 30
0.0
 10
296.4892578125
 20
319.3271484375
 30
0.0
 10
296.4892578125
 20
319.3271484375
 30
0.0
 10
291.45654296875
 20
315.142578125
 30
0.0
 10
291.45654296875
 20
315.142578125
 30
0.0
 10
291.66552734375
 20
314.671875
 30
0.0
 10
291.91064453125
 20
314.2041015625
 30
0.0
 10
292.20654296875
 20
313.7587890625
 30
0.0
 10
292.50244140625
 20
313.314453125
 30
0.0
 10
292.8359375
 20
312.9033203125
 30
0.0
 10
293.1884765625
 20
312.5341796875
 30
0.0
 10
293.1884765625
 20
312.5341796875
 30
0.0
 10
299.00390625
 20
315.5537109375
 30
0.0
 10
299.00390625
 20
315.5537109375
 30
0.0
 10
299.00390625
 20
315.5537109375
 30
0.0
 10
303.1923828125
 20
310.5166015625
 30
0.0
 10
303.1923828125
 20
310.5166015625
 30
0.0
 10
303.6630859375
 20
310.720703125
 30
0.0
 10
304.123046875
 20
310.96875
 30
0.0
 10
304.572265625
 20
311.267578125
 30
0.0
 10
305.0205078125
 20
311.564453125
 30
0.0
 10
305.427734375
 20
311.892578125
 30
0.0
 10
305.8046875
 20
312.2509765625
 30
0.0
 10
305.8046875
 20
312.2509765625
 30
0.0
 10
305.8046875
 20
312.2509765625
 30
0.0
 10
305.8046875
 20
312.2509765625
 30
0.0
  0
SPLINE
  5
6D
330
3C
100
AcDbEntity
  8
Layer 1
370
     0
100
AcDbSpline
210
0.0
220
0.0
230
1.0
 70
    11
 71
     3
 72
    32
 73
    28
 74
     0
 42
0.0000000001
 43
0.0000000001
 40
0.0
 40
0.0
 40
0.0
 40
0.0
 40
1.0
 40
1.0
 40
1.0
 40
2.0
 40
2.0
 40
2.0
 40
3.0
 40
3.0
 40
3.0
 40
4.0
 40
4.0
 40
4.0
 40
5.0
 40
5.0
 40
5.0
 40
6.0
 40
6.0
 40
6.0
 40
7.0
 40
7.0
 40
7.0
 40
8.0
 40
8.0
 40
8.0
 40
9.0
 40
9.0
 40
9.0
 40
9.0
 10
64.83935546875
 20
570.37890625
 30
0.0
 10
64.83935546875
 20
570.37890625
 30
0.0
 10
530.677734375
 20
570.37890625
 30
0.0
 10
530.677734375
 20
570.37890625
 30
0.0
 10
540.076171875
 20
570.37890625
 30
0.0
 10
547.759765625
 20
562.26220703125
 30
0.0
 10
547.759765625
 20
552.34375
 30
0.0
 10
547.759765625
 20
552.34375
 30
0.0
 10
547.759765625
 20
287.7763671875
 30
0.0
 10
547.759765625
 20
287.7763671875
 30
0.0
 10
547.759765625
 20
277.861328125
 30
0.0
 10
540.076171875
 20
269.7451171875
 30
0.0
 10
530.677734375
 20
269.7451171875
 30
0.0
 10
375.3984375
 20
269.7451171875
 30
0.0
 10
220.11767578125
 20
269.7451171875
 30
0.0
 10
64.83935546875
 20
269.7451171875
 30
0.0
 10
55.44287109375
 20
269.7451171875
 30
0.0
 10
47.759765625
 20
277.861328125
 30
0.0
 10
47.759765625
 20
287.7763671875
 30
0.0
 10
47.759765625
 20
287.7763671875
 30
0.0
 10
47.759765625
 20
552.34375
 30
0.0
 10
47.759765625
 20
552.34375
 30
0.0
 10
47.759765625
 20
562.26220703125
 30
0.0
 10
55.44287109375
 20
570.37890625
 30
0.0
 10
64.83935546875
 20
570.37890625
 30
0.0
 10
64.83935546875
 20
570.37890625
 30
0.0
 10
64.83935546875
 20
570.37890625
 30
0.0
 10
64.83935546875
 20
570.37890625
 30
0.0
  0
SPLINE
  5
6E
330
3C
100
AcDbEntity
  8
Layer 1
370
     0
100
AcDbSpline
210
0.0
220
0.0
230
1.0
 70
    11
 71
     3
 72
    32
 73
    28
 74
     0
 42
0.0000000001
 43
0.0000000001
 40
0.0
 40
0.0
 40
0.0
 40
0.0
 40
1.0
 40
1.0
 40
1.0
 40
2.0
 40
2.0
 40
2.0
 40
3.0
 40
3.0
 40
3.0
 40
4.0
 40
4.0
 40
4.0
 40
5.0
 40
5.0
 40
5.0
 40
6.0
 40
6.0
 40
6.0
 40
7.0
 40
7.0
 40
7.0
 40
8.0
 40
8.0
 40
8.0
 40
9.0
 40
9.0
 40
9.0
 40
9.0
 10
365.7998046875
 20
300.7900390625
 30
0.0
 10
365.7998046875
 20
300.7900390625
 30
0.0
 10
372.9169921875
 20
300.7900390625
 30
0.0
 10
372.9169921875
 20
300.7900390625
 30
0.0
 10
375.857421875
 20
300.7900390625
 30
0.0
 10
378.259765625
 20
298.388671875
 30
0.0
 10
378.259765625
 20
295.4521484375
 30
0.0
 10
378.259765625
 20
295.4521484375
 30
0.0
 10
378.259765625
 20
288.3349609375
 30
0.0
 10
378.259765625
 20
288.3349609375
 30
0.0
 10
378.259765625
 20
285.3974609375
 30
0.0
 10
375.857421875
 20
282.9921875
 30
0.0
 10
372.9169921875
 20
282.9921875
 30
0.0
 10
372.9169921875
 20
282.9921875
 30
0.0
 10
365.7998046875
 20
282.9921875
 30
0.0
 10
365.7998046875
 20
282.9921875
 30
0.0
 10
362.859375
 20
282.9921875
 30
0.0
 10
360.4609375
 20
285.3974609375
 30
0.0
 10
360.4609375
 20
288.3349609375
 30
0.0
 10
360.4609375
 20
288.3349609375
 30
0.0
 10
360.4609375
 20
295.4560546875
 30
0.0
 10
360.4609375
 20
295.4560546875
 30
0.0
 10
360.4609375
 20
298.388671875
 30
0.0
 10
362.859375
 20
300.7900390625
 30
0.0
 10
365.7998046875
 20
300.7900390625
 30
0.0
 10
365.7998046875
 20
300.7900390625
 30
0.0
 10
365.7998046875
 20
300.7900390625
 30
0.0
 10
365.7998046875
 20
300.7900390625
 30
0.0
  0
SPLINE
  5
6F
330
3C
100
AcDbEntity
  8
Layer 1
370
     0
100
AcDbSpline
210
0.0
220
0.0
230
1.0
 70
    11
 71
     3
 72
    20
 73
    16
 74
     0
 42
0.0000000001
 43
0.0000000001
 40
0.0
 40
0.0
 40
0.0
 40
0.0
 40
1.0
 40
1.0
 40
1.0
 40
2.0
 40
2.0
 40
2.0
 40
3.0
 40
3.0
 40
3.0
 40
4.0
 40
4.0
 40
4.0
 40
5.0
 40
5.0
 40
5.0
 40
5.0
 10
422.552734375
 20
276.8173828125
 30
0.0
 10
428.146484375
 20
274.955078125
 30
0.0
 10
434.1904296875
 20
277.982421875
 30
0.0
 10
436.056640625
 20
283.5771484375
 30
0.0
 10
437.9189453125
 20
289.171875
 30
0.0
 10
434.8876953125
 20
295.21875
 30
0.0
 10
429.296875
 20
297.0771484375
 30
0.0
 10
423.6982421875
 20
298.935546875
 30
0.0
 10
417.6552734375
 20
295.908203125
 30
0.0
 10
415.796875
 20
290.3173828125
 30
0.0
 10
413.9345703125
 20
284.72265625
 30
0.0
 10
416.9619140625
 20
278.6796875
 30
0.0
 10
422.552734375
 20
276.8173828125
 30
0.0
 10
422.552734375
 20
276.8173828125
 30
0.0
 10
422.552734375
 20
276.8173828125
 30
0.0
 10
422.552734375
 20
276.8173828125
 30
0.0
  0
SPLINE
  5
70
330
3C
100
AcDbEntity
  8
Layer 1
370
     0
100
AcDbSpline
210
0.0
220
0.0
230
1.0
 70
    11
 71
     3
 72
    32
 73
    28
 74
     0
 42
0.0000000001
 43
0.0000000001
 40
0.0
 40
0.0
 40
0.0
 40
0.0
 40
1.0
 40
1.0
 40
1.0
 40
2.0
 40
2.0
 40
2.0
 40
3.0
 40
3.0
 40
3.0
 40
4.0
 40
4.0
 40
4.0
 40
5.0
 40
5.0
 40
5.0
 40
6.0
 40
6.0
 40
6.0
 40
7.0
 40
7.0
 40
7.0
 40
8.0
 40
8.0
 40
8.0
 40
9.0
 40
9.0
 40
9.0
 40
9.0
 10
222.5986328125
 20
300.7900390625
 30
0.0
 10
222.5986328125
 20
300.7900390625
 30
0.0
 10
229.7197265625
 20
300.7900390625
 30
0.0
 10
229.7197265625
 20
300.7900390625
 30
0.0
 10
232.658203125
 20
300.7900390625
 30
0.0
 10
235.05810546875
 20
298.388671875
 30
0.0
 10
235.05810546875
 20
295.4521484375
 30
0.0
 10
235.05810546875
 20
295.4521484375
 30
0.0
 10
235.05810546875
 20
288.3349609375
 30
0.0
 10
235.05810546875
 20
288.3349609375
 30
0.0
 10
235.05810546875
 20
285.3974609375
 30
0.0
 10
232.658203125
 20
282.9921875
 30
0.0
 10
229.7197265625
 20
282.9921875
 30
0.0
 10
229.7197265625
 20
282.9921875
 30
0.0
 10
222.5986328125
 20
282.9921875
 30
0.0
 10
222.5986328125
 20
282.9921875
 30
0.0
 10
219.66162109375
 20
282.9921875
 30
0.0
 10
217.25830078125
 20
285.3974609375
 30
0.0
 10
217.25830078125
 20
288.3349609375
 30
0.0
 10
217.25830078125
 20
288.3349609375
 30
0.0
 10
217.25830078125
 20
295.4560546875
 30
0.0
 10
217.25830078125
 20
295.4560546875
 30
0.0
 10
217.25830078125
 20
298.388671875
 30
0.0
 10
219.66162109375
 20
300.7900390625
 30
0.0
 10
222.5986328125
 20
300.7900390625
 30
0.0
 10
222.5986328125
 20
300.7900390625
 30
0.0
 10
222.5986328125
 20
300.7900390625
 30
0.0
 10
222.5986328125
 20
300.7900390625
 30
0.0
  0
SPLINE
  5
71
330
3C
100
AcDbEntity
  8
Layer 1
370
     0
100
AcDbSpline
210
0.0
220
0.0
230
1.0
 70
    11
 71
     3
 72
    20
 73
    16
 74
     0
 42
0.0000000001
 43
0.0000000001
 40
0.0
 40
0.0
 40
0.0
 40
0.0
 40
1.0
 40
1.0
 40
1.0
 40
2.0
 40
2.0
 40
2.0
 40
3.0
 40
3.0
 40
3.0
 40
4.0
 40
4.0
 40
4.0
 40
5.0
 40
5.0
 40
5.0
 40
5.0
 10
166.21875
 20
276.8173828125
 30
0.0
 10
171.8154296875
 20
274.955078125
 30
0.0
 10
177.8623046875
 20
277.982421875
 30
0.0
 10
179.720703125
 20
283.5771484375
 30
0.0
 10
181.58154296875
 20
289.171875
 30
0.0
 10
178.55615234375
 20
295.21875
 30
0.0
 10
172.96337890625
 20
297.0771484375
 30
0.0
 10
167.36865234375
 20
298.935546875
 30
0.0
 10
161.32568359375
 20
295.908203125
 30
0.0
 10
159.45947265625
 20
290.3173828125
 30
0.0
 10
157.6005859375
 20
284.72265625
 30
0.0
 10
160.6279296875
 20
278.6796875
 30
0.0
 10
166.21875
 20
276.8173828125
 30
0.0
 10
166.21875
 20
276.8173828125
 30
0.0
 10
166.21875
 20
276.8173828125
 30
0.0
 10
166.21875
 20
276.8173828125
 30
0.0
  0
POLYLINE
  5
72
330
3C
100
AcDbEntity
  8
Layer 1
370
     0
100
AcDb2dPolyline
 66
     1
 10
0.0
 20
0.0
 30
0.0
  0
VERTEX
  5
73
330
72
100
AcDbEntity
  8
Layer 1
370
     0
100
AcDbVertex
100
AcDb2dVertex
 10
472.4208984375
 20
273.0703125
 30
0.0
  0
VERTEX
  5
74
330
72
100
AcDbEntity
  8
Layer 1
370
     0
100
AcDbVertex
100
AcDb2dVertex
 10
452.64453125
 20
346.8896484375
 30
0.0
  0
VERTEX
  5
75
330
72
100
AcDbEntity
  8
Layer 1
370
     0
100
AcDbVertex
100
AcDb2dVertex
 10
142.87548828125
 20
346.8896484375
 30
0.0
  0
VERTEX
  5
76
330
72
100
AcDbEntity
  8
Layer 1
370
     0
100
AcDbVertex
100
AcDb2dVertex
 10
123.0947265625
 20
273.0703125
 30
0.0
  0
VERTEX
  5
77
330
72
100
AcDbEntity
  8
Layer 1
370
     0
100
AcDbVertex
100
AcDb2dVertex
 10
145.70458984375
 20
343.2021484375
 30
0.0
  0
VERTEX
  5
78
330
72
100
AcDbEntity
  8
Layer 1
370
     0
100
AcDbVertex
100
AcDb2dVertex
 10
449.8125
 20
343.2021484375
 30
0.0
  0
VERTEX
  5
79
330
72
100
AcDbEntity
  8
Layer 1
370
     0
100
AcDbVertex
100
AcDb2dVertex
 10
468.6064453125
 20
273.0703125
 30
0.0
  0
VERTEX
  5
7A
330
72
100
AcDbEntity
  8
Layer 1
370
     0
100
AcDbVertex
100
AcDb2dVertex
 10
472.4208984375
 20
273.0703125
 30
0.0
  0
VERTEX
  5
7B
330
72
100
AcDbEntity
  8
Layer 1
370
     0
100
AcDbVertex
100
AcDb2dVertex
 10
472.4208984375
 20
273.0703125
 30
0.0
  0
SEQEND
  5
7C
330
72
100
AcDbEntity
  8
Layer 1
370
     0
  0
HATCH
  5
7D
330
3C
100
AcDbEntity
  8
Layer 1
 62
   250
420
  2301728
100
AcDbHatch
 10
0.0
 20
0.0
 30
0.0
210
0.0
220
0.0
230
1.0
  2
SOLID
 70
     1
 71
     0
 91
       31
 92
        1
 93
        1
 72
     4
 94
        3
 73
     0
 74
     1
 95
       32
 96
       28
 40
0.0
 40
0.0
 40
0.0
 40
0.0
 40
1.0
 40
1.0
 40
1.0
 40
2.0
 40
2.0
 40
2.0
 40
3.0
 40
3.0
 40
3.0
 40
4.0
 40
4.0
 40
4.0
 40
5.0
 40
5.0
 40
5.0
 40
6.0
 40
6.0
 40
6.0
 40
7.0
 40
7.0
 40
7.0
 40
8.0
 40
8.0
 40
8.0
 40
9.0
 40
9.0
 40
9.0
 40
9.0
 10
236.44921875
 20
401.1201171875
 10
236.44921875
 20
401.1201171875
 10
310.396484375
 20
401.1201171875
 10
310.396484375
 20
401.1201171875
 10
310.396484375
 20
401.1201171875
 10
330.8974609375
 20
401.1201171875
 10
330.8974609375
 20
401.1201171875
 10
330.8974609375
 20
401.1201171875
 10
358.6591796875
 20
401.1201171875
 10
358.6591796875
 20
401.1201171875
 10
358.6591796875
 20
401.1201171875
 10
358.6591796875
 20
469.0771484375
 10
358.6591796875
 20
469.0771484375
 10
358.6591796875
 20
469.0771484375
 10
330.8974609375
 20
469.0771484375
 10
330.8974609375
 20
469.0771484375
 10
330.8974609375
 20
469.0771484375
 10
310.400390625
 20
469.0771484375
 10
310.400390625
 20
469.0771484375
 10
310.400390625
 20
469.0771484375
 10
236.44921875
 20
469.0771484375
 10
236.44921875
 20
469.0771484375
 10
236.44921875
 20
455.31640625
 10
236.44921875
 20
401.998046875
 10
236.44921875
 20
401.1201171875
 10
236.44921875
 20
401.1201171875
 10
236.44921875
 20
401.1201171875
 10
236.44921875
 20
401.1201171875
 97
        0
 92
        1
 93
        1
 72
     4
 94
        3
 73
     0
 74
     1
 95
       20
 96
       16
 40
0.0
 40
0.0
 40
0.0
 40
0.0
 40
1.0
 40
1.0
 40
1.0
 40
2.0
 40
2.0
 40
2.0
 40
3.0
 40
3.0
 40
3.0
 40
4.0
 40
4.0
 40
4.0
 40
5.0
 40
5.0
 40
5.0
 40
5.0
 10
406.1455078125
 20
467.40673828125
 10
388.306640625
 20
467.40673828125
 10
373.8369140625
 20
452.9375
 10
373.8369140625
 20
435.0986328125
 10
373.8369140625
 20
417.2587890625
 10
388.306640625
 20
402.7822265625
 10
406.1455078125
 20
402.7822265625
 10
423.9853515625
 20
402.7822265625
 10
438.4580078125
 20
417.2587890625
 10
438.4580078125
 20
435.0986328125
 10
438.4580078125
 20
452.9375
 10
423.9853515625
 20
467.40673828125
 10
406.1455078125
 20
467.40673828125
 10
406.1455078125
 20
467.40673828125
 10
406.1455078125
 20
467.40673828125
 10
406.1455078125
 20
467.40673828125
 97
        0
 92
        1
 93
        1
 72
     4
 94
        3
 73
     0
 74
     1
 95
       86
 96
       82
 40
0.0
 40
0.0
 40
0.0
 40
0.0
 40
1.0
 40
1.0
 40
1.0
 40
2.0
 40
2.0
 40
2.0
 40
3.0
 40
3.0
 40
3.0
 40
4.0
 40
4.0
 40
4.0
 40
5.0
 40
5.0
 40
5.0
 40
6.0
 40
6.0
 40
6.0
 40
7.0
 40
7.0
 40
7.0
 40
8.0
 40
8.0
 40
8.0
 40
9.0
 40
9.0
 40
9.0
 40
10.0
 40
10.0
 40
10.0
 40
11.0
 40
11.0
 40
11.0
 40
12.0
 40
12.0
 40
12.0
 40
13.0
 40
13.0
 40
13.0
 40
14.0
 40
14.0
 40
14.0
 40
15.0
 40
15.0
 40
15.0
 40
16.0
 40
16.0
 40
16.0
 40
17.0
 40
17.0
 40
17.0
 40
18.0
 40
18.0
 40
18.0
 40
19.0
 40
19.0
 40
19.0
 40
20.0
 40
20.0
 40
20.0
 40
21.0
 40
21.0
 40
21.0
 40
22.0
 40
22.0
 40
22.0
 40
23.0
 40
23.0
 40
23.0
 40
24.0
 40
24.0
 40
24.0
 40
25.0
 40
25.0
 40
25.0
 40
26.0
 40
26.0
 40
26.0
 40
27.0
 40
27.0
 40
27.0
 40
27.0
 10
406.1455078125
 20
461.06591796875
 10
402.4814453125
 20
461.06591796875
 10
398.994140625
 20
460.30078125
 10
395.8310546875
 20
458.93212890625
 10
395.8310546875
 20
458.93212890625
 10
398.357421875
 20
454.55517578125
 10
398.357421875
 20
454.55517578125
 10
398.357421875
 20
454.55517578125
 10
393.1923828125
 20
451.5732421875
 10
393.1923828125
 20
451.5732421875
 10
393.1923828125
 20
451.5732421875
 10
390.666015625
 20
455.9462890625
 10
390.666015625
 20
455.9462890625
 10
385.056640625
 20
451.77294921875
 10
381.1884765625
 20
445.38671875
 10
380.3515625
 20
438.08056640625
 10
380.3515625
 20
438.08056640625
 10
385.3994140625
 20
438.08056640625
 10
385.3994140625
 20
438.08056640625
 10
385.3994140625
 20
438.08056640625
 10
385.4033203125
 20
432.1162109375
 10
385.4033203125
 20
432.1162109375
 10
385.4033203125
 20
432.1162109375
 10
380.3515625
 20
432.1162109375
 10
380.3515625
 20
432.1162109375
 10
381.1884765625
 20
424.810546875
 10
385.056640625
 20
418.423828125
 10
390.669921875
 20
414.2509765625
 10
390.669921875
 20
414.2509765625
 10
393.1923828125
 20
418.6240234375
 10
393.1923828125
 20
418.6240234375
 10
393.1923828125
 20
418.6240234375
 10
398.357421875
 20
415.6376953125
 10
398.357421875
 20
415.6376953125
 10
398.357421875
 20
415.6376953125
 10
395.8310546875
 20
411.2646484375
 10
395.8310546875
 20
411.2646484375
 10
398.994140625
 20
409.892578125
 10
402.4814453125
 20
409.126953125
 10
406.1455078125
 20
409.126953125
 10
409.8134765625
 20
409.126953125
 10
413.30078125
 20
409.892578125
 10
416.4638671875
 20
411.2646484375
 10
416.4638671875
 20
411.2646484375
 10
413.94140625
 20
415.6376953125
 10
413.94140625
 20
415.6376953125
 10
413.94140625
 20
415.6376953125
 10
419.099609375
 20
418.6201171875
 10
419.099609375
 20
418.6201171875
 10
419.099609375
 20
418.6201171875
 10
421.625
 20
414.2509765625
 10
421.625
 20
414.2509765625
 10
427.234375
 20
418.419921875
 10
431.1025390625
 20
424.806640625
 10
431.943359375
 20
432.1162109375
 10
431.943359375
 20
432.1162109375
 10
426.8955078125
 20
432.1162109375
 10
426.8955078125
 20
432.1162109375
 10
426.8955078125
 20
432.1162109375
 10
426.8955078125
 20
438.07666015625
 10
426.8955078125
 20
438.07666015625
 10
426.8955078125
 20
438.07666015625
 10
431.943359375
 20
438.07666015625
 10
431.943359375
 20
438.07666015625
 10
431.1103515625
 20
445.38671875
 10
427.234375
 20
451.77294921875
 10
421.625
 20
455.9462890625
 10
421.625
 20
455.9462890625
 10
419.099609375
 20
451.5771484375
 10
419.099609375
 20
451.5771484375
 10
419.099609375
 20
451.5771484375
 10
413.94140625
 20
454.55517578125
 10
413.94140625
 20
454.55517578125
 10
413.94140625
 20
454.55517578125
 10
416.4677734375
 20
458.93212890625
 10
416.4677734375
 20
458.93212890625
 10
413.30078125
 20
460.30419921875
 10
409.8134765625
 20
461.06591796875
 10
406.1455078125
 20
461.06591796875
 10
406.1455078125
 20
461.06591796875
 10
406.1455078125
 20
461.06591796875
 10
406.1455078125
 20
461.06591796875
 97
        0
 92
        1
 93
        1
 72
     4
 94
        3
 73
     0
 74
     1
 95
       20
 96
       16
 40
0.0
 40
0.0
 40
0.0
 40
0.0
 40
1.0
 40
1.0
 40
1.0
 40
2.0
 40
2.0
 40
2.0
 40
3.0
 40
3.0
 40
3.0
 40
4.0
 40
4.0
 40
4.0
 40
5.0
 40
5.0
 40
5.0
 40
5.0
 10
189.3720703125
 20
467.40673828125
 10
207.21484375
 20
467.40673828125
 10
221.68408203125
 20
452.9375
 10
221.68408203125
 20
435.0986328125
 10
221.68408203125
 20
417.2587890625
 10
207.21484375
 20
402.7822265625
 10
189.3720703125
 20
402.7822265625
 10
171.53271484375
 20
402.7822265625
 10
157.0634765625
 20
417.2587890625
 10
157.0634765625
 20
435.0986328125
 10
157.0634765625
 20
452.9375
 10
171.53271484375
 20
467.40673828125
 10
189.3720703125
 20
467.40673828125
 10
189.3720703125
 20
467.40673828125
 10
189.3720703125
 20
467.40673828125
 10
189.3720703125
 20
467.40673828125
 97
        0
 92
        1
 93
        1
 72
     4
 94
        3
 73
     0
 74
     1
 95
       86
 96
       82
 40
0.0
 40
0.0
 40
0.0
 40
0.0
 40
1.0
 40
1.0
 40
1.0
 40
2.0
 40
2.0
 40
2.0
 40
3.0
 40
3.0
 40
3.0
 40
4.0
 40
4.0
 40
4.0
 40
5.0
 40
5.0
 40
5.0
 40
6.0
 40
6.0
 40
6.0
 40
7.0
 40
7.0
 40
7.0
 40
8.0
 40
8.0
 40
8.0
 40
9.0
 40
9.0
 40
9.0
 40
10.0
 40
10.0
 40
10.0
 40
11.0
 40
11.0
 40
11.0
 40
12.0
 40
12.0
 40
12.0
 40
13.0
 40
13.0
 40
13.0
 40
14.0
 40
14.0
 40
14.0
 40
15.0
 40
15.0
 40
15.0
 40
16.0
 40
16.0
 40
16.0
 40
17.0
 40
17.0
 40
17.0
 40
18.0
 40
18.0
 40
18.0
 40
19.0
 40
19.0
 40
19.0
 40
20.0
 40
20.0
 40
20.0
 40
21.0
 40
21.0
 40
21.0
 40
22.0
 40
22.0
 40
22.0
 40
23.0
 40
23.0
 40
23.0
 40
24.0
 40
24.0
 40
24.0
 40
25.0
 40
25.0
 40
25.0
 40
26.0
 40
26.0
 40
26.0
 40
27.0
 40
27.0
 40
27.0
 40
27.0
 10
189.3720703125
 20
461.06591796875
 10
193.0400390625
 20
461.06591796875
 10
196.52734375
 20
460.30078125
 10
199.6904296875
 20
458.93212890625
 10
199.6904296875
 20
458.93212890625
 10
197.16259765625
 20
454.55517578125
 10
197.16259765625
 20
454.55517578125
 10
197.16259765625
 20
454.55517578125
 10
202.3271484375
 20
451.5732421875
 10
202.3271484375
 20
451.5732421875
 10
202.3271484375
 20
451.5732421875
 10
204.85498046875
 20
455.9462890625
 10
204.85498046875
 20
455.9462890625
 10
210.462890625
 20
451.77294921875
 10
214.3310546875
 20
445.38671875
 10
215.16796875
 20
438.08056640625
 10
215.16796875
 20
438.08056640625
 10
210.1181640625
 20
438.08056640625
 10
210.1181640625
 20
438.08056640625
 10
210.1181640625
 20
438.08056640625
 10
210.1181640625
 20
432.1162109375
 10
210.1181640625
 20
432.1162109375
 10
210.1181640625
 20
432.1162109375
 10
215.16796875
 20
432.1162109375
 10
215.16796875
 20
432.1162109375
 10
214.3310546875
 20
424.810546875
 10
210.462890625
 20
418.423828125
 10
204.853515625
 20
414.2509765625
 10
204.853515625
 20
414.2509765625
 10
202.3271484375
 20
418.6240234375
 10
202.3271484375
 20
418.6240234375
 10
202.3271484375
 20
418.6240234375
 10
197.16259765625
 20
415.6376953125
 10
197.16259765625
 20
415.6376953125
 10
197.16259765625
 20
415.6376953125
 10
199.6904296875
 20
411.2646484375
 10
199.6904296875
 20
411.2646484375
 10
196.52734375
 20
409.892578125
 10
193.0400390625
 20
409.126953125
 10
189.3720703125
 20
409.126953125
 10
185.70751953125
 20
409.126953125
 10
182.22216796875
 20
409.892578125
 10
179.0517578125
 20
411.2646484375
 10
179.0517578125
 20
411.2646484375
 10
181.57763671875
 20
415.6376953125
 10
181.57763671875
 20
415.6376953125
 10
181.57763671875
 20
415.6376953125
 10
176.41650390625
 20
418.6201171875
 10
176.41650390625
 20
418.6201171875
 10
176.41650390625
 20
418.6201171875
 10
173.89453125
 20
414.2509765625
 10
173.89453125
 20
414.2509765625
 10
168.283203125
 20
418.419921875
 10
164.4150390625
 20
424.806640625
 10
163.57421875
 20
432.1162109375
 10
163.57421875
 20
432.1162109375
 10
168.6240234375
 20
432.1162109375
 10
168.6240234375
 20
432.1162109375
 10
168.6240234375
 20
432.1162109375
 10
168.6240234375
 20
438.07666015625
 10
168.6240234375
 20
438.07666015625
 10
168.6240234375
 20
438.07666015625
 10
163.57421875
 20
438.07666015625
 10
163.57421875
 20
438.07666015625
 10
164.4111328125
 20
445.38671875
 10
168.283203125
 20
451.77294921875
 10
173.892578125
 20
455.9462890625
 10
173.892578125
 20
455.9462890625
 10
176.41650390625
 20
451.5771484375
 10
176.41650390625
 20
451.5771484375
 10
176.41650390625
 20
451.5771484375
 10
181.58154296875
 20
454.55517578125
 10
181.58154296875
 20
454.55517578125
 10
181.58154296875
 20
454.55517578125
 10
179.0517578125
 20
458.93212890625
 10
179.0517578125
 20
458.93212890625
 10
182.21484375
 20
460.30419921875
 10
185.70751953125
 20
461.06591796875
 10
189.3720703125
 20
461.06591796875
 10
189.3720703125
 20
461.06591796875
 10
189.3720703125
 20
461.06591796875
 10
189.3720703125
 20
461.06591796875
 97
        0
 92
        1
 93
        1
 72
     4
 94
        3
 73
     0
 74
     1
 95
       17
 96
       13
 40
0.0
 40
0.0
 40
0.0
 40
0.0
 40
1.0
 40
1.0
 40
1.0
 40
2.0
 40
2.0
 40
2.0
 40
3.0
 40
3.0
 40
3.0
 40
4.0
 40
4.0
 40
4.0
 40
4.0
 10
355.763671875
 20
460.60205078125
 10
351.677734375
 20
453.00927734375
 10
349.35546875
 20
444.3232421875
 10
349.35546875
 20
435.0986328125
 10
349.35546875
 20
425.87353515625
 10
351.677734375
 20
417.19140625
 10
355.763671875
 20
409.5947265625
 10
355.763671875
 20
409.5947265625
 10
355.763671875
 20
460.60205078125
 10
355.763671875
 20
460.60205078125
 10
355.763671875
 20
460.60205078125
 10
355.763671875
 20
460.60205078125
 10
355.763671875
 20
460.60205078125
 97
        0
 92
        1
 93
        1
 72
     4
 94
        3
 73
     0
 74
     1
 95
       23
 96
       19
 40
0.0
 40
0.0
 40
0.0
 40
0.0
 40
1.0
 40
1.0
 40
1.0
 40
2.0
 40
2.0
 40
2.0
 40
3.0
 40
3.0
 40
3.0
 40
4.0
 40
4.0
 40
4.0
 40
5.0
 40
5.0
 40
5.0
 40
6.0
 40
6.0
 40
6.0
 40
6.0
 10
239.32568359375
 20
466.1513671875
 10
239.32568359375
 20
466.1513671875
 10
303.798828125
 20
466.1513671875
 10
303.798828125
 20
466.1513671875
 10
306.724609375
 20
456.296875
 10
308.3046875
 20
445.88037109375
 10
308.3046875
 20
435.10205078125
 10
308.3046875
 20
424.3203125
 10
306.724609375
 20
413.904296875
 10
303.798828125
 20
404.044921875
 10
303.798828125
 20
404.044921875
 10
239.32568359375
 20
404.044921875
 10
239.32568359375
 20
404.044921875
 10
239.32568359375
 20
404.044921875
 10
239.32568359375
 20
466.1513671875
 10
239.32568359375
 20
466.1513671875
 10
239.32568359375
 20
466.1513671875
 10
239.32568359375
 20
466.1513671875
 10
239.32568359375
 20
466.1513671875
 97
        0
 92
        1
 93
        1
 72
     4
 94
        3
 73
     0
 74
     1
 95
       20
 96
       16
 40
0.0
 40
0.0
 40
0.0
 40
0.0
 40
1.0
 40
1.0
 40
1.0
 40
2.0
 40
2.0
 40
2.0
 40
3.0
 40
3.0
 40
3.0
 40
4.0
 40
4.0
 40
4.0
 40
5.0
 40
5.0
 40
5.0
 40
5.0
 10
406.1455078125
 20
469.7666015625
 10
387.001953125
 20
469.7666015625
 10
371.4775390625
 20
454.2421875
 10
371.4775390625
 20
435.0986328125
 10
371.4775390625
 20
415.955078125
 10
387.001953125
 20
400.4228515625
 10
406.1455078125
 20
400.4228515625
 10
425.2890625
 20
400.4228515625
 10
440.8173828125
 20
415.955078125
 10
440.8173828125
 20
435.0986328125
 10
440.8173828125
 20
454.2421875
 10
425.2890625
 20
469.7666015625
 10
406.1455078125
 20
469.7666015625
 10
406.1455078125
 20
469.7666015625
 10
406.1455078125
 20
469.7666015625
 10
406.1455078125
 20
469.7666015625
 97
        0
 92
        1
 93
        1
 72
     4
 94
        3
 73
     0
 74
     1
 95
       20
 96
       16
 40
0.0
 40
0.0
 40
0.0
 40
0.0
 40
1.0
 40
1.0
 40
1.0
 40
2.0
 40
2.0
 40
2.0
 40
3.0
 40
3.0
 40
3.0
 40
4.0
 40
4.0
 40
4.0
 40
5.0
 40
5.0
 40
5.0
 40
5.0
 10
189.3720703125
 20
469.7666015625
 10
208.517578125
 20
469.7666015625
 10
224.0439453125
 20
454.2421875
 10
224.0439453125
 20
435.0986328125
 10
224.0439453125
 20
415.955078125
 10
208.517578125
 20
400.4228515625
 10
189.3720703125
 20
400.4228515625
 10
170.22998046875
 20
400.4228515625
 10
154.70361328125
 20
415.955078125
 10
154.70361328125
 20
435.0986328125
 10
154.70361328125
 20
454.2421875
 10
170.22998046875
 20
469.7666015625
 10
189.3720703125
 20
469.7666015625
 10
189.3720703125
 20
469.7666015625
 10
189.3720703125
 20
469.7666015625
 10
189.3720703125
 20
469.7666015625
 97
        0
 92
        1
 93
        1
 72
     4
 94
        3
 73
     0
 74
     1
 95
       32
 96
       28
 40
0.0
 40
0.0
 40
0.0
 40
0.0
 40
1.0
 40
1.0
 40
1.0
 40
2.0
 40
2.0
 40
2.0
 40
3.0
 40
3.0
 40
3.0
 40
4.0
 40
4.0
 40
4.0
 40
5.0
 40
5.0
 40
5.0
 40
6.0
 40
6.0
 40
6.0
 40
7.0
 40
7.0
 40
7.0
 40
8.0
 40
8.0
 40
8.0
 40
9.0
 40
9.0
 40
9.0
 40
9.0
 10
98.49755859375
 20
525.7431640625
 10
98.49755859375
 20
525.7431640625
 10
92.31689453125
 20
525.7578125
 10
92.31689453125
 20
525.7578125
 10
88.98046875
 20
514.72705078125
 10
86.8994140625
 20
507.8017578125
 10
84.2958984375
 20
498.701171875
 10
84.2958984375
 20
498.701171875
 10
90.47900390625
 20
498.6748046875
 10
90.47900390625
 20
498.6748046875
 10
90.47900390625
 20
498.6748046875
 10
91.66845703125
 20
502.8330078125
 10
91.66845703125
 20
502.8330078125
 10
91.66845703125
 20
502.8330078125
 10
98.751953125
 20
502.810546875
 10
98.751953125
 20
502.810546875
 10
98.751953125
 20
502.810546875
 10
99.9208984375
 20
498.640625
 10
99.9208984375
 20
498.640625
 10
99.9208984375
 20
498.640625
 10
106.10546875
 20
498.6220703125
 10
106.10546875
 20
498.6220703125
 10
106.10546875
 20
498.6220703125
 10
98.49755859375
 20
525.7431640625
 10
98.49755859375
 20
525.7431640625
 10
98.49755859375
 20
525.7431640625
 10
98.49755859375
 20
525.7431640625
 10
98.49755859375
 20
525.7431640625
 97
        0
 92
        1
 93
        3
 72
     1
 10
95.244140625
 20
515.3193359375
 11
97.07421875
 21
508.78564453125
 72
     1
 10
97.07421875
 20
508.78564453125
 11
93.3740234375
 21
508.796875
 72
     1
 10
93.3740234375
 20
508.796875
 11
95.244140625
 21
515.3193359375
 97
        0
 92
        1
 93
        4
 72
     1
 10
116.58203125
 20
498.8857421875
 11
500.2958984375
 21
498.8857421875
 72
     1
 10
500.2958984375
 20
498.8857421875
 11
500.2958984375
 21
497.509765625
 72
     1
 10
500.2958984375
 20
497.509765625
 11
116.58203125
 21
497.509765625
 72
     1
 10
116.58203125
 20
497.509765625
 11
116.58203125
 21
498.8857421875
 97
        0
 92
        1
 93
        4
 72
     1
 10
116.58203125
 20
519.08154296875
 11
500.2958984375
 21
519.08154296875
 72
     1
 10
500.2958984375
 20
519.08154296875
 11
500.2958984375
 21
517.708984375
 72
     1
 10
500.2958984375
 20
517.708984375
 11
116.58203125
 21
517.708984375
 72
     1
 10
116.58203125
 20
517.708984375
 11
116.58203125
 21
519.08154296875
 97
        0
 92
        1
 93
        1
 72
     4
 94
        3
 73
     0
 74
     1
 95
       32
 96
       28
 40
0.0
 40
0.0
 40
0.0
 40
0.0
 40
1.0
 40
1.0
 40
1.0
 40
2.0
 40
2.0
 40
2.0
 40
3.0
 40
3.0
 40
3.0
 40
4.0
 40
4.0
 40
4.0
 40
5.0
 40
5.0
 40
5.0
 40
6.0
 40
6.0
 40
6.0
 40
7.0
 40
7.0
 40
7.0
 40
8.0
 40
8.0
 40
8.0
 40
9.0
 40
9.0
 40
9.0
 40
9.0
 10
92.705078125
 20
542.51904296875
 10
92.705078125
 20
542.51904296875
 10
502.810546875
 20
542.51904296875
 10
502.810546875
 20
542.51904296875
 10
512.212890625
 20
542.51904296875
 10
519.900390625
 20
534.3837890625
 10
519.900390625
 20
524.48388671875
 10
519.900390625
 20
524.48388671875
 10
519.900390625
 20
371.3525390625
 10
519.900390625
 20
371.3525390625
 10
519.900390625
 20
361.4453125
 10
512.201171875
 20
353.3134765625
 10
502.810546875
 20
353.3134765625
 10
502.810546875
 20
353.3134765625
 10
92.705078125
 20
353.3134765625
 10
92.705078125
 20
353.3134765625
 10
83.31787109375
 20
353.3134765625
 10
75.61376953125
 20
361.4296875
 10
75.61376953125
 20
371.3525390625
 10
75.61376953125
 20
371.3525390625
 10
75.61376953125
 20
524.48388671875
 10
75.61376953125
 20
524.48388671875
 10
75.61376953125
 20
534.40234375
 10
83.3046875
 20
542.51904296875
 10
92.705078125
 20
542.51904296875
 10
92.705078125
 20
542.51904296875
 10
92.705078125
 20
542.51904296875
 10
92.705078125
 20
542.51904296875
 97
        0
 92
        1
 93
        1
 72
     4
 94
        3
 73
     0
 74
     1
 95
       32
 96
       28
 40
0.0
 40
0.0
 40
0.0
 40
0.0
 40
1.0
 40
1.0
 40
1.0
 40
2.0
 40
2.0
 40
2.0
 40
3.0
 40
3.0
 40
3.0
 40
4.0
 40
4.0
 40
4.0
 40
5.0
 40
5.0
 40
5.0
 40
6.0
 40
6.0
 40
6.0
 40
7.0
 40
7.0
 40
7.0
 40
8.0
 40
8.0
 40
8.0
 40
9.0
 40
9.0
 40
9.0
 40
9.0
 10
146.89208984375
 20
481.7705078125
 10
146.89208984375
 20
481.7705078125
 10
448.625
 20
481.7705078125
 10
448.625
 20
481.7705078125
 10
453.5751953125
 20
481.7705078125
 10
457.6201171875
 20
477.4912109375
 10
457.6201171875
 20
472.27392578125
 10
457.6201171875
 20
472.27392578125
 10
457.6201171875
 20
397.9189453125
 10
457.6201171875
 20
397.9189453125
 10
457.6201171875
 20
392.6982421875
 10
453.5712890625
 20
388.4267578125
 10
448.625
 20
388.4267578125
 10
448.625
 20
388.4267578125
 10
146.89208984375
 20
388.4267578125
 10
146.89208984375
 20
388.4267578125
 10
141.9462890625
 20
388.4267578125
 10
137.8974609375
 20
392.6982421875
 10
137.8974609375
 20
397.9189453125
 10
137.8974609375
 20
397.9189453125
 10
137.8974609375
 20
472.27392578125
 10
137.8974609375
 20
472.27392578125
 10
137.8974609375
 20
477.4990234375
 10
141.9423828125
 20
481.7705078125
 10
146.89208984375
 20
481.7705078125
 10
146.89208984375
 20
481.7705078125
 10
146.89208984375
 20
481.7705078125
 10
146.89208984375
 20
481.7705078125
 97
        0
 92
        1
 93
        1
 72
     4
 94
        3
 73
     0
 74
     1
 95
       20
 96
       16
 40
0.0
 40
0.0
 40
0.0
 40
0.0
 40
1.0
 40
1.0
 40
1.0
 40
2.0
 40
2.0
 40
2.0
 40
3.0
 40
3.0
 40
3.0
 40
4.0
 40
4.0
 40
4.0
 40
5.0
 40
5.0
 40
5.0
 40
5.0
 10
305.8203125
 20
309.3896484375
 10
310.9580078125
 20
312.80859375
 10
312.357421875
 20
319.7421875
 10
308.94140625
 20
324.880859375
 10
305.525390625
 20
330.0185546875
 10
298.5888671875
 20
331.4140625
 10
293.45068359375
 20
328.001953125
 10
288.30859375
 20
324.5859375
 10
286.91357421875
 20
317.6494140625
 10
290.3310546875
 20
312.51171875
 10
293.75048828125
 20
307.373046875
 10
300.677734375
 20
305.9814453125
 10
305.8203125
 20
309.3896484375
 10
305.8203125
 20
309.3896484375
 10
305.8203125
 20
309.3896484375
 10
305.8203125
 20
309.3896484375
 97
        0
 92
        1
 93
        1
 72
     4
 94
        3
 73
     0
 74
     1
 95
       20
 96
       16
 40
0.0
 40
0.0
 40
0.0
 40
0.0
 40
1.0
 40
1.0
 40
1.0
 40
2.0
 40
2.0
 40
2.0
 40
3.0
 40
3.0
 40
3.0
 40
4.0
 40
4.0
 40
4.0
 40
5.0
 40
5.0
 40
5.0
 40
5.0
 10
66.453125
 20
563.083984375
 10
71.41064453125
 20
561.7421875
 10
74.3359375
 20
556.6298828125
 10
72.990234375
 20
551.68017578125
 10
71.642578125
 20
546.7265625
 10
66.5302734375
 20
543.80078125
 10
61.57666015625
 20
545.14697265625
 10
56.62646484375
 20
546.49658203125
 10
53.705078125
 20
551.60107421875
 10
55.048828125
 20
556.5546875
 10
56.39306640625
 20
561.5048828125
 10
61.5009765625
 20
564.43359375
 10
66.453125
 20
563.083984375
 10
66.453125
 20
563.083984375
 10
66.453125
 20
563.083984375
 10
66.453125
 20
563.083984375
 97
        0
 92
        1
 93
        1
 72
     4
 94
        3
 73
     0
 74
     1
 95
       56
 96
       52
 40
0.0
 40
0.0
 40
0.0
 40
0.0
 40
1.0
 40
1.0
 40
1.0
 40
2.0
 40
2.0
 40
2.0
 40
3.0
 40
3.0
 40
3.0
 40
4.0
 40
4.0
 40
4.0
 40
5.0
 40
5.0
 40
5.0
 40
6.0
 40
6.0
 40
6.0
 40
7.0
 40
7.0
 40
7.0
 40
8.0
 40
8.0
 40
8.0
 40
9.0
 40
9.0
 40
9.0
 40
10.0
 40
10.0
 40
10.0
 40
11.0
 40
11.0
 40
11.0
 40
12.0
 40
12.0
 40
12.0
 40
13.0
 40
13.0
 40
13.0
 40
14.0
 40
14.0
 40
14.0
 40
15.0
 40
15.0
 40
15.0
 40
16.0
 40
16.0
 40
16.0
 40
17.0
 40
17.0
 40
17.0
 40
17.0
 10
67.19189453125
 20
560.826171875
 10
67.19189453125
 20
560.826171875
 10
66.333984375
 20
555.4462890625
 10
66.333984375
 20
555.4462890625
 10
66.333984375
 20
555.4462890625
 10
71.41064453125
 20
553.46337890625
 10
71.41064453125
 20
553.46337890625
 10
71.369140625
 20
553.03369140625
 10
71.29345703125
 20
552.60009765625
 10
71.1767578125
 20
552.17041015625
 10
71.0615234375
 20
551.740234375
 10
70.9052734375
 20
551.32958984375
 10
70.72265625
 20
550.94140625
 10
70.72265625
 20
550.94140625
 10
65.3427734375
 20
551.80078125
 10
65.3427734375
 20
551.80078125
 10
65.3427734375
 20
551.80078125
 10
63.36328125
 20
546.7265625
 10
63.36328125
 20
546.7265625
 10
62.93359375
 20
546.76806640625
 10
62.501953125
 20
546.83935546875
 10
62.0703125
 20
546.95263671875
 10
61.640625
 20
547.0732421875
 10
61.2333984375
 20
547.22412109375
 10
60.84326171875
 20
547.40869140625
 10
60.84326171875
 20
547.40869140625
 10
61.701171875
 20
552.78857421875
 10
61.701171875
 20
552.78857421875
 10
61.701171875
 20
552.78857421875
 10
56.63037109375
 20
554.775390625
 10
56.63037109375
 20
554.775390625
 10
56.666015625
 20
555.201171875
 10
56.73974609375
 20
555.630859375
 10
56.8544921875
 20
556.064453125
 10
56.9716796875
 20
556.49072265625
 10
57.1259765625
 20
556.9013671875
 10
57.30908203125
 20
557.2900390625
 10
57.30908203125
 20
557.2900390625
 10
62.6923828125
 20
556.43408203125
 10
62.6923828125
 20
556.43408203125
 10
62.6923828125
 20
556.43408203125
 10
64.673828125
 20
561.51220703125
 10
64.673828125
 20
561.51220703125
 10
65.10693359375
 20
561.474609375
 10
65.533203125
 20
561.3955078125
 10
65.9609375
 20
561.2744140625
 10
66.392578125
 20
561.16162109375
 10
66.8017578125
 20
561.0068359375
 10
67.19189453125
 20
560.826171875
 10
67.19189453125
 20
560.826171875
 10
67.19189453125
 20
560.826171875
 10
67.19189453125
 20
560.826171875
 97
        0
 92
        1
 93
        1
 72
     4
 94
        3
 73
     0
 74
     1
 95
       20
 96
       16
 40
0.0
 40
0.0
 40
0.0
 40
0.0
 40
1.0
 40
1.0
 40
1.0
 40
2.0
 40
2.0
 40
2.0
 40
3.0
 40
3.0
 40
3.0
 40
4.0
 40
4.0
 40
4.0
 40
5.0
 40
5.0
 40
5.0
 40
5.0
 10
538.515625
 20
560.21533203125
 10
535.1455078125
 20
564.0908203125
 10
529.271484375
 20
564.501953125
 10
525.404296875
 20
561.13134765625
 10
521.5283203125
 20
557.76123046875
 10
521.12109375
 20
551.8876953125
 10
524.48828125
 20
548.015625
 10
527.8583984375
 20
544.14404296875
 10
533.728515625
 20
543.73681640625
 10
537.603515625
 20
547.103515625
 10
541.478515625
 20
550.4697265625
 10
541.88671875
 20
556.34375
 10
538.515625
 20
560.21533203125
 10
538.515625
 20
560.21533203125
 10
538.515625
 20
560.21533203125
 10
538.515625
 20
560.21533203125
 97
        0
 92
        1
 93
        1
 72
     4
 94
        3
 73
     0
 74
     1
 95
       56
 96
       52
 40
0.0
 40
0.0
 40
0.0
 40
0.0
 40
1.0
 40
1.0
 40
1.0
 40
2.0
 40
2.0
 40
2.0
 40
3.0
 40
3.0
 40
3.0
 40
4.0
 40
4.0
 40
4.0
 40
5.0
 40
5.0
 40
5.0
 40
6.0
 40
6.0
 40
6.0
 40
7.0
 40
7.0
 40
7.0
 40
8.0
 40
8.0
 40
8.0
 40
9.0
 40
9.0
 40
9.0
 40
10.0
 40
10.0
 40
10.0
 40
11.0
 40
11.0
 40
11.0
 40
12.0
 40
12.0
 40
12.0
 40
13.0
 40
13.0
 40
13.0
 40
14.0
 40
14.0
 40
14.0
 40
15.0
 40
15.0
 40
15.0
 40
16.0
 40
16.0
 40
16.0
 40
17.0
 40
17.0
 40
17.0
 40
17.0
 10
536.16015625
 20
559.8984375
 10
536.16015625
 20
559.8984375
 10
531.6923828125
 20
556.78076171875
 10
531.6923828125
 20
556.78076171875
 10
531.6923828125
 20
556.78076171875
 10
527.6923828125
 20
560.48291015625
 10
527.6923828125
 20
560.48291015625
 10
527.3232421875
 20
560.26416015625
 10
526.96484375
 20
560.0078125
 10
526.6328125
 20
559.7177734375
 10
526.2939453125
 20
559.42724609375
 10
525.9921875
 20
559.10302734375
 10
525.724609375
 20
558.767578125
 10
525.724609375
 20
558.767578125
 10
528.837890625
 20
554.30419921875
 10
528.837890625
 20
554.30419921875
 10
528.837890625
 20
554.30419921875
 10
525.13671875
 20
550.3115234375
 10
525.13671875
 20
550.3115234375
 10
525.3583984375
 20
549.9423828125
 10
525.607421875
 20
549.580078125
 10
525.9013671875
 20
549.24853515625
 10
526.1953125
 20
548.9091796875
 10
526.5126953125
 20
548.607421875
 10
526.84765625
 20
548.3359375
 10
526.84765625
 20
548.3359375
 10
531.3154296875
 20
551.4541015625
 10
531.3154296875
 20
551.4541015625
 10
531.3154296875
 20
551.4541015625
 10
535.3115234375
 20
547.751953125
 10
535.3115234375
 20
547.751953125
 10
535.6806640625
 20
547.970703125
 10
536.03515625
 20
548.22705078125
 10
536.375
 20
548.51708984375
 10
536.7099609375
 20
548.8076171875
 10
537.01171875
 20
549.1279296875
 10
537.283203125
 20
549.46337890625
 10
537.283203125
 20
549.46337890625
 10
534.1650390625
 20
553.9306640625
 10
534.1650390625
 20
553.9306640625
 10
534.1650390625
 20
553.9306640625
 10
537.875
 20
557.9306640625
 10
537.875
 20
557.9306640625
 10
537.6484375
 20
558.29638671875
 10
537.396484375
 20
558.65087890625
 10
537.1025390625
 20
558.986328125
 10
536.8115234375
 20
559.32568359375
 10
536.4912109375
 20
559.626953125
 10
536.16015625
 20
559.8984375
 10
536.16015625
 20
559.8984375
 10
536.16015625
 20
559.8984375
 10
536.16015625
 20
559.8984375
 97
        0
 92
        1
 93
        1
 72
     4
 94
        3
 73
     0
 74
     1
 95
       20
 96
       16
 40
0.0
 40
0.0
 40
0.0
 40
0.0
 40
1.0
 40
1.0
 40
1.0
 40
2.0
 40
2.0
 40
2.0
 40
3.0
 40
3.0
 40
3.0
 40
4.0
 40
4.0
 40
4.0
 40
5.0
 40
5.0
 40
5.0
 40
5.0
 10
533.939453125
 20
281.7412109375
 10
528.9814453125
 20
280.39453125
 10
523.873046875
 20
283.3203125
 10
522.52734375
 20
288.2783203125
 10
521.185546875
 20
293.2314453125
 10
524.111328125
 20
298.3359375
 10
529.068359375
 20
299.685546875
 10
534.0185546875
 20
301.0283203125
 10
539.130859375
 20
298.1025390625
 10
540.46875
 20
293.1484375
 10
541.818359375
 20
288.1953125
 10
538.888671875
 20
283.0869140625
 10
533.939453125
 20
281.7412109375
 10
533.939453125
 20
281.7412109375
 10
533.939453125
 20
281.7412109375
 10
533.939453125
 20
281.7412109375
 97
        0
 92
        1
 93
        1
 72
     4
 94
        3
 73
     0
 74
     1
 95
       56
 96
       52
 40
0.0
 40
0.0
 40
0.0
 40
0.0
 40
1.0
 40
1.0
 40
1.0
 40
2.0
 40
2.0
 40
2.0
 40
3.0
 40
3.0
 40
3.0
 40
4.0
 40
4.0
 40
4.0
 40
5.0
 40
5.0
 40
5.0
 40
6.0
 40
6.0
 40
6.0
 40
7.0
 40
7.0
 40
7.0
 40
8.0
 40
8.0
 40
8.0
 40
9.0
 40
9.0
 40
9.0
 40
10.0
 40
10.0
 40
10.0
 40
11.0
 40
11.0
 40
11.0
 40
12.0
 40
12.0
 40
12.0
 40
13.0
 40
13.0
 40
13.0
 40
14.0
 40
14.0
 40
14.0
 40
15.0
 40
15.0
 40
15.0
 40
16.0
 40
16.0
 40
16.0
 40
17.0
 40
17.0
 40
17.0
 40
17.0
 10
532.16015625
 20
283.31640625
 10
532.16015625
 20
283.31640625
 10
530.1767578125
 20
288.39453125
 10
530.1767578125
 20
288.39453125
 10
530.1767578125
 20
288.39453125
 10
524.79296875
 20
287.5390625
 10
524.79296875
 20
287.5390625
 10
524.6123046875
 20
287.927734375
 10
524.4541015625
 20
288.337890625
 10
524.3408203125
 20
288.767578125
 10
524.2275390625
 20
289.1982421875
 10
524.15234375
 20
289.6279296875
 10
524.111328125
 20
290.0576171875
 10
524.111328125
 20
290.0576171875
 10
529.181640625
 20
292.0400390625
 10
529.181640625
 20
292.0400390625
 10
529.181640625
 20
292.0400390625
 10
528.3291015625
 20
297.416015625
 10
528.3291015625
 20
297.416015625
 10
528.7177734375
 20
297.6015625
 10
529.12890625
 20
297.751953125
 10
529.5546875
 20
297.873046875
 10
529.98828125
 20
297.9892578125
 10
530.41796875
 20
298.064453125
 10
530.84765625
 20
298.1025390625
 10
530.84765625
 20
298.1025390625
 10
532.8310546875
 20
293.0283203125
 10
532.8310546875
 20
293.0283203125
 10
532.8310546875
 20
293.0283203125
 10
538.20703125
 20
293.8876953125
 10
538.20703125
 20
293.8876953125
 10
538.3916015625
 20
293.49609375
 10
538.5458984375
 20
293.0888671875
 10
538.6669921875
 20
292.658203125
 10
538.779296875
 20
292.228515625
 10
538.85546875
 20
291.794921875
 10
538.888671875
 20
291.365234375
 10
538.888671875
 20
291.365234375
 10
533.818359375
 20
289.38671875
 10
533.818359375
 20
289.38671875
 10
533.818359375
 20
289.38671875
 10
534.673828125
 20
284.0029296875
 10
534.673828125
 20
284.0029296875
 10
534.2822265625
 20
283.814453125
 10
533.875
 20
283.6669921875
 10
533.4453125
 20
283.5546875
 10
533.015625
 20
283.4375
 10
532.58984375
 20
283.3544921875
 10
532.16015625
 20
283.31640625
 10
532.16015625
 20
283.31640625
 10
532.16015625
 20
283.31640625
 10
532.16015625
 20
283.31640625
 97
        0
 92
        1
 93
        1
 72
     4
 94
        3
 73
     0
 74
     1
 95
       20
 96
       16
 40
0.0
 40
0.0
 40
0.0
 40
0.0
 40
1.0
 40
1.0
 40
1.0
 40
2.0
 40
2.0
 40
2.0
 40
3.0
 40
3.0
 40
3.0
 40
4.0
 40
4.0
 40
4.0
 40
5.0
 40
5.0
 40
5.0
 40
5.0
 10
61.08447265625
 20
281.8916015625
 10
65.95166015625
 20
280.2705078125
 10
71.21630859375
 20
282.90625
 10
72.83349609375
 20
287.7763671875
 10
74.45849609375
 20
292.6474609375
 10
71.8232421875
 20
297.9140625
 10
66.95458984375
 20
299.53125
 10
62.080078125
 20
301.15234375
 10
56.81884765625
 20
298.517578125
 10
55.19775390625
 20
293.646484375
 10
53.57470703125
 20
288.779296875
 10
56.2119140625
 20
283.5126953125
 10
61.08447265625
 20
281.8916015625
 10
61.08447265625
 20
281.8916015625
 10
61.08447265625
 20
281.8916015625
 10
61.08447265625
 20
281.8916015625
 97
        0
 92
        1
 93
        1
 72
     4
 94
        3
 73
     0
 74
     1
 95
       56
 96
       52
 40
0.0
 40
0.0
 40
0.0
 40
0.0
 40
1.0
 40
1.0
 40
1.0
 40
2.0
 40
2.0
 40
2.0
 40
3.0
 40
3.0
 40
3.0
 40
4.0
 40
4.0
 40
4.0
 40
5.0
 40
5.0
 40
5.0
 40
6.0
 40
6.0
 40
6.0
 40
7.0
 40
7.0
 40
7.0
 40
8.0
 40
8.0
 40
8.0
 40
9.0
 40
9.0
 40
9.0
 40
10.0
 40
10.0
 40
10.0
 40
11.0
 40
11.0
 40
11.0
 40
12.0
 40
12.0
 40
12.0
 40
13.0
 40
13.0
 40
13.0
 40
14.0
 40
14.0
 40
14.0
 40
15.0
 40
15.0
 40
15.0
 40
16.0
 40
16.0
 40
16.0
 40
17.0
 40
17.0
 40
17.0
 40
17.0
 10
62.95068359375
 20
283.369140625
 10
62.95068359375
 20
283.369140625
 10
65.21484375
 20
288.3232421875
 10
65.21484375
 20
288.3232421875
 10
65.21484375
 20
288.3232421875
 10
70.53564453125
 20
287.166015625
 10
70.53564453125
 20
287.166015625
 10
70.7392578125
 20
287.54296875
 10
70.92041015625
 20
287.9501953125
 10
71.06005859375
 20
288.3681640625
 10
71.19921875
 20
288.794921875
 10
71.29345703125
 20
289.220703125
 10
71.359375
 20
289.642578125
 10
71.359375
 20
289.642578125
 10
66.40576171875
 20
291.912109375
 10
66.40576171875
 20
291.912109375
 10
66.40576171875
 20
291.912109375
 10
67.5615234375
 20
297.2314453125
 10
67.5615234375
 20
297.2314453125
 10
67.1845703125
 20
297.435546875
 10
66.78271484375
 20
297.6123046875
 10
66.36083984375
 20
297.751953125
 10
65.9384765625
 20
297.8955078125
 10
65.51220703125
 20
297.9931640625
 10
65.08837890625
 20
298.0537109375
 10
65.08837890625
 20
298.0537109375
 10
62.82080078125
 20
293.099609375
 10
62.82080078125
 20
293.099609375
 10
62.82080078125
 20
293.099609375
 10
57.50146484375
 20
294.25390625
 10
57.50146484375
 20
294.25390625
 10
57.2958984375
 20
293.8759765625
 10
57.11669921875
 20
293.4765625
 10
56.97705078125
 20
293.0546875
 10
56.8359375
 20
292.6357421875
 10
56.73583984375
 20
292.2060546875
 10
56.671875
 20
291.7802734375
 10
56.671875
 20
291.7802734375
 10
61.63134765625
 20
289.5146484375
 10
61.63134765625
 20
289.5146484375
 10
61.63134765625
 20
289.5146484375
 10
60.47216796875
 20
284.19140625
 10
60.47216796875
 20
284.19140625
 10
60.85107421875
 20
283.984375
 10
61.25244140625
 20
283.814453125
 10
61.6767578125
 20
283.6708984375
 10
62.0947265625
 20
283.53125
 10
62.52099609375
 20
283.4296875
 10
62.95068359375
 20
283.369140625
 10
62.95068359375
 20
283.369140625
 10
62.95068359375
 20
283.369140625
 10
62.95068359375
 20
283.369140625
 97
        0
 92
        1
 93
        1
 72
     4
 94
        3
 73
     0
 74
     1
 95
       56
 96
       52
 40
0.0
 40
0.0
 40
0.0
 40
0.0
 40
1.0
 40
1.0
 40
1.0
 40
2.0
 40
2.0
 40
2.0
 40
3.0
 40
3.0
 40
3.0
 40
4.0
 40
4.0
 40
4.0
 40
5.0
 40
5.0
 40
5.0
 40
6.0
 40
6.0
 40
6.0
 40
7.0
 40
7.0
 40
7.0
 40
8.0
 40
8.0
 40
8.0
 40
9.0
 40
9.0
 40
9.0
 40
10.0
 40
10.0
 40
10.0
 40
11.0
 40
11.0
 40
11.0
 40
12.0
 40
12.0
 40
12.0
 40
13.0
 40
13.0
 40
13.0
 40
14.0
 40
14.0
 40
14.0
 40
15.0
 40
15.0
 40
15.0
 40
16.0
 40
16.0
 40
16.0
 40
17.0
 40
17.0
 40
17.0
 40
17.0
 10
305.8046875
 20
312.2509765625
 10
305.8046875
 20
312.2509765625
 10
302.78125
 20
318.060546875
 10
302.78125
 20
318.060546875
 10
302.78125
 20
318.060546875
 10
307.810546875
 20
322.2490234375
 10
307.810546875
 20
322.2490234375
 10
307.6064453125
 20
322.720703125
 10
307.3583984375
 20
323.19140625
 10
307.064453125
 20
323.63671875
 10
306.765625
 20
324.0771484375
 10
306.4384765625
 20
324.48828125
 10
306.076171875
 20
324.861328125
 10
306.076171875
 20
324.861328125
 10
300.2666015625
 20
321.841796875
 10
300.2666015625
 20
321.841796875
 10
300.2666015625
 20
321.841796875
 10
296.0859375
 20
326.875
 10
296.0859375
 20
326.875
 10
295.60693359375
 20
326.6669921875
 10
295.1435546875
 20
326.41796875
 10
294.69677734375
 20
326.1279296875
 10
294.25390625
 20
325.826171875
 10
293.8427734375
 20
325.4951171875
 10
293.4697265625
 20
325.13671875
 10
293.4697265625
 20
325.13671875
 10
296.4892578125
 20
319.3271484375
 10
296.4892578125
 20
319.3271484375
 10
296.4892578125
 20
319.3271484375
 10
291.45654296875
 20
315.142578125
 10
291.45654296875
 20
315.142578125
 10
291.66552734375
 20
314.671875
 10
291.91064453125
 20
314.2041015625
 10
292.20654296875
 20
313.7587890625
 10
292.50244140625
 20
313.314453125
 10
292.8359375
 20
312.9033203125
 10
293.1884765625
 20
312.5341796875
 10
293.1884765625
 20
312.5341796875
 10
299.00390625
 20
315.5537109375
 10
299.00390625
 20
315.5537109375
 10
299.00390625
 20
315.5537109375
 10
303.1923828125
 20
310.5166015625
 10
303.1923828125
 20
310.5166015625
 10
303.6630859375
 20
310.720703125
 10
304.123046875
 20
310.96875
 10
304.572265625
 20
311.267578125
 10
305.0205078125
 20
311.564453125
 10
305.427734375
 20
311.892578125
 10
305.8046875
 20
312.2509765625
 10
305.8046875
 20
312.2509765625
 10
305.8046875
 20
312.2509765625
 10
305.8046875
 20
312.2509765625
 97
        0
 92
        1
 93
        1
 72
     4
 94
        3
 73
     0
 74
     1
 95
       32
 96
       28
 40
0.0
 40
0.0
 40
0.0
 40
0.0
 40
1.0
 40
1.0
 40
1.0
 40
2.0
 40
2.0
 40
2.0
 40
3.0
 40
3.0
 40
3.0
 40
4.0
 40
4.0
 40
4.0
 40
5.0
 40
5.0
 40
5.0
 40
6.0
 40
6.0
 40
6.0
 40
7.0
 40
7.0
 40
7.0
 40
8.0
 40
8.0
 40
8.0
 40
9.0
 40
9.0
 40
9.0
 40
9.0
 10
64.83935546875
 20
570.37890625
 10
64.83935546875
 20
570.37890625
 10
530.677734375
 20
570.37890625
 10
530.677734375
 20
570.37890625
 10
540.076171875
 20
570.37890625
 10
547.759765625
 20
562.26220703125
 10
547.759765625
 20
552.34375
 10
547.759765625
 20
552.34375
 10
547.759765625
 20
287.7763671875
 10
547.759765625
 20
287.7763671875
 10
547.759765625
 20
277.861328125
 10
540.076171875
 20
269.7451171875
 10
530.677734375
 20
269.7451171875
 10
375.3984375
 20
269.7451171875
 10
220.11767578125
 20
269.7451171875
 10
64.83935546875
 20
269.7451171875
 10
55.44287109375
 20
269.7451171875
 10
47.759765625
 20
277.861328125
 10
47.759765625
 20
287.7763671875
 10
47.759765625
 20
287.7763671875
 10
47.759765625
 20
552.34375
 10
47.759765625
 20
552.34375
 10
47.759765625
 20
562.26220703125
 10
55.44287109375
 20
570.37890625
 10
64.83935546875
 20
570.37890625
 10
64.83935546875
 20
570.37890625
 10
64.83935546875
 20
570.37890625
 10
64.83935546875
 20
570.37890625
 97
        0
 92
        1
 93
        1
 72
     4
 94
        3
 73
     0
 74
     1
 95
       32
 96
       28
 40
0.0
 40
0.0
 40
0.0
 40
0.0
 40
1.0
 40
1.0
 40
1.0
 40
2.0
 40
2.0
 40
2.0
 40
3.0
 40
3.0
 40
3.0
 40
4.0
 40
4.0
 40
4.0
 40
5.0
 40
5.0
 40
5.0
 40
6.0
 40
6.0
 40
6.0
 40
7.0
 40
7.0
 40
7.0
 40
8.0
 40
8.0
 40
8.0
 40
9.0
 40
9.0
 40
9.0
 40
9.0
 10
365.7998046875
 20
300.7900390625
 10
365.7998046875
 20
300.7900390625
 10
372.9169921875
 20
300.7900390625
 10
372.9169921875
 20
300.7900390625
 10
375.857421875
 20
300.7900390625
 10
378.259765625
 20
298.388671875
 10
378.259765625
 20
295.4521484375
 10
378.259765625
 20
295.4521484375
 10
378.259765625
 20
288.3349609375
 10
378.259765625
 20
288.3349609375
 10
378.259765625
 20
285.3974609375
 10
375.857421875
 20
282.9921875
 10
372.9169921875
 20
282.9921875
 10
372.9169921875
 20
282.9921875
 10
365.7998046875
 20
282.9921875
 10
365.7998046875
 20
282.9921875
 10
362.859375
 20
282.9921875
 10
360.4609375
 20
285.3974609375
 10
360.4609375
 20
288.3349609375
 10
360.4609375
 20
288.3349609375
 10
360.4609375
 20
295.4560546875
 10
360.4609375
 20
295.4560546875
 10
360.4609375
 20
298.388671875
 10
362.859375
 20
300.7900390625
 10
365.7998046875
 20
300.7900390625
 10
365.7998046875
 20
300.7900390625
 10
365.7998046875
 20
300.7900390625
 10
365.7998046875
 20
300.7900390625
 97
        0
 92
        1
 93
        1
 72
     4
 94
        3
 73
     0
 74
     1
 95
       20
 96
       16
 40
0.0
 40
0.0
 40
0.0
 40
0.0
 40
1.0
 40
1.0
 40
1.0
 40
2.0
 40
2.0
 40
2.0
 40
3.0
 40
3.0
 40
3.0
 40
4.0
 40
4.0
 40
4.0
 40
5.0
 40
5.0
 40
5.0
 40
5.0
 10
422.552734375
 20
276.8173828125
 10
428.146484375
 20
274.955078125
 10
434.1904296875
 20
277.982421875
 10
436.056640625
 20
283.5771484375
 10
437.9189453125
 20
289.171875
 10
434.8876953125
 20
295.21875
 10
429.296875
 20
297.0771484375
 10
423.6982421875
 20
298.935546875
 10
417.6552734375
 20
295.908203125
 10
415.796875
 20
290.3173828125
 10
413.9345703125
 20
284.72265625
 10
416.9619140625
 20
278.6796875
 10
422.552734375
 20
276.8173828125
 10
422.552734375
 20
276.8173828125
 10
422.552734375
 20
276.8173828125
 10
422.552734375
 20
276.8173828125
 97
        0
 92
        1
 93
        1
 72
     4
 94
        3
 73
     0
 74
     1
 95
       32
 96
       28
 40
0.0
 40
0.0
 40
0.0
 40
0.0
 40
1.0
 40
1.0
 40
1.0
 40
2.0
 40
2.0
 40
2.0
 40
3.0
 40
3.0
 40
3.0
 40
4.0
 40
4.0
 40
4.0
 40
5.0
 40
5.0
 40
5.0
 40
6.0
 40
6.0
 40
6.0
 40
7.0
 40
7.0
 40
7.0
 40
8.0
 40
8.0
 40
8.0
 40
9.0
 40
9.0
 40
9.0
 40
9.0
 10
222.5986328125
 20
300.7900390625
 10
222.5986328125
 20
300.7900390625
 10
229.7197265625
 20
300.7900390625
 10
229.7197265625
 20
300.7900390625
 10
232.658203125
 20
300.7900390625
 10
235.05810546875
 20
298.388671875
 10
235.05810546875
 20
295.4521484375
 10
235.05810546875
 20
295.4521484375
 10
235.05810546875
 20
288.3349609375
 10
235.05810546875
 20
288.3349609375
 10
235.05810546875
 20
285.3974609375
 10
232.658203125
 20
282.9921875
 10
229.7197265625
 20
282.9921875
 10
229.7197265625
 20
282.9921875
 10
222.5986328125
 20
282.9921875
 10
222.5986328125
 20
282.9921875
 10
219.66162109375
 20
282.9921875
 10
217.25830078125
 20
285.3974609375
 10
217.25830078125
 20
288.3349609375
 10
217.25830078125
 20
288.3349609375
 10
217.25830078125
 20
295.4560546875
 10
217.25830078125
 20
295.4560546875
 10
217.25830078125
 20
298.388671875
 10
219.66162109375
 20
300.7900390625
 10
222.5986328125
 20
300.7900390625
 10
222.5986328125
 20
300.7900390625
 10
222.5986328125
 20
300.7900390625
 10
222.5986328125
 20
300.7900390625
 97
        0
 92
        1
 93
        1
 72
     4
 94
        3
 73
     0
 74
     1
 95
       20
 96
       16
 40
0.0
 40
0.0
 40
0.0
 40
0.0
 40
1.0
 40
1.0
 40
1.0
 40
2.0
 40
2.0
 40
2.0
 40
3.0
 40
3.0
 40
3.0
 40
4.0
 40
4.0
 40
4.0
 40
5.0
 40
5.0
 40
5.0
 40
5.0
 10
166.21875
 20
276.8173828125
 10
171.8154296875
 20
274.955078125
 10
177.8623046875
 20
277.982421875
 10
179.720703125
 20
283.5771484375
 10
181.58154296875
 20
289.171875
 10
178.55615234375
 20
295.21875
 10
172.96337890625
 20
297.0771484375
 10
167.36865234375
 20
298.935546875
 10
161.32568359375
 20
295.908203125
 10
159.45947265625
 20
290.3173828125
 10
157.6005859375
 20
284.72265625
 10
160.6279296875
 20
278.6796875
 10
166.21875
 20
276.8173828125
 10
166.21875
 20
276.8173828125
 10
166.21875
 20
276.8173828125
 10
166.21875
 20
276.8173828125
 97
        0
 92
        1
 93
        7
 72
     1
 10
472.4208984375
 20
273.0703125
 11
452.64453125
 21
346.8896484375
 72
     1
 10
452.64453125
 20
346.8896484375
 11
142.87548828125
 21
346.8896484375
 72
     1
 10
142.87548828125
 20
346.8896484375
 11
123.0947265625
 21
273.0703125
 72
     1
 10
123.0947265625
 20
273.0703125
 11
145.70458984375
 21
343.2021484375
 72
     1
 10
145.70458984375
 20
343.2021484375
 11
449.8125
 21
343.2021484375
 72
     1
 10
449.8125
 20
343.2021484375
 11
468.6064453125
 21
273.0703125
 72
     1
 10
468.6064453125
 20
273.0703125
 11
472.4208984375
 21
273.0703125
 97
        0
 75
     0
 76
     1
 98
        0
  0
ENDBLK
  5
3F
330
3C
100
AcDbEntity
  8
0
100
AcDbBlockEnd
  0
ENDSEC
  0
SECTION
  2
ENTITIES
  0
INSERT
  5
3D
330
1F
100
AcDbEntity
  8
Layer 1
100
AcDbBlockReference
  2
block 2
 10
0.0
 20
0.0
 30
0.0
  0
ENDSEC
  0
SECTION
  2
OBJECTS
  0
DICTIONARY
  5
C
330
0
100
AcDbDictionary
281
     1
  3
ACAD_GROUP
350
D
  3
ACAD_LAYOUT
350
1A
  3
ACAD_MLINESTYLE
350
17
  3
ACAD_PLOTSETTINGS
350
19
  3
ACAD_PLOTSTYLENAME
350
E
  3
ACAD_TABLESTYLE
350
7E
  3
ACAD_VISUALSTYLE
350
2A
  0
DICTIONARY
  5
D
102
{ACAD_REACTORS
330
C
102
}
330
C
100
AcDbDictionary
281
     1
  0
DICTIONARY
  5
1A
102
{ACAD_REACTORS
330
C
102
}
330
C
100
AcDbDictionary
281
     1
  3
Layout1
350
1E
  3
Layout2
350
26
  3
Model
350
22
  0
DICTIONARY
  5
17
102
{ACAD_REACTORS
330
C
102
}
330
C
100
AcDbDictionary
281
     1
  3
Standard
350
18
  0
DICTIONARY
  5
19
102
{ACAD_REACTORS
330
C
102
}
330
C
100
AcDbDictionary
281
     1
  0
ACDBDICTIONARYWDFLT
  5
E
102
{ACAD_REACTORS
330
C
102
}
330
C
100
AcDbDictionary
281
     1
  3
Normal
350
F
100
AcDbDictionaryWithDefault
340
F
  0
DICTIONARY
  5
7E
102
{ACAD_REACTORS
330
C
102
}
330
C
100
AcDbDictionary
281
     1
  0
DICTIONARY
  5
2A
102
{ACAD_REACTORS
330
C
102
}
330
C
100
AcDbDictionary
281
     1
  3
2dWireframe
350
2F
  3
3D Hidden
350
31
  3
3dWireframe
350
30
  3
Basic
350
32
  3
Brighten
350
36
  3
ColorChange
350
3A
  3
Conceptual
350
34
  3
Dim
350
35
  3
Facepattern
350
39
  3
Flat
350
2B
  3
FlatWithEdges
350
2C
  3
Gouraud
350
2D
  3
GouraudWithEdges
350
2E
  3
Linepattern
350
38
  3
Realistic
350
33
  3
Thicken
350
37
  0
LAYOUT
  5
1E
102
{ACAD_REACTORS
330
1A
102
}
330
1A
100
AcDbPlotSettings
  1

  2
none_device
  4

  6

 40
0.0
 41
0.0
 42
0.0
 43
0.0
 44
0.0
 45
0.0
 46
0.0
 47
0.0
 48
0.0
 49
0.0
140
0.0
141
0.0
142
1.0
143
1.0
 70
   688
 72
     0
 73
     0
 74
     5
  7

 75
    16
 76
     0
 77
     2
 78
   300
147
1.0
148
0.0
149
0.0
100
AcDbLayout
  1
Layout1
 70
     1
 71
     1
 10
0.0
 20
0.0
 11
12.0
 21
9.0
 12
0.0
 22
0.0
 32
0.0
 14
1.000000000000000E+20
 24
1.000000000000000E+20
 34
1.000000000000000E+20
 15
-1.000000000000000E+20
 25
-1.000000000000000E+20
 35
-1.000000000000000E+20
146
0.0
 13
0.0
 23
0.0
 33
0.0
 16
1.0
 26
0.0
 36
0.0
 17
0.0
 27
1.0
 37
0.0
 76
     0
330
1B
  0
LAYOUT
  5
26
102
{ACAD_REACTORS
330
1A
102
}
330
1A
100
AcDbPlotSettings
  1

  2
none_device
  4

  6

 40
0.0
 41
0.0
 42
0.0
 43
0.0
 44
0.0
 45
0.0
 46
0.0
 47
0.0
 48
0.0
 49
0.0
140
0.0
141
0.0
142
1.0
143
1.0
 70
   688
 72
     0
 73
     0
 74
     5
  7

 75
    16
 76
     0
 77
     2
 78
   300
147
1.0
148
0.0
149
0.0
100
AcDbLayout
  1
Layout2
 70
     1
 71
     2
 10
0.0
 20
0.0
 11
0.0
 21
0.0
 12
0.0
 22
0.0
 32
0.0
 14
0.0
 24
0.0
 34
0.0
 15
0.0
 25
0.0
 35
0.0
146
0.0
 13
0.0
 23
0.0
 33
0.0
 16
1.0
 26
0.0
 36
0.0
 17
0.0
 27
1.0
 37
0.0
 76
     0
330
23
  0
LAYOUT
  5
22
102
{ACAD_REACTORS
330
1A
102
}
330
1A
100
AcDbPlotSettings
  1

  2
none_device
  4

  6

 40
0.0
 41
0.0
 42
0.0
 43
0.0
 44
0.0
 45
0.0
 46
0.0
 47
0.0
 48
0.0
 49
0.0
140
0.0
141
0.0
142
1.0
143
1.0
 70
  1712
 72
     0
 73
     0
 74
     0
  7

 75
     0
 76
     0
 77
     2
 78
   300
147
1.0
148
0.0
149
0.0
100
AcDbLayout
  1
Model
 70
     1
 71
     0
 10
0.0
 20
0.0
 11
12.0
 21
9.0
 12
0.0
 22
0.0
 32
0.0
 14
1.000000000000000E+20
 24
1.000000000000000E+20
 34
1.000000000000000E+20
 15
-1.000000000000000E+20
 25
-1.000000000000000E+20
 35
-1.000000000000000E+20
146
0.0
 13
0.0
 23
0.0
 33
0.0
 16
1.0
 26
0.0
 36
0.0
 17
0.0
 27
1.0
 37
0.0
 76
     0
330
1F
331
29
  0
MLINESTYLE
  5
18
102
{ACAD_REACTORS
330
17
102
}
330
17
100
AcDbMlineStyle
  2
Standard
 70
     0
  3

 62
   256
 51
90.0
 52
90.0
 71
     2
 49
0.5
 62
   256
  6
BYLAYER
 49
-0.5
 62
   256
  6
BYLAYER
  0
ACDBPLACEHOLDER
  5
F
102
{ACAD_REACTORS
330
E
102
}
330
E
  0
VISUALSTYLE
  5
2F
102
{ACAD_REACTORS
330
2A
102
}
330
2A
100
AcDbVisualStyle
  2
2dWireframe
 70
     4
 71
     0
 72
     2
 73
     0
 90
        0
 40
-0.6
 41
-30.0
 62
     5
 63
     7
421
 16777215
 74
     1
 91
        4
 64
     7
 65
   257
 75
     1
175
     1
 42
1.0
 92
        0
 66
   257
 43
1.0
 76
     1
 77
     6
 78
     2
 67
     7
 79
     5
170
     0
171
     0
290
     0
174
     0
 93
        1
 44
0.0
173
     0
291
     0
 45
0.0
1001
ACAD
1000
AcDbSavedByObjectVersion
1070
     0
  0
VISUALSTYLE
  5
31
102
{ACAD_REACTORS
330
2A
102
}
330
2A
100
AcDbVisualStyle
  2
3D Hidden
 70
     6
 71
     1
 72
     2
 73
     2
 90
        0
 40
-0.6
 41
-30.0
 62
     5
 63
     7
421
 16777215
 74
     2
 91
        2
 64
     7
 65
   257
 75
     2
175
     1
 42
40.0
 92
        0
 66
   257
 43
1.0
 76
     1
 77
     6
 78
     2
 67
     7
 79
     3
170
     0
171
     0
290
     0
174
     0
 93
        1
 44
0.0
173
     0
291
     0
 45
0.0
1001
ACAD
1000
AcDbSavedByObjectVersion
1070
     0
  0
VISUALSTYLE
  5
30
102
{ACAD_REACTORS
330
2A
102
}
330
2A
100
AcDbVisualStyle
  2
3dWireframe
 70
     5
 71
     0
 72
     2
 73
     0
 90
        0
 40
-0.6
 41
-30.0
 62
     5
 63
     7
421
 16777215
 74
     1
 91
        4
 64
     7
 65
   257
 75
     1
175
     1
 42
1.0
 92
        0
 66
   257
 43
1.0
 76
     1
 77
     6
 78
     2
 67
     7
 79
     5
170
     0
171
     0
290
     0
174
     0
 93
        1
 44
0.0
173
     0
291
     0
 45
0.0
1001
ACAD
1000
AcDbSavedByObjectVersion
1070
     0
  0
VISUALSTYLE
  5
32
102
{ACAD_REACTORS
330
2A
102
}
330
2A
100
AcDbVisualStyle
  2
Basic
 70
     7
 71
     1
 72
     0
 73
     1
 90
        0
 40
-0.6
 41
-30.0
 62
     5
 63
     7
421
 16777215
 74
     0
 91
        4
 64
     7
 65
   257
 75
     1
175
     1
 42
1.0
 92
        8
 66
     7
 43
1.0
 76
     1
 77
     6
 78
     2
 67
     7
 79
     5
170
     0
171
     0
290
     0
174
     0
 93
        1
 44
0.0
173
     0
291
     1
 45
0.0
1001
ACAD
1000
AcDbSavedByObjectVersion
1070
     0
  0
VISUALSTYLE
  5
36
102
{ACAD_REACTORS
330
2A
102
}
330
2A
100
AcDbVisualStyle
  2
Brighten
 70
    12
 71
     2
 72
     2
 73
     0
 90
        0
 40
-0.6
 41
-30.0
 62
     5
 63
     7
421
 16777215
 74
     1
 91
        4
 64
     7
 65
   257
 75
     1
175
     1
 42
1.0
 92
        8
 66
     7
 43
1.0
 76
     1
 77
     6
 78
     2
 67
     7
 79
     5
170
     0
171
     0
290
     0
174
     0
 93
        1
 44
50.0
173
     0
291
     1
 45
0.0
1001
ACAD
1000
AcDbSavedByObjectVersion
1070
     0
  0
VISUALSTYLE
  5
3A
102
{ACAD_REACTORS
330
2A
102
}
330
2A
100
AcDbVisualStyle
  2
ColorChange
 70
    16
 71
     2
 72
     2
 73
     3
 90
        0
 40
-0.6
 41
-30.0
 62
     5
 63
     8
421
  8421504
 74
     1
 91
        4
 64
     7
 65
   257
 75
     1
175
     1
 42
1.0
 92
        8
 66
     8
424
  8421504
 43
1.0
 76
     1
 77
     6
 78
     2
 67
     7
 79
     5
170
     0
171
     0
290
     0
174
     0
 93
        1
 44
0.0
173
     0
291
     1
 45
0.0
1001
ACAD
1000
AcDbSavedByObjectVersion
1070
     0
  0
VISUALSTYLE
  5
34
102
{ACAD_REACTORS
330
2A
102
}
330
2A
100
AcDbVisualStyle
  2
Conceptual
 70
     9
 71
     3
 72
     2
 73
     0
 90
        0
 40
-0.6
 41
-30.0
 62
     5
 63
     7
421
 16777215
 74
     2
 91
        2
 64
     7
 65
   257
 75
     1
175
     1
 42
40.0
 92
        8
 66
     7
 43
1.0
 76
     1
 77
     6
 78
     2
 67
     7
 79
     3
170
     0
171
     0
290
     0
174
     0
 93
        1
 44
0.0
173
     0
291
     0
 45
0.0
1001
ACAD
1000
AcDbSavedByObjectVersion
1070
     0
  0
VISUALSTYLE
  5
35
102
{ACAD_REACTORS
330
2A
102
}
330
2A
100
AcDbVisualStyle
  2
Dim
 70
    11
 71
     2
 72
     2
 73
     0
 90
        0
 40
-0.6
 41
-30.0
 62
     5
 63
     7
421
 16777215
 74
     1
 91
        4
 64
     7
 65
   257
 75
     1
175
     1
 42
1.0
 92
        8
 66
     7
 43
1.0
 76
     1
 77
     6
 78
     2
 67
     7
 79
     5
170
     0
171
     0
290
     0
174
     0
 93
        1
 44
-50.0
173
     0
291
     1
 45
0.0
1001
ACAD
1000
AcDbSavedByObjectVersion
1070
     0
  0
VISUALSTYLE
  5
39
102
{ACAD_REACTORS
330
2A
102
}
330
2A
100
AcDbVisualStyle
  2
Facepattern
 70
    15
 71
     2
 72
     2
 73
     0
 90
        0
 40
-0.6
 41
-30.0
 62
     5
 63
     7
421
 16777215
 74
     1
 91
        4
 64
     7
 65
   257
 75
     1
175
     1
 42
1.0
 92
        8
 66
     7
 43
1.0
 76
     1
 77
     6
 78
     2
 67
     7
 79
     5
170
     0
171
     0
290
     0
174
     0
 93
        1
 44
0.0
173
     0
291
     1
 45
0.0
1001
ACAD
1000
AcDbSavedByObjectVersion
1070
     0
  0
VISUALSTYLE
  5
2B
102
{ACAD_REACTORS
330
2A
102
}
330
2A
100
AcDbVisualStyle
  2
Flat
 70
     0
 71
     2
 72
     1
 73
     1
 90
        2
 40
-0.6
 41
30.0
 62
     5
 63
     7
421
 16777215
 74
     0
 91
        4
 64
     7
 65
   257
 75
     1
175
     1
 42
1.0
 92
        8
 66
     7
 43
1.0
 76
     1
 77
     6
 78
     2
 67
     7
 79
     5
170
     0
171
     0
290
     0
174
     0
 93
       13
 44
0.0
173
     0
291
     1
 45
0.0
1001
ACAD
1000
AcDbSavedByObjectVersion
1070
     0
  0
VISUALSTYLE
  5
2C
102
{ACAD_REACTORS
330
2A
102
}
330
2A
100
AcDbVisualStyle
  2
FlatWithEdges
 70
     1
 71
     2
 72
     1
 73
     1
 90
        2
 40
-0.6
 41
30.0
 62
     5
 63
     7
421
 16777215
 74
     1
 91
        4
 64
     7
 65
   257
 75
     1
175
     1
 42
1.0
 92
        0
 66
   257
 43
1.0
 76
     1
 77
     6
 78
     2
 67
     7
 79
     5
170
     0
171
     0
290
     0
174
     0
 93
       13
 44
0.0
173
     0
291
     1
 45
0.0
1001
ACAD
1000
AcDbSavedByObjectVersion
1070
     0
  0
VISUALSTYLE
  5
2D
102
{ACAD_REACTORS
330
2A
102
}
330
2A
100
AcDbVisualStyle
  2
Gouraud
 70
     2
 71
     2
 72
     2
 73
     1
 90
        2
 40
-0.6
 41
30.0
 62
     5
 63
     7
421
 16777215
 74
     0
 91
        4
 64
     7
 65
   257
 75
     1
175
     1
 42
1.0
 92
        0
 66
     7
 43
1.0
 76
     1
 77
     6
 78
     2
 67
     7
 79
     5
170
     0
171
     0
290
     0
174
     0
 93
       13
 44
0.0
173
     0
291
     1
 45
0.0
1001
ACAD
1000
AcDbSavedByObjectVersion
1070
     0
  0
VISUALSTYLE
  5
2E
102
{ACAD_REACTORS
330
2A
102
}
330
2A
100
AcDbVisualStyle
  2
GouraudWithEdges
 70
     3
 71
     2
 72
     2
 73
     1
 90
        2
 40
-0.6
 41
30.0
 62
     5
 63
     7
421
 16777215
 74
     1
 91
        4
 64
     7
 65
   257
 75
     1
175
     1
 42
1.0
 92
        0
 66
   257
 43
1.0
 76
     1
 77
     6
 78
     2
 67
     7
 79
     5
170
     0
171
     0
290
     0
174
     0
 93
       13
 44
0.0
173
     0
291
     1
 45
0.0
1001
ACAD
1000
AcDbSavedByObjectVersion
1070
     0
  0
VISUALSTYLE
  5
38
102
{ACAD_REACTORS
330
2A
102
}
330
2A
100
AcDbVisualStyle
  2
Linepattern
 70
    14
 71
     2
 72
     2
 73
     0
 90
        0
 40
-0.6
 41
-30.0
 62
     5
 63
     7
421
 16777215
 74
     1
 91
        4
 64
     7
 65
   257
 75
     7
175
     7
 42
1.0
 92
        8
 66
     7
 43
1.0
 76
     1
 77
     6
 78
     2
 67
     7
 79
     5
170
     0
171
     0
290
     0
174
     0
 93
        1
 44
0.0
173
     0
291
     1
 45
0.0
1001
ACAD
1000
AcDbSavedByObjectVersion
1070
     0
  0
VISUALSTYLE
  5
33
102
{ACAD_REACTORS
330
2A
102
}
330
2A
100
AcDbVisualStyle
  2
Realistic
 70
     8
 71
     2
 72
     2
 73
     0
 90
        0
 40
-0.6
 41
-30.0
 62
     5
 63
     7
421
 16777215
 74
     1
 91
        0
 64
     7
 65
   257
 75
     1
175
     1
 42
1.0
 92
        8
 66
     8
424
  7895160
 43
1.0
 76
     1
 77
     6
 78
     2
 67
     7
 79
     5
170
     0
171
     0
290
     0
174
     0
 93
       13
 44
0.0
173
     0
291
     0
 45
0.0
1001
ACAD
1000
AcDbSavedByObjectVersion
1070
     0
  0
VISUALSTYLE
  5
37
102
{ACAD_REACTORS
330
2A
102
}
330
2A
100
AcDbVisualStyle
  2
Thicken
 70
    13
 71
     2
 72
     2
 73
     0
 90
        0
 40
-0.6
 41
-30.0
 62
     5
 63
     7
421
 16777215
 74
     1
 91
        4
 64
     7
 65
   257
 75
     1
175
     1
 42
1.0
 92
       12
 66
     7
 43
1.0
 76
     1
 77
     6
 78
     2
 67
     7
 79
     5
170
     0
171
     0
290
     0
174
     0
 93
        1
 44
0.0
173
     0
291
     1
 45
0.0
1001
ACAD
1000
AcDbSavedByObjectVersion
1070
     0
  0
ENDSEC
  0
EOF
