<?xml version="1.0" encoding="utf-8"?>
<!-- Generator: Adobe Illustrator 16.0.0, SVG Export Plug-In . SVG Version: 6.00 Build 0)  -->
<!DOCTYPE svg PUBLIC "-//W3C//DTD SVG 1.1//EN" "http://www.w3.org/Graphics/SVG/1.1/DTD/svg11.dtd">
<svg version="1.1" id="Layer_1" xmlns="http://www.w3.org/2000/svg" xmlns:xlink="http://www.w3.org/1999/xlink" x="0px" y="0px"
	 width="595.2803px" height="841.8901px" viewBox="0 0 595.2803 841.8901" enable-background="new 0 0 595.2803 841.8901"
	 xml:space="preserve">
<g>
	<path fill-rule="evenodd" clip-rule="evenodd" d="M236.4492,440.77h73.9473h20.501h27.7617v-67.957h-27.7617h-20.4971h-73.9512
		C236.4492,386.5737,236.4492,439.8921,236.4492,440.77L236.4492,440.77z M406.1455,374.4834
		c-17.8389,0-32.3086,14.4692-32.3086,32.3081c0,17.8398,14.4697,32.3164,32.3086,32.3164
		c17.8398,0,32.3125-14.4766,32.3125-32.3164C438.458,388.9526,423.9854,374.4834,406.1455,374.4834L406.1455,374.4834z
		 M406.1455,380.8242c-3.6641,0-7.1514,0.7651-10.3145,2.1338l2.5264,4.377l-5.165,2.9819l-2.5264-4.373
		c-5.6094,4.1733-9.4775,10.5596-10.3145,17.8657h5.0479l0.0039,5.9644h-5.0518c0.8369,7.3057,4.7051,13.6924,10.3184,17.8652
		l2.5225-4.373l5.165,2.9863l-2.5264,4.373c3.1631,1.3721,6.6504,2.1377,10.3145,2.1377c3.668,0,7.1553-0.7656,10.3184-2.1377
		l-2.5225-4.373l5.1582-2.9824l2.5254,4.3691c5.6094-4.1689,9.4775-10.5557,10.3184-17.8652h-5.0479v-5.9604h5.0479
		c-0.833-7.3101-4.709-13.6963-10.3184-17.8696l-2.5254,4.3691l-5.1582-2.978l2.5264-4.377
		C413.3008,381.5859,409.8135,380.8242,406.1455,380.8242L406.1455,380.8242z M189.3721,374.4834
		c17.8428,0,32.312,14.4692,32.312,32.3081c0,17.8398-14.4692,32.3164-32.312,32.3164c-17.8394,0-32.3086-14.4766-32.3086-32.3164
		C157.0635,388.9526,171.5327,374.4834,189.3721,374.4834L189.3721,374.4834z M189.3721,380.8242
		c3.668,0,7.1553,0.7651,10.3184,2.1338l-2.5278,4.377l5.1646,2.9819l2.5278-4.373c5.6079,4.1733,9.4761,10.5596,10.313,17.8657
		h-5.0498v5.9644h5.0498c-0.8369,7.3057-4.7051,13.6924-10.3145,17.8652l-2.5264-4.373l-5.1646,2.9863l2.5278,4.373
		c-3.1631,1.3721-6.6504,2.1377-10.3184,2.1377c-3.6646,0-7.1499-0.7656-10.3203-2.1377l2.5259-4.373l-5.1611-2.9824l-2.522,4.3691
		c-5.6113-4.1689-9.4795-10.5557-10.3203-17.8652h5.0498v-5.9604h-5.0498c0.8369-7.3101,4.709-13.6963,10.3184-17.8696
		l2.5239,4.3691l5.165-2.978l-2.5298-4.377C182.2148,381.5859,185.7075,380.8242,189.3721,380.8242L189.3721,380.8242z
		 M355.7637,381.2881c-4.0859,7.5928-6.4082,16.2788-6.4082,25.5034c0,9.2251,2.3223,17.9072,6.4082,25.5039V381.2881
		L355.7637,381.2881z M239.3257,375.7388h64.4731c2.9258,9.8545,4.5059,20.271,4.5059,31.0493
		c0,10.7817-1.5801,21.1978-4.5059,31.0571h-64.4731V375.7388L239.3257,375.7388z M406.1455,372.1235
		c-19.1436,0-34.668,15.5244-34.668,34.668s15.5244,34.6758,34.668,34.6758s34.6719-15.5322,34.6719-34.6758
		S425.2891,372.1235,406.1455,372.1235L406.1455,372.1235z M189.3721,372.1235c19.1455,0,34.6719,15.5244,34.6719,34.668
		s-15.5264,34.6758-34.6719,34.6758c-19.1421,0-34.6685-15.5322-34.6685-34.6758S170.23,372.1235,189.3721,372.1235
		L189.3721,372.1235z M98.4976,316.147l-6.1807-0.0146c-3.3364,11.0308-5.4175,17.9561-8.021,27.0566l6.1831,0.0264l1.1895-4.1582
		l7.0835,0.0225l1.1689,4.1699l6.1846,0.0186L98.4976,316.147L98.4976,316.147z M95.2441,326.5708l1.8301,6.5337l-3.7002-0.0112
		L95.2441,326.5708L95.2441,326.5708z M116.582,343.0044h383.7139v1.376H116.582V343.0044L116.582,343.0044z M116.582,322.8086
		h383.7139v1.3726H116.582V322.8086L116.582,322.8086z M92.7051,299.3711h410.1055c9.4023,0,17.0898,8.1353,17.0898,18.0352
		v153.1313c0,9.9072-7.6992,18.0391-17.0898,18.0391H92.7051c-9.3872,0-17.0913-8.1162-17.0913-18.0391V317.4063
		C75.6138,307.4878,83.3047,299.3711,92.7051,299.3711L92.7051,299.3711z M146.8921,360.1196H448.625
		c4.9502,0,8.9951,4.2793,8.9951,9.4966v74.355c0,5.2207-4.0488,9.4922-8.9951,9.4922H146.8921
		c-4.9458,0-8.9946-4.2715-8.9946-9.4922v-74.355C137.8975,364.3911,141.9424,360.1196,146.8921,360.1196L146.8921,360.1196z
		 M305.8203,532.5005c5.1377-3.4189,6.5371-10.3525,3.1211-15.4912c-3.416-5.1377-10.3525-6.5332-15.4907-3.1211
		c-5.1421,3.416-6.5371,10.3525-3.1196,15.4902C293.7505,534.5171,300.6777,535.9087,305.8203,532.5005L305.8203,532.5005z
		 M66.4531,278.8062c4.9575,1.3418,7.8828,6.4541,6.5371,11.4038c-1.3477,4.9536-6.46,7.8794-11.4136,6.5332
		c-4.9502-1.3496-7.8716-6.4541-6.5278-11.4077C56.3931,280.3853,61.501,277.4565,66.4531,278.8062L66.4531,278.8062z
		 M67.1919,281.064l-0.8579,5.3799l5.0767,1.9829c-0.0415,0.4297-0.1172,0.8633-0.2339,1.293
		c-0.1152,0.4302-0.2715,0.8408-0.4541,1.229l-5.3799-0.8594l-1.9795,5.0742c-0.4297-0.0415-0.8613-0.1128-1.293-0.2261
		c-0.4297-0.1206-0.8369-0.2715-1.2271-0.4561l0.8579-5.3799l-5.0708-1.9868c0.0356-0.4258,0.1094-0.8555,0.2241-1.2891
		c0.1172-0.4263,0.2715-0.8369,0.4546-1.2256l5.3833,0.856l1.9814-5.0781c0.4331,0.0376,0.8594,0.1167,1.2871,0.2378
		C66.3926,280.7285,66.8018,280.8833,67.1919,281.064L67.1919,281.064z M538.5156,281.6748
		c-3.3701-3.8755-9.2441-4.2866-13.1113-0.916c-3.876,3.3701-4.2832,9.2437-0.916,13.1157
		c3.3701,3.8716,9.2402,4.2788,13.1152,0.9121C541.4785,291.4204,541.8867,285.5464,538.5156,281.6748L538.5156,281.6748z
		 M536.1602,281.9917l-4.4678,3.1177l-4-3.7021c-0.3691,0.2188-0.7275,0.4751-1.0596,0.7651
		c-0.3389,0.2905-0.6406,0.6147-0.9082,0.9502l3.1133,4.4634l-3.7012,3.9927c0.2217,0.3691,0.4707,0.7314,0.7646,1.063
		c0.2939,0.3394,0.6113,0.6411,0.9463,0.9126l4.4678-3.1182l3.9961,3.7021c0.3691-0.2188,0.7236-0.4751,1.0635-0.7651
		c0.335-0.2905,0.6367-0.6108,0.9082-0.9463l-3.1182-4.4673l3.71-4c-0.2266-0.3657-0.4785-0.7202-0.7725-1.0557
		C536.8115,282.5645,536.4912,282.2632,536.1602,281.9917L536.1602,281.9917z M533.9395,560.1489
		c-4.958,1.3467-10.0664-1.5791-11.4121-6.5371c-1.3418-4.9531,1.584-10.0576,6.541-11.4072
		c4.9502-1.3428,10.0625,1.583,11.4004,6.5371C541.8184,553.6948,538.8887,558.8032,533.9395,560.1489L533.9395,560.1489z
		 M532.1602,558.5737l-1.9834-5.0781l-5.3838,0.8555c-0.1807-0.3887-0.3389-0.7988-0.4521-1.2285
		c-0.1133-0.4307-0.1885-0.8604-0.2295-1.29l5.0703-1.9824l-0.8525-5.376c0.3887-0.1855,0.7998-0.3359,1.2256-0.457
		c0.4336-0.1162,0.8633-0.1914,1.293-0.2295l1.9834,5.0742l5.376-0.8594c0.1846,0.3916,0.3389,0.7988,0.46,1.2295
		c0.1123,0.4297,0.1885,0.8633,0.2217,1.293l-5.0703,1.9785l0.8555,5.3838c-0.3916,0.1885-0.7988,0.3359-1.2285,0.4482
		C533.0156,558.4526,532.5898,558.5356,532.1602,558.5737L532.1602,558.5737z M61.0845,559.9985
		c4.8672,1.6211,10.1318-1.0146,11.749-5.8848c1.625-4.8711-1.0103-10.1377-5.8789-11.7549
		c-4.8745-1.6211-10.1357,1.0137-11.7568,5.8848C53.5747,553.1108,56.2119,558.3774,61.0845,559.9985L61.0845,559.9985z
		 M62.9507,558.521l2.2642-4.9541l5.3208,1.1572c0.2036-0.377,0.3848-0.7842,0.5244-1.2021
		c0.1392-0.4268,0.2334-0.8525,0.2993-1.2744l-4.9536-2.2695l1.1558-5.3193c-0.377-0.2041-0.7788-0.3809-1.2007-0.5205
		c-0.4224-0.1436-0.8486-0.2412-1.2725-0.3018l-2.2676,4.9541l-5.3193-1.1543c-0.2056,0.3779-0.3848,0.7773-0.5244,1.1992
		c-0.1411,0.4189-0.2412,0.8486-0.3052,1.2744l4.9595,2.2656l-1.1592,5.3232c0.3789,0.207,0.7803,0.377,1.2046,0.5205
		C62.0947,558.3589,62.521,558.4604,62.9507,558.521L62.9507,558.521z M305.8047,529.6392l-3.0234-5.8096l5.0293-4.1885
		c-0.2041-0.4717-0.4521-0.9424-0.7461-1.3877c-0.2988-0.4404-0.626-0.8516-0.9883-1.2246l-5.8096,3.0195l-4.1807-5.0332
		c-0.479,0.208-0.9424,0.457-1.3892,0.7471c-0.4429,0.3018-0.854,0.6328-1.2271,0.9912l3.0195,5.8096l-5.0327,4.1846
		c0.209,0.4707,0.4541,0.9385,0.75,1.3838c0.2959,0.4443,0.6294,0.8555,0.9819,1.2246l5.8154-3.0195l4.1885,5.0371
		c0.4707-0.2041,0.9307-0.4521,1.3799-0.751C305.0205,530.3257,305.4277,529.9976,305.8047,529.6392L305.8047,529.6392z
		 M64.8394,271.5112h465.8384c9.3984,0,17.082,8.1167,17.082,18.0352v264.5674c0,9.915-7.6836,18.0313-17.082,18.0313
		c-155.2793,0-310.5601,0-465.8384,0c-9.3965,0-17.0796-8.1162-17.0796-18.0313V289.5464
		C47.7598,279.6279,55.4429,271.5112,64.8394,271.5112L64.8394,271.5112z M365.7998,541.1001h7.1172
		c2.9404,0,5.3428,2.4014,5.3428,5.3379v7.1172c0,2.9375-2.4023,5.3428-5.3428,5.3428h-7.1172
		c-2.9404,0-5.3389-2.4053-5.3389-5.3428v-7.1211C360.4609,543.5015,362.8594,541.1001,365.7998,541.1001L365.7998,541.1001z
		 M422.5527,565.0728c5.5938,1.8623,11.6377-1.165,13.5039-6.7598c1.8623-5.5947-1.1689-11.6416-6.7598-13.5
		c-5.5986-1.8584-11.6416,1.1689-13.5,6.7598C413.9346,557.1675,416.9619,563.2104,422.5527,565.0728L422.5527,565.0728z
		 M222.5986,541.1001h7.1211c2.9385,0,5.3384,2.4014,5.3384,5.3379v7.1172c0,2.9375-2.3999,5.3428-5.3384,5.3428h-7.1211
		c-2.937,0-5.3403-2.4053-5.3403-5.3428v-7.1211C217.2583,543.5015,219.6616,541.1001,222.5986,541.1001L222.5986,541.1001z
		 M166.2188,565.0728c5.5967,1.8623,11.6436-1.165,13.502-6.7598c1.8608-5.5947-1.1646-11.6416-6.7573-13.5
		c-5.5947-1.8584-11.6377,1.1689-13.5039,6.7598C157.6006,557.1675,160.6279,563.2104,166.2188,565.0728L166.2188,565.0728z
		 M472.4209,568.8198l-19.7764-73.8193h-309.769l-19.7808,73.8193l22.6099-70.1318h304.1079l18.7939,70.1318H472.4209
		L472.4209,568.8198z"/>
</g>
</svg>
